<?xml version="1.0" encoding="utf-8"?>
<!-- Generator: Adobe Illustrator 24.0.1, SVG Export Plug-In . SVG Version: 6.00 Build 0)  -->
<svg version="1.1" id="Camada_1" xmlns="http://www.w3.org/2000/svg" xmlns:xlink="http://www.w3.org/1999/xlink" x="0px" y="0px"
	 viewBox="0 0 436 337" style="enable-background:new 0 0 436 337;" xml:space="preserve">
<style type="text/css">
	.st0{fill:#1774BA;}
	.st1{opacity:0.6;fill:#FFFFFF;enable-background:new    ;}
	.st2{fill:#FFFFFF;}
	.st3{fill:#2D353A;}
	.st4{fill:#B87964;}
	.st5{opacity:0.2;enable-background:new    ;}
	.st6{fill:#A14F40;}
	.st7{fill:#DD5853;}
	.st8{fill:#263238;}
	.st9{fill:#E3887B;}
	.st10{opacity:0.4;fill:#FFFFFF;enable-background:new    ;}
	.st11{fill:#EDC0BA;}
	.st12{fill:#D4817D;}
	.st13{opacity:0.3;enable-background:new    ;}
	.st14{opacity:0.3;fill:#FFFFFF;enable-background:new    ;}
	.st15{fill:#EAB276;}
	.st16{opacity:0.1;enable-background:new    ;}
	.st17{opacity:0.2;fill:#FFFFFF;enable-background:new    ;}
	.st18{fill:#5770B4;}
	.st19{opacity:0.5;fill:#FFFFFF;enable-background:new    ;}
	.st20{fill:#D48644;}
	.st21{opacity:0.6;fill:#1774BA;enable-background:new    ;}
</style>
<polygon id="elzrss9d5p98o" class="st0" points="156.7,105.7 173.1,114.2 156.7,110 "/>
<g id="elpqe4ehkov6k">
	<polygon id="elod0nigclpro" class="st1" points="156.7,105.7 173.1,114.2 156.7,110 	"/>
</g>
<path id="elrotckzgxe3" class="st0" d="M28.4,75.1h123.6c3.1,0,5.6,2.5,5.6,5.6v37.5c0,3.1-2.5,5.6-5.6,5.6H28.4
	c-3.1,0-5.6-2.5-5.6-5.6V80.7C22.9,77.6,25.4,75.1,28.4,75.1z"/>
<g id="elmjcbq5l08h">
	<path id="el9qipg6h5seq" class="st1" d="M28.4,75.1h123.6c3.1,0,5.6,2.5,5.6,5.6v37.5c0,3.1-2.5,5.6-5.6,5.6H28.4
		c-3.1,0-5.6-2.5-5.6-5.6V80.7C22.9,77.6,25.4,75.1,28.4,75.1z"/>
</g>
<path id="elny6ama7vlfm" class="st0" d="M144.4,94.6H77.6c-0.7,0-1.2-0.6-1.2-1.2l0,0c0-0.7,0.6-1.2,1.2-1.2h66.8
	c0.7,0,1.2,0.6,1.2,1.2l0,0C145.6,94,145.1,94.6,144.4,94.6z"/>
<path id="elknhl4c90i9k" class="st0" d="M109.4,82.8H78.1c-1,0-1.8,0.8-1.8,1.8c0,1,0.8,1.8,1.8,1.8h31.3c1,0,1.8-0.8,1.8-1.8
	C111.2,83.6,110.4,82.8,109.4,82.8z"/>
<path id="elc5vwk2dyi7k" class="st0" d="M134.5,99.6H78.8c-1.3,0-2.4-0.5-2.5-1.2l0,0c0-0.7,1.1-1.2,2.5-1.2l0,0h55.7
	c1.3,0,2.4,0.5,2.4,1.2c0,0,0,0,0,0l0,0C136.9,99.1,135.8,99.6,134.5,99.6z"/>
<path id="elny6ama7vlfm_1_" class="st0" d="M126.9,107.5H77.2c-0.5,0-0.9-0.6-0.9-1.2l0,0c0-0.7,0.4-1.2,0.9-1.2h49.6
	c0.5,0,0.9,0.6,0.9,1.2l0,0C127.8,107,127.4,107.5,126.9,107.5z"/>
<path id="elc5vwk2dyi7k_1_" class="st0" d="M105.6,112.6h-28c-0.7,0-1.2-0.5-1.2-1.2l0,0c0-0.7,0.6-1.2,1.2-1.2l0,0h28
	c0.7,0,1.2,0.5,1.2,1.2c0,0,0,0,0,0l0,0C106.8,112,106.2,112.6,105.6,112.6z"/>
<path id="elaz8y1ydozw" class="st2" d="M64.1,85.6v27.6c0,1.6-1.3,2.8-2.8,2.8H33.7c-0.2,0-0.5,0-0.7-0.1l0,0h-0.1
	c-0.2-0.1-0.4-0.2-0.6-0.3c-0.9-0.5-1.4-1.4-1.4-2.5V85.6c0-1.6,1.3-2.8,2.8-2.8h27.6C62.9,82.8,64.1,84.1,64.1,85.6z"/>
<path id="el50kmzukzv5i" class="st3" d="M62.3,100.5c-0.7,4.7-3.7,6.2-3.6,7.6c0.1,0.7,0.7,1.9,1.2,3.6c0,0.1,0.1,0.3,0.1,0.5
	c0.1,0.6,0.2,1.2,0.2,1.8c0,0.7,0,1.4-0.2,2.2H33.7c-0.2,0-0.5,0-0.7-0.1l0,0h-0.1c-0.2-0.1-0.4-0.2-0.6-0.3
	c-0.9-0.5-1.4-1.4-1.4-2.4v-5c0.8-0.9,1.7-1.7,2.7-2.4c4.1-3.1,1.6-4.9,1.1-7c-0.5-2.1-3-6.3-1-10.2s4.3-4,4.3-4
	c0-0.7,0.2-1.4,0.6-2c3.2-4.7,17.4-3.8,19.9,0c0.1,0.1,0.2,0.3,0.2,0.4c1.9,4.6-0.5,7.3,0,9.4C59.3,94.7,63.1,95.8,62.3,100.5z"/>
<path id="elp3j8p32yni" class="st0" d="M33,115.9L33,115.9L33,115.9c-0.3-0.1-0.5-0.2-0.7-0.3c0.2-0.4,0.4-0.6,0.4-0.6L33,115.9z"/>
<path id="el46en5vxftkp" class="st0" d="M64.1,112.1v1.2c0,1.6-1.3,2.8-2.8,2.8H33.7c-0.2,0-0.5,0-0.7-0.1l0,0l-0.3-0.9l1.2-0.4
	c1.7-0.5,3.4-1,5.2-1.3c1.2-0.3,2.5-0.5,3.7-0.7l1.4-0.2l0,0l0.8-0.1c2.4-0.4,4.8-0.6,7.3-0.7l1.6-0.1h1.3c1.7,0,3.4,0.1,4.9,0.2
	h0.3c2.2,0.1,3.7,0.3,3.7,0.3S64.1,112,64.1,112.1z"/>
<path id="eltokf93knfha" class="st3" d="M64.1,112.1v1.2c0,1.6-1.3,2.8-2.8,2.8H33.7c-0.2,0-0.5,0-0.7-0.1l0,0l-0.3-0.9l1.2-0.4
	c1.7-0.5,3.4-1,5.2-1.3c1.2-0.3,2.5-0.5,3.7-0.7l1.4-0.2l0,0l0.8-0.1c2.4-0.4,4.8-0.6,7.3-0.7l1.6-0.1h1.3c1.7,0,3.4,0.1,4.9,0.2
	h0.3c2.2,0.1,3.7,0.3,3.7,0.3S64.1,112,64.1,112.1z"/>
<path id="els7yfgg99ql" class="st4" d="M52.7,116h-4.6c-3.1-1.1-4.1-2.5-4.1-2.5c0.4-0.4,0.7-0.8,1-1.2v0c1.3-2.3,0.8-5,0.3-6.8l0,0
	c-0.2-0.6-0.4-1.2-0.7-1.7l0,0l0,0l7.2,1.4c0,0.3-0.1,0.6-0.1,0.9c0,0.3-0.1,0.7-0.1,1.1v0.5c0,0.2,0,0.5,0,0.7
	c-0.1,1.1,0.1,2.3,0.6,3.3l0.1,0.1c0.2,0.5,0.7,0.9,1.3,1C54,113.8,53.7,115.2,52.7,116z"/>
<g id="elmw1go2e14">
	<path id="elgfkfr38pmu6" class="st5" d="M51.8,105c-0.2,1-0.3,2-0.3,3c-3-0.1-5.6-1.8-7-4.4L51.8,105z"/>
</g>
<path id="elh5k1prkrroe" class="st4" d="M47.8,84.8c6.3-0.3,8.5,2.9,9.3,9.4c1,8.1-0.5,13.9-8.4,12.6C37.9,105,37.4,85.3,47.8,84.8z
	"/>
<path id="elmefv914tif9" class="st6" d="M53.1,94c0.6,0.9,1.2,1.8,2,2.5c-0.3,0.5-1,0.9-1.6,0.8L53.1,94z"/>
<path id="el9yfigcem3wu" class="st3" d="M49.2,93.7c0,0.5-0.2,1-0.6,1s-0.6-0.4-0.7-0.9s0.2-1,0.6-1C48.9,92.8,49.1,93.2,49.2,93.7z
	"/>
<path id="eliu0qjy06vv9" class="st3" d="M48.4,92.9l1.1-0.5C49.4,92.3,49,93.3,48.4,92.9z"/>
<path id="ela9p1avqew6j" class="st3" d="M55.6,93.1c0,0.5-0.2,1-0.6,1c-0.3,0-0.7-0.4-0.7-0.9c0-0.5,0.2-1,0.6-1
	S55.6,92.6,55.6,93.1z"/>
<path id="elk914x2onoc" class="st3" d="M54.8,92.2l1.1-0.5C55.9,91.7,55.4,92.7,54.8,92.2z"/>
<path id="elj2g4h2p94eo" class="st3" d="M46.2,90.8c-0.1,0-0.1,0-0.2-0.1c-0.2-0.1-0.2-0.3-0.1-0.5c0.7-0.9,1.9-1.3,3-1.2
	c0.2,0,0.3,0.2,0.3,0.4c0,0,0,0,0,0c0,0.2-0.2,0.3-0.4,0.3c0,0,0,0,0,0c-0.9,0-1.8,0.3-2.4,1C46.4,90.8,46.3,90.8,46.2,90.8z"/>
<path id="el2fddx3dmthu" class="st3" d="M56,89.6c-0.1,0-0.1,0-0.2,0c-0.6-0.4-1.5-0.6-2.2-0.4c-0.2,0.1-0.4,0-0.5-0.2
	c-0.1-0.2,0-0.4,0.2-0.5c1-0.3,2-0.2,2.9,0.4c0.2,0.1,0.2,0.3,0.1,0.5C56.2,89.6,56.1,89.6,56,89.6L56,89.6z"/>
<path id="el1pcfzp565wu" class="st3" d="M52.7,99.9c-0.3,0.7-0.5,1.5-0.6,2.2h-0.4c-1.8-0.1-2.7-0.7-3-1.4c-0.2-0.3-0.3-0.7-0.2-1.1
	c0-0.2,0-0.4,0.1-0.6c1.1,0.6,2.3,0.9,3.6,0.9C52.4,99.9,52.7,99.9,52.7,99.9z"/>
<path id="el0tu48d31d4yr" class="st2" d="M52,99.8l-0.2,0.7c-1.7-0.1-3-0.4-3.5-0.9c0-0.2,0-0.4,0.1-0.6
	C49.6,99.5,50.8,99.8,52,99.8z"/>
<path id="el6npalyzjb38" class="st7" d="M51.6,102.1c-1.8-0.1-2.7-0.7-3-1.4c0.7,0,1.4,0.2,2,0.5C51.1,101.3,51.4,101.7,51.6,102.1z
	"/>
<path id="elpqhx7m1g71e" class="st3" d="M41.5,95.7c0,0,2.7-5.3,2-9.3c0,0,12.2-5.8,13.5,6.9c0,0,0.6-11.3-10.2-11
	c-10.8,0.4-10,16.2-4.1,20.6C42.7,102.9,39.9,99.1,41.5,95.7z"/>
<path id="elzfsexov990d" class="st4" d="M42.6,97c-0.2-1.5-1.6-2.6-3.1-2.4c-1.9,0.3-2.6,4.4,2.3,5.1C42.5,99.8,42.8,99.1,42.6,97z"
	/>
<path id="elrgl6yd79ba" class="st4" d="M60.9,112.3c-0.2,0.5-0.4,1-0.6,1.4l0,0l-0.1,0.1c-0.4,0.8-0.8,1.5-1.3,2.2H41
	c-0.3-0.2-0.7-0.4-0.9-0.6c-1.1-0.7-1.7-1.2-1.7-1.2l1-0.4c1.6-0.6,3.2-1,4.8-1.4l0,0c0.3-0.1,0.5-0.1,0.8-0.2
	c2.4-0.5,4.8-0.8,7.2-0.8c1,0,2,0,2.9,0.1c1.7,0.1,3.3,0.3,5,0.6c0.1,0,0.1,0,0.2,0C60.7,112.2,60.9,112.3,60.9,112.3z"/>
<path id="elpbgnmb4kmq" class="st0" d="M40.4,116h-6.6c-0.2,0-0.5,0-0.7-0.1l0,0h-0.1c-0.1-0.3-0.1-0.6-0.2-0.8l1.2-0.4l5-1.6
	c0,0,0,0.1,0.1,0.2l0.2,0.5c0.2,0.4,0.4,0.9,0.7,1.6L40.4,116z"/>
<path id="el04vm0v3v3h0v" class="st0" d="M64.1,111.8v1.4c0,1.6-1.3,2.8-2.8,2.8h-0.9c0-0.8-0.1-1.6-0.1-2.3l0,0c0-0.7,0-1.2,0-1.6
	c0-0.2,0-0.4,0-0.5v-0.2L64.1,111.8z"/>
<path id="elddx57ywyy3s" class="st3" d="M57.5,93.4L57.5,93.4C56.4,93,56,92,55.7,90.9c-0.5-1.5-1.1-3.3-3.4-4.2c-4-1.6-8.6,0-8.6,0
	c-0.1,0-0.3,0-0.3-0.2c0-0.1,0-0.3,0.2-0.3c0,0,0,0,0,0c0.2-0.1,4.8-1.6,9,0c2.5,1,3.2,2.9,3.7,4.5c0.4,1.1,0.6,1.9,1.4,2.2
	c0.1,0,0.2,0.2,0.1,0.3c0,0,0,0,0,0C57.6,93.3,57.5,93.4,57.5,93.4z"/>
<polygon id="elajfnuigkkhd" class="st0" points="226.8,49.1 219.2,74.3 232.2,49.1 "/>
<g id="elsilwea98mjt">
	<polygon id="elwrs6yeub4h" class="st1" points="226.8,49.1 219.2,74.3 232.2,49.1 	"/>
</g>
<path id="elu35ac0am2la" class="st0" d="M196.5,1.5h123.6c3.1,0,5.6,2.5,5.6,5.6v37.5c0,3.1-2.5,5.6-5.6,5.6H196.5
	c-3.1,0-5.6-2.5-5.6-5.6V7.1C190.9,4,193.4,1.5,196.5,1.5z"/>
<g id="el7gncivbor28">
	<path id="elywcmbmjr94c" class="st1" d="M196.5,1.5h123.6c3.1,0,5.6,2.5,5.6,5.6v37.5c0,3.1-2.5,5.6-5.6,5.6H196.5
		c-3.1,0-5.6-2.5-5.6-5.6V7.1C190.9,4,193.4,1.5,196.5,1.5z"/>
</g>
<path id="elnhp7n1xoeu" class="st0" d="M292.9,21h-48.7c-0.5,0-0.9-0.5-0.9-1.2c0,0,0,0,0,0l0,0c0-0.7,0.4-1.2,0.9-1.2c0,0,0,0,0,0
	h48.7c0.5,0,0.9,0.5,0.9,1.2c0,0,0,0,0,0l0,0C293.8,20.5,293.4,21,292.9,21C292.9,21,292.9,21,292.9,21z"/>
<path id="el4l37960c59q" class="st0" d="M276.4,9.2h-31.3c-1-0.1-1.8,0.7-1.9,1.6c-0.1,1,0.7,1.8,1.6,1.9c0.1,0,0.2,0,0.3,0h31.3
	c1,0.1,1.8-0.7,1.9-1.6s-0.7-1.8-1.6-1.9C276.6,9.2,276.5,9.2,276.4,9.2z"/>
<path id="elmwnk1sqnzqe" class="st0" d="M292.7,26.1c-16.1,0-32.3,0-48.4-0.1c-0.5-0.2-0.9-0.7-0.8-1.2c0-0.6,0.4-1.1,1-1.2
	c16,0,32,0.1,48,0.1c0.8-0.1,1.4,0.4,1.5,1.1C293.9,25.5,293.4,26.1,292.7,26.1z"/>
<path id="elnhp7n1xoeu_1_" class="st0" d="M292.9,34.9h-48.7c-0.5,0-0.9-0.5-0.9-1.2c0,0,0,0,0,0l0,0c0-0.7,0.4-1.2,0.9-1.2
	c0,0,0,0,0,0h48.7c0.5,0,0.9,0.5,0.9,1.2c0,0,0,0,0,0l0,0C293.8,34.4,293.4,34.9,292.9,34.9C292.9,34.9,292.9,34.9,292.9,34.9z"/>
<path id="elmwnk1sqnzqe_1_" class="st0" d="M292.7,40.1c-16.1,0-32.3,0-48.4-0.1c-0.5-0.2-0.9-0.7-0.8-1.2c0-0.6,0.4-1.1,1-1.2
	c16,0,32,0.1,48,0.1c0.8-0.1,1.4,0.4,1.5,1.1C293.9,39.4,293.4,40,292.7,40.1z"/>
<path id="el87tgjsmn9sg" class="st2" d="M232.2,12.2v27.6c0,0.5-0.1,0.9-0.3,1.3c-0.1,0.1-0.1,0.2-0.2,0.3c-0.5,0.7-1.4,1.2-2.3,1.2
	h-27.6c-0.2,0-0.5,0-0.7-0.1l0,0H201c-0.2-0.1-0.4-0.2-0.6-0.3c-0.1-0.1-0.2-0.1-0.4-0.2c-0.7-0.5-1.1-1.3-1.1-2.2V12.2
	c0-1.6,1.3-2.8,2.8-2.8h27.5C230.9,9.3,232.2,10.6,232.2,12.2C232.2,12.2,232.2,12.2,232.2,12.2z"/>
<g id="freepik--group--inject-15">
	<path id="el2qtnk8hcw9z" class="st8" d="M231.7,41.2c-0.5,0.8-1.4,1.2-2.3,1.2h-11.5c-1.7,0.2-3.5,0.2-5.2,0h-10.9
		c-0.2,0-0.5,0-0.7-0.1l0,0H201c-0.2-0.1-0.4-0.2-0.6-0.3c-0.1-0.1-0.2-0.1-0.4-0.2c1.4-0.3,2.9-0.6,4.6-0.8
		c0.9-0.1,1.9-0.3,2.8-0.4l0,0c5-0.6,9.9-1,14.9-1.1l0,0c0.6,0,1.2,0.1,1.8,0.1c1.6,0.1,3,0.2,4.3,0.4h0.2h0.2h0.1
		C230,40.2,230.9,40.7,231.7,41.2z"/>
	<path id="elw4p550svhz9" class="st8" d="M224.9,11.6c0,0,2.3,7.2-1.8,11.4s-7-12.4-7-12.4L224.9,11.6z"/>
	<path id="elgl258nsefxu" class="st9" d="M218.5,42.4l-0.6,0.1c-1.7,0.2-3.5,0.2-5.2,0c-1.9-0.1-3.7-0.8-5.2-1.9l0,0l0,0
		c1.8-2,2.1-5.9,1.7-9.6c0,0,0,0,0-0.1c0-0.1,0-0.3,0-0.4c0-0.1-0.1-0.5-0.1-0.8c0-0.3-0.1-0.5-0.1-0.8c-0.1-0.5-0.2-0.9-0.2-1.4
		c-0.2-1.2-0.5-2.3-0.7-3.3c0-0.2-0.1-0.3-0.1-0.5l0.2,0.1l2.4,1.8l7.1,5.3c0,0.2-0.1,0.3-0.1,0.5c-0.1,0.4-0.1,0.9-0.2,1.3
		c-0.1,0.8,0,1.6,0.1,2.3c0,0.3,0.1,0.7,0.2,1c0.1,0.4,0.3,0.8,0.5,1.1c1,1.4,2.5,2.3,4.3,2.5l0,0C223.4,41,218.5,42.4,218.5,42.4z"
		/>
	<g id="el77c9m28vf5f">
		<path id="elfgjiesaw4u" class="st5" d="M218.1,37.1c-4.1-0.7-7.6-3.5-9.1-7.5c-0.1-0.3-0.2-0.6-0.3-0.9l0.2,0.1l8.6,2.5
			c-0.1,0.4-0.1,0.9-0.2,1.3c-0.1,1.1,0,2.2,0.3,3.3C217.7,36.3,217.9,36.7,218.1,37.1z"/>
	</g>
	<path id="elg0jjsj03kwm" class="st9" d="M210.4,32.5c2.6,2.7,6.6,3.3,9.9,1.6c2.1-1.1,3.7-2.9,4.5-5.1c0.1-0.3,0.2-0.6,0.3-0.9
		c1.4-5.9,0.5-15.6-5.9-18.2c-4.6-1.9-9.8,0.3-11.7,4.9c-0.5,1.3-0.8,2.7-0.6,4.1C207.2,25.3,207.1,29.1,210.4,32.5z"/>
	<path id="el1sjqev3r98e" class="st8" d="M216.7,20.6c0,0.5,0.3,1,0.6,1c0.3,0,0.6-0.4,0.6-1c0-0.6-0.3-1-0.6-1
		C217,19.6,216.8,20,216.7,20.6z"/>
	<path id="elitdpjhgvbv" class="st8" d="M222.8,20.6c0,0.5,0.3,1,0.6,1s0.6-0.4,0.6-1c0-0.6-0.3-1-0.6-1S222.8,20.1,222.8,20.6z"/>
	<path id="el2yejgec4y1y" class="st7" d="M220.9,20.9c0.6,1.6,1.5,3.2,2.5,4.6c-0.7,0.5-1.7,0.7-2.6,0.5L220.9,20.9z"/>
	<path id="eli98dibn8vf" class="st8" d="M214.9,18.6c0.1,0,0.2,0,0.3-0.1c0.5-0.6,1.2-1,2-1c0.2,0,0.3-0.1,0.3-0.3c0,0,0,0,0,0
		c0-0.2-0.1-0.3-0.3-0.3l0,0c-1,0-2,0.5-2.5,1.3c-0.1,0.1-0.1,0.3,0,0.4c0,0,0,0,0,0l0,0L214.9,18.6z"/>
	<path id="el6254m4t3my7" class="st8" d="M225.4,18.5c0.1,0,0.1,0,0.2,0c0.2-0.1,0.2-0.2,0.2-0.4c0,0,0,0,0,0l0,0
		c-0.4-0.9-1.3-1.6-2.2-1.8c-0.2,0-0.3,0.1-0.3,0.3c0,0,0,0,0,0l0,0c0,0.2,0.1,0.3,0.3,0.3l0,0c0.8,0.2,1.4,0.7,1.8,1.4
		C225.2,18.5,225.3,18.5,225.4,18.5z"/>
	<path id="el94eutzlzlxa" class="st8" d="M214.6,6.9c-0.8,0-1.6,0.1-2.3,0.2c-2.3,0.2-4.4,1-6.2,2.4c-4,3.4-2.1,10-0.8,14.2
		c1.7,5.7,4.5,7.9,4.5,7.9c-1.8-2.5-2.3-8-1.5-8.3c0.9-0.3,1,0.8,1,0.8c1.8-1.6,3-5.4,1.9-7.8c-0.8-1.8,1.1-3.6,3-3l0.6,0.2l0.9,0.2
		L214.6,6.9z"/>
	<path id="elay5fc2p9cm" class="st9" d="M204,24.1c0.7,1.5,2,2.6,3.6,3.2c2.1,0.7,3.2-1.1,2.7-3.1c-0.4-1.8-2-4.4-4.2-4.2
		c-1.5,0.1-2.6,1.5-2.5,3C203.6,23.4,203.8,23.8,204,24.1z"/>
	<path id="elrbpu7krufw" class="st8" d="M218.1,11.9c-0.3,0.8,1.2,3-1.3,2.8c-2.5-0.1-2.5,0.9-3.9,2.8s-5.2,0-5.2,0l-3.6,1.1
		c0,0-3.1-2-1.7-3.6s1.5-3.5,2.2-6c0.7-2.4,4.8-6,10.3-3.5c0,0,2.5-1.3,3.7-0.9c1,0.5,1.8,1.1,2.5,2c0.5-0.9,1.6-1.2,2.4-0.7
		c0.1,0,0.1,0.1,0.2,0.1c1.6,1.2,1.4,6.3,2.7,7.4s-0.9,3-0.9,3s-2.1-0.1-2.3-1.6c-0.4-2.6-1-3.5-2.4-3.8c-0.5-0.1-1,0.2-1.3,0.6
		C219.5,11.8,218.5,10.7,218.1,11.9z"/>
	<path id="elrgllq3dsmtb" class="st3" d="M219.8,27.7c-0.4,0.8-0.8,1.5-1.2,2.4c-0.2,0-0.3-0.1-0.5-0.1c-2-0.5-2.8-1.4-3.1-2.3
		c-0.1-0.4-0.1-0.9,0-1.3c0-0.2,0.1-0.5,0.2-0.7c1.1,0.9,2.4,1.5,3.8,1.8C219.4,27.6,219.6,27.6,219.8,27.7z"/>
	<path id="eluadp09s8ero" class="st2" d="M219.1,27.5l-0.4,0.7c-1.9-0.5-3.2-1.1-3.7-1.8c0-0.2,0.1-0.5,0.2-0.7
		C216.5,26.6,217.8,27.2,219.1,27.5z"/>
	<path id="eloi2e34nsu18" class="st7" d="M218.2,29.9c-2-0.5-2.8-1.4-3.1-2.3c0.8,0.2,1.5,0.5,2.2,1C217.7,29,218,29.4,218.2,29.9z"
		/>
</g>
<polygon id="el19u512f97u4" class="st0" points="281.6,130 263.5,130 282.5,134.3 "/>
<g id="elvz9u3pdfu3i">
	<polygon id="elkaknjh25ov" class="st1" points="281.6,130 263.5,130 282.5,134.3 	"/>
</g>
<path id="el6xuqe0tpyuc" class="st0" d="M286.8,115.9h123.6c3.1,0,5.6,2.5,5.6,5.6v37.5c0,3.1-2.5,5.6-5.6,5.6H286.8
	c-3.1,0-5.6-2.5-5.6-5.6v-37.5C281.2,118.4,283.7,115.9,286.8,115.9z"/>
<g id="elc7admgreocg">
	<path id="elxm9netvhshr" class="st1" d="M286.8,115.9h123.6c3.1,0,5.6,2.5,5.6,5.6v37.5c0,3.1-2.5,5.6-5.6,5.6H286.8
		c-3.1,0-5.6-2.5-5.6-5.6v-37.5C281.2,118.4,283.7,115.9,286.8,115.9z"/>
</g>
<path id="elzm2zdlrl3" class="st2" d="M322.5,126.4V154c0,0.5-0.1,0.9-0.3,1.3c-0.1,0.1-0.1,0.2-0.2,0.3c-0.4,0.6-1.1,1.1-1.9,1.2
	c-0.1,0-0.2,0-0.3,0h-27.9c-0.2,0-0.4,0-0.6-0.1l0,0h-0.1c-0.2-0.1-0.4-0.2-0.6-0.3c-0.1-0.1-0.2-0.1-0.4-0.2
	c-0.7-0.5-1.1-1.3-1.1-2.2v-27.6c0-1.5,1.2-2.8,2.7-2.8h27.7C321.2,123.6,322.5,124.8,322.5,126.4
	C322.5,126.4,322.5,126.4,322.5,126.4z"/>
<g id="freepik--group--inject-15_1_">
	<path id="el3ggcnoyno4f" class="st0" d="M320,156.8c-0.1,0-0.2,0-0.3,0h-1.4v-0.4h0.1C319,156.4,319.6,156.5,320,156.8L320,156.8z"
		/>
	<g id="el2kk3hl1x7hj">
		<path id="el1xjn59zd861" class="st10" d="M320,156.8c-0.1,0-0.2,0-0.3,0h-1.4v-0.4h0.1C319,156.4,319.6,156.5,320,156.8L320,156.8
			z"/>
	</g>
	<path id="elzsjo3g1sg4r" class="st0" d="M319.8,156.8H309l0,0l0,0h-13.8c0,0,0,0.1,0.1,0.1c0,0-0.1-0.1-0.1-0.1h-3.2
		c0.9-0.1,1.9-0.3,3-0.4l0.7-0.1c0.9-0.1,1.8-0.2,2.7-0.3h0.2c1.6-0.1,3.2-0.2,4.8-0.3h0.4c0.8,0,1.5-0.1,2.3-0.1c1.1,0,2.3,0,3.4,0
		l0,0c0.2,0,0.4,0,0.6,0l0,0c0.8,0,1.7,0,2.5,0l0.9,0.1c0.3,0,0.5,0,0.8,0.1c0.7,0.1,1.5,0.2,2.1,0.3l1,0.1l0.5,0.1l0.5,0.1h0.1
		c0.4,0.1,0.8,0.2,1.2,0.4L319.8,156.8z"/>
	<path id="elrkix8g91f4" class="st11" d="M313.8,156.8H309l0,0l0,0h-9.5c-0.4-0.2-0.7-0.5-1-0.8l-0.4-0.4c0.7-0.5,1.2-1.2,1.6-2
		c1.2-2.3,1-5.3,0.7-7.3l0,0c-0.1-1-0.3-1.8-0.3-2.2l0,0c0-0.1,0-0.1,0-0.2c0-0.1,0-0.2,0.1-0.3l0.2,0.1l0.5,0.2l0.2,0.1l7.9,2.8
		c-0.1,0.3-0.1,0.5-0.2,0.8c0,0.3-0.1,0.5-0.1,0.8l-0.1,0.5c0,0.4-0.1,0.7-0.1,1.1c0,0.7,0.1,1.3,0.2,2c0.2,0.7,0.5,1.3,0.9,1.8l0,0
		c0.1,0.2,0.3,0.3,0.4,0.4c0.9,0.8,2,1.3,3.2,1.5c0.1,0.1,0.1,0.2,0.1,0.3C313.6,156.1,313.7,156.5,313.8,156.8z"/>
	<g id="ely1u6sslj29c">
		<path id="el1ec6d4odywq" class="st5" d="M308.7,151.8c-3-0.6-6.4-2.7-7.3-5.2c-0.3-0.9-0.6-1.8-0.7-2.7l8.1,2.9
			C308.4,148.4,308.3,150.1,308.7,151.8z"/>
	</g>
	<path id="elnl7df4zfrqo" class="st11" d="M298.9,134.1c0.5,6.4,0.6,10.2,3.9,13.4c5,4.8,12.8,1.7,14.2-4.8
		c1.2-5.8,0.1-15.3-6.2-17.7c-4.5-1.7-9.6,0.5-11.3,5c0,0,0,0,0,0C298.9,131.4,298.8,132.8,298.9,134.1z"/>
	<path id="elzx9ij8yog2i" class="st8" d="M308.7,135.7c0,0.5,0.3,0.9,0.6,0.9c0.3,0,0.6-0.4,0.6-1c0-0.5-0.3-0.9-0.6-0.9
		C308.9,134.7,308.6,135.1,308.7,135.7z"/>
	<path id="el5z1em9bd0wn" class="st8" d="M314.6,135.5c0,0.5,0.3,0.9,0.6,0.9c0.3,0,0.6-0.4,0.6-1c0-0.6-0.3-0.9-0.6-0.9
		C314.8,134.5,314.6,135,314.6,135.5z"/>
	<path id="el83kd6agbznh" class="st12" d="M312.7,135.8c0.7,1.6,1.5,3.1,2.6,4.4c-0.7,0.5-1.6,0.7-2.5,0.5L312.7,135.8z"/>
	<path id="el4ijgmpjlv6l" class="st8" d="M306.8,133.8c0.1,0,0.2,0,0.3-0.1c0.4-0.6,1.2-1,1.9-1.1c0.2,0,0.3-0.1,0.3-0.3
		c0-0.2-0.1-0.3-0.3-0.3c0,0,0,0,0,0l0,0c-1,0-1.9,0.5-2.5,1.3c-0.1,0.1-0.1,0.3,0.1,0.4l0,0C306.7,133.8,306.7,133.8,306.8,133.8z"
		/>
	<path id="elys4e1r9ddq" class="st8" d="M317,133.4c0.1,0,0.1,0,0.2,0c0.1-0.1,0.2-0.3,0.1-0.4l0,0c-0.4-0.9-1.3-1.5-2.3-1.7
		c-0.2,0-0.3,0.1-0.3,0.3c0,0,0,0,0,0l0,0c0,0.2,0.1,0.3,0.3,0.3l0,0c0.8,0.1,1.4,0.6,1.8,1.3C316.9,133.4,316.9,133.4,317,133.4z"
		/>
	<path id="el1xg9hnxcys" class="st8" d="M300.7,139.4c0,0,3.3-5.7,1.7-10.4c2.2-0.6,4.4-0.4,6.5,0.6c-0.1-0.7-0.2-1.5-0.4-2.2
		c0,0,5.7-0.4,9,2.9c-0.3-2.1-1.3-4.1-2.8-5.5c0.8-0.3,1.7-0.3,2.5,0c0,0-5.2-4.2-13.4-1.8c-8.2,2.4-10.7,7.3-8.8,14.6
		c1.9,7.3,5.8,8.9,5.8,8.9s-1.6-5.5-1.3-6.8C299.7,138.4,300.7,139.4,300.7,139.4z"/>
	<path id="el4i1q8onfnag" class="st11" d="M296.2,141.3c0.9,1.3,2.3,2.3,3.9,2.6c2.1,0.4,3-1.5,2.3-3.4c-0.7-1.7-2.5-4-4.6-3.5
		c-1.5,0.3-2.4,1.8-2,3.3C295.8,140.6,295.9,141,296.2,141.3z"/>
	<path id="elmz43izhigc" class="st0" d="M310.4,122.1c-1.9,0.6-3.8,1.3-5.6,2.3c-1.3,0.7-2.5,1.4-3.7,2.3l0,0
		c-5.7,4.2-6.7,8.8-6.7,8.8l-0.6-1.4c-0.4-0.8-0.9-1.9-1.4-3l0,0c-0.9-2.1-1.7-4.4-1.5-5.1c1.8-6.2,9.9-9,11.1-8.8
		c0.7,0.1,3.6,1.9,5.8,3.2c1.1,0.7,2.1,1.3,2.4,1.6L310.4,122.1z"/>
	<g id="el3e37kz6sdee">
		<path id="el6xz9ue0blfh" class="st1" d="M310.2,122c-1.9,0.6-3.7,1.4-5.4,2.4c-1.1,0.6-2.3,1.4-3.7,2.3l0,0
			c-4.4,2.9-6.4,5.5-7.3,7.4c-0.4-0.8-0.9-1.9-1.4-3l0,0c2-2.6,7.4-8.8,15.3-10.7C308.8,121.1,309.8,121.7,310.2,122z"/>
	</g>
	<path id="el91mcyrr9474" class="st0" d="M294.8,137.5c0,0-5.1,4.7-5.7,2.6c-1.6-5.2,11.6-19,26.2-20.7c11.9-1.4-0.4,4-0.4,4
		C310,122.5,293.8,132.3,294.8,137.5z"/>
	<g id="elcr84grbhjwn">
		<path id="eln9p8exc9kis" class="st13" d="M294.8,137.5c0,0-5.1,4.7-5.7,2.6c-1.6-5.2,11.6-19,26.2-20.7c11.9-1.4-0.4,4-0.4,4
			C310,122.5,293.8,132.3,294.8,137.5z"/>
	</g>
	<path id="elinmy2pdixle" class="st3" d="M311.4,142.4c-0.4,0.8-0.8,1.5-1.2,2.4l-0.4-0.1c-2-0.5-2.8-1.4-3.1-2.3
		c-0.1-0.4-0.1-0.9,0-1.3c0-0.2,0.1-0.5,0.2-0.7c1.1,0.9,2.4,1.5,3.8,1.8C311.1,142.3,311.4,142.4,311.4,142.4z"/>
	<path id="el2id31rpjxju" class="st2" d="M310.7,142.2l-0.4,0.7c-1.9-0.5-3.2-1.1-3.7-1.8c0-0.2,0.1-0.5,0.2-0.7
		C308,141.3,309.3,141.9,310.7,142.2z"/>
	<path id="ellisec9evbqb" class="st7" d="M309.8,144.6c-2-0.5-2.8-1.4-3.1-2.3c0.8,0.2,1.5,0.5,2.2,1
		C309.3,143.7,309.6,144.1,309.8,144.6z"/>
	<path id="elja2tcscwzrk" class="st0" d="M306.1,156.7l0.4,0.1h-11.4c-0.1-0.1-0.1-0.3-0.2-0.4l0,0l3.6-3.5c0.4,0.3,0.7,0.5,1.1,0.7
		c1.3,0.8,2.7,1.5,4.1,2.1l0,0c0.4,0.2,0.9,0.4,1.3,0.6L306.1,156.7z"/>
	<path id="elly69j1tu0ss" class="st0" d="M314.3,155.8v1H309l0.1-0.2c0.1-0.3,0.3-0.7,0.3-1c0,0,0,0,0-0.1l0,0
		c0-0.2,0.1-0.4,0.1-0.7c0.1-0.4,0.1-0.9,0.1-1.3c0-0.3,0-0.7,0-1.1l0,0L314.3,155.8z"/>
	<g id="elsvfkxr0flrf">
		<path id="el4fvx7x56qxb" class="st5" d="M310,155.6L310,155.6c-0.1,0.3-0.2,0.7-0.3,1v0.1H309l0,0l0,0c0,0,0-0.1,0.1-0.2
			c0.1-0.3,0.3-0.7,0.3-1c0,0,0,0,0-0.1l0,0c0.1-0.2,0.1-0.5,0.1-0.7c0.1-0.4,0.1-0.9,0.1-1.3c0-0.3,0-0.7,0-1.1
			c0.3,0.5,0.4,1,0.5,1.5C310.2,154.5,310.2,155.1,310,155.6z"/>
	</g>
</g>
<path id="el2df0b2m1aqt" class="st0" d="M401.7,135.4h-66.8c-0.7,0-1.2-0.6-1.2-1.2l0,0c0-0.7,0.6-1.2,1.2-1.2h66.8
	c0.7,0,1.2,0.5,1.2,1.2l0,0C402.9,134.8,402.4,135.4,401.7,135.4z"/>
<path id="el8qlhepixzb5" class="st0" d="M366.8,123.6h-31.4c-1-0.1-1.8,0.7-1.9,1.6c-0.1,1,0.7,1.8,1.6,1.9c0.1,0,0.2,0,0.3,0h31.4
	c1-0.1,1.7-0.9,1.6-1.9C368.3,124.3,367.6,123.6,366.8,123.6z"/>
<path id="elogx5mu33g7h" class="st0" d="M362.9,140.4h-28c-0.7,0-1.2-0.6-1.2-1.2l0,0c0-0.7,0.6-1.2,1.2-1.2h28
	c0.7,0,1.2,0.6,1.2,1.2l0,0C364.1,139.9,363.6,140.4,362.9,140.4z"/>
<path id="el2df0b2m1aqt_1_" class="st0" d="M401.7,149.3h-66.8c-0.7,0-1.2-0.6-1.2-1.2l0,0c0-0.7,0.6-1.2,1.2-1.2h66.8
	c0.7,0,1.2,0.5,1.2,1.2l0,0C402.9,148.8,402.4,149.3,401.7,149.3z"/>
<path id="elogx5mu33g7h_1_" class="st0" d="M362.9,154.4h-28c-0.7,0-1.2-0.6-1.2-1.2l0,0c0-0.7,0.6-1.2,1.2-1.2h28
	c0.7,0,1.2,0.6,1.2,1.2l0,0C364.1,153.8,363.6,154.4,362.9,154.4z"/>
<polygon id="eli0srxrcn0d" class="st0" points="184.3,335 188,335 190.5,240.4 184.3,240.4 "/>
<polygon id="elhuplzhz4ohm" class="st0" points="267.9,335 271.7,335 271.7,240.4 265.4,240.4 "/>
<polygon id="elheuu74q6kdi" class="st0" points="229.8,335 233.5,335 233.5,240.4 227.3,240.4 "/>
<polygon id="el0syyjqoorhed" class="st0" points="146.1,335 149.9,335 152.4,240.4 146.1,240.4 "/>
<g id="elkbpy5w5x17i">
	<polygon id="elcxfqvt9kphf" class="st13" points="184.3,335 188,335 190.5,240.4 184.3,240.4 	"/>
</g>
<g id="els9vojau0q4">
	<polygon id="elerkddffbwfo" class="st13" points="267.9,335 271.7,335 271.7,240.4 265.4,240.4 	"/>
</g>
<g id="el07qozgbjjzr9">
	<polygon id="elus328omxbg" class="st13" points="229.8,335 233.5,335 233.5,240.4 227.3,240.4 	"/>
</g>
<g id="eleshb9oe8ien">
	<polygon id="el1tle8ajdnzb" class="st13" points="146.1,335 149.9,335 152.4,240.4 146.1,240.4 	"/>
</g>
<g id="el0p0j1ry7du7">
	<path id="el4tzgb4yqckb" class="st0" d="M145,222h126.4l0,0v15.3c0,2.3-1.9,4.2-4.2,4.2h0H149.1c-2.3,0-4.2-1.9-4.2-4.2l0,0V222
		L145,222z"/>
</g>
<g id="eld1fo0wv35ud">
	<path id="elcrs15undwwe" class="st5" d="M145,222h126.4l0,0v15.3c0,2.3-1.9,4.2-4.2,4.2h0H149.1c-2.3,0-4.2-1.9-4.2-4.2l0,0V222
		L145,222z"/>
</g>
<g id="eli8so10fj27">
	<path id="elmul767mlox" class="st5" d="M225.6,222h45.8l0,0v15.3c0,2.3-1.9,4.2-4.2,4.2h0h-37.4c-2.3,0-4.2-1.9-4.2-4.2v0
		L225.6,222L225.6,222z"/>
</g>
<path id="elt6temfud6t" class="st0" d="M142,240.4h131c0.9,0,1.7,0.8,1.7,1.7v6.5c0,0.9-0.8,1.7-1.7,1.7H142c-0.9,0-1.7-0.8-1.7-1.7
	v-6.5C140.2,241.2,141,240.4,142,240.4z"/>
<g id="elxrvvfxmq3jr">
	<path id="elohpw3noeb9" class="st14" d="M142,240.4h131c0.9,0,1.7,0.8,1.7,1.7v6.5c0,0.9-0.8,1.7-1.7,1.7H142
		c-0.9,0-1.7-0.8-1.7-1.7v-6.5C140.2,241.2,141,240.4,142,240.4z"/>
</g>
<path id="el1aabp90d2ky" class="st3" d="M145.6,227.7c1.8-10,35.8-25.1,60.3-28.4l26.9,28.6c-20.8,4-41.9,6.1-63,6.3
	c0,0-1.3,46.3-3.2,76.4l-9.7,0.2C156.9,310.6,143.9,237.7,145.6,227.7z"/>
<g id="elc57j0n9yxgo">
	<path id="el6zdvpesveq2" class="st5" d="M145.6,227.7c1.8-10,35.8-25.1,60.3-28.4l26.9,28.6c-20.8,4-41.9,6.1-63,6.3
		c0,0-1.3,46.3-3.2,76.4l-9.7,0.2C156.9,310.6,143.9,237.7,145.6,227.7z"/>
</g>
<path id="elnzhqzft1asm" class="st15" d="M198.2,154.6c0,0-5.6,14.5-8.7,16.4c-3.1,1.9-0.4-21.3-0.4-21.3l-5.9-0.8
	c0,0-7,35,3.2,34.8c7.8-0.2,17.1-13.2,19.3-19.8L198.2,154.6z"/>
<g id="el0r85lcclkvtn">
	<path id="elqxe87uxjb4" class="st16" d="M198.2,154.6c0,0-5.6,14.5-8.7,16.4c-3.1,1.9-0.4-21.3-0.4-21.3l-5.9-0.8
		c0,0-7,35,3.2,34.8c7.8-0.2,17.1-13.2,19.3-19.8L198.2,154.6z"/>
</g>
<path id="elv84kuvlauld" class="st0" d="M206.8,136.9c-7.9,1.8-13.5,28.9-13.5,28.9l14.2,6.4L206.8,136.9z"/>
<g id="elqdvrjn615w">
	<path id="elblmr1bu1yp" class="st17" d="M206.8,136.9c-7.9,1.8-13.5,28.9-13.5,28.9l14.2,6.4L206.8,136.9z"/>
</g>
<polygon id="el1lzj8xchuvu" class="st0" points="210.2,171.1 192.8,162.8 191.8,165.3 208.9,174.6 "/>
<g id="elo68q2un2hwn">
	<polygon id="elei6a6o3qaa" class="st5" points="210.2,171.1 192.8,162.8 191.8,165.3 208.9,174.6 	"/>
</g>
<polygon id="elilzpz473gh" class="st15" points="158.7,324.4 165.4,323.7 165.5,314.3 165.7,305.6 157.6,305.1 158.1,315.4 "/>
<path id="el76rogzytphv" class="st3" d="M167.1,323.7c0.1-0.7-9-1.4-9-1.4s-6.3,4.9-11.9,5.4s-3,4.2,3,5l14.9,2.1
	C168.4,335.4,166.3,331.3,167.1,323.7z"/>
<path id="elccoc65pgneo" class="st18" d="M153.5,324c-0.4,0.1-0.9-0.1-1.2-0.4c-0.2-0.3-0.3-0.7-0.1-1c0.1-0.3,0.3-0.5,0.6-0.5
	c0.7-0.2,1.4-0.2,2.1,0.1c-0.7-0.5-1.3-1.1-1.2-1.5c0-0.3,0.3-0.5,0.7-0.7c0.4-0.1,0.8-0.1,1.2,0.1c1.2,0.7,1.6,2.9,1.6,3
	c0,0.1,0,0.1,0,0.2l0,0c0,0-0.1,0-0.1,0.1C155.9,323.6,154.7,323.9,153.5,324z M153.5,322.4c-0.2,0-0.4,0-0.6,0.1
	c-0.1,0-0.2,0.1-0.3,0.3c-0.1,0.3,0,0.4,0,0.5c0.4,0.4,2.1,0.1,3.5-0.2C155.3,322.7,154.4,322.5,153.5,322.4L153.5,322.4z
	 M154.7,320.3c-0.1,0-0.2,0-0.3,0c-0.1,0-0.3,0.1-0.4,0.3c0,0.4,1.2,1.3,2.4,2c-0.2-0.8-0.6-1.6-1.3-2.2
	C155.1,320.3,154.9,320.3,154.7,320.3L154.7,320.3z"/>
<g id="el6gtn6jnoa7s">
	<polygon id="el2vtr6xo00e8" class="st5" points="158.2,315.6 165.5,314.5 165.7,305.7 157.6,305.2 	"/>
</g>
<polygon id="el4op3268wz9i" class="st15" points="195.3,325.4 201.9,323.7 200.6,314.4 199.4,305.8 191.4,306.5 193.5,316.5 "/>
<path id="elxpx7ehlg3i" class="st3" d="M203.6,323.4c0-0.7-9.1,0-9.1,0s-5.5,5.8-11,7.1c-5.4,1.4-2.3,4.6,3.7,4.5l15.1-0.2
	C206.6,334.7,203.9,331.1,203.6,323.4z"/>
<path id="elqv0oeobiyjh" class="st18" d="M189.7,325.7c-0.3,0-0.5-0.1-0.8-0.2c-0.3-0.2-0.4-0.6-0.2-1c0.1-0.3,0.2-0.5,0.5-0.6
	c0.6-0.3,1.3-0.3,2-0.2c-0.7-0.4-1.4-0.9-1.4-1.3c0-0.3,0.2-0.6,0.6-0.8c0.4-0.2,0.8-0.2,1.2,0c1.2,0.5,2,2.6,2.1,2.7
	c0,0,0,0.1,0,0.1l0,0c0,0,0,0,0,0.1l0,0c0,0,0,0,0,0.1l0,0l-0.1,0.1C192.3,325.2,191,325.6,189.7,325.7z M190.5,324.1
	c-0.4,0-0.8,0-1.1,0.2c-0.1,0.1-0.2,0.2-0.3,0.3c-0.1,0.4,0,0.5,0.1,0.5c0.4,0.3,2.1-0.2,3.4-0.8
	C191.9,324.2,191.2,324.2,190.5,324.1L190.5,324.1z M191,321.9c-0.1,0-0.3,0-0.4,0.1c-0.1,0.1-0.3,0.2-0.3,0.3
	c0,0.4,1.3,1.1,2.7,1.6c-0.3-0.8-0.9-1.5-1.6-1.9C191.2,321.9,191.1,321.9,191,321.9L191,321.9z"/>
<g id="el3n0xkxknakj">
	<polygon id="eloh2r9n5dqr" class="st5" points="193.5,316.7 200.6,314.5 199.5,305.9 191.4,306.5 	"/>
</g>
<path id="eld142wtsb1uj" class="st3" d="M205.9,200.8c0,0,0.8-10.3,1.1-12.4c0.3-2.1,0.8,3.1,1.3,1.8c2.3-6.9,32.9-2.5,32.9-2.5
	s18.2,23,5.7,36.1c-8.6,9-39.3,12.9-52.3,19.1c0,0,4,37.5,6.6,67.5l-9.6,1.6c0,0-22.8-70.2-22.5-80.4
	C169.2,221.4,173,216.4,205.9,200.8z"/>
<polygon id="elkj7s3nfknyo" class="st0" points="202.5,307.5 189.3,309 191.9,314.1 202.5,312.8 "/>
<polygon id="ellw7alrn4q0t" class="st0" points="168.4,307.8 155.2,307.3 156.9,312.8 167.7,313 "/>
<path id="el4g8kn3wj359" class="st15" d="M185.2,135.6c0,0-5.3-0.1-5.5,0.8c-0.2,0.9,0.2,8.7,0.9,9.8c0.8,1,1.7,1.9,2.7,2.7
	l-0.5,13.8l3.2,1.1l2.9-12.7c0,0,3.3-3.2,2.3-7.2S185.2,135.6,185.2,135.6z"/>
<g id="el4lyybzvjaka">
	<path id="elpkikyfsc0o" class="st16" d="M185.2,135.6c0,0-5.3-0.1-5.5,0.8c-0.2,0.9,0.2,8.7,0.9,9.8c0.8,1,1.7,1.9,2.7,2.7
		l-0.5,13.8l3.2,1.1l2.9-12.7c0,0,3.3-3.2,2.3-7.2S185.2,135.6,185.2,135.6z"/>
</g>
<path id="elux360e79x7m" class="st8" d="M194.3,142.4c0,0.4-0.3,0.8-0.8,0.9c0,0-0.1,0-0.1,0l-9.1-0.7c-0.5,0-1-0.5-1-1l-0.6-18.1
	c0-0.5,0.3-0.9,0.8-1c0,0,0,0,0.1,0l9.1,0.7c0.5,0.1,0.9,0.6,0.9,1.1L194.3,142.4z"/>
<g id="elysm770twt1">
	<path id="el5mxd9irhok5" class="st19" d="M192.6,124.1l0.6,18.2c0.1,0.4-0.2,0.7-0.6,0.8c-0.1,0-0.1,0-0.2,0l-7.7-0.6
		c-0.5,0-1.4-0.4-1.5-0.9l-0.6-18.3c0-0.5,0.9-0.9,1.4-0.8l7.7,0.6C192.3,123.2,192.6,123.6,192.6,124.1z"/>
</g>
<path id="elb6epafiufyl" class="st15" d="M203.5,156.1l-3.5-8c0,0-1.1-10.8-1.7-11.9c-0.5-1.1-9.3-0.7-10.3-0.8
	c-0.9-0.1-0.8,10.7,0.1,11.8c0.9,1.1,4.5,2,4.5,2l5.5,10.7L203.5,156.1z"/>
<path id="elduuocut5vbw" class="st0" d="M245.9,138.7c0,0-10-5.3-39.1-1.8c0,0-4.9,13.1-4.1,32.5s3.1,19.9,3.1,19.9l-2,4.4
	c0,0,26-0.1,47.5,18.5l2.5-1.8l-10.5-24.1C243.2,186.3,239.5,165,245.9,138.7z"/>
<path id="elk3tsrlzqaj" class="st3" d="M235.4,94.9c0,0,2.4-5.3,11.5-3.8c9.1,1.5,9.1,12.6,3.6,21.5s1.1,11.6,0.3,15
	c-0.8,3.4-4.8,2.6-4.8,2.6c1-0.8,1.4-2.1,1-3.3C246.4,124.5,227.4,114.3,235.4,94.9z"/>
<path id="elbqeke1iotql" class="st3" d="M222.3,124c-0.7-0.3-14.8,0.7-14.9-15.7c0,0-6.1-6.7,5.2-15.1s17.7-2.5,17.7-2.5
	s10-1.5,12.5,13.5S234.6,129.8,222.3,124z"/>
<path id="elwgqt17hxxqq" class="st3" d="M209.6,110.3c0,0-5.3-20.3,16.5-19.3s16.9,34.8,3.4,32.8C216,121.8,209.6,110.3,209.6,110.3
	z"/>
<path id="el7ieq7ykv0y" class="st15" d="M222.8,141.7c6.8,0.8,11.6-4.6,11.6-4.6c-6.4-4.4-3.2-14.2-3.2-14.2l-10.3,3.6
	c0.5,1.4,0.8,2.9,1.1,4.4c1.1,6.4-1.8,6.9-1.8,6.9C219,141.6,221.1,141.5,222.8,141.7z"/>
<g id="elw3sy2fe1i1">
	<path id="elj1266y05xye" class="st5" d="M221,126.5c0.5,1.4,0.8,2.9,1.1,4.4c4.9-2,9.2-8,9.2-8L221,126.5z"/>
</g>
<path id="el356bzkum3lf" class="st15" d="M221.3,96c-9.3,0.8-11.8,6-11.7,15.6c0.2,12,3.6,20.3,14.9,16.7
	C240,123.5,236.7,94.6,221.3,96z"/>
<path id="el0kdw6vhs92" class="st20" d="M215.6,110.6c-0.6,1.5-1.4,2.8-2.4,4.1c0.6,0.7,1.6,1.1,2.5,0.8L215.6,110.6z"/>
<path id="el06xpr5ff6hr" class="st3" d="M221.2,109.3c0,0.8,0.5,1.4,1,1.3c0.5,0,0.9-0.7,0.8-1.4c0-0.8-0.5-1.4-1-1.3
	C221.5,107.9,221.2,108.5,221.2,109.3z"/>
<path id="elrcu0ik4thuo" class="st3" d="M222.3,107.9l-1.7-0.5C220.6,107.3,221.5,108.7,222.3,107.9z"/>
<path id="elwdd9hcbbds" class="st3" d="M211.7,109.7c0,0.8,0.5,1.4,1,1.3c0.5,0,0.9-0.7,0.8-1.4s-0.5-1.4-1-1.3
	C212,108.3,211.7,109,211.7,109.7z"/>
<path id="elacjdfnll2s7" class="st3" d="M212.8,108.3l-1.7-0.5C211.1,107.8,212,109.1,212.8,108.3z"/>
<path id="el2xd9yt976zr" class="st3" d="M224.9,104.4c-0.1,0-0.2,0-0.3-0.1c-1-0.9-2.4-1.2-3.8-0.9c-0.2,0-0.4-0.1-0.5-0.3
	c0,0,0,0,0,0c0-0.2,0.1-0.4,0.3-0.5c0,0,0,0,0,0c0.1,0,2.8-0.6,4.5,1.2c0.2,0.2,0.2,0.4,0,0.6C225.1,104.3,225,104.3,224.9,104.4z"
	/>
<path id="elb9p6msexshv" class="st3" d="M210.3,104.6c-0.1,0-0.2-0.1-0.3-0.1c-0.1-0.2-0.1-0.4,0.1-0.6c1.1-1,2.5-1.4,4-1.1
	c0.2,0.1,0.3,0.3,0.3,0.5c-0.1,0.2-0.3,0.3-0.5,0.3c-1.2-0.2-2.4,0.2-3.3,1C210.5,104.5,210.4,104.6,210.3,104.6z"/>
<path id="elf2bx6eys3l5" class="st3" d="M217.4,119c0.5,1,1,2.1,1.4,3.1l0.6-0.1c2.7-0.5,3.8-1.6,4.1-2.7c0.2-0.5,0.2-1.1,0.1-1.7
	c0-0.3-0.1-0.6-0.2-0.9c-1.3,1.1-3.7,1.8-5,2.1C217.8,118.9,217.4,119,217.4,119z"/>
<path id="elzmhpt5xagd" class="st2" d="M218.3,118.8l0.4,0.9c2.5-0.5,4.2-1.2,4.9-2.1c0-0.3-0.1-0.6-0.2-0.9
	C222.1,117.9,219.7,118.5,218.3,118.8z"/>
<path id="elaj9v61qlqs7" class="st7" d="M219.4,122c2.7-0.5,3.8-1.6,4.1-2.7c-1,0.2-2,0.6-2.9,1.1
	C220.1,120.8,219.7,121.4,219.4,122z"/>
<path id="elp11qhqhnbvg" class="st3" d="M232.8,110.7c0,0-5-7.2-4.8-13.2c0,0-19-6-18.3,12.8c0,0-3.2-16.4,12.7-18.1
	s17.8,21.6,10.2,29.2C232.5,121.4,235.9,115.2,232.8,110.7z"/>
<path id="el2djcf02el2e" class="st15" d="M231.5,112.8c0-2.2,1.8-4.1,4.1-4.1c0,0,0,0,0,0c2.9,0.1,4.8,5.8-2.2,7.9
	C232.3,116.9,231.6,115.9,231.5,112.8z"/>
<path id="elgk93bpzm0lh" class="st3" d="M229.3,109.3C229.2,109.4,229.2,109.4,229.3,109.3c-8.1-3-8-13.7-8-13.8
	c0-0.2,0.1-0.3,0.3-0.3l0,0c0.2,0,0.3,0.1,0.3,0.3c0,0.1-0.1,10.4,7.5,13.3c0.1,0,0.2,0.2,0.2,0.3c0,0,0,0,0,0
	C229.5,109.3,229.4,109.3,229.3,109.3z"/>
<path id="el3vmx7k4sg14" class="st3" d="M211.1,95.5c7.8-6.6,12.5-4.5,12.5-4.5l0,0.1c3-0.9,8.1-1.1,13.2,4.4
	c8.1,8.7,1.3,15.1,1.3,15.1c-10.7-3-14.9-9.7-16.5-14c-2.6,4.4-7.6,9.5-14,11.7C207.4,108.3,203.2,102.1,211.1,95.5z"/>
<path id="eldwt2urx7jwi" class="st15" d="M232.8,158.2c0,0-6.1,13.8-7.7,14.8c-1.6,1-14-10.5-25.1-24.9l-6.8,2.5
	c0,0,17.5,35.8,29.9,36c12.4,0.2,20.1-20.8,20.1-20.8L232.8,158.2z"/>
<path id="elnemkv6t5g7" class="st0" d="M245.9,138.7c8.5,2.4-2.7,36.8-2.7,36.8l-16.1-7.4c2.1-7.1,4.7-14,7.6-20.8
	C239.5,136.9,245.9,138.7,245.9,138.7z"/>
<g id="eluwadhjw9o5i">
	<path id="el0y1kp1e3tw7" class="st17" d="M245.9,138.7c8.5,2.4-2.7,36.8-2.7,36.8l-16.1-7.4c2.1-7.1,4.7-14,7.6-20.8
		C239.5,136.9,245.9,138.7,245.9,138.7z"/>
</g>
<polygon id="el8mgb8y6ryy6" class="st0" points="244.5,174.9 227.2,166.6 226.1,169.1 243.2,178.4 "/>
<g id="el7pxhmcwgesq">
	<polygon id="eld0xntttmb9p" class="st5" points="244.5,174.9 227.2,166.6 226.1,169.1 243.2,178.4 	"/>
</g>
<polygon id="elgixmshx0168" class="st0" points="135.3,190.6 130.3,335 126.3,335 129.3,190.6 "/>
<polygon id="elkbe4o74gs9" class="st0" points="104.4,190.6 99.4,335 95.4,335 98.4,190.6 "/>
<rect id="eleuyc9lzcwy9" x="92.5" y="183.6" class="st0" width="202.1" height="7"/>
<rect id="elrd1ai1kddw7" x="92.5" y="183.6" class="st0" width="202.1" height="7"/>
<g id="elcl6umph9kgc">
	<rect id="elb5k3dvqujxc" x="92.5" y="183.6" class="st1" width="202.1" height="7"/>
</g>
<g id="elsh02jdd3z4i">
	<rect id="elvpnl6gcpdn" x="250.8" y="183.6" class="st21" width="43.8" height="7"/>
</g>
<polygon id="elcakxor3yaqs" class="st0" points="290.6,190.6 293.6,335 289.6,335 284.6,190.6 "/>
<polygon id="elocs2ngfzyi" class="st0" points="259.7,190.6 262.7,335 258.7,335 253.7,190.6 "/>
</svg>
