<?xml version="1.0" encoding="utf-8"?>
<!-- Generator: Adobe Illustrator 24.0.1, SVG Export Plug-In . SVG Version: 6.00 Build 0)  -->
<svg version="1.1" id="Camada_1" xmlns="http://www.w3.org/2000/svg" xmlns:xlink="http://www.w3.org/1999/xlink" x="0px" y="0px"
	 viewBox="0 0 436 337" style="enable-background:new 0 0 436 337;" xml:space="preserve">
<style type="text/css">
	.st0{fill:#263238;}
	.st1{fill:#2D4082;}
	.st2{opacity:0.1;fill:#FFFFFF;enable-background:new    ;}
	.st3{opacity:0.6;fill:#FFFFFF;enable-background:new    ;}
	.st4{opacity:0.5;fill:#FFFFFF;enable-background:new    ;}
	.st5{fill:#FFFFFF;}
	.st6{opacity:0.5;}
	.st7{opacity:0.3;fill:#FFFFFF;enable-background:new    ;}
	.st8{opacity:0.2;fill:#FFFFFF;enable-background:new    ;}
	.st9{opacity:0.2;enable-background:new    ;}
	.st10{opacity:0.4;fill:#FFFFFF;enable-background:new    ;}
	.st11{fill:#FFB573;}
	.st12{fill:#E0E0E0;}
	.st13{fill:#ED893E;}
	.st14{fill:#FAFAFA;}
	.st15{opacity:0.2;fill:#2D4082;enable-background:new    ;}
</style>
<g id="freepik--Device--inject-70">
	<path class="st0" d="M194.9,3.3h161.4c6.1,0,11,4.9,11,11v307.9c0,6.1-4.9,11-11,11H194.9c-6.1,0-11-4.9-11-11V14.3
		C184,8.2,188.9,3.3,194.9,3.3z"/>
	<path class="st1" d="M361.1,14.4v307.2c0,2.5-2,4.5-4.5,4.5c0,0,0,0-0.1,0H194.3c-2.2,0-4-1.7-4.1-4c0-0.1,0-0.1,0-0.2V14
		c-0.1-2,1.5-3.7,3.5-3.8c0,0,0,0,0,0h40.6c1.2,0,2.2,0.7,2.6,1.8l1.7,4.1c0.4,1.1,1.5,1.8,2.6,1.8h69.1c1.2,0,2.2-0.7,2.6-1.8
		l1.7-4.2c0.4-1.1,1.5-1.8,2.6-1.8h40C359.4,10.3,361.2,12.1,361.1,14.4z"/>
	<path class="st2" d="M352.3,10.2c-15.1,41.9-64.4,157-162.2,204V14c-0.1-2,1.5-3.7,3.5-3.8c0,0,0,0,0,0h40.6c1.2,0,2.2,0.7,2.6,1.8
		l1.7,4.1c0.4,1.1,1.5,1.8,2.6,1.8h69.1c1.2,0,2.2-0.7,2.6-1.8l1.7-4.2c0.4-1.1,1.5-1.8,2.6-1.8L352.3,10.2z"/>
	<path class="st2" d="M361.1,160.9v160.7c0,2.5-2,4.5-4.5,4.5c0,0,0,0-0.1,0H194.3c-2.2,0-4-1.7-4.1-4c0-0.1,0-0.1,0-0.2v-73.1
		C235.3,189.4,313,168.3,361.1,160.9z"/>
	<path class="st3" d="M275.6,10.6c0,1.3-1.1,2.4-2.4,2.4c-1.3,0-2.4-1.1-2.4-2.4c0-1.3,1.1-2.4,2.4-2.4l0,0
		C274.6,8.3,275.6,9.3,275.6,10.6z"/>
	<path class="st3" d="M280.4,10.6c-0.1,0.8-0.8,1.4-1.6,1.4c-0.7-0.1-1.3-0.6-1.4-1.4c-0.1-0.8,0.5-1.6,1.4-1.6
		c0.8-0.1,1.6,0.5,1.6,1.4C280.4,10.5,280.4,10.6,280.4,10.6z"/>
	<rect x="191.7" y="29.9" class="st4" width="166.1" height="281.8"/>
	<rect x="196.2" y="63.4" class="st5" width="157.1" height="40.4"/>
	<rect x="196.2" y="106.1" class="st5" width="157.1" height="40.4"/>
	<rect x="196.2" y="35.9" class="st1" width="157.1" height="24.2"/>
	<g class="st6">
		<path d="M249.2,88l-1.8-2.4l-1.8,2.4h-1.8l2.7-3.6l-2.6-3.4h1.8l1.7,2.3l1.7-2.3h1.8l-2.6,3.4L251,88L249.2,88z"/>
		<path d="M258.4,86.5V88h-6.8v-1.1l3.7-3.5c0.9-0.9,1.1-1.4,1.1-1.9c0-0.8-0.6-1.3-1.7-1.3c-0.8-0.1-1.7,0.3-2.2,1l-1.2-0.9
			c0.9-1,2.1-1.6,3.5-1.5c2,0,3.3,1,3.3,2.6c0,1.1-0.6,2.2-1.5,2.9l-2.5,2.3H258.4z"/>
	</g>
	<path class="st1" d="M320.7,84.2c0,4-3.3,7.3-7.3,7.3s-7.3-3.3-7.3-7.3s3.3-7.3,7.3-7.3c0,0,0,0,0,0
		C317.4,76.9,320.7,80.1,320.7,84.2z"/>
	<rect x="312.8" y="80.1" class="st5" width="1.1" height="8.2"/>
	<rect x="309.3" y="83.6" class="st5" width="8.2" height="1.1"/>
	<path class="st1" d="M342.5,84.2c0,4-3.3,7.3-7.3,7.3s-7.3-3.3-7.3-7.3c0-4,3.3-7.3,7.3-7.3l0,0C339.3,76.9,342.5,80.1,342.5,84.2z
		"/>
	<rect x="331.2" y="83.6" class="st5" width="8.2" height="1.1"/>
	<path class="st1" d="M209.4,90.9c-0.5,0.2-0.9,0.4-1.3,0.7c-0.4,1-0.3,2.1,0.2,3c0.5,0.4,6.4,1.4,9.5,1.2s6.1,0,9.4,0
		c3.3,0,9.5-0.5,9.9-1.2c0.4-0.9,0.4-2,0-2.9c-1.4-1.1-3.1-1.7-4.9-1.6C230.3,90.4,209.4,90.9,209.4,90.9z"/>
	<path class="st7" d="M209.4,90.9c-0.5,0.2-0.9,0.4-1.3,0.7c-0.4,1-0.3,2.1,0.2,3c0.5,0.4,6.4,1.4,9.5,1.2s6.1,0,9.4,0
		c3.3,0,9.5-0.5,9.9-1.2c0.4-0.9,0.4-2,0-2.9c-1.4-1.1-3.1-1.7-4.9-1.6C230.3,90.4,209.4,90.9,209.4,90.9z"/>
	<path class="st0" d="M209.2,88.9c-0.1,0.6-0.3,1.9,0,2.2c1.8,0.8,3.7,1.1,5.7,0.8c2.1-0.2,4.3-0.3,6.5-0.2c3.6,0,5.1,0.2,5.9,0
		c0.7-0.2,1.7-0.2,3.1-0.3c1.3-0.1,3.2-0.2,3.7-0.2c0.5,0,0.8,0.3,1.4,0c0.4-0.2,0.9-0.5,1.3-0.7c0,0-0.1-0.8-0.3-0.9
		c-0.2-0.1-0.4,0-0.4-0.3c0-0.3,0-0.2-0.2-0.4c-0.2-0.3-0.5-0.6-0.5-0.6L209.2,88.9z"/>
	<path class="st8" d="M209.2,88.9c-0.1,0.6-0.3,1.9,0,2.2c1.8,0.8,3.7,1.1,5.7,0.8c2.1-0.2,4.3-0.3,6.5-0.2c3.6,0,5.1,0.2,5.9,0
		c0.7-0.2,1.7-0.2,3.1-0.3c1.3-0.1,3.2-0.2,3.7-0.2c0.5,0,0.8,0.3,1.4,0c0.4-0.2,0.9-0.5,1.3-0.7c0,0-0.1-0.8-0.3-0.9
		c-0.2-0.1-0.4,0-0.4-0.3c0-0.3,0-0.2-0.2-0.4c-0.2-0.3-0.5-0.6-0.5-0.6L209.2,88.9z"/>
	<path class="st1" d="M219.7,89.3c1.1,0.4,2.4,0.6,3.6,0.6c0.9-0.1,1.8-0.1,2.7,0c0.9,0.1,0.6-0.3,1.6,0.2c1,0.5,1,1.1,2.7,0.3
		c1.7-0.8,1.9-0.9,2.5-0.9c0.5,0.1,1,0,1.5-0.2c0.6-0.2,2.4-0.8,2.4-0.8s0.1-0.8-1.5-0.9c-1.5,0-17.5,0.5-17.9,0.9
		C216.8,88.9,219.7,89.3,219.7,89.3z"/>
	<path class="st9" d="M219.7,89.3c1.1,0.4,2.4,0.6,3.6,0.6c0.9-0.1,1.8-0.1,2.7,0c0.9,0.1,0.6-0.3,1.6,0.2c1,0.5,1,1.1,2.7,0.3
		c1.7-0.8,1.9-0.9,2.5-0.9c0.5,0.1,1,0,1.5-0.2c0.6-0.2,2.4-0.8,2.4-0.8s0.1-0.8-1.5-0.9c-1.5,0-17.5,0.5-17.9,0.9
		C216.8,88.9,219.7,89.3,219.7,89.3z"/>
	<path class="st1" d="M210.8,87.7c0,0-2.6,0.4-2.6,0.9c-0.1,0.5,0.4,0.5,0.8,0.8c0.2,0.2,0.4,0.4,0.5,0.7c0.5-0.4,1.3-0.5,1.9-0.3
		c0.9,0.4,1.3,0.5,1.5,0.3c0.2-0.2,0.7,0.2,1.5,0.1c0.4-0.1,0.9-0.1,1.4,0c0.5,0,1.2-0.9,1.7-0.8c0.8-0.2,1.6-0.4,2.4-0.8
		L210.8,87.7z"/>
	<path class="st0" d="M209.1,84.1c-0.2,0.6-0.2,1.2,0,1.7c0.2,0.8,0.2,1.7,0,2.6c1.4-0.3,2.8-0.3,4.2,0c2.1,0.5,2.5,1.3,4.6,0.8
		c0.9-0.4,1.9-0.5,2.9-0.5c1.5,0,3.6-0.7,5.5-0.4c1.8,0.3,4.2-0.3,4.3,0c0.1,0.3,3.6,0,3.6,0s1.7-0.4,1.7-0.7s-0.2-4.3-0.2-4.3
		L209.1,84.1z"/>
	<path class="st1" d="M214.4,87.5c0,0,7.8-0.3,8.9-0.3s1.9,0.2,3.7,0.2c1.3,0.1,2.5,0.2,3.8,0.2c1.7-0.2,3.3,0,3.5-0.1
		c-0.7,0.1-1.5,0.2-2.2,0.4c-0.7,0.2-1.4,0.3-2,0.2c-0.5-0.2-1-0.2-1.6-0.2c-0.1,0.1-1.1,0-1.3,0.3c-0.2,0.3-0.3,1.4-0.4,1.4
		c-0.4-0.5-0.8-0.9-1.4-1.1c-0.9-0.4-2.4-0.9-2.6-0.6c-0.2,0.3-1.5,0.1-1.9,0.6c-0.4,0.4-0.9,0.6-1.4,0.7
		C219.3,88.9,214.4,87.5,214.4,87.5z"/>
	<path class="st0" d="M208.8,84c-0.1,0.6-0.3,1.9,0,2.2s2.5,1.1,5.7,0.8c2.1-0.2,4.3-0.3,6.4-0.2c3.6,0,5.1,0.2,5.9,0
		c1-0.2,2-0.3,3.1-0.3c1.3-0.1,3.2-0.2,3.7-0.2s0.8,0.3,1.4,0c0.4-0.3,0.9-0.5,1.3-0.7c0,0-0.1-0.8-0.3-0.9c-0.2-0.1-0.4,0-0.4-0.3
		c0-0.3,0-0.2-0.2-0.4l-0.5-0.6L208.8,84z"/>
	<path class="st8" d="M208.8,84c-0.1,0.6-0.3,1.9,0,2.2s2.5,1.1,5.7,0.8c2.1-0.2,4.3-0.3,6.4-0.2c3.6,0,5.1,0.2,5.9,0
		c1-0.2,2-0.3,3.1-0.3c1.3-0.1,3.2-0.2,3.7-0.2s0.8,0.3,1.4,0c0.4-0.3,0.9-0.5,1.3-0.7c0,0-0.1-0.8-0.3-0.9c-0.2-0.1-0.4,0-0.4-0.3
		c0-0.3,0-0.2-0.2-0.4l-0.5-0.6L208.8,84z"/>
	<polygon class="st1" points="217,82.6 226.9,88.5 235.4,82.3 	"/>
	<polygon class="st3" points="217,82.6 226.9,88.5 235.4,82.3 	"/>
	<polygon class="st1" points="208.1,82.5 211.3,87.9 224.6,82.7 	"/>
	<polygon class="st3" points="208.1,82.5 211.3,87.9 224.6,82.7 	"/>
	<path class="st1" d="M208.8,82.8c0,0-1.7,1.6-1.2,2.1c0.5,0.5-0.1,1.2-0.1,1.2c1-0.3,2.2-0.3,3.2,0c1.5,0.5,3.1,0.5,4.6,0
		c1-0.3,3.3-0.4,4-0.9c0.9-0.9,1.7-1.8,2.4-2.8L208.8,82.8z"/>
	<path class="st1" d="M224.3,82.3c0,0,2.8,2.9,4.7,3.1c2,0.2,2.2-0.2,4.6,0s2.6,0.9,2.9,0.1c0.2-1.2,0.2-2.4,0-3.5L224.3,82.3z"/>
	<path class="st9" d="M208.8,82.8c0,0-1.7,1.6-1.2,2.1c0.5,0.5-0.1,1.2-0.1,1.2c1-0.3,2.2-0.3,3.2,0c1.5,0.5,3.1,0.5,4.6,0
		c1-0.3,3.3-0.4,4-0.9c0.9-0.9,1.7-1.8,2.4-2.8L208.8,82.8z"/>
	<path class="st9" d="M224.3,82.3c0,0,2.8,2.9,4.7,3.1c2,0.2,2.2-0.2,4.6,0s2.6,0.9,2.9,0.1c0.2-1.2,0.2-2.4,0-3.5L224.3,82.3z"/>
	<path class="st1" d="M208.5,90.9c0.6-0.2,1.3-0.4,2-0.3c0.4,0.2,5.4,0.6,5.8,0.6c0.8-0.2,1.6-0.2,2.4,0c1,0.3,0.8,0.5,2.2,0.3
		c0.8-0.2,1.6-0.4,2.5-0.4c0.7,0,0.9-0.2,1.4,0c0.8,0.2,1.6,0.4,2.4,0.4c0.9,0,0.8,0.5,2.1,0.1c0.7-0.3,1.5-0.5,2.3-0.6
		c0.7,0,1.7-0.1,2,0s0.1-0.2,1,0c0.5,0.1,0.9,0.1,1.4-0.1c0.2,0.2,0.4,0.4,0.6,0.5c0.3,0.2-1.2,0.3-1.7,0.4
		c-0.5,0.1,0.2,0.1-1.1,0.3c-1.2,0.3-0.9,0.5-1.8,0.4c-1,0-0.9,0.1-1.5,0c-0.7-0.1-0.4,0.3-1.7,0c-0.9-0.2-1.8-0.4-2.7-0.5
		c-0.2,0,0.6-0.1-0.6,0.2s-0.3,0.1-1.9,0.4c-1.5,0.3-1.2,0.7-2.2,0.3c-1-0.4-1.1-0.5-1.5-0.3s-0.1,0.1-0.7,0.2c-0.7,0-0.4,0-1.1,0
		c-1,0.2-2,0.3-3,0.3c-0.7,0-1.7-0.4-2.2-0.4c-0.6-0.1-1.2-0.2-1.8-0.3c-0.8-0.1-1.3,0-1.5-0.2C209.4,91.7,208.5,90.9,208.5,90.9z"
		/>
	<path class="st9" d="M208.5,90.9c0.6-0.2,1.3-0.4,2-0.3c0.4,0.2,5.4,0.6,5.8,0.6c0.8-0.2,1.6-0.2,2.4,0c1,0.3,0.8,0.5,2.2,0.3
		c0.8-0.2,1.6-0.4,2.5-0.4c0.7,0,0.9-0.2,1.4,0c0.8,0.2,1.6,0.4,2.4,0.4c0.9,0,0.8,0.5,2.1,0.1c0.7-0.3,1.5-0.5,2.3-0.6
		c0.7,0,1.7-0.1,2,0s0.1-0.2,1,0c0.5,0.1,0.9,0.1,1.4-0.1c0.2,0.2,0.4,0.4,0.6,0.5c0.3,0.2-1.2,0.3-1.7,0.4
		c-0.5,0.1,0.2,0.1-1.1,0.3c-1.2,0.3-0.9,0.5-1.8,0.4c-1,0-0.9,0.1-1.5,0c-0.7-0.1-0.4,0.3-1.7,0c-0.9-0.2-1.8-0.4-2.7-0.5
		c-0.2,0,0.6-0.1-0.6,0.2s-0.3,0.1-1.9,0.4c-1.5,0.3-1.2,0.7-2.2,0.3c-1-0.4-1.1-0.5-1.5-0.3s-0.1,0.1-0.7,0.2c-0.7,0-0.4,0-1.1,0
		c-1,0.2-2,0.3-3,0.3c-0.7,0-1.7-0.4-2.2-0.4c-0.6-0.1-1.2-0.2-1.8-0.3c-0.8-0.1-1.3,0-1.5-0.2C209.4,91.7,208.5,90.9,208.5,90.9z"
		/>
	<path class="st1" d="M237.7,83.6c0.4-0.2,0.2-0.9,0.2-1.4c0-5.4-6.9-9.7-15.4-9.7s-15.4,4.4-15.4,9.7c0,0.5-0.2,1.1,0.2,1.4
		c1.2,1.1,8.1-0.1,15.3-0.2C229.1,83.2,236.1,84.4,237.7,83.6z"/>
	<path class="st7" d="M237.7,83.6c0.4-0.2,0.2-0.9,0.2-1.4c0-5.4-6.9-9.7-15.4-9.7s-15.4,4.4-15.4,9.7c0,0.5-0.2,1.1,0.2,1.4
		c1.2,1.1,8.1-0.1,15.3-0.2C229.1,83.2,236.1,84.4,237.7,83.6z"/>
	<path class="st1" d="M222.5,74.3c0,0,0.4,0.8,0,0.8S222.5,74.3,222.5,74.3z"/>
	<path class="st1" d="M227,74.3c0,0,1.5,0.2,1.3,0.4C228.1,74.9,227,74.3,227,74.3z"/>
	<path class="st1" d="M218.6,74.3c0,0-0.9,0.6-1.1,0.4S218.6,74.3,218.6,74.3z"/>
	<g class="st6">
		<path d="M246.5,130.3l-1.8-2.4l-1.8,2.4h-1.8l2.7-3.6l-2.6-3.5h1.8l1.7,2.3l1.7-2.3h1.8l-2.6,3.4l2.7,3.6H246.5z"/>
		<path d="M252.3,121.1v9.2h-1.7v-7.7h-1.9v-1.4L252.3,121.1z"/>
	</g>
	<path class="st1" d="M318,126.5c0,4-3.3,7.3-7.3,7.3c-4,0-7.3-3.3-7.3-7.3c0-4,3.3-7.3,7.3-7.3c0,0,0,0,0,0
		C314.7,119.2,318,122.5,318,126.5z"/>
	<rect x="310.1" y="122.4" class="st5" width="1.1" height="8.2"/>
	<rect x="306.6" y="125.9" class="st5" width="8.2" height="1.1"/>
	<path class="st1" d="M339.9,126.5c0,4-3.3,7.3-7.3,7.3c-4,0-7.3-3.3-7.3-7.3c0-4,3.3-7.3,7.3-7.3c0,0,0,0,0,0
		C336.6,119.2,339.9,122.5,339.9,126.5z"/>
	<rect x="328.5" y="125.9" class="st5" width="8.2" height="1.1"/>
	<path class="st1" d="M222.9,113.7h-6.1c-3.5,1.3-5.9,4.6-5.9,8.3h18C228.7,118.3,226.4,115,222.9,113.7z"/>
	<path class="st3" d="M222.9,113.7h-6.1c-3.5,1.3-5.9,4.6-5.9,8.3h18C228.7,118.3,226.4,115,222.9,113.7z"/>
	
		<rect x="219.1" y="108.7" transform="matrix(0.9841 -0.1774 0.1774 0.9841 -17.5477 40.8652)" class="st9" width="1.3" height="19.6"/>
	<polygon class="st1" points="227.4,142 229.1,122.2 210.5,122.2 212.2,142 	"/>
	<polygon class="st1" points="229.9,123.5 209.7,123.5 210,120.6 229.6,120.6 	"/>
	<polygon class="st10" points="229.9,123.5 209.7,123.5 210,120.6 229.6,120.6 	"/>
	<rect x="196.2" y="150.7" class="st1" width="157.1" height="24.2"/>
	<path class="st5" d="M253,160.7c0,2-1.5,3.3-3.9,3.3h-2.1v2.6h-1.7v-9.2h3.8C251.5,157.4,253,158.7,253,160.7z M251.3,160.7
		c0-1.1-0.8-1.8-2.3-1.8h-2v3.6h2C250.5,162.5,251.3,161.9,251.3,160.7L251.3,160.7z"/>
	<path class="st5" d="M260.4,162.5v4.1h-1.6v-0.9c-0.5,0.7-1.3,1-2.2,1c-1.6,0-2.6-0.9-2.6-2.1s0.8-2.1,2.9-2.1h1.8v-0.1
		c0-1-0.6-1.5-1.7-1.5c-0.8,0-1.5,0.2-2.1,0.7l-0.6-1.2c0.9-0.6,1.9-0.9,3-0.9C259.2,159.5,260.4,160.5,260.4,162.5z M258.7,164.4
		v-0.8H257c-1.1,0-1.4,0.4-1.4,0.9s0.5,1,1.3,1C257.7,165.6,258.5,165.1,258.7,164.4L258.7,164.4z"/>
	<path class="st5" d="M268.9,159.6l-3.3,7.6c-0.3,1.2-1.4,2.1-2.7,2.1c-0.7,0-1.3-0.2-1.9-0.6l0.7-1.2c0.3,0.3,0.8,0.5,1.2,0.5
		c0.6,0,0.9-0.3,1.2-1l0.1-0.3l-3.1-7h1.7l2.2,5.2l2.2-5.2L268.9,159.6z"/>
	<path class="st5" d="M281.6,162.6v4H280v-3.8c0-1.2-0.6-1.9-1.6-1.9s-1.8,0.7-1.8,2.1v3.6H275v-3.8c0-1.2-0.6-1.9-1.6-1.9
		c-1,0-1.8,0.7-1.8,2.1v3.6h-1.6v-7h1.6v0.9c0.6-0.6,1.4-1,2.3-1c0.9-0.1,1.8,0.4,2.4,1.2c0.7-0.8,1.6-1.2,2.6-1.2
		c1.5-0.1,2.8,1,2.9,2.5C281.7,162.2,281.7,162.4,281.6,162.6z"/>
	<path class="st5" d="M290.4,163.6h-5.5c0.2,1.1,1.2,1.8,2.3,1.7c0.7,0,1.4-0.3,1.9-0.8l0.9,1c-0.7,0.8-1.8,1.2-2.8,1.1
		c-2,0.2-3.7-1.3-3.8-3.2c0-0.1,0-0.2,0-0.4c-0.1-1.9,1.5-3.5,3.4-3.6c0.1,0,0.2,0,0.2,0c1.9-0.1,3.5,1.4,3.5,3.3c0,0.1,0,0.2,0,0.4
		C290.4,163.3,290.4,163.5,290.4,163.6z M284.9,162.5h4c-0.1-1-1-1.7-2-1.7C285.9,160.8,285,161.5,284.9,162.5L284.9,162.5z"/>
	<path class="st5" d="M298.9,162.6v4h-1.6v-3.8c0-1.2-0.6-1.9-1.7-1.9c-1-0.1-1.9,0.7-2,1.8c0,0.1,0,0.2,0,0.4v3.5H292v-7h1.6v0.9
		c0.6-0.7,1.5-1,2.4-1c1.5-0.1,2.8,1,2.9,2.5C298.9,162.2,298.9,162.4,298.9,162.6z"/>
	<path class="st5" d="M305.2,166.2c-0.5,0.3-1,0.5-1.6,0.5c-1.2,0.1-2.3-0.7-2.4-1.9c0-0.1,0-0.3,0-0.4V161H300v-1.3h1.1v-1.6h1.6
		v1.6h1.8v1.3h-1.9v3.3c0,0.7,0.3,1.1,1,1.1c0.3,0,0.7-0.1,0.9-0.3L305.2,166.2z"/>
	<rect x="196.2" y="178.2" class="st5" width="157.1" height="44.9"/>
	<g class="st6">
		<path d="M276,200.9l1.5,0.8l-0.5,0.9l-1.5-0.9v1.7h-1v-1.7l-1.5,0.9l-0.5-0.9l1.5-0.8l-1.5-0.8l0.6-0.9l1.5,0.9v-1.7h1v1.7
			l1.5-0.9l0.5,0.9L276,200.9z"/>
		<path d="M281.7,200.9l1.5,0.8l-0.5,0.9l-1.5-0.9v1.7h-1v-1.7l-1.5,0.9l-0.5-0.9l1.5-0.8l-1.5-0.8l0.5-0.9l1.5,0.9v-1.7h1v1.7
			l1.5-0.9l0.5,0.9L281.7,200.9z"/>
		<path d="M287.4,200.9l1.5,0.8l-0.5,0.9l-1.5-0.9v1.7h-1v-1.7l-1.5,0.9l-0.5-0.9l1.5-0.8l-1.5-0.8l0.5-0.9l1.5,0.9v-1.7h1v1.7
			l1.5-0.9l0.5,0.9L287.4,200.9z"/>
		<path d="M293.1,200.9l1.5,0.8l-0.5,0.9l-1.5-0.9v1.7h-1v-1.7l-1.5,0.9l-0.5-0.9l1.5-0.8l-1.5-0.8l0.5-0.9l1.5,0.9v-1.7h1v1.7
			l1.5-0.9l0.5,0.9L293.1,200.9z"/>
		<path d="M302.2,200.9l1.5,0.8l-0.5,0.9l-1.5-0.9v1.7h-1v-1.7l-1.5,0.9l-0.5-0.9l1.5-0.8l-1.5-0.8l0.6-0.9l1.5,0.9v-1.7h1v1.7
			l1.5-0.9l0.5,0.9L302.2,200.9z"/>
		<path d="M307.9,200.9l1.5,0.8l-0.5,0.9l-1.5-0.9v1.7h-1v-1.7l-1.5,0.9l-0.5-0.9l1.5-0.8l-1.5-0.8l0.5-0.9l1.5,0.9v-1.7h1v1.7
			l1.5-0.9l0.5,0.9L307.9,200.9z"/>
		<path d="M313.6,200.9l1.5,0.8l-0.5,0.9l-1.5-0.9v1.7h-1v-1.7l-1.5,0.9l-0.5-0.9l1.5-0.8l-1.5-0.8l0.5-0.9l1.5,0.9v-1.7h1v1.7
			l1.5-0.9l0.5,0.9L313.6,200.9z"/>
		<path d="M319.4,200.9l1.5,0.8l-0.5,0.9l-1.5-0.9v1.7h-1v-1.7l-1.5,0.9l-0.5-0.9l1.5-0.8l-1.5-0.8l0.5-0.9l1.5,0.9v-1.7h1.1v1.7
			l1.5-0.9l0.5,0.9L319.4,200.9z"/>
		<path d="M328.4,200.9l1.5,0.8l-0.5,0.9l-1.5-0.9v1.7h-1v-1.7l-1.5,0.9l-0.5-0.9l1.5-0.8l-1.5-0.8l0.6-0.9l1.5,0.9v-1.7h1v1.7
			l1.5-0.9l0.5,0.9L328.4,200.9z"/>
		<path d="M334.2,200.9l1.5,0.8l-0.5,0.9l-1.5-0.9v1.7h-1v-1.7l-1.5,0.9l-0.5-0.9l1.5-0.8l-1.5-0.8l0.5-0.9l1.5,0.9v-1.7h1v1.7
			l1.5-0.9l0.5,0.9L334.2,200.9z"/>
		<path d="M339.9,200.9l1.5,0.8l-0.5,0.9l-1.5-0.9v1.7h-1v-1.7l-1.5,0.9l-0.5-0.9l1.5-0.8l-1.5-0.8l0.5-0.9l1.5,0.9v-1.7h1v1.7
			l1.5-0.9l0.5,0.9L339.9,200.9z"/>
	</g>
	<path class="st1" d="M211,191.6h22.3c1.6,0,3,1.3,3,3v12.8c0,1.6-1.3,3-3,3H211c-1.6,0-3-1.3-3-3v-12.8
		C208,192.9,209.3,191.6,211,191.6z"/>
	<g class="st6">
		<rect x="208" y="201.7" width="28.2" height="4.7"/>
	</g>
	<g class="st6">
		<path d="M234,198.4c0,0.8-0.7,1.4-1.4,1.4c-0.8,0-1.4-0.7-1.4-1.4c0-0.8,0.6-1.4,1.4-1.4C233.3,196.9,233.9,197.5,234,198.4
			C234,198.3,234,198.3,234,198.4z"/>
	</g>
	<path class="st5" d="M232.1,198.4c0,0.8-0.6,1.4-1.4,1.4c-0.8,0-1.4-0.6-1.4-1.4c0-0.8,0.6-1.4,1.4-1.4c0,0,0,0,0,0
		C231.5,197,232.1,197.6,232.1,198.4z"/>
	<path class="st1" d="M239.4,248.3h70.7c8.9,0,16,7.2,16,16l0,0c0,8.9-7.2,16-16,16h-70.7c-8.9,0-16-7.2-16-16l0,0
		C223.4,255.5,230.6,248.3,239.4,248.3z"/>
	<path class="st5" d="M243,263.3c-0.2-3.6,2.6-6.6,6.2-6.8s6.6,2.6,6.8,6.2c0.2,3.6-2.6,6.6-6.2,6.8c-0.1,0-0.2,0-0.3,0
		c-3.4,0.2-6.3-2.4-6.5-5.8C243,263.6,243,263.5,243,263.3z M253.7,263.3c0-2.3-1.9-4.2-4.2-4.2s-4.2,1.9-4.2,4.2
		c0,2.3,1.9,4.2,4.2,4.2c0,0,0,0,0,0c2.3,0.1,4.1-1.7,4.2-3.9C253.7,263.5,253.7,263.4,253.7,263.3z"/>
	<path class="st5" d="M266.1,269.3l-2.4-3.5h-3.2v3.5h-2.2v-12h4.9c3.1,0,5.1,1.6,5.1,4.3c0.1,1.7-1,3.2-2.6,3.8l2.8,3.9
		L266.1,269.3z M263.1,259.2h-2.6v4.8h2.6c2,0,3-0.9,3-2.4S265.1,259.2,263.1,259.2z"/>
	<path class="st5" d="M270.8,257.3h5.2c3.9,0,6.6,2.4,6.6,6c0,3.6-2.6,6-6.6,6h-5.2V257.3z M275.9,267.5c2.7,0,4.4-1.6,4.4-4.1
		c0-2.5-1.7-4.1-4.4-4.1H273v8.2H275.9z"/>
	<path class="st5" d="M293.9,267.5v1.9H285v-12h8.7v1.9h-6.6v3.1h5.8v1.8h-5.8v3.3L293.9,267.5z"/>
	<path class="st5" d="M304.2,269.3l-2.4-3.5h-3.2v3.5h-2.2v-12h4.9c3.1,0,5.1,1.6,5.1,4.3c0.1,1.7-1,3.2-2.6,3.8l2.8,3.9
		L304.2,269.3z M301.2,259.2h-2.6v4.8h2.6c1.9,0,3-0.9,3-2.4S303.2,259.2,301.2,259.2z"/>
	<path class="st5" d="M252.6,42.6h4c3,0,5,1.8,5,4.6s-2,4.6-5,4.6h-4L252.6,42.6z M256.5,50.3c1.7,0.1,3.3-1.1,3.4-2.9
		c0.1-1.7-1.1-3.3-2.9-3.4c-0.2,0-0.4,0-0.5,0h-2.2v6.3H256.5z"/>
	<path class="st5" d="M269.8,48.8h-5.5c0.2,1.1,1.2,1.8,2.3,1.7c0.7,0,1.4-0.2,1.9-0.8l0.9,1c-1.5,1.5-4,1.6-5.6,0
		c-0.7-0.7-1.1-1.5-1.2-2.5c-0.1-1.9,1.5-3.5,3.4-3.6c0.1,0,0.2,0,0.2,0c1.9-0.1,3.5,1.4,3.5,3.3c0,0.1,0,0.2,0,0.3
		C269.8,48.4,269.8,48.6,269.8,48.8z M264.3,47.7h4c-0.2-1.1-1.2-1.8-2.3-1.7C265.2,46.2,264.5,46.8,264.3,47.7z"/>
	<path class="st5" d="M275.6,51.4c-0.5,0.3-1,0.5-1.6,0.5c-1.2,0.1-2.3-0.7-2.4-1.9c0-0.1,0-0.3,0-0.4v-3.4h-1.1v-1.3h1.1v-1.6h1.6
		v1.6h1.9v1.3h-1.9v3.3c-0.1,0.5,0.2,1,0.7,1.1c0.1,0,0.2,0,0.2,0c0.3,0,0.7-0.1,0.9-0.3L275.6,51.4z"/>
	<path class="st5" d="M282.8,47.7v4.1h-1.6v-0.9c-0.5,0.7-1.3,1-2.2,0.9c-1.6,0-2.6-0.9-2.6-2.1s0.8-2.1,2.9-2.1h1.8v-0.1
		c0-1-0.6-1.5-1.7-1.5c-0.8,0-1.5,0.2-2.1,0.7l-0.6-1.2c0.9-0.6,1.9-0.9,3-0.9C281.7,44.7,282.8,45.6,282.8,47.7z M281.2,49.6v-0.8
		h-1.6c-1.1,0-1.4,0.4-1.4,0.9c0,0.5,0.5,1,1.3,1C280.2,50.7,280.9,50.3,281.2,49.6L281.2,49.6z"/>
	<path class="st5" d="M284.7,42.6c0-0.5,0.5-1,1-1c0,0,0.1,0,0.1,0c0.5-0.1,1,0.3,1.1,0.8c0,0,0,0.1,0,0.1c-0.2,0.6-0.8,0.9-1.4,0.7
		C285.2,43.2,284.9,42.9,284.7,42.6L284.7,42.6z M284.9,44.8h1.6v7H285L284.9,44.8z"/>
	<path class="st5" d="M288.7,42h1.6v9.7h-1.6V42z"/>
	<path class="st5" d="M291.7,51.1l0.6-1.2c0.7,0.4,1.6,0.7,2.4,0.7c1,0,1.5-0.3,1.5-0.8c0-1.3-4.4-0.1-4.4-2.9
		c0-1.3,1.2-2.2,3.1-2.2c0.9,0,1.8,0.2,2.6,0.6l-0.6,1.2c-0.6-0.4-1.3-0.5-2-0.5c-1,0-1.5,0.3-1.5,0.8c0,1.4,4.4,0.2,4.4,2.9
		c0,1.3-1.2,2.2-3.2,2.2C293.6,51.9,292.6,51.6,291.7,51.1z"/>
	<rect x="209" y="19.8" class="st3" width="2.1" height="2.8"/>
	<rect x="205.5" y="18.8" class="st3" width="2.1" height="3.8"/>
	<rect x="202.1" y="17.9" class="st3" width="2.1" height="4.7"/>
	<rect x="198.7" y="17" class="st3" width="2.1" height="5.6"/>
	<rect x="340.5" y="18.8" class="st3" width="1.3" height="2.8"/>
	<rect x="342.7" y="17.7" class="st3" width="10" height="4.9"/>
</g>
<g id="freepik--character-1--inject-71">
	<path class="st0" d="M144.9,41.1c-7.7,6.3-15.1,16.5-10.8,27.5s32.5,12.2,38.4,7.6c7.7-5.9,0.9-32.2-5.1-32.3
		C166.9,34.2,151.3,35.8,144.9,41.1z"/>
	<path class="st11" d="M134.1,147.5c0,0,3.1,56,6.5,86.3c0.3,28.5,6.9,92.8,6.9,92.8h7.2c1.2-31.9,10.1-61.7,4.2-89.9
		c13.8-55.3,4.3-89.2,4.3-89.2L134.1,147.5z"/>
	<path class="st11" d="M142,147.5c0,0,14.8,62.1,18.9,88.6c4.3,27.8,10.6,81.7,10.3,90.5h6.2c0,0,10.4-54.6,0.8-89.5
		c8-78.7-11.7-89.5-11.7-89.5L142,147.5z"/>
	<path class="st11" d="M106.5,75.7c-0.5-3.4-6.6-3.6-6.6-3.6l-3-1.5c-1.1-0.7-2.5-0.3-3.2,0.7l-1,1.6c-0.6,1.3-0.1,2.9,1.1,3.7
		l0.9,0.6c1.5,1.1,3.3,1.7,5.2,1.8l2.7,0.1c0.6,0,1.2,0,1.8-0.2C105.8,78.5,106.7,77.1,106.5,75.7L106.5,75.7z"/>
	<path class="st11" d="M138.9,95.3c-0.4,0.4-0.6,0.6-0.8,0.8l-0.8,0.7c-0.5,0.4-1,0.8-1.6,1.2c-1.1,0.8-2.1,1.5-3.3,2.2
		c-2.2,1.3-4.6,2.5-7,3.4c-4.8,1.9-10,2.9-15.2,3h-0.5c-0.2,0-0.5,0-0.7-0.1c-0.5-0.1-0.9-0.2-1.3-0.4c-0.7-0.3-1.4-0.7-2-1.3
		c-0.7-0.7-1.3-1.6-1.8-2.5c-0.6-1.3-1.1-2.7-1.4-4.2c-0.5-2.5-0.9-5-1-7.5c-0.3-4.8-0.2-9.7,0.3-14.5c0.1-1.2,1.2-2.1,2.4-2
		c1,0.1,1.8,0.9,2,1.9v0.1c0.5,4.6,1.1,9.2,2,13.7c0.4,2.2,0.9,4.3,1.5,6.4c0.3,0.9,0.6,1.7,1,2.5c0.2,0.3,0.4,0.4,0.3,0.3
		c-0.1-0.1-0.3-0.2-0.5-0.3c-0.2-0.1-0.3-0.1-0.5-0.1h-0.3l0,0c2.1-0.2,4.2-0.5,6.3-1c2-0.5,4-1.2,6-2c1.9-0.8,3.8-1.8,5.6-3
		c0.9-0.6,1.8-1.1,2.6-1.8c0.4-0.3,0.8-0.6,1.2-0.9l0.6-0.5l0.4-0.4l0.3-0.2c1.8-1.6,4.6-1.5,6.2,0.3
		C140.6,91,140.6,93.7,138.9,95.3L138.9,95.3z"/>
	<path class="st12" d="M143.7,84.4c-7.8-1.3-15.9,4-20.2,8.3c-2.2,6.6,4.8,14.6,4.8,14.6s10-6.1,13.6-10.3
		C145.5,92.8,148.2,85.1,143.7,84.4z"/>
	<path class="st0" d="M167.8,146.8c0,0,11,7.8,13,33.7c0.8,10.2,2.3,50.9,5.4,68.4c-11.3,8-45,6.9-50.3,2.2
		c1.5-35.4-12-82.4-2.2-104C150.1,145.1,167.8,146.8,167.8,146.8z"/>
	<path class="st9" d="M156.7,221c0.1-14.9-2-35.4-8.7-47.5C150.3,188.7,156.7,221,156.7,221z"/>
	<path class="st12" d="M128.7,96.4c0,8.4-6.7,12.9,0.9,19.3c0.5,7.3,1,20.3,3.2,32.2c2.3,3.2,19.2,3,36.8-0.9
		c-2.3-10.2-1.4-26.8,4.6-49.4c1.3-5-1.8-10.2-6.8-11.5c-0.2-0.1-0.5-0.1-0.7-0.1c-1.4-0.3-3-0.5-4.5-0.7c-5.5-0.8-11-1.2-16.6-1.2
		c-1.8,0-3.6,0.1-5.4,0.2C133.7,84.7,128.7,90,128.7,96.4z"/>
	<path class="st1" d="M143.9,115.7l20.6-4.7c0.8-0.2,1.6,0.3,1.7,1.1l6.7,29.5c0.2,0.8-0.3,1.6-1.1,1.7l-20.6,4.7
		c-0.8,0.2-1.6-0.3-1.7-1.1l-6.7-29.5C142.7,116.6,143.2,115.9,143.9,115.7z"/>
	<path class="st1" d="M147.5,94.9c0,0-3.3,4-6.1,4.9l-0.3,2c3.5-0.4,6.7-2.1,9.1-4.7L147.5,94.9z"/>
	<path class="st1" d="M138.5,92.5c0,0-0.1,5.2,1.3,7.7l-1.1,1.7c-2.3-2.6-3.6-6-3.7-9.5L138.5,92.5z"/>
	<path class="st11" d="M161.4,66.6c-1.3,5.2-2.9,14.9,0.7,18.7c0,0-13.2,3.6-21.8,15.4c-3.9-12.4,5.2-16.6,5.2-16.6
		c6-1,6.1-5.4,5.3-9.6L161.4,66.6z"/>
	<path class="st9" d="M157.1,69.8l-6.3,4.7c0.2,1,0.3,2,0.4,3c2.3-0.2,5.5-2.4,5.9-4.8C157.2,71.7,157.2,70.8,157.1,69.8z"/>
	<path class="st11" d="M167.5,57.3c-2.5,8.5-3.4,12.1-8.7,15.5c-8,5-17.7-0.1-17.8-9.3c0-8.2,4.1-20.7,13.2-22
		S170.1,48.8,167.5,57.3z"/>
	<path class="st0" d="M160.9,44.9c-2.4,8.2-0.3,16.7,4.5,17.7c6.8-2.5,6.4-10.1,4.7-13.5C168.4,45.7,162.3,40.2,160.9,44.9z"/>
	<path class="st0" d="M164.6,59.6c-3.8,1.2-4.5,3.8-4.5,3.8s2.6-1.8,5.1-1.5C164.8,61.2,164.6,60.4,164.6,59.6z"/>
	<path class="st0" d="M155.2,56.5c-0.2,0.7-0.7,1.2-1.1,1.1c-0.5-0.1-0.7-0.8-0.5-1.5s0.7-1.2,1.1-1.1
		C155.1,55.1,155.3,55.8,155.2,56.5z"/>
	<path class="st0" d="M146.5,54.4c-0.2,0.7-0.7,1.2-1.1,1.1s-0.7-0.8-0.5-1.5c0.2-0.7,0.7-1.2,1.1-1.1
		C146.4,53,146.6,53.7,146.5,54.4z"/>
	<path class="st0" d="M146.1,53l-1.6-0.9C144.6,52.1,145.1,53.6,146.1,53z"/>
	<path class="st13" d="M148.1,55.5c-1,1.4-2.2,2.7-3.6,3.8c0.6,0.7,1.5,1.1,2.4,1.1L148.1,55.5z"/>
	<path class="st11" d="M167.5,65.8c-1.1,1.2-2.6,2-4.2,2c-2.1-0.1-2.4-2.4-1.3-4.4c1-1.8,3.3-3.8,5.1-2.8S168.9,64.2,167.5,65.8z"/>
	<path class="st0" d="M156.8,53.5c-0.1-0.1-0.2-0.1-0.2-0.3c-0.3-1-1.1-1.9-2.1-2.3c-0.2-0.1-0.4-0.3-0.3-0.5c0-0.2,0.3-0.4,0.5-0.3
		c0,0,0,0,0,0c1.3,0.5,2.3,1.5,2.7,2.8c0.1,0.2,0,0.4-0.2,0.5c0,0,0,0,0,0C157,53.5,156.9,53.5,156.8,53.5z"/>
	<path class="st0" d="M143.3,50.2c-0.1,0-0.2,0-0.3-0.1c-0.2-0.2-0.2-0.4,0-0.6c0.9-1,2.2-1.6,3.6-1.4c0.2,0,0.4,0.3,0.4,0.5
		c0,0.2-0.3,0.4-0.5,0.4c-1.1-0.1-2.1,0.3-2.8,1.1C143.5,50.2,143.4,50.2,143.3,50.2z"/>
	<path class="st0" d="M154.8,55.1l-1.6-0.9C153.3,54.2,153.8,55.7,154.8,55.1z"/>
	<path class="st11" d="M154.3,124.9l-7.9-1.5l0.9,9c0,0,5.9-0.3,9.3-3l0.3-1.2C156.6,126.3,156.1,125.6,154.3,124.9z"/>
	<path class="st11" d="M141.7,127.2l0.9,3.8c0.3,1.1,1.4,1.9,2.5,1.7l2.2-0.3l-0.9-9l-3.4,1.2C142.1,125,141.5,126.1,141.7,127.2z"
		/>
	<path class="st11" d="M171.9,92.6c2.4,4.6,4.5,9.3,6.2,14.2c0.9,2.4,1.7,4.9,2.4,7.5c0.7,2.6,1.2,5.3,1.5,8.1
		c0.1,0.7,0.1,1.5,0.1,2.2v0.3v0.4c0,0.3-0.1,0.6-0.2,0.9c-0.1,0.5-0.4,1.1-0.7,1.5c-0.5,0.7-1.1,1.3-1.8,1.8
		c-0.9,0.6-1.8,1-2.8,1.2c-0.8,0.2-1.5,0.4-2.3,0.5c-2.7,0.3-5.4,0.4-8.1,0.3c-5.1-0.2-10.2-0.8-15.2-1.8c-1.2-0.2-2-1.3-1.8-2.5
		c0.2-1.1,1.1-1.8,2.2-1.8l0,0c4.9-0.1,9.9-0.2,14.7-0.6c2.3-0.2,4.6-0.5,6.8-1c0.5-0.1,0.9-0.2,1.3-0.4c0.2-0.1,0.4-0.2,0.6-0.3
		c-0.2,0.1-0.3,0.3-0.5,0.5c-0.1,0.2-0.2,0.4-0.3,0.7c0,0.1-0.1,0.3-0.1,0.4c0,0.1,0,0.1,0,0.2l0,0c0-0.5-0.1-1-0.2-1.5
		c-0.9-4.6-2.2-9-4-13.3c-1.8-4.4-3.8-8.9-5.9-13.2v-0.1c-0.9-2.3,0.2-4.8,2.4-5.8C168.5,89.9,170.8,90.7,171.9,92.6L171.9,92.6z"/>
	<path class="st12" d="M167.1,86.3c5.6,1,8.1,6.1,12.2,16.2c-1.2,6.8-11.3,10.4-11.3,10.4s-5.7-10.2-6.9-15.6
		C160.1,91.9,161.4,85.2,167.1,86.3z"/>
	<path class="st0" d="M155.2,326.7c-0.1-0.3-0.4-0.4-0.6-0.4l-6.7-0.1c-0.7,0-1.4,0.1-2,0.4c-3.1,1.9-6.5,3.1-10.1,3.6
		c-1.4,0.2-0.8,2.6,2.6,2.6c5.5,0.1,6.5-0.4,11.2-0.3c4,0,2.1,0.2,5.3,0.3c0.8,0,1.4-0.5,1.3-1L155.2,326.7z"/>
	<path class="st0" d="M178.2,326.7c-0.1-0.3-0.4-0.4-0.6-0.4l-5.4-0.1c-0.7,0-1.4,0.1-2,0.4c-2,1.4-1.7,3-6.2,3.6
		c-1.4,0.2-0.7,2.6,2.6,2.6c5.5,0.1,5.2-0.3,7.4-0.3s0.9,0.2,4.1,0.3c0.8,0,1.4-0.5,1.3-1L178.2,326.7z"/>
	<path class="st14" d="M143.9,96.4c2.8,0.1,7.9,2.4,9.6,4.9c2.3-2.4,11.4-8,11.5-15.6c-1.1-1.1-2.5-1.8-4-2.1
		C161,83.6,148.9,89.5,143.9,96.4z"/>
	<path class="st14" d="M139.4,96c0,0-0.8-6.1,6.7-12.1c-0.7-0.6-3.7,0.1-3.7,0.1s-8.7,3.7-8.4,13.4C135.5,96.3,137.4,95.8,139.4,96z
		"/>
	<path class="st1" d="M138.3,98.6c-1.1,0.5-1.5,4,0,4.8c1.5,0.8,1.3-2.5,2.2-3.7C141.3,98.7,140.1,97.8,138.3,98.6z"/>
	<path class="st1" d="M139.6,100c-0.8,1,0.2,4.3,1.9,4.3c1.7,0,0.2-3,0.6-4.4C142.3,98.5,140.9,98.3,139.6,100z"/>
	<path class="st1" d="M139.8,102.5c-1.8-2.8-2,12.1,2.5,18C142,114.7,145.1,106.5,139.8,102.5z"/>
	<path class="st1" d="M139.6,102.4c-0.8-2.9-4.9,9.8-2.6,16C138.3,113.3,143.1,107.1,139.6,102.4z"/>
	<path class="st0" d="M153.3,63.2c0.4-0.2,0.8-0.4,1.2-0.7c0.1-0.1,0.1-0.2,0-0.3c0,0,0,0,0,0c-0.1-0.1-0.2-0.1-0.4-0.1
		c-1.8,1.2-4,1.5-6,0.9c-0.1-0.1-0.3,0-0.3,0.1c0,0,0,0,0,0c0,0.1,0,0.3,0.1,0.3C149.8,64,151.7,63.9,153.3,63.2z"/>
	<rect x="74.6" y="70.1" class="st1" width="50.2" height="1.6"/>
	<polygon class="st1" points="123.6,71.8 75.8,71.8 77.9,72.9 121.5,72.9 	"/>
	<polygon class="st9" points="123.6,71.8 75.8,71.8 77.9,72.9 121.5,72.9 	"/>
	<path class="st0" d="M90.7,26.4L90.7,26.4c-0.6,0-1.1-0.5-1.1-1.1v-3.7c0-0.6,0.5-1.1,1.1-1.1l0,0c0.6,0,1.1,0.5,1.1,1.1v3.7
		C91.8,25.9,91.3,26.4,90.7,26.4z"/>
	<path class="st0" d="M92.4,20.8v0.5c0,0.5-0.4,0.9-0.9,0.9h-1.8c-0.5,0-0.9-0.4-0.9-0.9v-0.5c0-0.5,0.4-0.9,0.9-0.9h1.8
		C92.1,20,92.4,20.4,92.4,20.8z"/>
	<path class="st1" d="M92.4,34.5V23.8c0-0.2-0.2-0.4-0.4-0.4h-2.7c-0.2,0-0.4,0.2-0.4,0.4v10.6c0,1.6-0.7,3.2-1.9,4.2l0,0
		c-1.2,1.1-1.9,2.6-1.9,4.2v27.3h11.1V42.9c0-1.6-0.7-3.2-1.9-4.2l0,0C93.1,37.6,92.4,36.1,92.4,34.5z"/>
	<rect x="88.9" y="46.2" class="st12" width="7.4" height="17.6"/>
	<path class="st1" d="M106.7,70.1h-1.3C105.8,70.2,106.2,70.2,106.7,70.1z"/>
	<path class="st1" d="M114.7,70.1h-1.3C113.8,70.2,114.2,70.2,114.7,70.1z"/>
	<path class="st15" d="M104.9,49.3v4.5c0,3.6,2,6.5,4.6,6.9v7.9c0,1.2-1.2,1.6-2.1,1.6h5.2c-0.9-0.1-2.1-0.4-2.1-1.6v-7.9
		c2.6-0.4,4.6-3.3,4.6-6.9v-4.5H104.9z"/>
	<path class="st0" d="M165.8,45.1c-3.9,1.7-17.1,2.2-22.3,1.1C148.9,38.6,160.9,36.4,165.8,45.1z"/>
	<path class="st0" d="M178.2,72.1c-0.1,0-0.1,0-0.2-0.1c-0.1-0.2-3-4.4-3.1-15.9c0-4.8-1.5-8.6-3.9-10.5c-1.3-1.1-3-1.5-4.7-1.1
		c-0.1,0-0.3-0.1-0.3-0.2c0-0.1,0.1-0.3,0.2-0.3c1.8-0.4,3.7,0,5.1,1.2c2.6,2,4.1,6,4.1,10.9c0.1,11.3,3,15.6,3,15.6
		c0.1,0.1,0.1,0.3-0.1,0.3c0,0,0,0,0,0C178.3,72,178.3,72.1,178.2,72.1z"/>
</g>
</svg>
