<?xml version="1.0" encoding="utf-8"?>
<!-- Generator: Adobe Illustrator 24.0.1, SVG Export Plug-In . SVG Version: 6.00 Build 0)  -->
<svg version="1.1" id="Camada_1" xmlns="http://www.w3.org/2000/svg" xmlns:xlink="http://www.w3.org/1999/xlink" x="0px" y="0px"
	 viewBox="0 0 436 337" style="enable-background:new 0 0 436 337;" xml:space="preserve">
<style type="text/css">
	.st0{opacity:0.2;}
	.st1{fill:#F5F5F5;}
	.st2{fill:#2D4082;}
	.st3{opacity:0.3;}
	.st4{fill:#FFFFFF;}
	.st5{fill:#263238;}
	.st6{opacity:0.2;fill:#FFFFFF;enable-background:new    ;}
	.st7{opacity:0.2;enable-background:new    ;}
	.st8{opacity:0.8;fill:#FFFFFF;enable-background:new    ;}
	.st9{opacity:0.6;fill:#FFFFFF;enable-background:new    ;}
	.st10{opacity:0.4;fill:#FFFFFF;enable-background:new    ;}
	.st11{opacity:0.5;}
	.st12{opacity:0.4;enable-background:new    ;}
	.st13{fill:#EBB376;}
	.st14{fill:#D58745;}
</style>
<g id="freepik--Shadow--inject-17" class="st0">
	<ellipse id="freepik--path--inject-17" class="st1" cx="218" cy="318.3" rx="217" ry="12.7"/>
</g>
<g id="freepik--Plant--inject-17">
	<path class="st2" d="M51.3,278.7L51.3,278.7c-0.2,0-0.4-0.2-0.4-0.5c0-0.1,0.1-0.9,0.1-2.4c0.1-2.2,0.3-6.9,0.2-13.1
		c0-0.1,0-0.2,0-0.3c-0.1-7-0.5-13.8-1.1-20.4c-0.6-6.1-1.5-12.1-2.6-17.7c-0.9-4.8-2.1-9.6-3.6-14.3l0,0l0,0
		c-0.2-0.7-0.4-1.4-0.7-2.1s-0.4-1.1-0.6-1.7c-0.5-1.5-1-2.9-1.4-4.2c-0.9-2.9-1.7-5.7-2.3-8.5c-0.4-1.7-0.8-3.3-1.1-4.9
		c-1.2-5.9-1.9-11.9-2-18c-0.1-2.4,0-4.8,0.1-7c0.1-2.4,0.4-4.8,0.8-7.2c0-0.2,0-0.3,0.1-0.5v-0.2c0-0.1,0.1-0.2,0.1-0.3
		c0.2-0.2,0.5-0.2,0.6,0c0.1,0.1,0.2,0.3,0.1,0.4l0,0v0.2c0,0.2,0,0.3-0.1,0.5c-0.4,2.4-0.6,4.7-0.8,7.1c-0.1,2.2-0.2,4.6-0.1,7
		c0.2,6,0.8,12,2,17.8c0.3,1.6,0.6,3.2,1.1,4.8c0.7,2.8,1.4,5.6,2.3,8.4c0.4,1.3,0.9,2.7,1.4,4.1c0.2,0.6,0.4,1.1,0.6,1.7
		c0.2,0.6,0.4,1.4,0.7,2.1l0,0l0,0c1.4,4.7,2.6,9.5,3.6,14.4c1.1,5.6,2,11.6,2.6,17.8c0.7,6.6,1,13.4,1.1,20.4v0.3
		c0.1,6.2-0.1,10.9-0.2,13.1c-0.1,1.5-0.1,2.4-0.1,2.5C51.7,278.6,51.5,278.7,51.3,278.7z"/>
	<path class="st2" d="M37.3,156L37.3,156L37.3,156c0.7-0.7,1.6-1.3,2.4-1.9c1-0.6,2-1,3.1-1.3"/>
	<path class="st2" d="M37.3,156.5c-0.1,0-0.1,0-0.2,0c-0.2-0.1-0.3-0.3-0.2-0.6c0,0,0,0,0,0c0-0.1,0-0.1,0.1-0.1l0,0l0,0
		c0.8-0.7,1.6-1.4,2.5-1.9c1-0.6,2.1-1.1,3.2-1.4c0.2-0.1,0.5,0.1,0.5,0.3c0.1,0.2-0.1,0.5-0.3,0.5c-1,0.3-2,0.7-3,1.3
		c-0.8,0.5-1.6,1.1-2.3,1.8l0,0C37.6,156.4,37.4,156.5,37.3,156.5z"/>
	<path class="st2" d="M36.4,164.2c-0.1,0-0.2,0-0.3-0.1l-3-2.5c-0.2-0.2-0.2-0.4-0.1-0.6c0.2-0.2,0.4-0.2,0.6-0.1l0,0l3,2.5
		c0.2,0.2,0.2,0.4,0,0.6C36.7,164.2,36.6,164.2,36.4,164.2z"/>
	<path class="st2" d="M41.8,202.5c-0.2,0-0.4-0.2-0.4-0.5l0,0c0.3-2,1-3.9,2.2-5.5c0.5-0.7,1.1-1.4,1.8-1.9c0.2-0.2,0.5-0.1,0.6,0.1
		c0.2,0.2,0.1,0.5-0.1,0.6c-0.6,0.5-1.2,1.2-1.6,1.8c-0.6,0.9-1.2,1.8-1.5,2.8c-0.3,0.7-0.5,1.4-0.6,2.1
		C42.2,202.4,42,202.6,41.8,202.5C41.8,202.6,41.8,202.6,41.8,202.5L41.8,202.5z"/>
	<path class="st2" d="M44.4,210.4c-0.2,0-0.3-0.1-0.4-0.3c-0.9-1.9-2.4-3.3-4.4-4c-0.2-0.1-0.3-0.3-0.3-0.6c0.1-0.2,0.3-0.4,0.6-0.3
		c2.2,0.7,4,2.4,4.9,4.5c0.1,0.2,0,0.5-0.2,0.6c0,0,0,0,0,0C44.5,210.4,44.5,210.4,44.4,210.4z"/>
	<path class="st2" d="M51.1,249.7c-1-1.1-1.9-5.5-2.4-7.8c-0.1-0.6-0.2-1-0.3-1.4"/>
	<path class="st2" d="M51.1,250.1c-0.1,0-0.3-0.1-0.3-0.1c-1-1.1-1.8-4.7-2.5-8c-0.1-0.6-0.2-1-0.3-1.4c0-0.2,0.2-0.5,0.4-0.5
		c0.2,0,0.4,0.1,0.4,0.3c0.1,0.3,0.2,0.8,0.3,1.4c0.4,2.1,1.4,6.6,2.3,7.6c0.2,0.2,0.2,0.5,0,0.6C51.4,250.1,51.2,250.1,51.1,250.1z
		"/>
	<path class="st2" d="M39.4,194.1c-0.2,0-0.4-0.2-0.4-0.4c0-0.7-1.1-17.8,8.2-24.5c0.2-0.1,0.5-0.1,0.6,0.1c0.1,0.2,0.1,0.5-0.1,0.6
		c0,0,0,0,0,0c-9,6.5-7.8,23.6-7.8,23.7C39.9,193.9,39.7,194.1,39.4,194.1C39.5,194.1,39.5,194.1,39.4,194.1L39.4,194.1z"/>
	<path class="st2" d="M40.2,231c-1.1,4.1,8,11.5,8,11.5s11.5-2,12.6-6.1c1.1-4.1-2.1-10.6-7.8-12.1C47.3,222.8,41.3,226.9,40.2,231z
		"/>
	<path class="st2" d="M28.3,182.2c1.3,4.3,9.7,7,9.7,7s5.5-6.9,4.2-11.2c-1.3-4.2-6.1-8.8-9.9-7.6C28.5,171.5,27,177.9,28.3,182.2z"
		/>
	<path class="st2" d="M50.8,195c-1,0.9-2.2,1.7-3.5,2.2c-1.3,0.5-2.8,0.2-3.8-0.7c-1.2-1.2-1-3.2-0.3-4.8c1.3-3.1,6.2-8.5,10.2-7.2
		C59.1,186.3,53.2,193,50.8,195z"/>
	<path class="st2" d="M39.5,203.4c0.8,0.9,1.6,2,1.3,3.2c-0.4,1-1.5,1.6-2.6,1.4c-1-0.2-2-0.6-2.9-1.3c-2.1-1.3-6.3-4.1-3.8-6.9
		C34,196.9,37.8,201.5,39.5,203.4z"/>
	<path class="st2" d="M54.6,163.7c0.9,0,1.7,0.6,1.9,1.4c0.2,1-0.6,1.9-1.3,2.6c-1.9,1.6-7.7,6-9.3,2.1
		C44.5,166,51.9,163.5,54.6,163.7z"/>
	<path class="st2" d="M43,151c1.2,0.1,2.5-0.4,3.7-0.4s2.7,1,2.4,2.2c-0.2,1.2-1.6,1.6-2.7,1.7c-2,0.2-3.9,0.2-5.9-0.1
		c-0.5,0-0.9-0.2-1.2-0.5c-0.5-0.7,0.2-1.7,1.1-2C41.3,151.6,42.2,151.3,43,151L43,151z"/>
	<path class="st2" d="M31.2,160c-1.2,0.1-2.5-0.4-3.7-0.3c-1.2,0-2.6,1-2.4,2.2s1.6,1.5,2.8,1.6c2,0.2,3.9,0.1,5.9-0.3
		c0.5,0,0.9-0.2,1.2-0.6c0.5-0.7-0.3-1.7-1.1-2C33,160.6,32.1,160.4,31.2,160L31.2,160z"/>
	<path class="st2" d="M37,157.7L37,157.7c-0.2,0-0.4-0.2-0.4-0.5c0.2-2.4-0.1-4.7-0.5-4.9c-0.2,0-0.4-0.3-0.4-0.5
		c0-0.2,0.3-0.4,0.5-0.4c0,0,0.1,0,0.1,0c1.4,0.4,1.3,4.2,1.1,5.8C37.4,157.5,37.2,157.7,37,157.7z"/>
	<path class="st2" d="M37.8,152c-0.7-1.7-1.8-3.2-3.2-4.4c-1.5-1-3.9-1-4.9,0.5c-1.1,1.7,0.2,4.2,2.1,5c1.9,0.8,4.1,0.4,6.1,0.1
		c0-0.3,0-0.6,0-0.9L37.8,152z"/>
	<path class="st2" d="M52.7,293.6L52.7,293.6c-0.3,0-0.5-0.3-0.4-0.5c3-15.8,11.9-22.7,12-22.7c0.2-0.1,0.5-0.1,0.6,0.1
		c0.1,0.2,0.1,0.5-0.1,0.6l0,0c-0.1,0.1-8.8,6.8-11.7,22.2C53,293.5,52.9,293.6,52.7,293.6z"/>
	<path class="st2" d="M61.9,273.6c-0.2,0-0.4-0.2-0.5-0.4c0-0.2,0.1-0.4,0.3-0.4c1.5-0.4,3.1-0.5,4.6-0.2c0.2,0.1,0.4,0.3,0.3,0.6
		c-0.1,0.2-0.2,0.3-0.4,0.3c-1.4-0.3-2.8-0.2-4.2,0.1C62,273.6,62,273.6,61.9,273.6z"/>
	<path class="st2" d="M59.9,276.1c-0.2,0-0.4-0.2-0.4-0.4c-0.1-3.9,0.9-7.7,3-10.9c0.1-0.2,0.4-0.3,0.6-0.1c0,0,0,0,0,0
		c0.2,0.1,0.2,0.4,0.1,0.6c-2,3.1-2.9,6.7-2.9,10.4C60.4,275.9,60.2,276.1,59.9,276.1C60,276.1,60,276.1,59.9,276.1L59.9,276.1z"/>
	<path class="st2" d="M56.8,281.3c-0.1,0-0.2,0-0.3-0.1c-0.2-0.2-0.2-0.5,0-0.6c1.6-1.6,3.9-2.1,6.1-1.5c0.2,0.1,0.4,0.3,0.3,0.5
		c-0.1,0.2-0.3,0.4-0.5,0.3c0,0,0,0,0,0c-1.8-0.5-3.8,0-5.2,1.3C57,281.2,56.9,281.3,56.8,281.3z"/>
	<path class="st2" d="M55.2,284.8c-0.2,0-0.3-0.1-0.4-0.2c-1-2.4-1.3-4.9-0.9-7.5c0.1-0.2,0.3-0.4,0.5-0.3c0.2,0,0.4,0.2,0.3,0.4
		c-0.3,2.4,0,4.8,0.9,7c0.1,0.2,0,0.5-0.2,0.6C55.3,284.8,55.2,284.8,55.2,284.8z"/>
	<path class="st2" d="M53.5,288.4c0,0.1-0.3,0.4,0.9,0.5c3.1,0.2,8.6,0.1,10.6-2.5c2.8-3.8-3.9-3.6-3.4-5.7c0.6-2.1,7.9-0.2,9.3-3.2
		c1.3-3-4-2.5-3.8-4.1c0.2-1.5,5.8,0.6,7.6-2.6c1.7-3.2-3.1-1.6-2.3-2.9c0.7-1.3,6.7-6.7,4.2-8c-2.5-1.3-8.2,4.3-10.1,4.9
		s-2.5-5.1-5-3.3c-2.5,1.8-0.6,10.4-3.5,11.4c-2.2,0.7-1.1-2.3-3.8-2.2C50.8,270.9,50,282.9,53.5,288.4z"/>
	<g class="st3">
		<path class="st4" d="M53.5,288.4c0,0.1-0.3,0.4,0.9,0.5c3.1,0.2,8.6,0.1,10.6-2.5c2.8-3.8-3.9-3.6-3.4-5.7
			c0.6-2.1,7.9-0.2,9.3-3.2c1.3-3-4-2.5-3.8-4.1c0.2-1.5,5.8,0.6,7.6-2.6c1.7-3.2-3.1-1.6-2.3-2.9c0.7-1.3,6.7-6.7,4.2-8
			c-2.5-1.3-8.2,4.3-10.1,4.9s-2.5-5.1-5-3.3c-2.5,1.8-0.6,10.4-3.5,11.4c-2.2,0.7-1.1-2.3-3.8-2.2C50.8,270.9,50,282.9,53.5,288.4z
			"/>
	</g>
	<path class="st2" d="M52.3,294c-0.2,0-0.4-0.1-0.4-0.3c-2.3-8.1-6.6-15.5-12.6-21.5c-0.2-0.1-0.3-0.4-0.1-0.6
		c0.1-0.2,0.4-0.3,0.6-0.1c0,0,0.1,0,0.1,0.1c6.1,6,10.6,13.6,12.9,21.9c0.1,0.2-0.1,0.5-0.3,0.5c0,0,0,0,0,0L52.3,294z"/>
	<path class="st2" d="M44.6,278.6L44.6,278.6h-0.2l0,0c-1.5-0.6-3.2-0.8-4.8-0.7c-0.2,0-0.4-0.2-0.4-0.4c0-0.2,0.2-0.4,0.4-0.4
		c0,0,0,0,0,0c1.8-0.1,3.5,0.2,5.2,0.8l0,0c0.2,0.1,0.4,0.3,0.3,0.5C45.1,278.5,44.9,278.6,44.6,278.6L44.6,278.6z M44.7,277.7h0.1
		H44.7z"/>
	<path class="st2" d="M46.4,280.7L46.4,280.7c-0.2,0-0.4-0.2-0.4-0.4c0,0,0,0,0,0c0.1-3.2-0.8-6.4-2.5-9.1c-0.1-0.2-0.1-0.5,0.1-0.6
		c0.2-0.1,0.5-0.1,0.6,0.1c1.8,2.9,2.8,6.2,2.6,9.6C46.8,280.5,46.6,280.7,46.4,280.7z"/>
	<path class="st2" d="M48.2,283.6c-0.1,0-0.2,0-0.3-0.1c-1.3-1.1-3-1.4-4.6-0.9c-0.2,0.1-0.5-0.1-0.5-0.3c0,0,0,0,0,0
		c-0.1-0.2,0.1-0.5,0.3-0.5c1.9-0.6,3.9-0.2,5.4,1.1c0.2,0.2,0.2,0.4,0,0.6C48.5,283.6,48.4,283.6,48.2,283.6z"/>
	<path class="st2" d="M50.6,288.4c-0.1,0-0.1,0-0.2,0c-0.2-0.1-0.3-0.4-0.2-0.6c0,0,0,0,0,0c0.8-2,1-4.1,0.7-6.2
		c0-0.2,0.1-0.5,0.4-0.5c0.2,0,0.5,0.1,0.5,0.4c0,0,0,0,0,0c0.3,2.2,0,4.5-0.8,6.6C50.9,288.3,50.8,288.4,50.6,288.4z"/>
	<path class="st2" d="M52.1,291.8c-2.4,0.2-6.6-1.9-8.3-4c-1.7-2.1,2.9-1,2.4-2.7c-0.5-1.7-6.2-0.2-7.3-2.6s3-2,2.7-3.3
		c-0.2-1.3-4.5-0.8-5.9-3.4s2.3-1.3,1.7-2.3c-0.6-1.1-5.5-5.4-3.6-6.5c1.9-1,6.5,3.5,8,4s1.7-2.9,3.7-1.4s0.9,8.5,3.1,9.3
		c1.7,0.6,0.9-2.5,2.8-1.8C54.8,278.4,53,291.7,52.1,291.8z"/>
	<g class="st0">
		<path class="st4" d="M52.1,291.8c-2.4,0.2-6.6-1.9-8.3-4c-1.7-2.1,2.9-1,2.4-2.7c-0.5-1.7-6.2-0.2-7.3-2.6s3-2,2.7-3.3
			c-0.2-1.3-4.5-0.8-5.9-3.4s2.3-1.3,1.7-2.3c-0.6-1.1-5.5-5.4-3.6-6.5c1.9-1,6.5,3.5,8,4s1.7-2.9,3.7-1.4s0.9,8.5,3.1,9.3
			c1.7,0.6,0.9-2.5,2.8-1.8C54.8,278.4,53,291.7,52.1,291.8z"/>
	</g>
	<path class="st5" d="M71.2,296.4c0,11.6,5.1,21.1-21.1,21.1c-23.3,0-21-9.4-21-21.1s9.4-14.9,21-14.9S71.2,284.8,71.2,296.4z"/>
	<rect x="26.9" y="281.3" class="st5" width="46.6" height="11.5"/>
	<rect x="26.9" y="281.3" class="st6" width="46.6" height="11.5"/>
</g>
<g id="freepik--Books--inject-17">
	<path class="st5" d="M242.9,314c0.1,2.1-0.3,4.2-1.1,6.1h-48.1V319h1V309h-1v-1.1h48.1C242.6,309.8,243,311.9,242.9,314z"/>
	<path class="st6" d="M242.9,314c0.1,2.1-0.3,4.2-1.1,6.1h-48.1V319h1V309h-1v-1.1h48.1C242.6,309.8,243,311.9,242.9,314z"/>
	<path class="st7" d="M217.2,314c0.1,2.1-0.3,4.2-1.1,6.1h-22.4V319h1V309h-1v-1.1h22.4C216.9,309.8,217.3,311.9,217.2,314z"/>
	<path class="st8" d="M214.8,314c0.1,1.7-0.2,3.4-0.9,4.9h-19.2V309h19.2C214.6,310.6,214.9,312.3,214.8,314z"/>
	<path class="st9" d="M235.1,314c0.1,2.1-0.3,4.2-1.1,6.1h-9c0.8-1.9,1.2-4,1.1-6.1c0.1-2.1-0.3-4.2-1.1-6.1h9
		C234.8,309.8,235.2,311.9,235.1,314z"/>
	<path class="st2" d="M247.2,301.8c0.1,2.1-0.3,4.2-1.1,6.1H198v-1.1h1v-9.9h-1v-1.1h48.1C246.9,297.7,247.3,299.7,247.2,301.8z"/>
	<path class="st7" d="M221.5,301.8c0.1,2.1-0.3,4.2-1.1,6.1H198v-1.1h1v-9.9h-1v-1.1h22.4C221.2,297.7,221.6,299.7,221.5,301.8z"/>
	<path class="st8" d="M219.1,301.8c0.1,1.7-0.2,3.4-0.9,4.9H199v-9.9h19.2C218.9,298.4,219.2,300.1,219.1,301.8z"/>
	<path class="st7" d="M239.4,301.8c0.1,2.1-0.3,4.2-1.1,6.1h-9c0.8-1.9,1.2-4,1.1-6.1c0.1-2.1-0.3-4.2-1.1-6.1h9
		C239.1,297.6,239.5,299.7,239.4,301.8z"/>
</g>
<g id="freepik--Screen--inject-17">
	<path class="st2" d="M314.8,55v165.8c0,1.7-1.4,3-3,3l0,0H71.5c-1.7,0-3-1.4-3-3l0,0V55c0-1.7,1.4-3,3-3l0,0h240.3
		C313.5,52,314.8,53.4,314.8,55L314.8,55z"/>
	<path class="st10" d="M314.8,62.3v158.6c0,1.7-1.4,3-3,3l0,0H71.5c-1.7,0-3-1.4-3-3l0,0V62.3H314.8z"/>
	<path class="st7" d="M314.8,214.1v6.7c0,1.7-1.4,3-3,3l0,0H71.5c-1.7,0-3-1.4-3-3l0,0v-6.7H314.8z"/>
	<circle class="st10" cx="308.7" cy="57.4" r="2.1"/>
	<circle class="st10" cx="300.8" cy="57.4" r="2.1"/>
	<path class="st10" d="M294.9,57.4c0,1.2-0.9,2.1-2.1,2.1c-1.2,0-2.1-0.9-2.1-2.1c0-1.2,0.9-2.1,2.1-2.1
		C294,55.3,294.9,56.2,294.9,57.4C294.9,57.4,294.9,57.4,294.9,57.4z"/>
	<g class="st11">
		<path d="M99.7,78.9v6.8h-0.8l-4.1-5.1v5.1h-1v-6.8h0.8l4.1,5.1v-5.1H99.7z"/>
		<path d="M106.2,83.5h-4.2c0.1,0.9,0.9,1.6,1.9,1.5c0.6,0,1.1-0.2,1.5-0.6l0.5,0.6c-0.5,0.6-1.3,0.9-2,0.8c-1.4,0.1-2.7-1-2.8-2.4
			c0-0.1,0-0.2,0-0.3c-0.1-1.4,1-2.6,2.4-2.6c0.1,0,0.1,0,0.2,0c1.4,0,2.5,1.1,2.5,2.4c0,0.1,0,0.2,0,0.2
			C106.3,83.3,106.3,83.4,106.2,83.5z M102.1,82.8h3.3c-0.1-0.9-0.9-1.6-1.8-1.5C102.8,81.4,102.2,82,102.1,82.8z"/>
		<path d="M115.2,80.6l-1.9,5.1h-0.9l-1.5-3.8l-1.5,3.8h-0.9l-1.9-5.1h0.9l1.5,4.1l1.6-4.1h0.8l1.5,4.1l1.5-4.1H115.2z"/>
		<path d="M123.4,83.5h-4.2c0.1,0.9,0.9,1.6,1.9,1.5c0.6,0,1.1-0.2,1.5-0.6l0.5,0.6c-0.5,0.6-1.3,0.9-2,0.8c-1.4,0.1-2.7-1-2.8-2.4
			c0-0.1,0-0.2,0-0.3c-0.1-1.4,1-2.6,2.4-2.6c0.1,0,0.1,0,0.2,0c1.4,0,2.5,1.1,2.5,2.4c0,0.1,0,0.2,0,0.2
			C123.4,83.3,123.4,83.4,123.4,83.5z M119.2,82.8h3.4c0-0.9-0.8-1.7-1.7-1.7S119.2,81.9,119.2,82.8z"/>
		<path d="M129.6,82.8v3h-0.9v-2.9c0-1-0.5-1.5-1.4-1.5c-0.8-0.1-1.6,0.6-1.6,1.4c0,0.1,0,0.2,0,0.3v2.6h-0.9v-5.1h0.9v0.8
			c0.5-0.6,1.1-0.9,1.9-0.8c1.1-0.1,2.1,0.7,2.1,1.8C129.6,82.5,129.6,82.6,129.6,82.8z"/>
		<path d="M134.2,85.4c-0.3,0.2-0.7,0.4-1.1,0.4c-0.8,0.1-1.5-0.5-1.6-1.3c0-0.1,0-0.2,0-0.3v-2.8h-0.9v-0.8h0.9v-1.1h0.9v1.1h1.5
			v0.8h-1.5v2.8c-0.1,0.4,0.2,0.8,0.7,0.9c0.1,0,0.1,0,0.2,0c0.3,0,0.5-0.1,0.7-0.2L134.2,85.4z"/>
		<path d="M138.1,80.5v0.9h-0.2c-0.9,0-1.6,0.6-1.6,1.5c0,0.1,0,0.2,0,0.3v2.6h-0.9v-5.1h0.9v0.9C136.6,80.8,137.3,80.5,138.1,80.5z
			"/>
		<path d="M139.1,79c0-0.3,0.3-0.6,0.6-0.6c0,0,0,0,0,0c0.3,0,0.6,0.3,0.6,0.6c0,0.3-0.3,0.6-0.6,0.6
			C139.3,79.6,139.1,79.3,139.1,79z M139.2,80.6h0.9v5.1h-0.9V80.6z"/>
		<path d="M146.6,83.5h-4.2c0.1,0.9,0.9,1.6,1.9,1.5c0.6,0,1.1-0.2,1.5-0.6l0.5,0.6c-0.5,0.6-1.3,0.9-2,0.8c-1.4,0.1-2.7-1-2.8-2.4
			c0-0.1,0-0.2,0-0.3c-0.1-1.4,1-2.6,2.4-2.6c0.1,0,0.1,0,0.2,0c1.4,0,2.5,1.1,2.5,2.4c0,0.1,0,0.2,0,0.2
			C146.6,83.3,146.6,83.4,146.6,83.5z M142.4,82.8h3.3c-0.1-0.9-0.9-1.6-1.8-1.5C143.1,81.4,142.5,82,142.4,82.8z"/>
		<path d="M147.2,85.3l0.4-0.7c0.5,0.3,1.2,0.5,1.8,0.5c0.9,0,1.2-0.3,1.2-0.7c0-1.1-3.2-0.2-3.2-2.2c0-0.9,0.8-1.5,2.1-1.5
			c0.7,0,1.3,0.2,1.9,0.5l-0.4,0.7c-0.4-0.3-1-0.4-1.5-0.4c-0.8,0-1.2,0.3-1.2,0.7c0,1.2,3.3,0.2,3.3,2.2c0,0.9-0.9,1.5-2.2,1.5
			C148.6,85.9,147.8,85.7,147.2,85.3z"/>
	</g>
	<path class="st7" d="M89.3,82.9c0,2.4-1.9,4.4-4.4,4.4c-2.4,0-4.4-1.9-4.4-4.4s1.9-4.4,4.4-4.4c0,0,0,0,0,0
		C87.4,78.5,89.3,80.5,89.3,82.9z"/>
	<path class="st4" d="M84.9,85.4c-0.3,0-0.6-0.3-0.6-0.6v-4c0-0.3,0.3-0.6,0.6-0.6s0.6,0.3,0.6,0.6v4C85.5,85.2,85.2,85.4,84.9,85.4
		z"/>
	<path class="st4" d="M86.9,83.5h-4c-0.3,0-0.6-0.3-0.6-0.6c0-0.3,0.3-0.6,0.6-0.6h4c0.3,0,0.6,0.3,0.6,0.6
		C87.5,83.2,87.2,83.5,86.9,83.5z"/>
	<path class="st7" d="M248.5,104.6h48.7c1.8,0,3.3,1.5,3.3,3.3v29.3c0,1.8-1.5,3.3-3.3,3.3h-48.7c-1.8,0-3.3-1.5-3.3-3.3V108
		C245.2,106.1,246.7,104.6,248.5,104.6z"/>
	<path class="st4" d="M288.3,114.1h-5.2c-0.7,0-1.3-0.4-1.5-1l-1.1-2.6c-0.3-0.6-0.8-1-1.5-1h-12.3c-0.7,0-1.3,0.4-1.5,1l-1.1,2.6
		c-0.3,0.6-0.8,1-1.5,1h-5.2c-1.7,0-3,1.3-3,3c0,0,0,0,0,0v15.1c0,1.6,1.3,3,3,3h31c1.7,0,3-1.3,3-3c0,0,0,0,0,0v-15.1
		C291.3,115.4,290,114.1,288.3,114.1z M272.9,129.7c-2.8,0-5-2.2-5-5c0-2.8,2.2-5,5-5c2.8,0,5,2.2,5,5c0,0,0,0,0,0
		C277.9,127.5,275.6,129.8,272.9,129.7C272.8,129.8,272.8,129.8,272.9,129.7L272.9,129.7z"/>
	<g class="st11">
		<path d="M266,99.1h0.4v3.1H266V99.1z"/>
		<path d="M271.3,100.8v1.4h-0.4v-1.3c0-0.5-0.2-0.7-0.6-0.7c-0.4,0-0.7,0.3-0.7,0.6c0,0,0,0.1,0,0.1v1.2h-0.4v-1.3
			c0-0.5-0.2-0.7-0.6-0.7c-0.4,0-0.7,0.3-0.7,0.7c0,0,0,0.1,0,0.1v1.2h-0.4v-2.4h0.4v0.3c0.2-0.3,0.5-0.4,0.8-0.4
			c0.3,0,0.7,0.1,0.8,0.4c0.2-0.3,0.6-0.4,0.9-0.4c0.5,0,0.9,0.3,1,0.8C271.3,100.7,271.3,100.8,271.3,100.8z"/>
		<path d="M273.9,100.8v1.4h-0.4v-0.3c-0.2,0.2-0.5,0.4-0.8,0.3c-0.5,0-0.9-0.3-0.9-0.7c0-0.4,0.2-0.7,1-0.7h0.7v-0.1
			c0-0.4-0.2-0.6-0.6-0.6c-0.3,0-0.5,0.1-0.8,0.2l-0.2-0.3c0.3-0.2,0.6-0.3,1-0.3C273.6,99.8,273.9,100.1,273.9,100.8z M273.5,101.5
			v-0.3h-0.7c-0.4,0-0.5,0.2-0.5,0.4c0,0.2,0.2,0.4,0.5,0.4C273.1,101.9,273.4,101.8,273.5,101.5L273.5,101.5z"/>
		<path d="M277,99.8v2c0.1,0.6-0.4,1.2-1,1.2c-0.1,0-0.1,0-0.2,0c-0.4,0-0.8-0.1-1.1-0.3l0.2-0.3c0.3,0.2,0.6,0.3,0.9,0.3
			c0.6,0,0.8-0.3,0.8-0.8v-0.2c-0.2,0.2-0.5,0.4-0.9,0.4c-0.6,0-1.1-0.5-1.1-1.1s0.5-1.1,1.1-1.1c0.3,0,0.7,0.1,0.9,0.4v-0.4H277z
			 M276.6,100.9c0-0.4-0.3-0.8-0.7-0.8c0,0,0,0-0.1,0c-0.4,0-0.8,0.3-0.8,0.8s0.3,0.8,0.8,0.8C276.2,101.7,276.6,101.4,276.6,100.9
			C276.6,101,276.6,100.9,276.6,100.9z"/>
		<path d="M280,101.2H278c0.1,0.4,0.4,0.7,0.9,0.7c0.3,0,0.5-0.1,0.7-0.3l0.2,0.3c-0.2,0.3-0.6,0.4-0.9,0.4c-0.7,0-1.2-0.4-1.3-1.1
			c0,0,0-0.1,0-0.1c0-0.6,0.4-1.2,1-1.2c0.1,0,0.1,0,0.2,0c0.6,0,1.1,0.4,1.2,1.1c0,0.1,0,0.1,0,0.2C280,101,280,101.1,280,101.2z
			 M278,100.9h1.5c0-0.4-0.3-0.8-0.8-0.8C278.4,100.1,278,100.4,278,100.9L278,100.9z"/>
	</g>
	<path class="st4" d="M83.6,104.6h150c1.7,0,3.1,1.4,3.1,3.1v6.6c0,1.7-1.4,3.1-3.1,3.1h-150c-1.7,0-3.1-1.4-3.1-3.1v-6.6
		C80.5,106,81.9,104.6,83.6,104.6z"/>
	<g class="st11">
		<path d="M83.2,99.5h-1.1v-0.4h2.6v0.4h-1.1v2.7h-0.4L83.2,99.5z"/>
		<path d="M85,99.1c0-0.2,0.1-0.3,0.3-0.3c0.2,0,0.3,0.1,0.3,0.3c0,0.2-0.1,0.3-0.3,0.3c0,0,0,0,0,0C85.1,99.4,85,99.3,85,99.1
			C85,99.1,85,99.1,85,99.1z M85.1,99.8h0.4v2.4h-0.4V99.8z"/>
		<path d="M87.7,102c-0.2,0.1-0.3,0.2-0.5,0.2c-0.4,0-0.7-0.2-0.7-0.6c0,0,0-0.1,0-0.1v-1.3H86v-0.4h0.4v-0.5h0.4v0.5h0.7v0.3h-0.7
			v1.3c0,0.3,0.1,0.4,0.4,0.4c0.1,0,0.2,0,0.3-0.1L87.7,102z"/>
		<path d="M89.5,102c-0.1,0.1-0.3,0.2-0.5,0.2c-0.4,0-0.7-0.2-0.7-0.6c0,0,0-0.1,0-0.1v-1.3h-0.4v-0.4h0.4v-0.5h0.4v0.5h0.7v0.3
			h-0.7v1.3c0,0.2,0.1,0.4,0.3,0.4c0,0,0,0,0.1,0c0.1,0,0.2,0,0.3-0.1L89.5,102z"/>
		<path d="M90,98.9h0.5v3.4H90L90,98.9z"/>
		<path d="M93.4,101.2h-1.9c0.1,0.4,0.4,0.7,0.9,0.7c0.3,0,0.5-0.1,0.7-0.3l0.2,0.3c-0.2,0.3-0.6,0.4-0.9,0.4
			c-0.7,0-1.2-0.5-1.3-1.1c0,0,0-0.1,0-0.1c0-0.6,0.4-1.2,1-1.2c0.1,0,0.1,0,0.2,0c0.6,0,1.1,0.4,1.2,1.1c0,0.1,0,0.1,0,0.2
			C93.4,101,93.4,101.1,93.4,101.2z M91.4,100.9H93c0-0.4-0.3-0.8-0.8-0.8C91.8,100.1,91.4,100.4,91.4,100.9L91.4,100.9z"/>
	</g>
	<path class="st4" d="M83.6,127.7h150c1.7,0,3.1,1.4,3.1,3.1v6.6c0,1.7-1.4,3.1-3.1,3.1h-150c-1.7,0-3.1-1.4-3.1-3.1v-6.6
		C80.5,129.1,81.9,127.7,83.6,127.7z"/>
	<g class="st11">
		<path d="M82.3,123.7c0-0.9,0.7-1.6,1.6-1.6c0,0,0.1,0,0.1,0c0.5,0,0.9,0.2,1.2,0.5l-0.3,0.3c-0.2-0.2-0.5-0.4-0.9-0.4
			c-0.7,0-1.2,0.5-1.2,1.2c0,0.7,0.5,1.2,1.2,1.2c0.3,0,0.7-0.1,0.9-0.4l0.3,0.3c-0.3,0.3-0.7,0.5-1.2,0.5c-0.9,0-1.6-0.6-1.7-1.5
			C82.3,123.8,82.3,123.7,82.3,123.7z"/>
		<path d="M87.6,123.8v1.4h-0.4V125c-0.2,0.2-0.5,0.4-0.8,0.3c-0.5,0-0.9-0.3-0.9-0.7c0-0.4,0.2-0.7,1-0.7h0.7v-0.1
			c0-0.4-0.2-0.6-0.6-0.6c-0.3,0-0.5,0.1-0.7,0.3l-0.2-0.3c0.3-0.2,0.6-0.3,1-0.3C87.2,122.9,87.6,123.2,87.6,123.8z M87.2,124.6
			v-0.3h-0.7c-0.4,0-0.5,0.2-0.5,0.4s0.2,0.4,0.5,0.4C86.8,125,87.1,124.8,87.2,124.6L87.2,124.6z"/>
		<path d="M89.7,125.1c-0.1,0.1-0.3,0.2-0.5,0.2c-0.4,0-0.7-0.2-0.7-0.6c0-0.1,0-0.1,0-0.2v-1.3h-0.4v-0.4h0.4v-0.5h0.4v0.5h0.7v0.4
			h-0.7v1.3c0,0.2,0.1,0.4,0.3,0.4c0,0,0,0,0.1,0c0.1,0,0.2,0,0.3-0.1L89.7,125.1z"/>
		<path d="M92.3,124.2h-1.9c0.1,0.4,0.4,0.7,0.9,0.7c0.3,0,0.5-0.1,0.7-0.3l0.2,0.3c-0.5,0.5-1.3,0.6-1.8,0.1
			c-0.3-0.2-0.4-0.6-0.4-0.9c-0.1-0.6,0.4-1.2,1-1.2c0.1,0,0.1,0,0.2,0c0.6,0,1.1,0.5,1.1,1.1c0,0,0,0.1,0,0.1
			C92.2,124.1,92.3,124.2,92.3,124.2z M90.4,123.9h1.5c0-0.4-0.4-0.7-0.8-0.7C90.7,123.2,90.4,123.5,90.4,123.9z"/>
		<path d="M95.2,122.9v2c0.1,0.6-0.4,1.2-1,1.2c-0.1,0-0.1,0-0.2,0c-0.4,0-0.8-0.1-1.1-0.4l0.2-0.3c0.3,0.2,0.6,0.3,0.9,0.3
			c0.6,0,0.8-0.3,0.8-0.8v-0.2c-0.2,0.2-0.5,0.4-0.9,0.4c-0.6,0-1.1-0.5-1.1-1.1c0-0.6,0.5-1.1,1.1-1.1c0.3,0,0.7,0.1,0.9,0.4v-0.4
			H95.2z M94.7,124c0-0.5-0.4-0.8-0.8-0.8c-0.5,0-0.8,0.4-0.8,0.8l0,0c0,0.5,0.4,0.8,0.8,0.8C94.4,124.8,94.7,124.5,94.7,124z"/>
		<path d="M95.8,124.1c0-0.7,0.5-1.2,1.2-1.3c0.7,0,1.2,0.5,1.3,1.2c0,0.7-0.5,1.2-1.2,1.3c0,0,0,0,0,0
			C96.4,125.3,95.8,124.8,95.8,124.1C95.8,124.2,95.8,124.1,95.8,124.1z M97.8,124.1c0-0.4-0.3-0.8-0.7-0.8c0,0-0.1,0-0.1,0
			c-0.4,0-0.8,0.3-0.8,0.8c0,0,0,0,0,0.1c0,0.4,0.3,0.8,0.7,0.8c0,0,0,0,0.1,0C97.4,124.9,97.8,124.6,97.8,124.1
			C97.8,124.1,97.8,124.1,97.8,124.1z"/>
		<path d="M100.1,122.9v0.4H100c-0.4,0-0.7,0.3-0.8,0.7c0,0,0,0.1,0,0.1v1.2h-0.4v-2.4h0.4v0.4C99.4,123,99.8,122.8,100.1,122.9z"/>
		<path d="M100.5,122.2c0-0.2,0.1-0.3,0.3-0.3c0.2,0,0.3,0.1,0.3,0.3c0,0,0,0,0,0c0,0.1-0.1,0.3-0.3,0.3c0,0,0,0,0,0
			C100.6,122.5,100.5,122.3,100.5,122.2C100.5,122.2,100.5,122.2,100.5,122.2z M100.6,122.9h0.4v2.4h-0.4V122.9z"/>
		<path d="M104,124.2h-1.9c0.1,0.4,0.4,0.7,0.9,0.7c0.3,0,0.5-0.1,0.7-0.3l0.2,0.3c-0.2,0.3-0.6,0.4-0.9,0.4c-0.7,0-1.2-0.4-1.3-1.1
			c0,0,0-0.1,0-0.1c-0.1-0.6,0.4-1.2,1-1.2c0.1,0,0.1,0,0.2,0c0.6,0,1.1,0.5,1.1,1.1c0,0,0,0.1,0,0.1L104,124.2z M102.1,123.9h1.5
			c0-0.4-0.4-0.7-0.8-0.7C102.5,123.2,102.1,123.5,102.1,123.9z"/>
		<path d="M104.3,125l0.2-0.3c0.2,0.2,0.5,0.2,0.8,0.2c0.4,0,0.6-0.1,0.6-0.3c0-0.5-1.5-0.1-1.5-1c0-0.4,0.4-0.7,1-0.7
			c0.3,0,0.6,0.1,0.9,0.2l-0.2,0.3c-0.2-0.1-0.4-0.2-0.7-0.2c-0.4,0-0.6,0.1-0.6,0.3c0,0.6,1.5,0.1,1.5,1c0,0.4-0.4,0.7-1,0.7
			C105,125.3,104.6,125.2,104.3,125z"/>
	</g>
	<path class="st4" d="M83.6,153.2h213.8c1.7,0,3.1,1.4,3.1,3.1v24.5c0,1.7-1.4,3.1-3.1,3.1H83.6c-1.7,0-3.1-1.4-3.1-3.1v-24.5
		C80.5,154.5,81.9,153.2,83.6,153.2z"/>
	<g class="st11">
		<path d="M82.6,147.6h1.3c0.9,0,1.6,0.7,1.6,1.6c0,0.9-0.7,1.6-1.6,1.6c0,0,0,0,0,0h-1.3V147.6z M83.9,150.3c0.6,0,1.2-0.5,1.2-1.2
			c0-0.6-0.5-1.2-1.2-1.2h-0.8v2.3H83.9z"/>
		<path d="M88.3,149.7h-1.9c0.1,0.4,0.4,0.7,0.9,0.7c0.3,0,0.5-0.1,0.7-0.3l0.2,0.3c-0.2,0.3-0.6,0.4-0.9,0.4
			c-0.7,0-1.2-0.4-1.3-1.1c0,0,0-0.1,0-0.1c-0.1-0.6,0.4-1.2,1-1.2c0.1,0,0.1,0,0.2,0c0.6,0,1.1,0.5,1.1,1.1c0,0,0,0.1,0,0.1
			C88.3,149.6,88.3,149.6,88.3,149.7z M86.4,149.4h1.5c0-0.4-0.4-0.7-0.7-0.7C86.8,148.7,86.5,149,86.4,149.4L86.4,149.4z"/>
		<path d="M90.3,150.6c-0.2,0.1-0.3,0.2-0.5,0.2c-0.4,0-0.7-0.2-0.7-0.6c0-0.1,0-0.1,0-0.2v-1.3h-0.4v-0.3H89v-0.5h0.4v0.5h0.7v0.3
			h-0.7v1.3c0,0.2,0.1,0.4,0.3,0.4c0,0,0,0,0.1,0c0.1,0,0.2,0,0.3-0.1L90.3,150.6z"/>
		<path d="M92.7,149.3v1.4h-0.4v-0.3c-0.2,0.2-0.5,0.4-0.8,0.3c-0.5,0-0.9-0.3-0.9-0.7c0-0.4,0.2-0.7,1-0.7h0.7v-0.1
			c0-0.4-0.2-0.6-0.6-0.6c-0.3,0-0.5,0.1-0.7,0.3l-0.2-0.3c0.3-0.2,0.6-0.3,1-0.3C92.3,148.3,92.7,148.6,92.7,149.3z M92.3,150v-0.3
			h-0.7c-0.4,0-0.5,0.2-0.5,0.4c0,0.2,0.2,0.4,0.5,0.4C91.8,150.5,92.1,150.3,92.3,150L92.3,150z"/>
		<path d="M93.4,147.6c0-0.2,0.1-0.3,0.3-0.3c0.2,0,0.3,0.1,0.3,0.3c0,0.2-0.1,0.3-0.3,0.3c0,0,0,0,0,0
			C93.5,147.9,93.4,147.8,93.4,147.6z M93.5,148.4h0.4v2.4h-0.4V148.4z"/>
		<path d="M94.7,147.4h0.4v3.4h-0.4V147.4z"/>
		<path d="M95.7,150.5l0.2-0.3c0.2,0.2,0.5,0.2,0.8,0.2c0.4,0,0.6-0.1,0.6-0.3c0-0.5-1.5-0.1-1.5-1c0-0.4,0.4-0.7,1-0.7
			c0.3,0,0.6,0.1,0.9,0.2l-0.2,0.3c-0.2-0.1-0.5-0.2-0.7-0.2c-0.4,0-0.6,0.1-0.6,0.3c0,0.6,1.5,0.1,1.5,1c0,0.4-0.4,0.7-1,0.7
			C96.3,150.8,96,150.7,95.7,150.5z"/>
	</g>
	<rect x="68.4" y="62.3" class="st7" width="246.4" height="10"/>
	<path class="st2" d="M265.3,193.9h33c1.5,0,2.7,1.2,2.7,2.7v6c0,1.5-1.2,2.7-2.7,2.7h-33c-1.5,0-2.7-1.2-2.7-2.7v-6
		C262.5,195.2,263.7,193.9,265.3,193.9z"/>
	<path class="st4" d="M273.1,201.5l0.2-0.5c0.4,0.4,1,0.5,1.6,0.5c0.8,0,1.1-0.3,1.1-0.7c0-1.1-2.9-0.4-2.9-2.2
		c0-0.7,0.6-1.3,1.8-1.3c0.5,0,1.1,0.1,1.5,0.4l-0.2,0.5c-0.4-0.2-0.8-0.4-1.3-0.4c-0.8,0-1.1,0.3-1.1,0.7c0,1.1,2.9,0.4,2.9,2.1
		c0,0.7-0.6,1.3-1.8,1.3C274.2,202.1,273.6,201.9,273.1,201.5z"/>
	<path class="st4" d="M280.7,200.9h-2.5l-0.5,1.2H277l2.1-4.7h0.7l2.1,4.7h-0.7L280.7,200.9z M280.4,200.3l-1-2.3l-1,2.3H280.4z"/>
	<path class="st4" d="M286.4,197.3l-2.1,4.7h-0.7l-2.1-4.7h0.7l1.7,3.9l1.7-3.9H286.4z"/>
	<path class="st4" d="M290.4,201.5v0.6h-3.4v-4.7h3.4v0.6h-2.7v1.5h2.4v0.6h-2.4v1.5L290.4,201.5z"/>
	<path class="st12" d="M211.1,193.9h44.2c1.5,0,2.7,1.2,2.7,2.7v6c0,1.5-1.2,2.7-2.7,2.7h-44.2c-1.5,0-2.7-1.2-2.7-2.7v-6
		C208.3,195.2,209.6,193.9,211.1,193.9z"/>
	<path class="st4" d="M217.7,197.3h2c1.3-0.1,2.5,0.8,2.6,2.1c0.1,1.3-0.8,2.5-2.1,2.6c-0.2,0-0.3,0-0.5,0h-2V197.3z M219.7,201.5
		c1,0,1.8-0.8,1.8-1.8c0-1-0.8-1.8-1.8-1.8h-1.3v3.5H219.7z"/>
	<path class="st4" d="M223.3,197.3h0.7v4.7h-0.7V197.3z"/>
	<path class="st4" d="M224.9,201.5l0.2-0.5c0.4,0.4,1,0.6,1.6,0.5c0.8,0,1.1-0.3,1.1-0.7c0-1.1-2.8-0.4-2.8-2.2
		c0-0.7,0.6-1.3,1.8-1.3c0.5,0,1.1,0.1,1.5,0.4l-0.2,0.5c-0.4-0.2-0.8-0.4-1.3-0.4c-0.8,0-1.1,0.3-1.1,0.7c0,1.1,2.8,0.4,2.8,2.1
		c0,0.7-0.6,1.3-1.8,1.3C226.1,202.1,225.4,201.9,224.9,201.5z"/>
	<path class="st4" d="M229.2,199.7c0-1.3,1-2.4,2.4-2.4c0,0,0.1,0,0.1,0c0.7,0,1.3,0.2,1.8,0.7l-0.4,0.4c-0.3-0.4-0.8-0.6-1.3-0.5
		c-1,0-1.8,0.8-1.8,1.8c0,1,0.8,1.8,1.8,1.8c0.5,0,1-0.2,1.3-0.6l0.4,0.4c-0.5,0.5-1.1,0.8-1.8,0.7c-1.3,0.1-2.4-1-2.5-2.3
		C229.2,199.8,229.2,199.7,229.2,199.7z"/>
	<path class="st4" d="M237.3,200.9h-2.5l-0.5,1.2h-0.7l2.1-4.7h0.7l2.1,4.7h-0.7L237.3,200.9z M237,200.3l-1-2.3l-1,2.3H237z"/>
	<path class="st4" d="M242.3,202l-1-1.4h-1.5v1.4h-0.7v-4.7h1.8c1.2,0,2,0.6,2,1.6c0,0.7-0.4,1.3-1,1.5l1.1,1.6L242.3,202z
		 M242.3,199c0-0.7-0.5-1.1-1.3-1.1h-1.1v2.1h1.1C241.9,200,242.3,199.6,242.3,199L242.3,199z"/>
	<path class="st4" d="M244.1,197.3h2c1.3-0.1,2.5,0.8,2.6,2.1c0.1,1.3-0.8,2.5-2.1,2.6c-0.2,0-0.3,0-0.5,0h-2V197.3z M246,201.5
		c1,0,1.8-0.8,1.8-1.8c0-1-0.8-1.8-1.8-1.8h-1.3v3.5H246z"/>
	<path class="st4" d="M77.3,67.7h-4.5c-0.3,0-0.6-0.3-0.6-0.6s0.3-0.6,0.6-0.6h4.5c0.3,0,0.6,0.3,0.6,0.6S77.7,67.7,77.3,67.7z"/>
	<path class="st4" d="M74.2,69.6c-0.2,0-0.3-0.1-0.4-0.2L72,67.6c-0.2-0.2-0.2-0.6,0-0.8l1.8-1.8c0.2-0.2,0.6-0.2,0.8,0
		c0.2,0.2,0.2,0.6,0,0.8c0,0,0,0,0,0l-1.4,1.4l1.4,1.4c0.2,0.2,0.2,0.5,0,0.8c0,0,0,0,0,0C74.5,69.5,74.3,69.6,74.2,69.6z"/>
	<path class="st4" d="M310.3,65.5h-4.8c-0.3,0-0.6-0.3-0.6-0.6c0-0.3,0.3-0.6,0.6-0.6h4.8c0.3,0,0.6,0.3,0.6,0.6
		C310.9,65.2,310.6,65.5,310.3,65.5z"/>
	<path class="st4" d="M310.3,67.7h-4.8c-0.3,0-0.6-0.3-0.6-0.6s0.3-0.6,0.6-0.6h4.8c0.3,0,0.6,0.3,0.6,0.6S310.6,67.7,310.3,67.7z"
		/>
	<path class="st4" d="M310.3,70h-4.8c-0.3,0-0.6-0.3-0.6-0.6c0-0.3,0.3-0.6,0.6-0.6h4.8c0.3,0,0.6,0.3,0.6,0.6
		C310.9,69.7,310.6,70,310.3,70z"/>
</g>
<g id="freepik--speech-bubble--inject-17">
	<circle class="st2" cx="379" cy="142.5" r="15.9"/>
	<polygon class="st2" points="370,150.4 365.3,162.8 375.8,154.5 	"/>
	<path class="st4" d="M385,143.1h-12c-0.3,0-0.6-0.3-0.6-0.6c0-0.3,0.3-0.6,0.6-0.6h12c0.3,0,0.6,0.3,0.6,0.6
		C385.6,142.9,385.3,143.1,385,143.1z"/>
	<path class="st4" d="M379,149.1c-0.3,0-0.6-0.3-0.6-0.6v-12c0-0.3,0.3-0.6,0.6-0.6c0.3,0,0.6,0.3,0.6,0.6v12
		C379.6,148.9,379.3,149.1,379,149.1z"/>
</g>
<g id="freepik--Character--inject-17">
	<path class="st5" d="M357.2,168.8c0,0-15.6-12.5-24.6,7.1c-5.1,11.1-1,34.4,9.1,42.3s31.1-9.9,31.1-9.9s4.6-22.6-2.5-32
		C361.3,164.2,357.2,168.8,357.2,168.8z"/>
	<path class="st5" d="M335.5,216.9c-0.1,0-0.2-0.1-0.2-0.2c-0.1-0.2-10.5-21.8-5.3-38c1.5-4.7,4.1-8,7.7-9.7
		c6.6-3.1,14.4,0.1,14.5,0.1c0.1,0.1,0.2,0.2,0.2,0.3c0,0,0,0,0,0c-0.1,0.1-0.2,0.2-0.4,0.1c-0.1,0-7.7-3.1-14-0.1
		c-3.5,1.6-6,4.8-7.4,9.3c-5.1,16,5.2,37.4,5.3,37.6c0.1,0.1,0,0.3-0.1,0.4c0,0,0,0,0,0C335.6,216.8,335.5,216.9,335.5,216.9z"/>
	<path class="st13" d="M335.9,225.2c0,0-2.8,24.8-3.6,27.7c-0.9,3-13.5,18.7-13.5,18.7l3.6,1.9c0,0,13.4-13.8,15.6-17.9
		s5.3-25.5,5.3-25.5L335.9,225.2z"/>
	<path class="st2" d="M348.3,236.2l-0.7-0.1l-9.8-1.6l-5.2-0.9c0,0,0.5-15.1,6-19.4l5.3,4.9L348.3,236.2z"/>
	<path class="st7" d="M347.6,236l-9.8-1.6c-0.8-6.9,2.6-14.2,2.6-14.2C344.8,223.2,347.2,230.4,347.6,236z"/>
	<path class="st5" d="M356.8,258.6l-8.4,13.2c-16.6-3.9-69.8-12-76.3,6.3c-8.1,22.7,50.5,40.8,83,41.9c32.5,1.1,58.5-17.4,38-64.7
		L356.8,258.6z"/>
	<path class="st7" d="M356.8,258.6l-8.4,13.2c-16.6-3.9-69.8-12-76.3,6.3c-8.1,22.7,50.5,40.8,83,41.9c32.5,1.1,58.5-17.4,38-64.7
		L356.8,258.6z"/>
	<path class="st5" d="M279.5,308.8c-0.5-0.4-0.8-0.9-1-1.5c-0.1-0.4,0.1-0.8,0.4-1c0.2-0.2,0.4-0.3,0.6-0.2c1.1,0.3,2.2,3.4,2.2,3.8
		c0,0.1,0,0.2-0.1,0.2c-0.1,0.1-0.2,0.1-0.2,0C280.8,309.7,280.2,309.3,279.5,308.8z M279.7,306.7c-0.1-0.1-0.2-0.1-0.2-0.1
		c-0.1,0-0.2,0-0.3,0.1c-0.2,0.2-0.3,0.4-0.3,0.7c0.5,1,1.3,1.8,2.3,2.2C280.9,308.5,280.4,307.5,279.7,306.7L279.7,306.7z"/>
	<path class="st5" d="M281.4,310.2L281.4,310.2c-0.4-1.1-0.5-3.6,0.3-4.1c0.3-0.2,0.6-0.1,0.9,0.1c0.3,0.2,0.5,0.5,0.5,0.8
		c0.2,1.3-1.3,3.2-1.4,3.3c0,0.1-0.1,0.1-0.2,0.1C281.5,310.2,281.5,310.2,281.4,310.2z M282.4,306.5L282.4,306.5
		c-0.3-0.2-0.4-0.1-0.4-0.1c-0.5,0.3-0.5,2.1-0.3,3.2c0.6-0.7,1-1.6,1-2.6C282.6,306.8,282.5,306.6,282.4,306.5z"/>
	<path class="st5" d="M339.7,317.6c0.2,0.6,0.3,1.2,0.2,1.8c-0.1,0.4-0.5,0.7-0.9,0.7c-0.2,0.1-0.5,0-0.7-0.1
		c-0.8-0.8-0.2-4.1-0.1-4.5c0-0.1,0.1-0.1,0.1-0.2c0.1,0,0.2,0,0.2,0.1C339,316.1,339.4,316.8,339.7,317.6z M338.5,319.4
		c0,0.1,0.1,0.2,0.1,0.2c0.1,0.1,0.2,0.1,0.3,0.1c0.3,0,0.5-0.2,0.6-0.5c0.1-1.1-0.3-2.2-1-3.1C338.3,317.2,338.3,318.3,338.5,319.4
		L338.5,319.4z"/>
	<polygon class="st13" points="317.3,299 330.7,303.8 337.1,306.1 335.4,313.1 329.2,311.8 314,308.5 	"/>
	<path class="st2" d="M333.7,313.4l1.1-8.3c0.1-0.5,0.5-0.8,0.9-0.7c0,0,0,0,0,0l4.1,0.7c0,0,5.6,0.5,6.7,1.9
		c3.2,4.2,1.2,22.5-0.9,23.2c-0.8,0.2-1.6-0.9-2-1.6c-1.1-2.4-3-8.6-3.9-10.5c-1.1-2.3-4.1-3.4-5.4-3.8
		C333.9,314.2,333.6,313.8,333.7,313.4z"/>
	<path class="st5" d="M338.6,315.5L338.6,315.5c-0.1,1.1-1.3,3.4-2.2,3.4c-0.3,0-0.6-0.2-0.7-0.5c-0.1-0.3-0.2-0.6-0.1-0.9
		c0.4-1.2,2.6-2.2,2.8-2.2c0.1,0,0.1,0,0.2,0C338.6,315.3,338.6,315.4,338.6,315.5z M336,318.2L336,318.2c0.1,0.3,0.2,0.3,0.3,0.3
		c0.6-0.1,1.5-1.6,1.8-2.6c-0.6,0.3-1.9,1-2.1,1.8C335.9,317.9,335.9,318,336,318.2L336,318.2z"/>
	<polygon class="st7" points="317.3,299 330.7,303.8 329.2,311.8 314,308.5 	"/>
	<polygon class="st2" points="326.8,313 323,313.2 325.6,300 329.9,302.4 	"/>
	<polygon class="st9" points="326.8,313 323,313.2 325.6,300 329.9,302.4 	"/>
	<path class="st7" d="M382.6,261.6l-20,22.2c0,0-22.1-0.5-49,12.6c0,0-28.8-11.9-31.5-21.8c-3.5-13,66.3-2.8,66.3-2.8L382.6,261.6z"
		/>
	<path class="st5" d="M288.7,277.3v3.3c0,0.8,1,1.2,1.8,1.2h65.7c0.8,0,1.9-0.3,1.9-1.2v-3.3H288.7z"/>
	<path class="st10" d="M288.7,277.3v3.3c0,0.8,1,1.2,1.8,1.2h65.7c0.8,0,1.9-0.3,1.9-1.2v-3.3H288.7z"/>
	<path class="st7" d="M288.7,277.3v3.3c0,0.8,1,1.2,1.8,1.2h43.3c0.8,0,1.8-0.3,1.8-1.2v-3.3H288.7z"/>
	<path class="st5" d="M277.7,243.1l7.8,35.5c0.3,1.2,1.3,2,2.5,2h42.7c0.9,0,1.7-0.8,1.7-1.7c0-0.2,0-0.3-0.1-0.5l-7.8-35.2
		c-0.3-1.1-1.4-1.8-2.5-1.7h-42.7C278.2,241.5,277.5,242,277.7,243.1z"/>
	<path class="st10" d="M277.7,243.1l7.8,35.5c0.3,1.2,1.3,2,2.5,2h41.3c1,0,1.7-0.8,1.7-1.8c0-0.2,0-0.3-0.1-0.5l-7.8-35.2
		c-0.3-1.1-1.4-1.8-2.5-1.7h-41.3C278.2,241.5,277.5,242,277.7,243.1z"/>
	<path class="st7" d="M298.8,261.2L298.8,261.2c0,3,3.3,5.5,5.6,5.5c2.3,0,3.8-2.5,3.1-5.5c-0.7-3-3.1-5.4-5.4-5.5
		c0.7,3-0.8,5.5-3.2,5.5C298.9,261.2,298.9,261.2,298.8,261.2z"/>
	<polygon class="st13" points="308,314.2 294,316.5 287.3,317.6 285.4,310.7 291.4,308.8 306.3,304.3 	"/>
	<path class="st2" d="M286.7,309.6l3,7.8c0.2,0.4,0,0.9-0.4,1.1c0,0,0,0-0.1,0l-3.9,1.4c0,0-5.1,2.2-6.8,1.5
		c-4.8-2.1-12-19.1-10.4-20.8c0.6-0.6,1.8,0,2.5,0.4c2.1,1.5,6.8,6,8.5,7.3c2.1,1.5,5.2,1,6.6,0.7
		C286.2,309,286.6,309.2,286.7,309.6z"/>
	<polygon class="st7" points="308,314.2 294,316.5 291.4,308.8 306.3,304.3 	"/>
	<path class="st5" d="M293.8,307.4c0,0,57.1-32.1,76.7-31.2c19.6,0.9,22.5,18.3,14.4,29.1c-8.1,10.8-23.1,13.5-23.1,13.5
		s10.2-14.4,8.7-18.5s-7.3,1.6-7.3,1.6s-35.9,11.6-67.3,14.3L293.8,307.4z"/>
	<polygon class="st2" points="292.9,306.5 296.1,304.3 300.3,317.1 295.3,317.1 	"/>
	<polygon class="st9" points="292.9,306.5 296.1,304.3 300.3,317.1 295.3,317.1 	"/>
	<path class="st2" d="M393.1,255.2l-36.3,3.4c0,0-5.7-11.8-10.1-16.4c-4.4-4.6-8.2-28-8.2-28c3-1.4,6-2.7,9.1-3.7
		c9-3,18.3-4.6,27.8-4.7h0.2c2.7,0,4.3,0.1,4.3,0.1c1.1,0.7,2,1.8,2.6,2.9c3.9,6.7,7,22.4,8.8,33.6
		C392.4,249.8,393.1,255.2,393.1,255.2z"/>
	<path class="st7" d="M391.2,242.5c-8-3.7-18.9-9.9-18.4-16.2c0.6-6.9,6.2-13.9,9.5-17.4C386.3,215.6,389.4,231.3,391.2,242.5z"/>
	<path class="st10" d="M370.2,237.9c1.8,5.3-0.6,10.3-5.5,11.3c-4.8,1-10.3-2.5-12.1-7.8c-1.8-5.3,0.6-10.3,5.5-11.3
		C363,229.1,368.4,232.7,370.2,237.9z"/>
	<polygon class="st2" points="354.6,247.7 356.9,228.9 372,245.2 	"/>
	<path class="st13" d="M375.6,205.8c-1,4.5-3.2,8.8-6.3,12.2c-0.7,0.7-1.4,1.4-2.2,2c-2.3,1.6-4.9,2.6-7.7,2.7
		c-5,0.3-7.7-1.9-9.2-4.6c-0.8-1.5-1.4-3.2-1.8-4.9c-0.3-1-0.5-2-0.7-2.7l1.8-0.6c0.9-0.3,1.7-0.5,2.6-0.8c5.6-1.5,11.3-2.6,17-3.1
		l2.3-0.2c1.5-0.1,2.9-0.1,4-0.1L375.6,205.8z"/>
	<path class="st13" d="M353.8,208.2c-0.1,2.2-1.4,2.8-1.4,2.8c-0.4,2.5,1.3,4.9,3.8,5.3c0.4,0.1,0.8,0.1,1.2,0
		c7.1-0.7,9.4-9.3,9.4-9.3c-5.2-2.1-6.4-7.8-6.6-11.2c-0.1-0.9-0.1-1.8,0-2.7l-9.7,6.1c0.8,1.4,1.5,2.8,2.2,4.2
		C353.4,205,353.7,206.6,353.8,208.2z"/>
	<path class="st7" d="M351.2,198.5c0.7,1.5,1.3,2.9,1.7,4.5c0.5,1.5,0.7,3.2,0.6,4.8c5.4,0.4,7.6-11.6,7.6-11.6l0.1-0.1
		c0-0.9,0.1-1.8,0.3-2.7L351.2,198.5z"/>
	<path class="st13" d="M343.2,174.3c-9.4,2.9-10.9,8.8-8.6,18.7c2.8,12.3,8.1,20.1,19,13.9C368.5,198.5,358.8,169.5,343.2,174.3z"/>
	<path class="st14" d="M340.5,190.6c-0.3,1.6-0.8,3.2-1.5,4.7c0.8,0.6,1.9,0.7,2.8,0.3L340.5,190.6z"/>
	<path class="st5" d="M346,188.1c0.2,0.8,0.8,1.3,1.3,1.1c0.5-0.2,0.8-0.9,0.5-1.7c-0.2-0.8-0.8-1.3-1.3-1.1
		C346,186.6,345.8,187.3,346,188.1z"/>
	<path class="st5" d="M346.8,186.4l-1.9-0.2C344.9,186.2,346.1,187.4,346.8,186.4z"/>
	<path class="st5" d="M336.3,190.6c0.2,0.8,0.8,1.3,1.3,1.1c0.5-0.2,0.8-0.9,0.5-1.7c-0.2-0.8-0.8-1.3-1.3-1.1
		C336.4,189.1,336.1,189.8,336.3,190.6z"/>
	<path class="st5" d="M337.1,188.9l-1.9-0.2C335.2,188.7,336.5,189.9,337.1,188.9z"/>
	<path class="st5" d="M348.6,182.1c-0.1,0-0.2,0-0.2-0.1c-1.3-0.7-2.8-0.7-4.1-0.1c-0.2,0.1-0.4,0-0.5-0.2c-0.1-0.2,0-0.4,0.2-0.5
		c1.6-0.7,3.4-0.6,4.9,0.2c0.2,0.1,0.2,0.4,0.1,0.6c0,0,0,0,0,0C348.9,182.1,348.8,182.1,348.6,182.1z"/>
	<path class="st5" d="M333.7,185.5c-0.1,0-0.2,0-0.3-0.1c-0.2-0.1-0.2-0.4-0.1-0.5c0,0,0,0,0,0c0.9-1.2,2.3-2,3.8-2.1
		c0.2,0,0.4,0.2,0.4,0.4c0,0,0,0,0,0c0,0.2-0.2,0.4-0.4,0.4l0,0c-1.3,0.1-2.4,0.7-3.2,1.8C333.9,185.5,333.8,185.5,333.7,185.5z"/>
	<path class="st5" d="M358.3,186.9c0,0-6.7-6.4-7.8-12.5c0,0-20.9-1.9-16.1,17.2c0,0-6.9-16.2,9.1-21.5s23.1,18.3,16.9,27.9
		C360.4,198,362.4,190.9,358.3,186.9z"/>
	<path class="st13" d="M357.3,189.4c-0.5-2.3,1-4.6,3.3-5.1c0,0,0,0,0,0c3-0.6,6.2,5-0.6,8.6C359.1,193.4,358.2,192.6,357.3,189.4z"
		/>
	<path class="st5" d="M343.9,199.8c-0.2,0-0.4-0.3-0.3-0.5c0-0.2,0.2-0.3,0.3-0.3c2.2,0.1,4.1-1.5,4.4-3.7c0-0.2,0.2-0.4,0.4-0.3
		c0.2,0,0.4,0.2,0.4,0.4C348.7,198,346.5,199.8,343.9,199.8L343.9,199.8z"/>
	<path class="st5" d="M371.9,197c-0.1,0-0.2-0.1-0.3-0.2c0-0.1-1-5.2-10.9-8.1c-10.3-3-11-15.3-11-15.4c0-0.2,0.1-0.3,0.3-0.3
		c0,0,0,0,0,0c0.2,0,0.3,0.1,0.3,0.3c0,0,0,0,0,0c0,0.1,0.7,12,10.6,14.9c10.2,3,11.3,8.3,11.3,8.5
		C372.2,196.8,372.1,196.9,371.9,197L371.9,197z"/>
	<path class="st13" d="M375.6,218.2c0,0-1.2,23.9-3.2,29.3s-23.2,25.2-23.2,25.2s-5.9-1.3-6.9-0.9c-1,0.4-6.6,5.6-6.6,5.6H352
		l1.4-2.5c0,0,21.9-16.2,24.3-20.1c1.8-2.9,7.5-31.9,7.5-31.9L375.6,218.2z"/>
	<path class="st2" d="M379.8,206c14.7,3.6,7.8,25.7,7.8,25.7l-15.3-3.7C372.4,228,372.4,204.1,379.8,206z"/>
	<path class="st5" d="M369.3,218.1c-0.7,0.7-1.4,1.4-2.2,2c-0.7-4.7-0.1-9.6,1.9-13.9l2.3-0.2C369.8,209.8,369.1,213.9,369.3,218.1z
		"/>
	<path class="st5" d="M351.9,209.2c-1.1,2.9-1.8,5.9-1.9,9c-0.8-1.5-1.4-3.2-1.8-4.9c0.3-1.1,0.7-2.2,1.1-3.3
		C350.2,209.7,351.1,209.5,351.9,209.2z"/>
	<path class="st10" d="M369.3,218.1c-0.7,0.7-1.4,1.4-2.2,2c-0.7-4.7-0.1-9.6,1.9-13.9l2.3-0.2C369.8,209.8,369.1,213.9,369.3,218.1
		z"/>
	<path class="st10" d="M351.9,209.2c-1.1,2.9-1.8,5.9-1.9,9c-0.8-1.5-1.4-3.2-1.8-4.9c0.3-1.1,0.7-2.2,1.1-3.3
		C350.2,209.7,351.1,209.5,351.9,209.2z"/>
</g>
</svg>
