<svg xmlns="http://www.w3.org/2000/svg" xmlns:xlink="http://www.w3.org/1999/xlink" width="400" zoomAndPan="magnify" viewBox="0 0 300 299.999988" height="400" preserveAspectRatio="xMidYMid meet" version="1.0"><defs><clipPath id="43c0cd7631"><path d="M 3.042969 4 L 296 4 L 296 297 L 3.042969 297 Z M 3.042969 4 " clip-rule="nonzero"/></clipPath></defs><g clip-path="url(#43c0cd7631)"><path fill="#010101" d="M 164.132812 150.421875 L 292.984375 21.566406 C 296.910156 17.644531 296.910156 11.285156 292.984375 7.363281 C 289.0625 3.441406 282.703125 3.441406 278.785156 7.363281 L 149.929688 136.21875 L 21.074219 7.363281 C 17.152344 3.441406 10.792969 3.441406 6.875 7.363281 C 2.949219 11.285156 2.949219 17.644531 6.875 21.566406 L 135.730469 150.421875 L 6.871094 279.273438 C 2.949219 283.195312 2.949219 289.554688 6.871094 293.472656 C 8.832031 295.433594 11.402344 296.414062 13.972656 296.414062 C 16.539062 296.414062 19.113281 295.433594 21.074219 293.472656 L 149.929688 164.621094 L 278.785156 293.472656 C 280.746094 295.433594 283.316406 296.414062 285.882812 296.414062 C 288.453125 296.414062 291.023438 295.433594 292.984375 293.472656 C 296.90625 289.550781 296.90625 283.191406 292.984375 279.273438 Z M 164.132812 150.421875 " fill-opacity="1" fill-rule="nonzero"/></g></svg>