<?xml version="1.0" encoding="utf-8"?>
<!-- Generator: Adobe Illustrator 24.0.1, SVG Export Plug-In . SVG Version: 6.00 Build 0)  -->
<svg version="1.1" id="Camada_1" xmlns="http://www.w3.org/2000/svg" xmlns:xlink="http://www.w3.org/1999/xlink" x="0px" y="0px"
	 viewBox="0 0 436 337" style="enable-background:new 0 0 436 337;" xml:space="preserve">
<style type="text/css">
	
		.st0{fill:none;stroke:url(#SVGID_1_);stroke-width:6.1056;stroke-linecap:round;stroke-miterlimit:10;stroke-dasharray:109.9662,21.9932,0,21.9932,0,21.9932;}
	.st1{fill:url(#SVGID_2_);}
	.st2{fill:url(#SVGID_3_);}
	.st3{fill:#00E676;}
	.st4{fill:#1674BA;}
	.st5{opacity:0.7;fill:#FFFFFF;enable-background:new    ;}
	.st6{opacity:0.5;fill:#FFFFFF;enable-background:new    ;}
	.st7{opacity:0.3;fill:#FFFFFF;enable-background:new    ;}
	.st8{opacity:0.6;fill:#FFFFFF;enable-background:new    ;}
	.st9{opacity:0.2;enable-background:new    ;}
	.st10{fill:#EEC1BB;}
	.st11{fill:#263238;}
	.st12{fill:#D4827D;}
	.st13{opacity:0.5;enable-background:new    ;}
	.st14{fill:#FFFFFF;}
	.st15{fill-rule:evenodd;clip-rule:evenodd;fill:url(#SVGID_4_);}
	.st16{fill-rule:evenodd;clip-rule:evenodd;fill:#FFFFFF;}
	.st17{fill:url(#SVGID_5_);}
	.st18{fill:url(#SVGID_6_);}
	.st19{fill:url(#SVGID_7_);}
	.st20{fill:url(#SVGID_8_);}
</style>
<g>
	<linearGradient id="SVGID_1_" gradientUnits="userSpaceOnUse" x1="108.835" y1="161.0455" x2="394.0078" y2="137.769">
		<stop  offset="0" style="stop-color:#1674BA"/>
		<stop  offset="1" style="stop-color:#29A9EB"/>
	</linearGradient>
	
		<ellipse transform="matrix(0.7071 -0.7071 0.7071 0.7071 -32.0073 221.5421)" class="st0" cx="251.4" cy="149.4" rx="140" ry="140"/>
</g>
<linearGradient id="SVGID_2_" gradientUnits="userSpaceOnUse" x1="230.8179" y1="286.2678" x2="288.835" y2="286.2678">
	<stop  offset="0" style="stop-color:#00B2FF"/>
	<stop  offset="1" style="stop-color:#006AFF"/>
</linearGradient>
<path class="st1" d="M259.8,257.3c-16,0-29,13-29,29c0,0,0,0,0,0c0,16,13,29,29,29c0,0,0,0,0,0c16,0,29-13,29-29c0,0,0,0,0,0
	C288.8,270.2,275.8,257.3,259.8,257.3L259.8,257.3z"/>
<linearGradient id="SVGID_3_" gradientUnits="userSpaceOnUse" x1="336.6485" y1="229.2821" x2="394.6656" y2="229.2821">
	<stop  offset="0" style="stop-color:#2AABEE"/>
	<stop  offset="1" style="stop-color:#229ED9"/>
</linearGradient>
<path class="st2" d="M365.7,200.3c-16,0-29,13-29,29c0,0,0,0,0,0c0,16,13,29,29,29c0,0,0,0,0,0c16,0,29-13,29-29c0,0,0,0,0,0
	C394.7,213.3,381.7,200.3,365.7,200.3L365.7,200.3z"/>
<path class="st3" d="M385,90.4c-16,0-29,13-29,29c0,0,0,0,0,0c0,16,13,29,29,29c0,0,0,0,0,0c16,0,29-13,29-29c0,0,0,0,0,0
	C414,103.4,401,90.4,385,90.4L385,90.4z"/>
<path class="st4" d="M269.5,123.1v-13.8l-7.1-0.7c-0.9-4.5-2.7-8.8-5.3-12.8l4.6-5.5l-9.8-9.8l-5.5,4.6c-3.8-2.5-8.2-4.3-12.8-5.3
	l-0.7-7.1h-13.9l-0.7,7.1c-4.6,1-8.9,2.8-12.8,5.3l-5.5-4.6l-9.8,9.8l4.6,5.5c-2.6,3.9-4.4,8.3-5.3,12.8l-7.1,0.7v13.8l7.1,0.7
	c0.9,4.5,2.7,8.8,5.3,12.8l-4.6,5.5l9.8,9.8l5.5-4.6c3.8,2.5,8.2,4.3,12.8,5.3l0.7,7.1h13.8l0.7-7.1c4.6-1,8.9-2.8,12.8-5.3l5.5,4.6
	l9.8-9.8l-4.6-5.5c2.6-3.9,4.4-8.3,5.3-12.8L269.5,123.1z M226,134.9c-10.3,0-18.7-8.4-18.7-18.7s8.4-18.7,18.7-18.7
	s18.7,8.4,18.7,18.7S236.3,134.9,226,134.9z"/>
<path class="st4" d="M325.5,162.1v-10.8l-5.6-0.5c-0.7-3.5-2.1-6.9-4.2-10l3.6-4.3l-7.7-7.7l-4.4,3.6c-3-2-6.4-3.4-10-4.2l-0.5-5.6
	h-10.8l-0.5,5.6c-3.6,0.8-7,2.2-10,4.2l-4.4-3.6l-7.7,7.7l3.6,4.3c-2,3.1-3.4,6.5-4.2,10l-5.6,0.5v10.8l5.6,0.5
	c0.7,3.5,2.1,6.9,4.2,10l-3.4,4.3l7.7,7.7l4.4-3.6c3,2,6.4,3.4,10,4.2l0.5,5.6h10.8l0.5-5.6c3.6-0.8,7-2.2,10-4.2l4.3,3.6l7.7-7.7
	l-3.6-4.3c2-3.1,3.4-6.5,4.2-10L325.5,162.1z M291.4,171.4c-8.1,0-14.7-6.6-14.7-14.7s6.6-14.7,14.7-14.7c8.1,0,14.7,6.6,14.7,14.7
	C306.1,164.8,299.5,171.4,291.4,171.4L291.4,171.4z"/>
<path class="st4" d="M269.5,192.9v-9.1l-4.7-0.4c-0.6-3-1.8-5.8-3.5-8.4l3-3.6l-6.4-6.4l-3.6,3.1c-2.5-1.7-5.4-2.9-8.4-3.5l-0.4-4.7
	h-9.1l-0.4,4.7c-3,0.6-5.9,1.8-8.4,3.5l-3.6-3.1l-6.4,6.4l3,3.6c-1.7,2.6-2.9,5.4-3.5,8.4l-4.7,0.4v9.1l4.7,0.4
	c0.6,3,1.8,5.9,3.5,8.5l-3,3.6l6.4,6.4l3.6-3.1c2.5,1.7,5.4,2.9,8.4,3.5l0.4,4.7h9.1l0.4-4.7c3-0.6,5.9-1.8,8.4-3.5l3.6,3.1l6.4-6.4
	l-3-3.6c1.7-2.6,2.9-5.4,3.5-8.4L269.5,192.9z M240.8,200.7c-6.8,0-12.3-5.5-12.3-12.3S234,176,240.8,176s12.3,5.5,12.3,12.3
	S247.6,200.7,240.8,200.7z"/>
<path class="st5" d="M269.5,123.1v-13.8l-7.1-0.7c-0.9-4.5-2.7-8.8-5.3-12.8l4.6-5.5l-9.8-9.8l-5.5,4.6c-3.8-2.5-8.2-4.3-12.8-5.3
	l-0.7-7.1h-13.9l-0.7,7.1c-4.6,1-8.9,2.8-12.8,5.3l-5.5-4.6l-9.8,9.8l4.6,5.5c-2.6,3.9-4.4,8.3-5.3,12.8l-7.1,0.7v13.8l7.1,0.7
	c0.9,4.5,2.7,8.8,5.3,12.8l-4.6,5.5l9.8,9.8l5.5-4.6c3.8,2.5,8.2,4.3,12.8,5.3l0.7,7.1h13.8l0.7-7.1c4.6-1,8.9-2.8,12.8-5.3l5.5,4.6
	l9.8-9.8l-4.6-5.5c2.6-3.9,4.4-8.3,5.3-12.8L269.5,123.1z M226,134.9c-10.3,0-18.7-8.4-18.7-18.7s8.4-18.7,18.7-18.7
	s18.7,8.4,18.7,18.7S236.3,134.9,226,134.9z"/>
<path class="st6" d="M325.5,162.1v-10.8l-5.6-0.5c-0.7-3.5-2.1-6.9-4.2-10l3.6-4.3l-7.7-7.7l-4.4,3.6c-3-2-6.4-3.4-10-4.2l-0.5-5.6
	h-10.8l-0.5,5.6c-3.6,0.8-7,2.2-10,4.2l-4.4-3.6l-7.7,7.7l3.6,4.3c-2,3.1-3.4,6.5-4.2,10l-5.6,0.5v10.8l5.6,0.5
	c0.7,3.5,2.1,6.9,4.2,10l-3.4,4.3l7.7,7.7l4.4-3.6c3,2,6.4,3.4,10,4.2l0.5,5.6h10.8l0.5-5.6c3.6-0.8,7-2.2,10-4.2l4.3,3.6l7.7-7.7
	l-3.6-4.3c2-3.1,3.4-6.5,4.2-10L325.5,162.1z M291.4,171.4c-8.1,0-14.7-6.6-14.7-14.7s6.6-14.7,14.7-14.7c8.1,0,14.7,6.6,14.7,14.7
	C306.1,164.8,299.5,171.4,291.4,171.4L291.4,171.4z"/>
<path class="st7" d="M269.5,192.9v-9.1l-4.7-0.4c-0.6-3-1.8-5.8-3.5-8.4l3-3.6l-6.4-6.4l-3.6,3.1c-2.5-1.7-5.4-2.9-8.4-3.5l-0.4-4.7
	h-9.1l-0.4,4.7c-3,0.6-5.9,1.8-8.4,3.5l-3.6-3.1l-6.4,6.4l3,3.6c-1.7,2.6-2.9,5.4-3.5,8.4l-4.7,0.4v9.1l4.7,0.4
	c0.6,3,1.8,5.9,3.5,8.5l-3,3.6l6.4,6.4l3.6-3.1c2.5,1.7,5.4,2.9,8.4,3.5l0.4,4.7h9.1l0.4-4.7c3-0.6,5.9-1.8,8.4-3.5l3.6,3.1l6.4-6.4
	l-3-3.6c1.7-2.6,2.9-5.4,3.5-8.4L269.5,192.9z M240.8,200.7c-6.8,0-12.3-5.5-12.3-12.3S234,176,240.8,176s12.3,5.5,12.3,12.3
	S247.6,200.7,240.8,200.7z"/>
<path class="st4" d="M69.5,94.8c3.9,0.2,20,21.9,20,21.9c1.1,1.2,5.1,5.3,11.6,6.2c5,0.7,8.8-0.8,10.5-1.6c1.8,2.5,3.6,5.1,5.5,7.6
	c-2.7,2.2-8.7,6.3-16.9,6.5c-8.8,0.3-15.3-4.1-19.7-7c-4.1-2.8-7.1-5.7-9-7.8C70.8,112,70.1,103.4,69.5,94.8z"/>
<path class="st8" d="M69.5,94.8l1.6,17.3l0.4,8.5c0,0,4,3.8,9,7.8c4,3.2,10.9,7.2,19.7,7c8.1-0.2,14.1-4.1,16.9-6.3
	c-1.8-2.6-3.6-5.3-5.5-7.9c-1.5,0.7-6.5,2.7-12.6,1.2c-5.2-1.3-8.3-4.5-9.5-5.8c0,0,0,0,0-0.1C88.5,115.3,73.2,95,69.5,94.8z"/>
<path class="st9" d="M71,112.1l0.4,8.5c0,0,4,3.8,9,7.8c0.5-10.2-9-25-9-25L71,112.1z"/>
<path class="st9" d="M92.1,119.1c-0.1,1.1-0.2,2.3-0.3,3.4c-0.5-1.6-0.9-3.2-1.4-4.9C91,118.1,91.5,118.6,92.1,119.1z"/>
<path class="st4" d="M70.1,149.1l-32.6,2.5c0,0-0.4-19.4-3.1-29.6c-0.8-3.3-1.9-7-3.2-11.2c-0.6-1.8-1.2-3.7-1.9-5.8s-1.3-3.9-2-6.1
	c4.5-1.4,9-2.5,13.6-3.3c4.9-0.9,9.8-1.4,14.7-1.6c6.4-0.1,13.7,0.7,13.7,0.7s1,0.3,1.7,7C71.8,108.2,71.5,126,70.1,149.1z"/>
<path class="st8" d="M70.1,149.1l-32.6,2.5c0,0,0-0.4,0-1.1c-0.1-4.3-0.8-19.8-3.1-28.5c-0.6-2.3-1.3-4.9-2.2-7.7
	c-0.3-1.1-0.7-2.3-1.1-3.5c-0.6-1.8-1.2-3.7-1.9-5.8c-0.7-2-1.3-3.9-2-6.1c4.5-1.4,9-2.5,13.6-3.3c4.9-0.9,9.8-1.4,14.7-1.6
	c6.4-0.1,13.7,0.7,13.7,0.7s1,0.3,1.7,7C71.8,108.2,71.5,126,70.1,149.1z"/>
<path class="st10" d="M29.3,313.8l4.9,2.9c2.3-3.1,4.8-6.1,7.5-8.9l0,0c1.4-1.5,2.9-3.2,4.5-5c3.1-3.6,6.5-7.7,10-12l3.2-4
	c12.3-15.5,25.6-33.7,30.6-46c1.5-3.8,2.3-7.1,2-9.5c-1-7.3-3.9-18.4-7.1-29.1c-5-16.3-10.6-31.8-10.6-31.8l-13.8,23.3
	c0,0,4.2,10,8,20.7c3.8,10.5,7.2,21.6,5.9,24.5c-0.1,0.3-0.3,0.6-0.4,1c-2.3,4.7-8.6,15.4-15.8,27.2l-2.2,3.6
	c-3.8,6.3-7.8,12.8-11.5,18.7c-1.4,2.3-2.8,4.6-4.2,6.7C34,306.5,29.3,313.8,29.3,313.8z"/>
<path class="st9" d="M59.6,286.9c-6.5,8.1-12.7,15.6-17.4,21c-0.7-3.3-1.3-7.2-1.9-11.5c5.4-8.6,11.9-19.2,17.9-29.1
	C58.1,273.8,58.6,280.4,59.6,286.9z"/>
<path class="st10" d="M35.1,219.6c1.7,11.6,4.1,22.1,5.7,28.4c0.9,3.8,1.6,6,1.6,6c0,11.9,0.7,23.8,2.1,35.6
	c0.5,4.7,1.1,9.2,1.7,13.3c2.1,15.4,4.4,26.5,4.4,26.5l5.9-0.8l-0.2-37.7l-0.1-20l-0.2-27.2l-0.1-4.7l-0.3-20.7l-0.4-30.5l-20.4-9.2
	C32,190.1,33,205.7,35.1,219.6z"/>
<path class="st9" d="M84.8,202.7l-17.7,8c-3.4-9.2-6.7-17-6.7-17l13.7-23.3c0,0,5.6,15.5,10.6,31.8L84.8,202.7z"/>
<path class="st9" d="M55.5,213.6l-21,1.4c-1.6-12.7-2.2-26.2,0.3-36.5l20.4,9.2L55.5,213.6z"/>
<path class="st11" d="M29.7,310.6c0.6-0.4,5.7,7.1,5.7,7.1s-1.1,7.9,1.2,13c2.3,5.1-2.2,4.7-5.9-0.2l-9.2-12
	C18.9,315.2,23.5,315.1,29.7,310.6z"/>
<path class="st4" d="M37.1,323.5c-1.1-0.3-1.9-3.6-2-4.2c0,0,0-0.1,0-0.1l0,0c0,0,0,0,0-0.1l0,0v-0.1l0,0c0,0,0.1,0,0.1,0
	c0.1,0,2.2-0.7,3.4,0c0.4,0.2,0.6,0.5,0.7,0.9c0.1,0.3,0,0.7-0.2,0.9c-0.4,0.3-1.2,0-1.9-0.3c0.5,0.5,0.8,1.1,1,1.8
	c0,0.3,0,0.5-0.2,0.8c-0.2,0.3-0.4,0.4-0.7,0.4L37.1,323.5z M37.2,323c0,0,0.2,0.1,0.4-0.2c0.1-0.1,0.1-0.3,0.1-0.4
	c-0.1-0.8-1.2-1.9-2-2.5C36.1,321.3,36.7,322.9,37.2,323z M35.9,319.3c1.2,0.8,2.6,1.4,2.9,1.1c0.1-0.1,0.1-0.3,0-0.4
	c-0.1-0.3-0.2-0.5-0.5-0.6c-0.3-0.2-0.7-0.2-1.1-0.2C36.8,319.2,36.3,319.2,35.9,319.3z"/>
<path class="st11" d="M48.5,325.6c0-0.7,9.2-0.2,9.2-0.2s5.6,5.7,11.1,7s2.4,4.5-3.7,4.5H49.9C45.6,337,48.3,333.3,48.5,325.6z"/>
<path class="st4" d="M58.6,326.6C58.6,326.6,58.5,326.6,58.6,326.6L58.6,326.6c-0.1-0.1-0.1-0.1-0.1-0.1l0,0c0,0,0,0,0-0.1l0,0
	c0,0,0-0.1,0-0.1c0-0.1,0.8-2.2,2-2.7c0.4-0.2,0.8-0.2,1.2,0c0.4,0.2,0.6,0.5,0.6,0.8c0,0.5-0.7,1-1.4,1.4c0.7-0.1,1.4,0,2,0.2
	c0.2,0.1,0.4,0.4,0.5,0.6c0.2,0.4,0.1,0.8-0.2,1c-0.2,0.2-0.5,0.2-0.8,0.2C61.1,327.7,59.8,327.3,58.6,326.6z M59.4,326.5
	c1.3,0.6,3.1,1.1,3.4,0.7c0,0,0.2-0.1,0.1-0.5c0-0.1-0.1-0.3-0.3-0.3c-0.3-0.1-0.7-0.2-1.1-0.2C60.9,326.2,60.1,326.3,59.4,326.5
	L59.4,326.5z M60.7,324.1c-0.7,0.5-1.3,1.2-1.6,2c1.3-0.5,2.6-1.2,2.7-1.6c0-0.1-0.2-0.2-0.3-0.3c-0.1-0.1-0.3-0.1-0.4-0.1
	C60.9,324,60.8,324,60.7,324.1L60.7,324.1z"/>
<path class="st10" d="M54.3,101c-8.1-0.4-10.8-3.7-10.8-3.7c3.1-3.3,2.2-7.9,1.1-10.7c-0.3-0.9-0.7-1.7-1.2-2.6l9.8,1.1
	c-0.1,1.4-0.2,2.7-0.1,4.1c0,1,0.2,2,0.5,3c0.9,2.9,2.5,2.8,2.5,2.8C58.1,98.1,54.3,101,54.3,101z"/>
<path class="st9" d="M53.2,89.3c0,1,0.2,2,0.5,3c-3.9-0.2-7-3.1-9.1-5.7c-0.3-0.9-0.7-1.7-1.2-2.6l9.8,1.1
	C53.1,86.5,53.1,87.9,53.2,89.3z"/>
<path class="st11" d="M42.2,53.2c-13.7,2.1-19.2,38.4,0,33.6c5.6-1.4,28.1-21.3,18.5-27.5C55.2,55.6,48.8,53.5,42.2,53.2z"/>
<path class="st10" d="M52.7,59.2c8.4,0.6,10.8,5.4,10.8,14.1c0,10.9-3,18.5-13.4,15.4C36,84.5,38.7,58.2,52.7,59.2z"/>
<path class="st12" d="M58.1,72.5c0.6,1.3,1.3,2.5,2.2,3.7c-0.6,0.7-1.4,1-2.3,0.8L58.1,72.5z"/>
<path class="st11" d="M53,71.4c0,0.7-0.4,1.2-0.9,1.2c-0.5,0-0.8-0.6-0.8-1.3c0-0.7,0.4-1.2,0.9-1.2C52.7,70.1,53,70.7,53,71.4z"/>
<path class="st11" d="M52,70.1l1.5-0.5C53.6,69.6,52.8,70.8,52,70.1z"/>
<path class="st11" d="M61.7,71.7c0,0.7-0.4,1.2-0.9,1.2s-0.8-0.6-0.8-1.3s0.4-1.2,0.9-1.2S61.7,71,61.7,71.7z"/>
<path class="st11" d="M60.7,70.4l1.5-0.5C62.2,69.9,61.4,71.1,60.7,70.4z"/>
<path class="st11" d="M49.6,66.9c-0.1,0-0.2,0-0.3-0.1c-0.1-0.1-0.2-0.3-0.1-0.5c0,0,0,0,0,0c1.1-1,2.6-1.4,4.1-1.1
	c0.2,0,0.3,0.2,0.3,0.4c0,0.2-0.2,0.3-0.4,0.3c-1.2-0.2-2.5,0.1-3.4,0.9C49.8,66.9,49.7,66.9,49.6,66.9z"/>
<path class="st11" d="M62.9,67c-0.1,0-0.2,0-0.3-0.1c-0.8-0.7-1.9-1.1-3-0.9c-0.2,0-0.4-0.1-0.4-0.3c-0.1-0.2,0-0.4,0.2-0.4
	c0,0,0,0,0,0c1.3-0.2,2.6,0.1,3.6,1c0.1,0.1,0.2,0.4,0,0.5c0,0,0,0,0,0C63,66.9,63,66.9,62.9,67z"/>
<path class="st11" d="M42.5,72.8c0,0,4.5-6.7,4.2-12.1c0,0,17.3-5.6,16.8,11.4c0,0,2.7-15-11.8-16.4c-14.5-1.4-15.9,19.9-9,26.7
	C42.8,82.6,39.7,77,42.5,72.8z"/>
<path class="st10" d="M43.7,74.7c0-2.1-1.7-3.7-3.7-3.7c-2.6,0.1-4.3,5.4,2.1,7.2C43,78.4,43.6,77.5,43.7,74.7z"/>
<path class="st11" d="M56.4,81.8c-2.1,0.2-4.2-1-5-3c-0.1-0.2,0-0.4,0.2-0.5c0.2-0.1,0.4,0,0.5,0.2c1.1,3,4.3,2.5,4.5,2.5
	c0.2,0,0.4,0.1,0.4,0.3c0,0.2-0.1,0.4-0.3,0.4c0,0,0,0,0,0L56.4,81.8z"/>
<path class="st11" d="M42.2,53.2c0,0,12.1-2.5,20.3,4.4s-14.4,7.3-14.4,7.3l5.5-3c0,0-7,2.5-10.2,1.7L42.2,53.2z"/>
<path class="st11" d="M34.6,75.6c0,0-3.3,6.8,0.9,12.1c-1.4,3.9,0.3,8.2,3.9,10.2c0,0-0.9,3.5,4.7,7.2c0,0,2,5.3,1,9.2l3.7-2.1
	c0,0-0.3-4.8-2.9-7.5c0,0,0.7-7.7-2.6-10c0,0,1-4.9,0.4-7c0,0-2.2-9-2.5-9.9C41.2,77.9,36,77.6,34.6,75.6z"/>
<path class="st11" d="M55.5,66.2c-0.1,0-0.3-0.1-0.3-0.2c0-0.1,0.1-0.3,0.2-0.3c0,0,0,0,0,0c2.5-0.3,8.9-1.7,9.2-3.8
	c0.4-2.6-3.4-4.4-3.4-4.4c-0.1-0.1-0.2-0.2-0.1-0.3c0,0,0,0,0,0c0.1-0.1,0.2-0.2,0.3-0.1c0.2,0.1,4.2,2,3.7,4.9
	C64.8,64.9,55.9,66.1,55.5,66.2L55.5,66.2z"/>
<path class="st8" d="M57.4,153.3c0,0.9,0.7,1.6,1.6,1.6c0.9,0,1.6-0.7,1.6-1.6c0-0.9-0.7-1.6-1.6-1.6c0,0,0,0,0,0
	C58.1,151.6,57.4,152.3,57.4,153.3C57.4,153.2,57.4,153.2,57.4,153.3z"/>
<path class="st10" d="M116.2,127.8l8.4-4.5c0,0,4.3,0.2,5.4-0.2s3.5-5,3.2-6c-0.3-0.9-8.8-1.6-9.9-0.8s-2.6,3.7-2.6,3.7l-1.6-0.3
	l-8.7,2.5L116.2,127.8z"/>
<polygon class="st4" points="117.3,130.3 119.2,128.9 111.7,120.2 108.2,120.8 "/>
<path class="st11" d="M87.3,199.9l-25,8.9l-0.8-2.3l-1-2.8l-0.4,4.1l-0.3,3.1H29.3c0,0-0.1-0.9-0.2-2.4c-0.6-10-0.1-20,1.2-29.9
	c1.1-8.6,3.3-17,6.4-25c0.3-0.6,0.5-1.3,0.8-1.9l32.6-2.5l0.3,1.6l2,11.7l3.9,9.8l9.6,24.3L87.3,199.9z"/>
<path class="st9" d="M58.1,123.4c0,0-9,20.4-20.6,27.1c-0.1-4.3-0.8-19.8-3.1-28.5c-0.6-2.3-1.3-4.9-2.2-7.7l3.5-4.2
	c0,0,2.4,7.6,1.4,14.1l13.5-8.3L58.1,123.4z"/>
<path class="st10" d="M49.4,118.7l11-8.6c0.6-1.9,1.4-3.7,2.3-5.4c0.7-0.8,10.3-4.4,11.1-4.5s0,7.9-1.2,9.3c-1.2,1.4-9,4.1-9,4.1
	l-11.5,10.9L49.4,118.7z"/>
<path class="st4" d="M27.4,99c-6.5,3.2-9.4,39.8,1.9,46.1s28.1-22.3,28.1-22.3l-6.5-6.9c0,0-13.7,11.4-15.3,10.4s0.2-12.2,0.2-12.2
	s1.9-3.4-2.1-8.7C29.5,100.1,27.4,99,27.4,99z"/>
<path class="st8" d="M27.4,99c-6.5,3.2-9.4,39.8,1.9,46.1s28.1-22.3,28.1-22.3l-6.5-6.9c0,0-13.7,11.4-15.3,10.4s0.2-12.2,0.2-12.2
	s1.9-3.4-2.1-8.7C29.5,100.1,27.4,99,27.4,99z"/>
<polygon class="st4" points="57.4,125.4 59.4,124.2 52.1,113.5 49.4,115 "/>
<path class="st9" d="M44.7,154.6c0,0-3.7,20.4-14.4,23.9c1.1-8.6,3.3-17,6.4-25L44.7,154.6z"/>
<path class="st9" d="M76.4,172.2c-8.5-4.2-8.4-20.6-8.4-20.6l2.5-0.9l2,11.7L76.4,172.2z"/>
<path class="st9" d="M60,207.7l-0.3,3.1H29.3c0,0-0.1-0.9-0.2-2.4L60,207.7z"/>
<polygon class="st9" points="87.3,199.9 62.3,208.8 61.5,206.5 86,196.4 "/>
<path class="st9" d="M60.4,203.7l0.7-8.3l6.9-13.5c0,0,2.2,7.8-1.3,14.7C63.3,203.5,60.4,203.7,60.4,203.7z"/>
<polygon class="st13" points="37.6,151.6 36.2,155 70.9,153.3 70.1,149.1 "/>
<path class="st4" d="M55.9,150.3l0.4,3.8c0,0.4,0.4,0.7,0.8,0.7l5.1-0.4c0.4,0,0.7-0.4,0.7-0.8c0,0,0,0,0,0l-0.4-3.8
	c0-0.4-0.4-0.7-0.8-0.7l-5.1,0.3C56.2,149.5,55.9,149.9,55.9,150.3C55.9,150.3,55.9,150.3,55.9,150.3z"/>
<polygon class="st11" points="47.4,150.8 47,155.3 45.7,155.3 45.9,150.8 "/>
<polygon class="st11" points="65.7,149.4 66.2,154.1 67.3,154.1 66.9,149.2 "/>
<g>
	<path class="st3" d="M376,132.9l0.6,0.3c2.6,1.5,5.4,2.3,8.3,2.3c9,0,16.4-7.4,16.4-16.4c0-4.3-1.7-8.5-4.8-11.6s-7.2-4.8-11.6-4.8
		c-9,0-16.4,7.4-16.3,16.5c0,3.1,0.9,6.1,2.5,8.6l0.4,0.6l-1.6,6.1C369.8,134.5,376,132.9,376,132.9z"/>
	<path class="st14" d="M398.2,105.8c-3.5-3.6-8.3-5.5-13.2-5.5c-10.5,0-18.9,8.5-18.8,18.9c0,3.3,0.9,6.5,2.5,9.3l-2.7,9.7l10-2.6
		c2.8,1.5,5.8,2.3,8.9,2.3c10.4,0,18.8-8.5,18.8-18.9C403.7,114.1,401.7,109.3,398.2,105.8z M385,134.8c-2.8,0-5.5-0.7-7.9-2.2
		l-0.6-0.3l-5.9,1.5l1.5-5.8l-0.4-0.6c-4.5-7.3-2.4-16.9,5-21.4c7.4-4.5,16.9-2.4,21.4,5c4.5,7.4,2.4,16.9-5,21.4
		C390.8,134,387.9,134.8,385,134.8z M394,123.4l-1.1-0.5c0,0-1.6-0.7-2.7-1.2c-0.1,0-0.2-0.1-0.3-0.1c-0.3,0-0.5,0.1-0.7,0.2
		c0,0-0.1,0.1-1.5,1.7c-0.1,0.2-0.3,0.3-0.5,0.3h-0.1c-0.1,0-0.3-0.1-0.4-0.2l-0.5-0.2c-1.1-0.5-2.2-1.1-3-1.9
		c-0.2-0.2-0.5-0.4-0.7-0.6c-0.7-0.7-1.4-1.5-1.9-2.5l-0.1-0.2c-0.1-0.1-0.1-0.2-0.2-0.4c0-0.2,0-0.4,0.1-0.5c0,0,0.4-0.5,0.7-0.8
		c0.2-0.2,0.3-0.5,0.5-0.7c0.2-0.3,0.3-0.7,0.2-1c-0.1-0.5-1.3-3.3-1.6-3.9c-0.2-0.3-0.4-0.4-0.7-0.5h-1.1c-0.2,0-0.4,0.1-0.6,0.1
		l-0.1,0.1c-0.2,0.1-0.4,0.3-0.6,0.4c-0.2,0.2-0.3,0.4-0.5,0.6c-0.7,0.9-1.1,2.1-1.1,3.2c0,0.8,0.2,1.6,0.5,2.4l0.1,0.3
		c0.9,1.9,2.2,3.7,3.8,5.2l0.4,0.4c0.3,0.3,0.6,0.5,0.8,0.8c2.2,1.8,4.6,3.2,7.4,3.9c0.3,0.1,0.7,0.1,1,0.2h1c0.5,0,1.1-0.2,1.5-0.4
		c0.3-0.2,0.5-0.2,0.7-0.4l0.2-0.2c0.2-0.2,0.4-0.3,0.6-0.5c0.2-0.2,0.4-0.4,0.5-0.6c0.2-0.4,0.3-0.9,0.4-1.4v-0.7
		C394.3,123.6,394.2,123.5,394,123.4z"/>
</g>
<linearGradient id="SVGID_4_" gradientUnits="userSpaceOnUse" x1="291.1938" y1="28.8889" x2="347.5002" y2="28.8889">
	<stop  offset="0" style="stop-color:#2AABEE"/>
	<stop  offset="1" style="stop-color:#229ED9"/>
</linearGradient>
<path class="st15" d="M319.3,0.7c-15.5,0-28.2,12.6-28.2,28.2c0,0,0,0,0,0c0,15.5,12.6,28.2,28.2,28.2c0,0,0,0,0,0
	c15.5,0,28.2-12.6,28.2-28.2c0,0,0,0,0,0C347.5,13.3,334.9,0.7,319.3,0.7L319.3,0.7z"/>
<path class="st16" d="M304.8,17.9h29c0.5,0,0.9,0.1,1.3,0.3l-12.4,10.1l-3.5,2.8l-15.8-12.9C303.9,18,304.4,17.9,304.8,17.9z"/>
<path class="st16" d="M302.1,19.3l11.6,9.5l-11.6,9.5c-0.2-0.3-0.3-0.7-0.3-1.1V20.4C301.8,20,301.9,19.7,302.1,19.3z"/>
<path class="st16" d="M336.6,19.3c0.2,0.3,0.3,0.7,0.3,1.1v16.9c0,0.4-0.1,0.8-0.3,1.1L325,28.9L336.6,19.3z"/>
<path class="st16" d="M315.2,30.1l3.4,2.8c0.2,0.2,0.5,0.2,0.7,0.2s0.5-0.1,0.7-0.2l3.5-2.8l11.6,9.5c-0.4,0.2-0.8,0.3-1.3,0.3h-29
	c-0.5,0-0.9-0.1-1.3-0.3L315.2,30.1z"/>
<path class="st14" d="M365.9,212.7c-4.6,0-5.2,0-7,0.1c-1.8,0.1-3,0.4-4.1,0.8c-1.1,0.4-2.1,1-3,1.9c-0.9,0.9-1.5,1.9-2,3
	c-0.4,1.1-0.7,2.3-0.8,4.1c-0.1,1.8-0.1,2.4-0.1,7c0,4.6,0,5.2,0.1,7c0.1,1.8,0.4,3,0.8,4.1c0.4,1.1,1,2.1,1.9,3
	c0.9,0.9,1.9,1.5,3,2c1.1,0.4,2.3,0.7,4.1,0.8c1.8,0.1,2.4,0.1,7,0.1c4.6,0,5.2,0,7-0.1c1.8-0.1,3-0.4,4.1-0.8c1.1-0.4,2.1-1,3-2
	c0.9-0.9,1.5-1.9,2-3c0.4-1.1,0.7-2.3,0.8-4.1c0.1-1.8,0.1-2.4,0.1-7c0-4.6,0-5.2-0.1-7c-0.1-1.8-0.4-3-0.8-4.1c-0.4-1.1-1-2.1-2-3
	c-0.9-0.9-1.9-1.5-3-1.9c-1.1-0.4-2.3-0.7-4.1-0.8C371.1,212.8,370.5,212.7,365.9,212.7L365.9,212.7z M364.4,215.8c0.4,0,1,0,1.5,0
	c4.5,0,5,0,6.8,0.1c1.6,0.1,2.5,0.4,3.1,0.6c0.8,0.3,1.4,0.7,1.9,1.3c0.6,0.6,1,1.2,1.3,1.9c0.2,0.6,0.5,1.5,0.6,3.1
	c0.1,1.8,0.1,2.3,0.1,6.8c0,4.5,0,5-0.1,6.8c-0.1,1.6-0.4,2.5-0.6,3.1c-0.3,0.8-0.7,1.4-1.3,1.9c-0.6,0.6-1.2,1-1.9,1.3
	c-0.6,0.2-1.5,0.5-3.1,0.6c-1.8,0.1-2.3,0.1-6.8,0.1c-4.5,0-5,0-6.8-0.1c-1.6-0.1-2.5-0.4-3.1-0.6c-0.8-0.3-1.4-0.7-1.9-1.3
	c-0.6-0.6-1-1.2-1.3-1.9c-0.2-0.6-0.5-1.5-0.6-3.1c-0.1-1.8-0.1-2.3-0.1-6.8c0-4.5,0-5,0.1-6.8c0.1-1.6,0.4-2.5,0.6-3.1
	c0.3-0.8,0.7-1.4,1.3-1.9c0.6-0.6,1.2-1,1.9-1.3c0.6-0.2,1.5-0.5,3.1-0.6C360.6,215.8,361.3,215.8,364.4,215.8L364.4,215.8z
	 M374.9,218.6c-1.1,0-2,0.9-2,2c0,1.1,0.9,2,2,2s2-0.9,2-2C377,219.5,376.1,218.6,374.9,218.6L374.9,218.6z M365.9,221
	c-4.8,0-8.7,3.9-8.7,8.7s3.9,8.7,8.7,8.7c4.8,0,8.7-3.9,8.7-8.7S370.7,221,365.9,221L365.9,221z M365.9,224c3.1,0,5.6,2.5,5.6,5.6
	c0,3.1-2.5,5.6-5.6,5.6c-3.1,0-5.6-2.5-5.6-5.6C360.3,226.5,362.8,224,365.9,224z"/>
<path id="path91" class="st16" d="M242.9,294.1l8.3-13.1c1.3-2.1,4.1-2.6,6.1-1.1l6.6,4.9c0.6,0.5,1.4,0.4,2,0l8.9-6.8
	c1.2-0.9,2.7,0.5,1.9,1.8l-8.3,13.1c-1.3,2.1-4.1,2.6-6.1,1.1l-6.6-4.9c-0.6-0.5-1.4-0.4-2,0l-8.9,6.8
	C243.7,296.7,242.1,295.3,242.9,294.1z"/>
<g>
	
		<linearGradient id="SVGID_5_" gradientUnits="userSpaceOnUse" x1="-192.3179" y1="174.6181" x2="-192.3179" y2="174.1549" gradientTransform="matrix(128 0 0 -128 24765 22562)">
		<stop  offset="0" style="stop-color:#2AABEE"/>
		<stop  offset="1" style="stop-color:#229ED9"/>
	</linearGradient>
	<circle class="st17" cx="148.3" cy="240.7" r="29.9"/>
	<path class="st14" d="M132,240.4c8.7-3.8,14.5-6.3,17.4-7.5c8.3-3.4,10-4,11.1-4.1c0.2,0,0.8,0.1,1.2,0.3c0.3,0.2,0.4,0.6,0.4,0.8
		c0,0.2,0.1,0.8,0,1.2c-0.4,4.7-2.4,16.2-3.4,21.5c-0.4,2.2-1.2,3-2,3.1c-1.7,0.2-3.1-1.1-4.7-2.2c-2.6-1.7-4.1-2.8-6.7-4.5
		c-2.9-1.9-1-3,0.6-4.8c0.4-0.5,8.1-7.4,8.2-8c0-0.1,0-0.4-0.1-0.5c-0.2-0.2-0.4-0.1-0.6-0.1c-0.3,0.1-4.5,2.8-12.6,8.3
		c-1.2,0.8-2.3,1.2-3.2,1.2c-1.1,0-3.1-0.6-4.6-1.1c-1.9-0.6-3.4-0.9-3.2-2C129.8,241.5,130.5,241,132,240.4z"/>
</g>
<linearGradient id="SVGID_6_" gradientUnits="userSpaceOnUse" x1="86.0789" y1="128.2968" x2="144.096" y2="128.2968">
	<stop  offset="0" style="stop-color:#2AABEE"/>
	<stop  offset="1" style="stop-color:#229ED9"/>
</linearGradient>
<path class="st18" d="M115.1,99.3c-16,0-29,13-29,29c0,0,0,0,0,0c0,16,13,29,29,29c0,0,0,0,0,0c16,0,29-13,29-29c0,0,0,0,0,0
	C144.1,112.3,131.1,99.3,115.1,99.3L115.1,99.3z"/>
<polygon class="st14" points="93.9,122.8 95.8,122.8 97.9,130.9 99.9,122.8 101.7,122.8 103.7,130.9 105.7,122.8 107.3,122.8 
	107.6,122.8 104.7,133.8 102.8,133.8 100.7,125.8 98.7,133.8 96.9,133.8 "/>
<polygon class="st14" points="108.3,122.8 110.2,122.8 112.2,130.9 114.2,122.8 116,122.8 118,130.9 120.1,122.8 121.6,122.8 
	121.9,122.8 119,133.8 117.1,133.8 115.1,125.8 113.1,133.8 111.2,133.8 "/>
<polygon class="st14" points="122.6,122.8 124.5,122.8 126.6,130.9 128.6,122.8 130.3,122.8 132.4,130.9 134.4,122.8 135.9,122.8 
	136.2,122.8 133.4,133.8 131.4,133.8 129.4,125.7 127.4,133.8 125.5,133.8 "/>
<linearGradient id="SVGID_7_" gradientUnits="userSpaceOnUse" x1="156.4706" y1="29.1432" x2="213.5322" y2="29.1432">
	<stop  offset="0" style="stop-color:#2AABEE"/>
	<stop  offset="1" style="stop-color:#229ED9"/>
</linearGradient>
<path class="st19" d="M213.5,29.1c0,15.8-12.8,28.5-28.5,28.5c-15.8,0-28.5-12.8-28.5-28.5c0-15.8,12.8-28.5,28.5-28.5
	C200.8,0.6,213.5,13.4,213.5,29.1z"/>
<linearGradient id="SVGID_8_" gradientUnits="userSpaceOnUse" x1="170.9079" y1="29.3818" x2="198.8064" y2="29.3818">
	<stop  offset="0" style="stop-color:#2AABEE"/>
	<stop  offset="1" style="stop-color:#229ED9"/>
</linearGradient>
<path class="st20" d="M198.8,29.4c0,7.8-6.2,14.1-13.9,14.1s-13.9-6.3-13.9-14.1c0-7.8,6.2-14.1,13.9-14.1c3.1,0,5.9,1,8.2,2.7"/>
<path class="st14" d="M184.9,46.2c-2.3,0-4.4-0.4-6.5-1.3c-2-0.9-3.8-2.1-5.3-3.6c-1.5-1.5-2.7-3.3-3.6-5.4
	c-0.9-2.1-1.3-4.3-1.3-6.5c0-2.3,0.4-4.5,1.3-6.5c0.8-2,2-3.8,3.6-5.4c1.5-1.5,3.3-2.8,5.3-3.6c2.1-0.9,4.2-1.3,6.5-1.3
	c3.5,0,6.9,1.1,9.8,3.2l-3.2,4.4c-1.9-1.4-4.2-2.2-6.6-2.2c-6.2,0-11.2,5.1-11.2,11.4c0,6.3,5,11.4,11.2,11.4s11.2-5.1,11.2-11.4
	h5.4c0,2.3-0.4,4.5-1.3,6.5c-0.8,2-2,3.8-3.6,5.4c-1.5,1.5-3.3,2.8-5.3,3.6C189.3,45.8,187.1,46.2,184.9,46.2z"/>
<path class="st14" d="M184.1,26.6h17.4V32h-17.4V26.6z"/>
</svg>
