<?xml version="1.0" encoding="utf-8"?>
<!-- Generator: Adobe Illustrator 24.0.1, SVG Export Plug-In . SVG Version: 6.00 Build 0)  -->
<svg version="1.1" id="Camada_1" xmlns="http://www.w3.org/2000/svg" xmlns:xlink="http://www.w3.org/1999/xlink" x="0px" y="0px"
	 viewBox="0 0 500 500" style="enable-background:new 0 0 500 500;" xml:space="preserve">
<style type="text/css">
	.st0{fill:#EBEBEB;}
	.st1{fill:#E0E0E0;}
	.st2{fill:#F5F5F5;}
	.st3{fill:#F0F0F0;}
	.st4{fill:#263238;}
	.st5{fill:#1674BA;}
	.st6{opacity:0.9;fill:#FFFFFF;enable-background:new    ;}
	.st7{opacity:0.7;fill:#FFFFFF;enable-background:new    ;}
	.st8{opacity:0.1;enable-background:new    ;}
	.st9{opacity:0.2;fill:#FFFFFF;enable-background:new    ;}
	.st10{opacity:0.5;}
	.st11{fill:#FFFFFF;}
	.st12{opacity:0.4;fill:#FFFFFF;enable-background:new    ;}
	.st13{opacity:0.3;}
	.st14{fill:#E4897B;}
	.st15{opacity:0.6;fill:#FFFFFF;enable-background:new    ;}
	.st16{opacity:0.1;fill:#FFFFFF;enable-background:new    ;}
	.st17{opacity:0.2;enable-background:new    ;}
	.st18{fill:#DE5753;}
	.st19{fill:#A24E3F;}
	.st20{opacity:0.3;enable-background:new    ;}
	.st21{opacity:0.5;fill:#FFFFFF;enable-background:new    ;}
	.st22{opacity:0.3;fill:#FFFFFF;enable-background:new    ;}
	.st23{fill:#FFB573;}
	.st24{fill:#E9B376;}
	.st25{fill:#EBB376;}
	.st26{fill:#D58745;}
</style>
<rect y="481.4" class="st0" width="500" height="0.3"/>
<rect x="416.8" y="497.5" class="st0" width="33.1" height="0.3"/>
<rect x="322.5" y="500.2" class="st0" width="8.7" height="0.3"/>
<rect x="396.6" y="488.2" class="st0" width="19.2" height="0.3"/>
<rect x="52.5" y="489.9" class="st0" width="43.2" height="0.3"/>
<rect x="104.6" y="489.9" class="st0" width="6.3" height="0.3"/>
<rect x="131.5" y="494.1" class="st0" width="93.7" height="0.3"/>
<path class="st0" d="M286,435.9h-61.9c-0.5,0-1-0.4-1-1v-54.3c0-0.5,0.4-1,1-1c0.5,0,1,0.4,1,1c0,0,0,0,0,0V434H286
	c0.5-0.1,1,0.3,1.1,0.9c0.1,0.5-0.3,1-0.9,1.1C286.1,435.9,286,435.9,286,435.9L286,435.9z"/>
<path class="st0" d="M224.3,428.4l-0.4-3.9c0.4,0,36.5-4.2,52.4-28.1l3.3,2.2C262.7,424.1,225.8,428.3,224.3,428.4z"/>
<polygon class="st0" points="280.2,394.2 272.7,397.3 280.2,402.3 "/>
<path class="st0" d="M489.8,314.6h-33.6c-0.3,0-0.5-0.2-0.5-0.5v-29.4c0-0.3,0.2-0.5,0.5-0.5c0.3,0,0.5,0.2,0.5,0.5c0,0,0,0,0,0
	v28.9h33c0.3,0,0.5,0.2,0.5,0.5C490.3,314.4,490.1,314.6,489.8,314.6L489.8,314.6z"/>
<path class="st0" d="M456.3,310.6l-0.2-2.1c0.2,0,19.8-2.3,28.4-15.2l1.8,1.2C477.1,308.2,457.2,310.5,456.3,310.6z"/>
<polygon class="st0" points="486.6,292 482.6,293.7 486.6,296.4 "/>
<path class="st0" d="M12.9,224.4v21.3c0,2,3.5,3.6,7.8,3.6h19.6c2.2,0,4-1.8,4-4V240c0-1.6,0.4-3.1,1.2-4.5l0,0
	c0.8-1.4,1.2-2.9,1.2-4.5v-5.2c0-2.2-1.8-4-4-4H26.9v-13.5c0-3.1-0.9-7.3-4.6-7.3l0,0c0,0-1,13.7-8,19.3
	C13.2,221.4,12.7,222.9,12.9,224.4z"/>
<rect x="4.6" y="224.1" class="st0" width="6.6" height="22.4"/>
<path class="st0" d="M370.8,142.2v13.3c0,1.2,2.2,2.2,4.8,2.2h12.2c1.4,0,2.5-1.1,2.5-2.5v0v-3.3c0-1,0.3-2,0.8-2.8l0,0
	c0.5-0.9,0.8-1.8,0.8-2.8v-3.2c0-1.4-1.1-2.5-2.5-2.5l0,0h-9.8v-8.4c0-2-0.6-4.6-2.9-4.6l0,0c0,0-0.7,8.5-5,12
	C371,140.3,370.7,141.3,370.8,142.2z"/>
<rect x="365.6" y="142" class="st0" width="4.1" height="14"/>
<ellipse transform="matrix(0.7071 -0.7071 0.7071 0.7071 6.0641 168.9958)" class="st0" cx="207" cy="77.2" rx="17.4" ry="17.4"/>
<circle class="st1" cx="207" cy="77.2" r="15.1"/>
<path class="st0" d="M208,84v2.2h-1.6v-2.1c-1.7,0-3.4-0.6-4.7-1.6l0.9-2c1.1,0.8,2.5,1.4,3.9,1.5v-3.8c-2.1-0.5-4.4-1.2-4.4-3.9
	c0-2,1.4-3.7,4.4-4v-2.2h1.6v2.2c1.4,0,2.7,0.5,3.9,1.2l-0.8,1.9c-1-0.6-2-0.9-3.1-1v3.9c2.1,0.5,4.5,1.2,4.5,3.9
	C212.4,82.1,211,83.8,208,84z M206.3,75.8v-3.4c-1.3,0.2-2,0.9-2,1.8C204.4,75,205.2,75.5,206.3,75.8z M209.9,80.3
	c0-1-0.9-1.3-2-1.7V82C209.4,81.8,210,81.1,209.9,80.3L209.9,80.3z"/>
<ellipse transform="matrix(0.2297 -0.9733 0.9733 0.2297 261.1323 500.529)" class="st0" cx="446.8" cy="85.3" rx="15.6" ry="15.6"/>
<circle class="st1" cx="446.8" cy="85.3" r="13.6"/>
<path class="st0" d="M447.6,91.6v1.9h-1.4v-1.9c-1.5,0-3-0.5-4.2-1.4l0.8-1.8c1,0.8,2.2,1.2,3.5,1.3v-3.5c-1.9-0.5-4-1.1-4-3.5
	c0-1.8,1.3-3.3,4-3.6v-2h1.4v1.9c1.2,0.1,2.4,0.4,3.5,1.1l-0.7,1.8c-0.9-0.5-1.8-0.8-2.8-0.9v3.5c1.9,0.5,4,1.1,4,3.5
	C451.6,89.7,450.3,91.2,447.6,91.6z M446.2,84.2v-3.1c-1.2,0.2-1.8,0.8-1.8,1.6S445.2,83.8,446.2,84.2L446.2,84.2z M449.4,88.2
	c0-0.9-0.8-1.2-1.8-1.5v3.1C448.9,89.4,449.4,88.9,449.4,88.2L449.4,88.2z"/>
<circle class="st0" cx="325.9" cy="381.8" r="15.6"/>
<circle class="st1" cx="326" cy="381.8" r="13.6"/>
<path class="st0" d="M326.8,388v2h-1.4v-1.9c-1.5,0-3-0.5-4.2-1.4l0.8-1.8c1,0.8,2.2,1.2,3.5,1.3v-3.5c-1.9-0.5-4-1.1-4-3.5
	c0-1.8,1.3-3.3,4-3.6v-2h1.4v1.9c1.2,0.1,2.5,0.4,3.5,1.1l-0.7,1.8c-0.9-0.5-1.8-0.8-2.8-0.9v3.5c1.9,0.5,4,1.1,4,3.5
	C330.8,386.2,329.5,387.7,326.8,388z M325.3,380.6v-3.1c-1.2,0.2-1.8,0.8-1.8,1.6C323.6,379.9,324.4,380.3,325.3,380.6z
	 M328.6,384.7c0-0.9-0.8-1.2-1.8-1.5v3.1C328,386,328.6,385.4,328.6,384.7L328.6,384.7z"/>
<ellipse transform="matrix(0.2297 -0.9733 0.9733 0.2297 -349.9514 356.9608)" class="st0" cx="50.5" cy="399.6" rx="15.6" ry="15.6"/>
<circle class="st1" cx="50.5" cy="399.6" r="13.6"/>
<path class="st0" d="M51.4,405.8v2h-1.4v-1.9c-1.5,0-3.1-0.5-4.3-1.4l0.8-1.8c1,0.8,2.2,1.2,3.5,1.3v-3.5c-1.9-0.5-4-1.1-4-3.5
	c0-1.8,1.3-3.3,4-3.6v-2h1.4v1.9c1.2,0,2.5,0.4,3.5,1.1l-0.7,1.7c-0.9-0.5-1.8-0.8-2.8-0.9v3.5c1.9,0.5,4,1.1,4,3.5
	C55.4,404,54.1,405.5,51.4,405.8z M49.9,398.4v-3.1c-1.2,0.2-1.8,0.8-1.8,1.6S48.9,398,49.9,398.4z M53.2,402.4
	c0-0.8-0.8-1.2-1.8-1.5v3.1C52.6,403.7,53.2,403.1,53.2,402.4L53.2,402.4z"/>
<path class="st2" d="M133.7,129.1l10.7-29.6c8.1,2.9,14.6,9.1,18.1,17L133.7,129.1z"/>
<path class="st1" d="M133.7,129.1l9.2,30.1c-3,0.9-6.1,1.3-9.2,1.3c-17.4,0.7-32-12.8-32.7-30.2s12.8-32,30.2-32.7
	c0.9,0,1.7,0,2.6,0c3.6,0,7.2,0.6,10.6,1.8L133.7,129.1z"/>
<path class="st0" d="M133.7,129.1l28.9-12.4c6.9,16-0.5,34.5-16.5,41.4c-1,0.4-2.1,0.8-3.1,1.1L133.7,129.1z"/>
<path class="st2" d="M420.7,284.9l5.8-16.1c2.2,0.8,4.2,2,5.9,3.6c1.7,1.6,3.1,3.5,4,5.6L420.7,284.9z"/>
<path class="st1" d="M420.7,284.9l5,16.4c-9,2.8-18.6-2.3-21.4-11.4c-2.8-9,2.3-18.6,11.4-21.4c3.5-1.1,7.3-1,10.8,0.3L420.7,284.9z
	"/>
<path class="st0" d="M420.7,284.9l15.7-6.8c0.9,2.1,1.4,4.4,1.3,6.8c0,7.5-4.9,14.1-12,16.3L420.7,284.9z"/>
<path class="st3" d="M363.5,224.2c-2.7-13.1-7.9-25.6-15.3-36.7l13.1-15.9l-28.1-28.1l-15.9,13.2c-11.2-7.4-23.6-12.5-36.7-15.3
	l-1.9-20.5h-39.8l-1.9,20.4c-13.1,2.7-25.6,7.9-36.7,15.3l-15.9-13.2l-28.1,28.1l13.2,15.9c-7.4,11.2-12.5,23.6-15.3,36.7l-20.5,1.9
	v39.8l20.5,1.9c2.7,13.1,7.9,25.6,15.3,36.7l-13.2,15.9l28.1,28.1l15.9-13.2c11.2,7.4,23.6,12.6,36.7,15.3l1.9,20.5h39.8l1.9-20.5
	c13.1-2.7,25.6-7.9,36.7-15.3l15.9,13.1l28.1-28.1l-13.1-15.9c7.3-11.2,12.5-23.6,15.3-36.7l20.5-1.9v-39.8L363.5,224.2z M312.7,246
	c0,29.7-24.1,53.8-53.8,53.8c-29.7,0-53.8-24.1-53.8-53.8c0-29.7,24.1-53.8,53.8-53.8C288.6,192.1,312.7,216.2,312.7,246
	C312.7,246,312.7,246,312.7,246L312.7,246z"/>
<path class="st3" d="M490.9,163.2c-0.5-2.6-1.6-5.1-3-7.3l2.6-3.2l-5.6-5.6l-3.2,2.6c-2.2-1.5-4.7-2.5-7.3-3l-0.4-4h-7.9l-0.4,4
	c-2.6,0.6-5.1,1.6-7.3,3l-3.2-2.6l-5.5,5.6l2.6,3.2c-1.5,2.2-2.5,4.7-3,7.3l-4,0.4v7.9l4,0.4c0.5,2.6,1.6,5.1,3,7.3l-2.6,3.2
	l5.6,5.6l3.2-2.7c2.2,1.5,4.7,2.5,7.3,3l0.4,4h7.9l0.4-4c2.6-0.5,5.1-1.6,7.3-3l3.2,2.7l5.6-5.6l-2.6-3.2c1.5-2.2,2.5-4.7,3-7.3
	l4-0.4v-7.9L490.9,163.2z M480.8,167.6c0,5.9-4.8,10.7-10.7,10.7s-10.7-4.8-10.7-10.7c0-5.9,4.8-10.7,10.7-10.7
	C476,156.9,480.8,161.7,480.8,167.6L480.8,167.6z"/>
<path class="st3" d="M117.1,295c-0.6-2.6-1.6-5.1-3-7.3l2.6-3.2l-5.6-5.6l-3.2,2.7c-2.2-1.5-4.7-2.5-7.3-3l-0.4-4h-7.9l-0.4,4
	c-2.6,0.5-5.1,1.6-7.3,3l-3.2-2.7l-5.6,5.6l2.7,3.2c-1.5,2.2-2.5,4.7-3,7.3l-4,0.4v7.9l4,0.4c0.5,2.6,1.6,5.1,3,7.3l-2.7,3.2
	l5.6,5.6l3.2-2.7c2.2,1.5,4.7,2.5,7.3,3l0.4,4h7.9l0.4-4c2.6-0.5,5.1-1.6,7.3-3l3.2,2.7l5.6-5.6L114,311c1.5-2.2,2.5-4.7,3-7.3
	l4-0.4v-7.9L117.1,295z M107,299.3c0,5.9-4.8,10.7-10.7,10.7s-10.7-4.8-10.7-10.7s4.8-10.7,10.7-10.7S107,293.4,107,299.3z"/>
<path class="st3" d="M186,383c-0.5-2.6-1.6-5.1-3-7.3l2.7-3.2L180,367l-3.2,2.7c-2.2-1.5-4.7-2.5-7.3-3l-0.4-4h-7.9l-0.4,4
	c-2.6,0.5-5.1,1.6-7.3,3l-3.2-2.7l-5.6,5.6l2.7,3.2c-1.5,2.2-2.5,4.7-3,7.3l-4,0.4v7.9l4,0.4c0.5,2.6,1.6,5.1,3,7.3l-2.7,3.2
	l5.6,5.6l3.2-2.7c2.2,1.5,4.7,2.5,7.3,3l0.4,4.1h7.9l0.4-4.1c2.6-0.5,5.1-1.6,7.3-3l3.2,2.7l5.6-5.6l-2.7-3.2c1.5-2.2,2.5-4.7,3-7.3
	l4-0.4v-7.9L186,383z M175.9,387.3c0,5.9-4.8,10.7-10.7,10.7s-10.7-4.8-10.7-10.7s4.8-10.7,10.7-10.7S175.9,381.4,175.9,387.3z"/>
<path class="st3" d="M44.1,133.8c-0.4-1.7-1-3.3-2-4.8l1.7-2.1l-3.7-3.7L38,125c-1.5-1-3.1-1.6-4.8-2l-0.3-2.7h-5.2l-0.3,2.7
	c-1.7,0.4-3.4,1-4.8,2l-2.1-1.7l-3.7,3.7l1.7,2.1c-1,1.5-1.6,3.1-2,4.8l-2.7,0.3v5.2l2.7,0.3c0.4,1.7,1,3.4,2,4.8l-1.7,2.1l3.7,3.7
	l2.1-1.7c1.5,1,3.1,1.6,4.8,2l0.3,2.7H33l0.3-2.7c1.7-0.4,3.3-1,4.8-2l2.1,1.7l3.7-3.7l-1.7-2.1c1-1.5,1.6-3.1,2-4.8l2.7-0.3v-5.2
	L44.1,133.8z M37.4,136.7c0,3.9-3.2,7.1-7.1,7.1c-3.9,0-7.1-3.2-7.1-7.1c0-3.9,3.2-7.1,7.1-7.1C34.2,129.6,37.4,132.8,37.4,136.7
	C37.4,136.7,37.4,136.7,37.4,136.7L37.4,136.7z"/>
<path class="st3" d="M64.4,115.2c-0.2-1.3-0.7-2.4-1.4-3.5l1.3-1.5l-2.7-2.7l-1.5,1.3c-1.1-0.7-2.3-1.2-3.5-1.5l-0.2-2h-3.8l-0.2,2
	c-1.3,0.3-2.5,0.8-3.5,1.5l-1.5-1.3l-2.7,2.7l1.3,1.5c-0.7,1.1-1.3,2.3-1.6,3.5l-2,0.2v3.8l2,0.2c0.3,1.3,0.8,2.5,1.5,3.5l-1.3,1.5
	l2.7,2.7l1.5-1.3c1.1,0.7,2.3,1.2,3.5,1.5l0.2,2h3.9l0.2-2c1.3-0.3,2.5-0.8,3.5-1.5l1.5,1.3l2.7-2.7l-1.2-1.5
	c0.7-1.1,1.2-2.3,1.5-3.5l2-0.2v-3.8L64.4,115.2z M59.6,117.3c0,2.9-2.3,5.2-5.2,5.2c-2.9,0-5.2-2.3-5.2-5.2c0-2.9,2.3-5.2,5.2-5.2
	c0,0,0,0,0,0C57.2,112.1,59.6,114.4,59.6,117.3C59.6,117.3,59.6,117.3,59.6,117.3L59.6,117.3z"/>
<g id="freepik--Board--inject-1">
	<polygon class="st4" points="373.9,337.6 373.9,144.9 123.5,144.9 123.5,337.6 158.8,337.6 158.8,467.1 149.3,470.5 149.3,474 
		179.4,474 179.4,470.5 169.8,467.1 169.8,337.6 332.8,337.6 332.8,467.1 323.3,470.5 323.3,474 353.3,474 353.3,470.5 343.8,467.1 
		343.8,337.6 	"/>
	<rect x="126.8" y="147.6" class="st5" width="243.8" height="183.8"/>
	<rect x="126.8" y="147.6" class="st6" width="243.8" height="183.8"/>
	<rect x="295.5" y="258.8" class="st4" width="7.7" height="7.7"/>
	<rect x="295.5" y="280.9" class="st4" width="7.7" height="7.7"/>
	<rect x="295.5" y="303" class="st5" width="7.7" height="7.7"/>
	<rect x="295.5" y="280.9" class="st7" width="7.7" height="7.7"/>
	<path class="st8" d="M278,178.7c0.2,0,0.3-0.1,0.3-0.3c0-0.2-0.1-0.3-0.3-0.3H275v-12.6h3.1c0.2,0,0.3-0.1,0.3-0.3
		s-0.1-0.3-0.3-0.3H275v-3.4c0-0.2-0.1-0.3-0.3-0.3c-0.2,0-0.3,0.1-0.3,0.3v3.4h-13.7v-3.4c0-0.2-0.1-0.3-0.3-0.3
		c-0.2,0-0.3,0.1-0.3,0.3v3.4h-13.7v-3.4c0-0.2-0.1-0.3-0.3-0.3s-0.3,0.1-0.3,0.3v3.4h-13.7v-3.4c0-0.2-0.1-0.3-0.3-0.3
		c-0.2,0-0.3,0.1-0.3,0.3v3.4h-13.7v-3.4c0-0.2-0.1-0.3-0.3-0.3c-0.2,0-0.3,0.1-0.3,0.3v3.4h-13.7v-3.4c0-0.2-0.1-0.3-0.3-0.3
		s-0.3,0.1-0.3,0.3v3.4h-13.7v-3.4c0-0.2-0.1-0.3-0.3-0.3s-0.3,0.1-0.3,0.3v3.4h-13.7v-3.4c0-0.2-0.1-0.3-0.3-0.3
		c-0.2,0-0.3,0.1-0.3,0.3v3.4h-13.7v-3.4c0-0.2-0.1-0.3-0.3-0.3c-0.2,0-0.3,0.1-0.3,0.3v3.4H146v0.7h13.5V178H146v0.7h13.5v12.6H146
		v0.7h13.5v12.6H146v0.7h13.5v12.6H146v0.7h13.5v13.5c0,0.2,0.1,0.3,0.3,0.3c0.2,0,0.3-0.1,0.3-0.3v-13.5h13.7v13.5
		c0,0.2,0.1,0.3,0.3,0.3s0.3-0.1,0.3-0.3v-13.5h13.7v13.5c0,0.2,0.1,0.3,0.3,0.3s0.3-0.1,0.3-0.3v-13.5h13.7v13.5
		c0,0.2,0.1,0.3,0.3,0.3c0.2,0,0.3-0.1,0.3-0.3v-13.5h13.7v13.5c0,0.2,0.1,0.3,0.3,0.3c0.2,0,0.3-0.1,0.3-0.3v-13.5h13.7v13.5
		c0,0.2,0.1,0.3,0.3,0.3c0.2,0,0.3-0.1,0.3-0.3v-13.5h13.7v13.5c0,0.2,0.1,0.3,0.3,0.3c0.2,0,0.3-0.1,0.3-0.3v-13.5H260v13.5
		c0,0.2,0.1,0.3,0.3,0.3c0.2,0,0.3-0.1,0.3-0.3v-13.5h13.7v13.5c0,0.2,0.1,0.3,0.3,0.3c0.2,0,0.3-0.1,0.3-0.3v-13.5h3.1
		c0.2,0,0.3-0.1,0.3-0.3c0-0.2-0.1-0.3-0.3-0.3H275v-12.6h3.1c0.2,0,0.3-0.1,0.3-0.3s-0.1-0.3-0.3-0.3H275v-12.5h3.1
		c0.2,0,0.3-0.1,0.3-0.3c0-0.2-0.1-0.3-0.3-0.3H275v-12.6L278,178.7z M173.8,217.7h-13.7v-12.6h13.7V217.7z M173.8,204.5h-13.7
		v-12.5h13.7V204.5z M173.8,191.2h-13.7v-12.6h13.7V191.2z M173.8,178h-13.7v-12.6h13.7V178z M188.2,217.7h-13.7v-12.6h13.7
		L188.2,217.7z M188.2,204.5h-13.7v-12.5h13.7L188.2,204.5z M188.2,191.2h-13.7v-12.6h13.7L188.2,191.2z M188.2,178h-13.7v-12.6
		h13.7L188.2,178z M202.5,217.7h-13.7v-12.6h13.7L202.5,217.7z M202.5,204.5h-13.7v-12.5h13.7L202.5,204.5z M202.5,191.2h-13.7
		v-12.6h13.7L202.5,191.2z M202.5,178h-13.7v-12.6h13.7L202.5,178z M216.9,217.7h-13.7v-12.6h13.7V217.7z M216.9,204.5h-13.7v-12.5
		h13.7V204.5z M216.9,191.2h-13.7v-12.6h13.7V191.2z M216.9,178h-13.7v-12.6h13.7V178z M231.3,217.7h-13.7v-12.6h13.7L231.3,217.7z
		 M231.3,204.5h-13.7v-12.5h13.7L231.3,204.5z M231.3,191.2h-13.7v-12.6h13.7L231.3,191.2z M231.3,178h-13.7v-12.6h13.7L231.3,178z
		 M245.6,217.7h-13.7v-12.6h13.7L245.6,217.7z M245.6,204.5h-13.7v-12.5h13.7L245.6,204.5z M245.6,191.2h-13.7v-12.6h13.7
		L245.6,191.2z M245.6,178h-13.7v-12.6h13.7L245.6,178z M260,217.7h-13.7v-12.6h13.7L260,217.7z M260,204.5h-13.7v-12.5h13.7
		L260,204.5z M260,191.2h-13.7v-12.6h13.7L260,191.2z M260,178h-13.7v-12.6h13.7L260,178z M274.3,217.7h-13.7v-12.6h13.7
		L274.3,217.7z M274.3,204.5h-13.7v-12.5h13.7L274.3,204.5z M274.3,191.2h-13.7v-12.6h13.7L274.3,191.2z M274.3,178h-13.7v-12.6
		h13.7L274.3,178z"/>
	<rect x="159.4" y="211" class="st5" width="8.3" height="20.4"/>
	<rect x="165.1" y="211" class="st9" width="2.6" height="20.4"/>
	<rect x="181.7" y="202.3" class="st5" width="8.3" height="29.2"/>
	<rect x="187.4" y="202.3" class="st9" width="2.6" height="29.2"/>
	<rect x="203.9" y="207.2" class="st5" width="8.3" height="24.3"/>
	<rect x="209.6" y="207.2" class="st9" width="2.6" height="24.3"/>
	<rect x="226.2" y="197.8" class="st5" width="8.3" height="33.7"/>
	<rect x="231.8" y="197.8" class="st9" width="2.6" height="33.7"/>
	<rect x="248.4" y="180.6" class="st5" width="8.3" height="50.9"/>
	<rect x="254.1" y="180.6" class="st9" width="2.6" height="50.9"/>
	<path class="st4" d="M283.7,232.5H146.1c-0.4,0-0.7-0.3-0.7-0.7v-72.8c0-0.4,0.3-0.7,0.7-0.7c0.4,0,0.7,0.3,0.7,0.7v72.1h137
		c0.4,0,0.7,0.3,0.7,0.7S284.1,232.5,283.7,232.5z"/>
	<path class="st4" d="M149.6,214.7c-0.2,0-0.5-0.1-0.6-0.3c-0.2-0.3-0.1-0.7,0.2-0.9l13.9-8.3l21.2-8.8c0.1,0,0.3,0,0.4,0l23.2,4.8
		l22-9.3l34.1-26.1c0.3-0.2,0.7-0.2,0.9,0.1c0.2,0.3,0.2,0.7-0.1,0.9L230.7,193c0,0-0.1,0.1-0.1,0.1l-22.2,9.4c-0.1,0-0.3,0-0.4,0
		l-23.2-4.8l-20.9,8.6l-13.8,8.3C149.9,214.7,149.8,214.7,149.6,214.7z"/>
	<g class="st10">
		<path class="st11" d="M283.7,232.5H146.1c-0.4,0-0.7-0.3-0.7-0.7v-72.8c0-0.4,0.3-0.7,0.7-0.7c0.4,0,0.7,0.3,0.7,0.7v72.1h137
			c0.4,0,0.7,0.3,0.7,0.7S284.1,232.5,283.7,232.5z"/>
	</g>
	<polygon class="st4" points="266.9,164.5 260.4,166.8 262.9,170.1 	"/>
	<path class="st5" d="M321.9,197.7l8.3,27.3c-15.1,4.6-31-3.9-35.6-19c-4.6-15.1,3.9-31,19-35.6c5.9-1.8,12.2-1.6,18,0.4
		L321.9,197.7z"/>
	<path class="st5" d="M321.9,197.7l9.8-26.8c7.4,2.6,13.3,8.2,16.5,15.4L321.9,197.7z"/>
	<path class="st5" d="M321.9,197.7l26.2-11.3c6.2,14.5-0.4,31.2-14.9,37.5c-0.9,0.4-1.9,0.8-2.9,1.1L321.9,197.7z"/>
	<path class="st7" d="M321.9,197.7l8.3,27.3c-15.1,4.6-31-3.9-35.6-19c-4.6-15.1,3.9-31,19-35.6c5.9-1.8,12.2-1.6,18,0.4
		L321.9,197.7z"/>
	<path class="st12" d="M321.9,197.7l26.2-11.3c6.2,14.5-0.4,31.2-14.9,37.5c-0.9,0.4-1.9,0.8-2.9,1.1L321.9,197.7z"/>
	<path class="st8" d="M278,267c0.2,0,0.3-0.1,0.3-0.3c0-0.2-0.1-0.3-0.3-0.3H275v-12.6h3.1c0.2,0,0.3-0.1,0.3-0.3
		c0-0.2-0.1-0.3-0.3-0.3H275v-3.4c0-0.2-0.1-0.3-0.3-0.3c-0.2,0-0.3,0.1-0.3,0.3v3.4h-13.7v-3.4c0-0.2-0.1-0.3-0.3-0.3
		c-0.2,0-0.3,0.1-0.3,0.3v3.4h-13.7v-3.4c0-0.2-0.1-0.3-0.3-0.3s-0.3,0.1-0.3,0.3v3.4h-13.7v-3.4c0-0.2-0.1-0.3-0.3-0.3
		c-0.2,0-0.3,0.1-0.3,0.3v3.4h-13.7v-3.4c0-0.2-0.1-0.3-0.3-0.3c-0.2,0-0.3,0.1-0.3,0.3v3.4h-13.7v-3.4c0-0.2-0.1-0.3-0.3-0.3
		s-0.3,0.1-0.3,0.3v3.4h-13.7v-3.4c0-0.2-0.1-0.3-0.3-0.3s-0.3,0.1-0.3,0.3v3.4h-13.7v-3.4c0-0.2-0.1-0.3-0.3-0.3
		c-0.2,0-0.3,0.1-0.3,0.3v3.4h-13.7v-3.4c0-0.2-0.1-0.3-0.3-0.3c-0.2,0-0.3,0.1-0.3,0.3v3.4H146v0.7h13.5v12.6H146v0.7h13.5v12.6
		H146v0.7h13.5v12.6H146v0.7h13.5V306H146v0.7h13.5v13.5c0,0.2,0.1,0.3,0.3,0.3c0.2,0,0.3-0.1,0.3-0.3v-13.5h13.7v13.5
		c0,0.2,0.1,0.3,0.3,0.3s0.3-0.1,0.3-0.3v-13.5h13.7v13.5c0,0.2,0.1,0.3,0.3,0.3s0.3-0.1,0.3-0.3v-13.5h13.7v13.5
		c0,0.2,0.1,0.3,0.3,0.3c0.2,0,0.3-0.1,0.3-0.3v-13.5h13.7v13.5c0,0.2,0.1,0.3,0.3,0.3c0.2,0,0.3-0.1,0.3-0.3v-13.5h13.7v13.5
		c0,0.2,0.1,0.3,0.3,0.3c0.2,0,0.3-0.1,0.3-0.3v-13.5h13.7v13.5c0,0.2,0.1,0.3,0.3,0.3c0.2,0,0.3-0.1,0.3-0.3v-13.5H260v13.5
		c0,0.2,0.1,0.3,0.3,0.3c0.2,0,0.3-0.1,0.3-0.3v-13.5h13.7v13.5c0,0.2,0.1,0.3,0.3,0.3c0.2,0,0.3-0.1,0.3-0.3v-13.5h3.1
		c0.2,0,0.3-0.1,0.3-0.3c0-0.2-0.1-0.3-0.3-0.3H275v-12.6h3.1c0.2,0,0.3-0.1,0.3-0.3c0-0.2-0.1-0.3-0.3-0.3H275v-12.5h3.1
		c0.2,0,0.3-0.1,0.3-0.3c0-0.2-0.1-0.3-0.3-0.3H275V267H278z M173.8,306h-13.7v-12.6h13.7V306z M173.8,292.8h-13.7v-12.5h13.7V292.8
		z M173.8,279.6h-13.7V267h13.7V279.6z M173.8,266.3h-13.7v-12.6h13.7V266.3z M188.2,306h-13.7v-12.6h13.7L188.2,306z M188.2,292.8
		h-13.7v-12.5h13.7L188.2,292.8z M188.2,279.6h-13.7V267h13.7L188.2,279.6z M188.2,266.3h-13.7v-12.6h13.7L188.2,266.3z M202.5,306
		h-13.7v-12.6h13.7L202.5,306z M202.5,292.8h-13.7v-12.5h13.7L202.5,292.8z M202.5,279.6h-13.7V267h13.7L202.5,279.6z M202.5,266.3
		h-13.7v-12.6h13.7L202.5,266.3z M216.9,306h-13.7v-12.6h13.7V306z M216.9,292.8h-13.7v-12.5h13.7V292.8z M216.9,279.6h-13.7V267
		h13.7V279.6z M216.9,266.3h-13.7v-12.6h13.7V266.3z M231.3,306h-13.7v-12.6h13.7L231.3,306z M231.3,292.8h-13.7v-12.5h13.7
		L231.3,292.8z M231.3,279.6h-13.7V267h13.7L231.3,279.6z M231.3,266.3h-13.7v-12.6h13.7L231.3,266.3z M245.6,306h-13.7v-12.6h13.7
		L245.6,306z M245.6,292.8h-13.7v-12.5h13.7L245.6,292.8z M245.6,279.6h-13.7V267h13.7L245.6,279.6z M245.6,266.3h-13.7v-12.6h13.7
		L245.6,266.3z M260,306h-13.7v-12.6h13.7L260,306z M260,292.8h-13.7v-12.5h13.7L260,292.8z M260,279.6h-13.7V267h13.7L260,279.6z
		 M260,266.3h-13.7v-12.6h13.7L260,266.3z M274.3,306h-13.7v-12.6h13.7L274.3,306z M274.3,292.8h-13.7v-12.5h13.7L274.3,292.8z
		 M274.3,279.6h-13.7V267h13.7L274.3,279.6z M274.3,266.3h-13.7v-12.6h13.7L274.3,266.3z"/>
	<path class="st5" d="M146,306c0,0,8.7-13.2,14.2-13.2c5.7,0,8.8,7.4,13.7,7.4s8.4-16.2,14.4-16.2s9.1,20.2,15,20.2
		s11.6-24.6,17.9-24.6s7,7.7,10.1,7.7c3.8,0,6.7-20.9,15-20.9c8,0,8,13.2,14.3,13.2c6.3,0,5-20.7,14.4-20.7v61.7H146.1L146,306z"/>
	<path class="st12" d="M146,306c0,0,8.7-13.2,14.2-13.2c5.7,0,8.8,7.4,13.7,7.4s8.4-16.2,14.4-16.2s9.1,20.2,15,20.2
		s11.6-24.6,17.9-24.6s7,7.7,10.1,7.7c3.8,0,6.7-20.9,15-20.9c8,0,8,13.2,14.3,13.2c6.3,0,5-20.7,14.4-20.7v61.7H146.1L146,306z"/>
	<path class="st5" d="M146.5,306.4l-1.1-0.7c0.4-0.6,9-13.5,14.7-13.5c3.2,0,5.6,2.1,7.8,4c1.9,1.7,3.7,3.3,5.8,3.3s4-3.7,5.9-7.2
		c2.4-4.4,5-9,8.5-9s5.7,5.1,8.1,10.5c2,4.6,4.4,9.7,6.9,9.7s5.5-6.2,8-11.6c3.2-6.7,6.2-12.9,9.8-12.9c4,0,5.9,2.9,7.5,5.1
		c0.9,1.3,1.7,2.6,2.7,2.6c1,0,2.7-3.9,3.9-7c2.5-6.2,5.6-13.9,11.1-13.9c4.6,0,6.8,4,8.7,7.6c1.6,3,3.1,5.7,5.6,5.7
		c2.3,0,3.6-4,4.9-8.4c1.8-5.8,3.8-12.4,9.4-12.4v1.3c-4.7,0-6.5,5.8-8.2,11.4c-1.5,4.8-2.9,9.4-6.2,9.4s-5.1-3.2-6.8-6.4
		c-1.8-3.4-3.7-6.9-7.5-6.9c-4.6,0-7.5,7.3-9.9,13.1c-1.8,4.5-3.2,7.8-5.1,7.8c-1.7,0-2.7-1.6-3.8-3.2c-1.3-2.1-3-4.5-6.3-4.5
		c-2.8,0-5.9,6.5-8.6,12.2c-3.1,6.4-5.9,12.4-9.3,12.4c-3.4,0-5.7-5.1-8.1-10.5c-2-4.5-4.3-9.7-6.9-9.7c-2.5,0-5.2,4.4-7.3,8.4
		c-2.1,3.9-4.3,7.9-7.1,7.9s-4.7-1.8-6.7-3.6c-2-1.8-4.2-3.7-6.9-3.7C156,293.5,148.9,302.8,146.5,306.4z"/>
	<path class="st4" d="M172.8,310.4c-0.1,0-0.3,0-0.4,0c-3.1-0.4-4.9-4.1-6.3-7.2c-0.4-1-0.9-1.9-1.4-2.9c-1.4-2.1-3-3.1-4.7-2.9
		c-2.7,0.3-5,2.5-7.1,4.5l-0.9,0.8c-1.9,1.7-3.7,3.5-5.4,5.4l-1-0.9c1.8-1.9,3.6-3.8,5.5-5.5c0.3-0.3,0.6-0.5,0.9-0.8
		c2.1-2,4.8-4.5,7.8-4.9c2.2-0.3,4.3,1,6,3.5c0.6,1,1.1,2,1.6,3c1.3,2.7,2.8,6.1,5.2,6.4c2.4,0.3,5.1-4.2,6.6-6.9
		c0.3-0.5,0.5-1,0.8-1.3c0.9-1.5,1.8-3,2.7-4.4c1.5-2.5,3-5.2,4.7-7.7c1.3-2,2.7-3.9,4.3-5.7c2.2-2.6,4.4-3.9,6.4-3.9
		c1.6,0,3.1,0.8,4.1,2.1c2.1,2.6,3.7,5.6,4.8,8.7c0.8,2,1.7,4,2.8,5.9c0.4,0.8,1,1.5,1.8,2c1.2,0.6,2.7-0.4,3.6-1.4
		c2.2-2.4,4.1-5.1,5.7-7.9l0.4-0.7c0.2-0.3,0.4-0.6,0.6-1c1.3-2.3,3.2-5.4,6.2-5.5c1.9,0,3.3,1.7,4.7,3.4c1.5,1.9,2.5,3.1,3.8,2.7
		c0.5-0.2,1-0.6,1.3-1.1c2.2-2.9,4-6,5.4-9.4c0.5-1.1,1-2.2,1.5-3.3c0.3-0.7,0.7-1.4,1.2-1.9c0.7-1,1.9-1.5,3.1-1.3
		c2.7,0.4,4.7,4.8,5.9,7.5c0.2,0.3,0.3,0.7,0.4,0.9l0.2,0.4c1.2,2.5,2.4,5.1,4.4,5.8c1.2,0.3,2.4,0.2,3.5-0.4l1.2-0.6
		c3.4-1.7,6.4-3.1,10.6-3.1v1.3c-3.9,0-6.6,1.3-10,3l-1.2,0.6c-1.4,0.8-3,1-4.5,0.5c-2.5-0.9-3.9-3.8-5.2-6.5l-0.2-0.4
		c-0.1-0.3-0.3-0.6-0.4-0.9c-0.9-2.1-2.8-6.4-4.9-6.7c-0.8,0-1.5,0.3-1.9,0.9c-0.4,0.5-0.7,1-1,1.6c-0.5,1.1-1,2.1-1.5,3.2
		c-1.4,3.5-3.2,6.7-5.5,9.7c-0.5,0.6-1.1,1.2-1.9,1.5c-2.2,0.8-3.9-1.2-5.4-3c-1.1-1.4-2.3-2.9-3.5-2.9l0,0c-2.2,0-3.8,2.7-5.1,4.9
		c-0.2,0.4-0.4,0.7-0.6,1l-0.4,0.7c-1.7,2.9-3.7,5.6-5.9,8.1c-1.8,1.9-3.6,2.5-5.2,1.7c-1-0.6-1.8-1.4-2.3-2.5c-1.1-2-2.1-4-2.9-6.1
		c-1.1-3-2.6-5.8-4.6-8.3c-0.7-1-1.9-1.6-3.1-1.6l0,0c-1.6,0-3.4,1.2-5.4,3.4c-1.5,1.8-2.9,3.6-4.2,5.6c-1.7,2.5-3.2,5.1-4.7,7.6
		c-0.9,1.5-1.8,3-2.7,4.5c-0.2,0.4-0.5,0.8-0.7,1.3C178.5,305.9,176,310.4,172.8,310.4z"/>
	<path class="st7" d="M172.8,310.4c-0.1,0-0.3,0-0.4,0c-3.1-0.4-4.9-4.1-6.3-7.2c-0.4-1-0.9-1.9-1.4-2.9c-1.4-2.1-3-3.1-4.7-2.9
		c-2.7,0.3-5,2.5-7.1,4.5l-0.9,0.8c-1.9,1.7-3.7,3.5-5.4,5.4l-1-0.9c1.8-1.9,3.6-3.8,5.5-5.5c0.3-0.3,0.6-0.5,0.9-0.8
		c2.1-2,4.8-4.5,7.8-4.9c2.2-0.3,4.3,1,6,3.5c0.6,1,1.1,2,1.6,3c1.3,2.7,2.8,6.1,5.2,6.4c2.4,0.3,5.1-4.2,6.6-6.9
		c0.3-0.5,0.5-1,0.8-1.3c0.9-1.5,1.8-3,2.7-4.4c1.5-2.5,3-5.2,4.7-7.7c1.3-2,2.7-3.9,4.3-5.7c2.2-2.6,4.4-3.9,6.4-3.9
		c1.6,0,3.1,0.8,4.1,2.1c2.1,2.6,3.7,5.6,4.8,8.7c0.8,2,1.7,4,2.8,5.9c0.4,0.8,1,1.5,1.8,2c1.2,0.6,2.7-0.4,3.6-1.4
		c2.2-2.4,4.1-5.1,5.7-7.9l0.4-0.7c0.2-0.3,0.4-0.6,0.6-1c1.3-2.3,3.2-5.4,6.2-5.5c1.9,0,3.3,1.7,4.7,3.4c1.5,1.9,2.5,3.1,3.8,2.7
		c0.5-0.2,1-0.6,1.3-1.1c2.2-2.9,4-6,5.4-9.4c0.5-1.1,1-2.2,1.5-3.3c0.3-0.7,0.7-1.4,1.2-1.9c0.7-1,1.9-1.5,3.1-1.3
		c2.7,0.4,4.7,4.8,5.9,7.5c0.2,0.3,0.3,0.7,0.4,0.9l0.2,0.4c1.2,2.5,2.4,5.1,4.4,5.8c1.2,0.3,2.4,0.2,3.5-0.4l1.2-0.6
		c3.4-1.7,6.4-3.1,10.6-3.1v1.3c-3.9,0-6.6,1.3-10,3l-1.2,0.6c-1.4,0.8-3,1-4.5,0.5c-2.5-0.9-3.9-3.8-5.2-6.5l-0.2-0.4
		c-0.1-0.3-0.3-0.6-0.4-0.9c-0.9-2.1-2.8-6.4-4.9-6.7c-0.8,0-1.5,0.3-1.9,0.9c-0.4,0.5-0.7,1-1,1.6c-0.5,1.1-1,2.1-1.5,3.2
		c-1.4,3.5-3.2,6.7-5.5,9.7c-0.5,0.6-1.1,1.2-1.9,1.5c-2.2,0.8-3.9-1.2-5.4-3c-1.1-1.4-2.3-2.9-3.5-2.9l0,0c-2.2,0-3.8,2.7-5.1,4.9
		c-0.2,0.4-0.4,0.7-0.6,1l-0.4,0.7c-1.7,2.9-3.7,5.6-5.9,8.1c-1.8,1.9-3.6,2.5-5.2,1.7c-1-0.6-1.8-1.4-2.3-2.5c-1.1-2-2.1-4-2.9-6.1
		c-1.1-3-2.6-5.8-4.6-8.3c-0.7-1-1.9-1.6-3.1-1.6l0,0c-1.6,0-3.4,1.2-5.4,3.4c-1.5,1.8-2.9,3.6-4.2,5.6c-1.7,2.5-3.2,5.1-4.7,7.6
		c-0.9,1.5-1.8,3-2.7,4.5c-0.2,0.4-0.5,0.8-0.7,1.3C178.5,305.9,176,310.4,172.8,310.4z"/>
	<path class="st4" d="M146.4,306.5l-0.9-1c0.3-0.3,7.3-6.5,13.9-6.5c2.7,0,5.4,0.6,7.9,1.7c2.1,0.9,4.3,1.4,6.6,1.5
		c2.7,0,5.1-3.5,7.4-6.9c2.3-3.4,4.4-6.3,6.9-6.3s4.6,2.4,6.9,4.8s4.8,5.2,7.5,5.2c2.7,0,6.4-4.3,9.7-8c3.6-4,7-7.9,9.9-7.9
		c2.6,0.1,5.1,1.2,6.8,3.2c1,0.9,1.8,1.6,2.7,1.6c0.7-0.3,2.4-4.7,3.7-8.2c3.1-8.2,6.6-17.4,11-17.4c3.9,0,6.7,5.8,9.4,11.4
		c1.9,3.9,4,8.3,5.8,8.3s3.5-2.6,5.3-5.4c2.2-3.3,4.6-7.1,8.2-7.1h0.1v1.3c-2.9,0-5,3.3-7.1,6.5c-2.1,3.2-3.8,5.9-6.4,5.9
		c-2.5,0-4.6-4.2-7-9.1s-5.2-10.7-8.2-10.7c-3.5,0-7.2,10-9.7,16.6c-2.5,6.6-3.6,9.1-4.9,9.1c-1.4-0.2-2.6-0.9-3.5-2
		c-1.5-1.7-3.6-2.7-5.9-2.9c-2.2,0-5.6,3.8-8.9,7.5c-3.9,4.3-7.5,8.5-10.7,8.5s-5.9-2.9-8.5-5.7c-2.1-2.3-4-4.4-5.9-4.4
		c-1.8,0-3.9,2.9-5.8,5.8c-2.5,3.7-5.2,7.5-8.5,7.5c-2.4-0.1-4.8-0.6-7-1.6c-2.3-1-4.9-1.6-7.4-1.6
		C153.3,300.4,146.5,306.5,146.4,306.5z"/>
	<path class="st4" d="M283.7,320.9H146.1c-0.4,0-0.7-0.3-0.7-0.7v-72.8c0-0.4,0.3-0.7,0.7-0.7c0.4,0,0.7,0.3,0.7,0.7v72.1h137
		c0.4,0,0.7,0.3,0.7,0.7C284.4,320.6,284.1,320.9,283.7,320.9z"/>
	<g class="st10">
		<path class="st11" d="M283.7,320.9H146.1c-0.4,0-0.7-0.3-0.7-0.7v-72.8c0-0.4,0.3-0.7,0.7-0.7c0.4,0,0.7,0.3,0.7,0.7v72.1h137
			c0.4,0,0.7,0.3,0.7,0.7C284.4,320.6,284.1,320.9,283.7,320.9z"/>
	</g>
	<g class="st13">
		<rect x="313.9" y="258.2" width="33" height="1.3"/>
		<rect x="313.9" y="262" width="33" height="1.3"/>
		<rect x="313.9" y="265.7" width="33" height="1.3"/>
		<rect x="313.9" y="269.5" width="19.6" height="1.3"/>
	</g>
	<g class="st13">
		<rect x="313.9" y="280.3" width="33" height="1.3"/>
		<rect x="313.9" y="284" width="33" height="1.3"/>
		<rect x="313.9" y="287.8" width="33" height="1.3"/>
		<rect x="313.9" y="291.6" width="10.2" height="1.3"/>
	</g>
	<g class="st13">
		<rect x="313.9" y="302.3" width="33" height="1.3"/>
		<rect x="313.9" y="306.1" width="33" height="1.3"/>
		<rect x="313.9" y="309.9" width="33" height="1.3"/>
		<rect x="313.9" y="313.7" width="26.3" height="1.3"/>
	</g>
</g>
<path class="st5" d="M427.4,37.9h-42.3c-8,0-14.5,6.5-14.5,14.5v41.1c0,8,6.5,14.5,14.5,14.5h23.5l7.2,15.4l2.7-15.4h9
	c8,0,14.5-6.5,14.5-14.5V52.4C442,44.4,435.5,37.9,427.4,37.9C427.4,37.9,427.4,37.9,427.4,37.9z"/>
<g id="freepik--character-2--inject-1">
	<g id="freepik--group--inject-1">
		<polygon class="st14" points="412.3,472 402.8,472 402.4,449.9 412,449.9 		"/>
		<path class="st4" d="M402.9,470.9h10.5c0.4,0,0.7,0.3,0.8,0.7l1.7,8.5c0.1,0.8-0.4,1.5-1.1,1.7c-0.1,0-0.2,0-0.3,0
			c-3.8-0.1-9.2-0.3-14-0.3c-5.5,0-10.3,0.3-16.8,0.3c-3.9,0-4.9-4-3.3-4.3c7.5-1.6,13.7-1.8,20.2-5.8
			C401.2,471.2,402,470.9,402.9,470.9z"/>
		<path class="st5" d="M415.5,464.8h-16.9c-1.8-21.8-7.7-94.6-8-119.5c-0.2-19.9,1.2-60.2,2.1-82.4h33.1c-1.8,22-4.9,62.4-6,84.6
			C418.5,372,416.2,443.3,415.5,464.8z"/>
		<path class="st7" d="M390.6,345.3c0.3,24.9,6.2,97.7,8,119.5h16.9c0.5-16.3,2-60.9,3.2-92.2c0.4-10.2,0.7-19,1.1-25
			c0.7-13.4,2.1-33.3,3.5-51.9c0.9-12.3,1.8-24,2.5-32.7h-33.1C391.8,285.1,390.3,325.4,390.6,345.3z"/>
		<path class="st5" d="M396.1,461.5c-0.1,0,0.7,6.7,0.7,6.7h19.7l0.7-6L396.1,461.5z"/>
		<path class="st8" d="M418.7,372.6c0.4-10.2,0.7-19,1.1-25c0.7-13.4,1.7-28.2,3.1-46.8c-3.7-1-9.8-3.7-11-5.8l4.3,5.8
			C415.4,315.1,416.2,348.4,418.7,372.6z"/>
		<polygon class="st14" points="447.3,472 437.8,472 436.4,449.9 446,449.9 		"/>
		<path class="st5" d="M449.6,464.8h-16.9c-1-7.6-2.7-21.5-4.6-37.5c-3.6-29.4-7.7-65.9-8.6-82.1c-0.5-10.1-0.9-25.4-1.1-40.9
			c-0.2-15.2-0.3-30.6-0.4-41.5h30.8c0.5,27.4,0.1,62.4,0,84.6C448.5,372,449.4,443.3,449.6,464.8z"/>
		<path class="st7" d="M449.6,464.8h-16.9c-1-7.6-2.7-21.5-4.6-37.5c-3.6-29.4-7.7-65.9-8.6-82.1c-0.5-10.1-0.9-25.4-1.1-40.9
			c-0.2-15.2-0.3-30.6-0.4-41.5h30.8c0.5,27.4,0.1,62.4,0,84.6C448.5,372,449.4,443.3,449.6,464.8z"/>
		<path class="st5" d="M430.2,461.5c-0.1,0,1,6.7,1,6.7H451l0.4-6L430.2,461.5z"/>
		<path class="st15" d="M396.1,461.5c-0.1,0,0.7,6.7,0.7,6.7h19.7l0.7-6L396.1,461.5z"/>
		<path class="st15" d="M430.2,461.5c-0.1,0,1,6.7,1,6.7H451l0.4-6L430.2,461.5z"/>
		<path class="st4" d="M437.7,470.9h10.5c0.4,0,0.7,0.3,0.8,0.7l2,8.5c0.2,0.7-0.2,1.5-0.9,1.7c-0.1,0-0.3,0.1-0.4,0
			c-3.8-0.1-9.2-0.3-14-0.3c-5.5,0-10.3,0.3-16.8,0.3c-3.9,0-5.1-4-3.5-4.3c7.5-1.6,13.6-1.8,20-5.8
			C436.1,471.2,436.9,470.9,437.7,470.9z"/>
		<path class="st14" d="M346.7,202.1l-10.4-7.4l7.8-8c0,0,8,4.1,7.2,11.5L346.7,202.1z"/>
		<polygon class="st14" points="332.1,186.7 339.4,182.1 344,186.8 336.2,194.7 		"/>
		<path class="st4" d="M398,183.1c-9.9,2.9-14.7,20.3-22.9,36.7l-23.8-23.6l-7.5,6.7c0,0,21.8,34.6,32,34.6
			c12.8,0,26.1-35.6,26.1-35.6L398,183.1z"/>
		<path class="st16" d="M401.9,201.9c0,0-2.1,5.6-5.5,12.4c-3.2,6.6-7.7,14.3-12.4,18.9c-2.7,2.6-5.5,4.3-8.2,4.3
			c-10.3,0-32-34.6-32-34.6l7.5-6.7l23.8,23.6c8.2-16.4,13-33.8,22.9-36.7L401.9,201.9z"/>
		<path class="st17" d="M396.5,214.3c-3.2,6.6-7.7,14.3-12.4,18.9c0.5-15.8,8.2-31.1,8.2-31.1C394.5,205.9,395.9,210,396.5,214.3z"
			/>
		<path class="st4" d="M454.1,185.8c-8.4,46.8-5.4,77.2-5.4,77.2s-39.9,0.9-56,0c-8.6-56.8,5.4-79.9,5.4-79.9
			c4.2-0.8,8.5-1.4,12.7-1.8c0.9,0,1.8-0.1,2.8-0.1c7.6,0,15.2,0.5,22.8,1.3c1.4,0.1,2.9,0.3,4.3,0.5
			C447.7,184.1,454.1,185.8,454.1,185.8z"/>
		<path class="st16" d="M454.1,185.8c-1,5.8-1.9,11.4-2.7,16.6c-1.1,8.3-1.9,16-2.4,22.8c-0.1,2.1-0.3,4-0.4,6
			c-0.4,7-0.5,13-0.5,17.8c0,9.1,0.5,14.1,0.5,14.1s-39.9,0.9-56,0c-8.6-56.8,5.4-79.9,5.4-79.9c4.2-0.8,8.5-1.4,12.7-1.7
			c0.9-0.1,1.8-0.1,2.8-0.2c7.6,0,15.2,0.5,22.8,1.3c1.4,0.1,2.9,0.3,4.3,0.5C447.7,184.1,454.1,185.8,454.1,185.8z"/>
		<path class="st14" d="M433,182c-3.4,3.6-8.8,6.6-17.5,6.3c-6.6-0.3-7.5-4.4-6.4-6.7c4-0.8,5.8-2.6,6.4-4.8s-0.2-5.2-1.3-8
			l11.2-9.4l1.9-1.6c0,0.5-0.1,1.1-0.1,1.7c-0.1,2.2-0.1,4.4,0,6.6C427.5,172.2,429,178.9,433,182z"/>
		<path class="st17" d="M427.1,166c-2.1,4.3-5.7,9.4-11.6,10.8c0.6-2.4-0.2-5.2-1.3-8l11.2-9.4c0.6,0,1.2,0,1.8,0.1
			C427,161.7,427,163.8,427.1,166z"/>
		<path class="st11" d="M421.7,189.5c-2,1.2-4,2.3-6.1,3.5c-0.8,15.3-0.9,30.6-0.1,45.8c-1,1.7-2,3.4-3,5.2
			c-1.3-1.9-2.6-3.8-3.8-5.7c0.8-15.2,2.4-30.4,4.7-45.4c-0.7-1.3-1.3-2.7-2.1-4l6-2.2C418.8,187.6,420.2,188.5,421.7,189.5z"/>
		<path class="st17" d="M415.2,227c14.9,0.6,27,2.5,33.5,2.4c-0.4,7-0.5,14.7-0.5,19.5c-28.1-5.5-36.9-13.4-36.9-13.4L415.2,227z"/>
		<path class="st17" d="M451.4,202.4c-1.1,8.3-1.9,16-2.4,22.8c-5.4-10.9-1.3-24.1-1.3-24.1L451.4,202.4z"/>
		<path class="st4" d="M401.5,140.6c-1.6,3.8-1.8,11.8,3.9,9.8C411,148.4,404.3,134.2,401.5,140.6z"/>
		<path class="st14" d="M428.9,148.9c-0.5,10.1-0.3,16-5.3,21.1c-7.5,7.8-20.1,3.2-22.6-6.8c-2.3-9-1.1-23.9,8.7-28
			c7.1-2.9,15.2,0.5,18.1,7.6C428.6,144.8,429,146.9,428.9,148.9z"/>
		<path class="st4" d="M413.7,151.8c0,0.8-0.4,1.5-1,1.5c-0.5,0-1-0.7-1-1.5c0-0.8,0.4-1.5,1-1.5C413.2,150.3,413.7,151,413.7,151.8
			z"/>
		<path class="st4" d="M404.4,151.8c0,0.8-0.4,1.5-1,1.5c-0.5,0-1-0.7-1-1.5c0-0.8,0.4-1.5,1-1.5C403.9,150.3,404.4,151,404.4,151.8
			z"/>
		<path class="st18" d="M407.3,152.2c-1,2.4-2.3,4.7-3.9,6.8c1.1,0.8,2.6,1,3.9,0.6V152.2z"/>
		<path class="st4" d="M416.5,148.8c-0.2,0-0.3,0-0.5-0.2c-0.7-1-1.9-1.6-3.1-1.6c-0.3,0-0.5-0.2-0.5-0.4c0-0.3,0.2-0.5,0.4-0.5
			c0,0,0,0,0,0c1.6,0,3,0.7,3.9,2c0.2,0.2,0.1,0.5-0.1,0.7C416.6,148.7,416.5,148.8,416.5,148.8L416.5,148.8z"/>
		<path class="st4" d="M400.3,148.6c-0.1,0-0.2,0-0.3,0c-0.2-0.1-0.3-0.4-0.2-0.6c0,0,0,0,0,0c0.6-1.4,1.9-2.4,3.4-2.7
			c0.3,0,0.5,0.2,0.5,0.4c0,0.3-0.1,0.5-0.4,0.5c-1.2,0.2-2.2,1-2.7,2.2C400.6,148.6,400.5,148.6,400.3,148.6z"/>
		<path class="st4" d="M413.1,140.9c0,0,2.8-2,4,0.2s1.2,7.8,1.2,7.8l0.5-1c0,0,3.6,12.7,8.7,9.5s12.8-16.1,0.7-22.6
			c0,0-1.3-3.1-9.3-4.6c-7.9-1.5-17.6,3.4-19.3,8.7c-1.6,5.3,0.7,8.2,0.7,8.2c0.3-1.1,0.8-2.2,1.5-3.1c0.2,1.1,1,2,2,2.4
			c-0.1-1.1,0.1-2.2,0.6-3.1c0.3,0.9,0.7,1.8,1.3,2.5c0.6-5.4,4.3-6.5,5.4-6.5C412.2,139.4,412.9,140,413.1,140.9z"/>
		<path class="st14" d="M432.8,157.3c-0.7,2.4-2.4,4.4-4.6,5.6c-3,1.5-5.2-1-4.9-4.2c0.2-2.9,2-7.1,5.4-7.3c2.4-0.1,4.4,1.8,4.5,4.2
			C433.1,156.2,433,156.7,432.8,157.3z"/>
		<path class="st4" d="M407.6,163c0.9,0.9,1.7,1.9,2.4,2.9l0.6-0.3c2.7-1.3,3.5-2.8,3.5-4.1c0-0.6-0.1-1.2-0.4-1.8
			c-0.1-0.3-0.3-0.6-0.5-0.9c-1.3,1.6-2.9,2.8-4.7,3.7C408,162.8,407.6,163,407.6,163z"/>
		<path class="st11" d="M408.5,162.5l0.7,0.8c2.5-1.3,4.1-2.5,4.5-3.7c-0.1-0.3-0.3-0.6-0.5-0.9C412,160.3,410.4,161.6,408.5,162.5z
			"/>
		<path class="st19" d="M410.6,165.6c2.7-1.3,3.5-2.8,3.5-4.1c-1,0.5-1.9,1.2-2.7,2.1C411,164.1,410.7,164.8,410.6,165.6z"/>
		<path class="st4" d="M431.4,178c0,0-3.1,4-14.4,7.8c-1.9-2-3-4.6-3.3-7.3l-6,2.7c0,0-1.8,5.5,0.9,9.4l8.3-3.7l6.4,5.4
			c0,0,10.4-6.6,12.3-9.9L431.4,178z"/>
		<path class="st4" d="M413.4,249.6h-28.5c-1.1,0-2.1-0.9-2.2-2l-4-37.8c-0.1-1,0.6-1.9,1.6-2c0.1,0,0.1,0,0.2,0h28.5
			c1.1,0,2.1,0.9,2.2,2l4,37.8c0.1,1-0.6,1.9-1.6,2C413.6,249.6,413.5,249.6,413.4,249.6z"/>
		<path class="st15" d="M413.4,249.6h-28.5c-1.1,0-2.1-0.9-2.2-2l-4-37.8c-0.1-1,0.6-1.9,1.6-2c0.1,0,0.1,0,0.2,0h28.5
			c1.1,0,2.1,0.9,2.2,2l4,37.8c0.1,1-0.6,1.9-1.6,2C413.6,249.6,413.5,249.6,413.4,249.6z"/>
		<path class="st9" d="M412.2,249.6h-27.3c-1.1,0-2.1-0.9-2.2-2l-4-37.8c-0.1-1,0.6-1.9,1.6-2c0.1,0,0.1,0,0.2,0h27.4
			c1.1,0,2.1,0.9,2.2,2l4,37.8c0.1,1-0.6,1.9-1.6,2C412.4,249.6,412.3,249.6,412.2,249.6z"/>
		<path class="st4" d="M395.6,225.6c-1.5,0-2.8,1.2-2.8,2.7c0,0.1,0,0.2,0,0.4c0.2,1.7,1.6,3.1,3.3,3.1c1.5,0,2.8-1.2,2.8-2.7
			c0-0.1,0-0.2,0-0.4C397.2,228.6,395.8,227.3,395.6,225.6z"/>
		<path class="st20" d="M401.8,210.7h-15.1c-0.8,0-1.4-0.5-1.8-1.1l-0.9-1.9h19.9l-0.6,1.9C403.1,210.3,402.5,210.8,401.8,210.7z"/>
		<path class="st14" d="M405.5,225l-6.6-0.5l0.3,8.8l5.5,2.9l12.7-1.2l1-5.9C414.3,222.9,405.5,225,405.5,225z"/>
		<path class="st4" d="M447.3,188.6c-6.7,8.5,0.7,25.1,4.2,43.1l-33.2-4.3l-1.9,9.9c0,0,38.3,14.2,46.5,7.9
			c10.2-7.8,3.6-36.1-1.7-50.1c-1.3-3.8-3.8-7.1-7.1-9.4C451.5,185.6,449,186.6,447.3,188.6z"/>
		<path class="st16" d="M447.3,188.6c-6.7,8.5,0.7,25.1,4.2,43.1l-33.2-4.3l-1.9,9.9c0,0,38.3,14.2,46.5,7.9
			c10.2-7.8,3.6-36.1-1.7-50.1c-1.3-3.8-3.8-7.1-7.1-9.4C451.5,185.6,449,186.6,447.3,188.6z"/>
		<path class="st4" d="M428.1,264.6c7-0.1,14-0.3,20.9-0.6c0,1.2,0.1,2.4,0.2,3.6c-7,0.3-14.1,0.5-21.1,0.6V264.6z"/>
		<path class="st4" d="M400.3,267.9c-2.7-0.1-5.4-0.2-8-0.3l0.2-3.6c2.7,0.1,5.3,0.2,7.9,0.3L400.3,267.9z"/>
		<path class="st4" d="M401.5,264.3c8.3,0.3,16.6,0.4,24.9,0.3v3.6c-8.3,0.1-16.6,0-24.9-0.3L401.5,264.3z"/>
		<path class="st11" d="M408.5,268.5l6.3,0.1c0.2,0,0.3-0.1,0.3-0.3c0,0,0,0,0,0v-3.7c0-0.2-0.2-0.3-0.3-0.3l-6.3-0.1
			c-0.2,0-0.3,0.1-0.3,0.3c0,0,0,0,0,0v3.7C408.2,268.4,408.4,268.5,408.5,268.5z"/>
	</g>
</g>
<g id="freepik--speech-bubble-1--inject-1">
	<ellipse transform="matrix(0.7071 -0.7071 0.7071 0.7071 -111.9987 97.2743)" class="st5" cx="61.4" cy="183.8" rx="24" ry="24"/>
	<path class="st11" d="M65,178.7c0-2-1.7-3.4-4.5-3.4c-2.3-0.1-4.5,0.9-5.9,2.8l-3.5-2.3c2-2.7,5.3-4.4,9.8-4.4
		c5.4,0,8.8,2.4,8.8,6.6c0,5.9-6.2,6.4-6.2,10.7H59C59,183.3,65,182.3,65,178.7z M58.4,194.5c0-1.6,1.2-2.9,2.8-2.9
		c1.6,0,2.9,1.2,2.9,2.8c0,1.6-1.2,2.9-2.8,2.9c0,0,0,0-0.1,0c-1.5,0.1-2.8-1.1-2.9-2.6C58.4,194.6,58.4,194.6,58.4,194.5z"/>
	<polygon class="st5" points="61.4,201 58.1,205.4 61.4,215.3 64.7,205.4 	"/>
</g>
<g id="freepik--character-1--inject-1">
	<polygon class="st4" points="81.8,391.9 84.2,481.8 80.8,481.8 76.8,391.9 	"/>
	<polygon class="st4" points="70.4,394 40,394 30.4,481.8 26.4,481.8 35.3,387.7 70.4,388.6 	"/>
	<polygon class="st4" points="72.7,388.6 115.8,388.6 118,388.6 127.4,481.8 125.3,481.8 124.9,478.4 125.2,481.8 123.1,481.8 
		112.2,394.2 76.8,394.2 76.5,481.8 74.3,481.8 74.1,481.8 71.9,481.8 70.4,388.6 	"/>
	<polygon class="st9" points="74.1,481.8 72.6,388.6 118,388.6 127.4,481.8 125.3,481.8 114.4,394.2 76.8,394.2 76.5,481.8 	"/>
	<polygon class="st9" points="40,394 37.5,394 28.1,481.8 30.4,481.8 	"/>
	<path class="st4" d="M87.2,374.8l-9.5-79.5c-0.5-4.9-4.1-8.5-8.4-8.5H24.8c-1.2,0.1-2.1,1.1-2,2.3v83.2c0,9.8,6.9,17.7,15.5,17.7
		h88.9c0.6,0,1-0.5,1-1.1l0,0c0-4.4-3.1-7.9-6.9-7.9H93.2C89.9,380.7,87.3,378,87.2,374.8z"/>
	<path class="st21" d="M22.8,289v83.1c0,9.8,6.9,17.7,15.5,17.7h88.9c0.6,0,1-0.5,1-1.1c0-2.1-0.7-4-2-5.6c-1.2-1.5-3-2.3-4.9-2.3
		H93.2c-0.6,0-1.2-0.1-1.8-0.3c-2.4-1-4-3.2-4.2-5.8l-9.6-79.5c-0.5-4.9-4.1-8.5-8.4-8.5H24.8c-0.8,0-1.4,0.5-1.7,1.2
		C22.9,288.3,22.8,288.6,22.8,289z"/>
	<path class="st22" d="M31,286.7v76.1c0,9.8,6.9,17.7,15.5,17.7h44.9c-2.4-1-4-3.2-4.2-5.8l-9.6-79.5c-0.5-4.9-4.1-8.5-8.4-8.5
		L31,286.7z"/>
	<path class="st4" d="M87.6,340.9c-1.1-3.1-2.5-6.2-4.1-9.1l-38,2.1c0,0-13.5,37.6,2.8,47.3c4.9,2.9,13,4,21.9,4.3
		c10.2,0.2,18.7-7.8,18.9-18c0-0.1,0-0.3,0-0.4C89.2,367,89.1,347.2,87.6,340.9z"/>
	<path class="st4" d="M53.5,368.2v15.1c13.5,3.9,41.6,2.4,58.3,1.1c7.5-0.6,13.3-6.9,13.3-14.4v-12.4c0-4.1-2.6-7.8-6.4-9.3
		c-8-3.1-22.8-7.6-38.2-7.3C65.6,341.1,53.6,353.2,53.5,368.2z"/>
	<path class="st23" d="M123.7,412.1c-4.9,13.3-10.6,30-16.7,51l-0.3,1.2l-0.4,1.2l-6.3-1.5l-2.4-0.6c0,0,0.1-0.9,0.3-2.6
		c0-0.3,0.1-0.7,0.1-1.1l0,0c1.7-14.7,8.2-68.5,14.6-79.6c-4.2,0.8-8.6,0.9-12.8,0.4c-4-0.7-8.8-28.3-8.8-28.3
		c6.7-1.8,13.7-2.8,20.6-2.9h0.1c0,0,20.3,4.8,24.3,10.5C141,366.7,136.5,377.6,123.7,412.1z"/>
	<path class="st5" d="M115.6,481.8l-14.7-6.5l-4.6-5.2l-1.4,2l-1.8-0.8c-0.8-6.5,2.3-9.6,4-10.9l0.5-0.4l0.2-0.1h0.1l0.2-0.2l0,0
		l0,0l0.1-0.1l8,3.6c0,0,0.1,0.4,0.4,1.1c0.8,2.3,2.8,7.4,5,10.2l0.3,0.3c0.2,0.3,0.5,0.6,0.8,0.8
		C119,480.5,115.6,481.8,115.6,481.8z"/>
	<path class="st23" d="M112,474.7c-2.3,0.9-5.5-1.3-8-4.3c-1.5-2.1-2.8-4.2-3.9-6.5c-0.5-1.1-1.2-2.2-2.1-3.1
		c-0.3-0.3-0.7-0.4-0.9-0.3l0,0l0.5-0.4l0.2-0.1h0.1l0.2-0.2l0,0l0,0l0.1-0.1c0.8-0.6,1.8-1.3,1.8-1.3l6.5,2.9c0,0,0.2,0.8,0.5,1.9
		c0.8,3,2.7,8.7,4.7,11.3L112,474.7z"/>
	<path class="st8" d="M123.7,412.1c-4.9,13.3-10.6,30-16.7,51c0.8,3,2.7,8.7,4.7,11.3l0.3,0.3c0.2,0.3,0.5,0.6,0.8,0.8
		c6.2,5,2.8,6.3,2.8,6.3l-14.7-6.5l-4.6-5.2l-1.4,2l-1.8-0.8c-0.8-6.5,2.3-9.6,4-10.9l0.5-0.4l0.2-0.1h0.1l0.2-0.2l0,0l0,0
		c1.7-14.7,8.2-68.5,14.6-79.6c-4.2,0.8-8.6,0.9-12.8,0.4c-4-0.7-8.8-28.3-8.8-28.3c6.7-1.8,13.7-2.8,20.6-2.9h0.1
		c0,0-2.5,0.2-5.8,4.4c0,0,13.7,2.5,17.4,9.8C124.9,366.3,124.6,387.7,123.7,412.1z"/>
	<path class="st23" d="M91.1,352.1c0,0,23.4,3.7,27.3,9.4c6.7,9.9-5.4,29.3-27.5,106.8l-8.6-2.1c0,0,5-70.3,12.4-83.3
		c0,0-10,1.3-15.5,0.4C72.1,382.1,67.5,358.4,91.1,352.1z"/>
	<path class="st5" d="M80.8,481.3h1.9l0.5-2.4l6.3,2.9h16.1c0,0,2.6-2.6-5.1-4.6c-0.4-0.1-0.7-0.2-1.1-0.4c-4.1-1.9-9.9-8.4-9.9-8.4
		h-8.8c-0.3,0.4-0.5,0.8-0.7,1.3C79.1,471.6,77.5,475.7,80.8,481.3z"/>
	<path class="st23" d="M80.1,469.7L80.1,469.7c1.2-1.3,6.5,4.4,10.3,6.3c3.5,1.7,7.3,2.5,9.1,0.7c-4.1-1.9-10.5-10.3-10.5-10.3h-7.1
		C81.9,466.5,80.5,468.8,80.1,469.7z"/>
	<path class="st4" d="M134.2,347.4v3.2c0,0.8-1,1.2-1.8,1.2H68.7c-0.8,0-1.8-0.3-1.8-1.2v-3.2H134.2z"/>
	<path class="st12" d="M134.2,347.4v3.2c0,0.8-1,1.2-1.8,1.2H68.7c-0.8,0-1.8-0.3-1.8-1.2v-3.2H134.2z"/>
	<path class="st17" d="M134.2,347.4v3.2c0,0.8-1,1.2-1.8,1.2h-42c-0.8,0-1.8-0.3-1.8-1.2v-3.2H134.2z"/>
	<path class="st4" d="M144.8,314.3l-7.6,34.4c-0.3,1.1-1.3,1.9-2.5,2H93.3c-0.9-0.1-1.6-0.8-1.6-1.8c0-0.1,0-0.3,0.1-0.4l7.6-34.2
		c0.3-1.1,1.3-1.8,2.5-1.7h41.5C144.4,312.7,145.1,313.2,144.8,314.3z"/>
	<path class="st12" d="M144.8,314.3l-7.6,34.4c-0.3,1.1-1.3,1.9-2.5,2h-40c-0.9,0-1.7-0.8-1.6-1.7c0-0.2,0-0.3,0.1-0.4l7.6-34.2
		c0.3-1.1,1.3-1.8,2.5-1.7h40.1C144.4,312.7,145.1,313.2,144.8,314.3z"/>
	<path class="st17" d="M124.4,331.8L124.4,331.8c-0.3,2.9-2.6,5.1-5.5,5.4c-2.3,0-3.7-2.4-3-5.4s3-5.2,5.2-5.4
		c-0.7,2.9,0.7,5.4,3.1,5.4H124.4z"/>
	<path class="st24" d="M86.6,275.5c7.1,6.1,14.3,13.1,22.6,17.3l0.1,0.1c-0.8-0.2-1.7-0.1-2.4,0.2c-2.3,0.8-3.7,3.2-3.3,5.6
		c0,0.3,0.1,0.5,0.3,0.7l0,0c-2.7-4.4-6.4-8.3-9.7-12.3c-3.7-4.2-7.3-8.6-11-12.9c-1.1-1.3-0.9-3.2,0.4-4.2c1.1-0.9,2.6-0.9,3.7-0.1
		c4.6,3.5,9,7.1,13.2,10.9c4.5,4.2,9.1,8,12.6,13.2c0.3,0.5,0.6,1,0.8,1.6c1.2,3-0.3,6.4-3.3,7.6c-0.9,0.3-1.8,0.5-2.7,0.4
		c-0.8-0.1-1.7-0.3-2.4-0.5c-10.6-3.9-18.9-11.4-27.1-18.7c-5.6-5.6,2.3-14,8.2-8.8L86.6,275.5z"/>
	<path class="st5" d="M98.6,283.8c-0.4,8.6-6.7,17.5-6.7,17.5l-1.5-0.8l-7.4-4c0,0-0.2-0.4-0.4-1.1c-0.3-0.7-0.6-1.5-1-2.5
		c-2.1-5.5-5.8-15.8-6.6-20.2C83.7,271.5,88,275.3,98.6,283.8z"/>
	<path class="st7" d="M98.6,283.8c-0.4,8.6-6.7,17.5-6.7,17.5l-1.5-0.8l-7.4-4c0,0-0.2-0.4-0.4-1.1c-0.3-0.7-0.6-1.5-1-2.5
		c-2.1-5.5-5.8-15.8-6.6-20.2C83.7,271.5,88,275.3,98.6,283.8z"/>
	<path class="st17" d="M90.4,300.4l-7.4-4c0,0-0.2-0.4-0.4-1.1c0.1-2.2,0.3-4.3,0.7-6.5C87.2,291.5,89.8,295.7,90.4,300.4z"/>
	<path class="st5" d="M38.6,284.9c0,0.2,0.1,0.4,0.1,0.6C40.6,293,42,299.4,43,305c1.1,5.8,1.8,11.7,2.1,17.6
		c0.2,4.2,0.1,8.3-0.3,12.4l39.8,1.3c1.6-12.9,2.4-20.7,2.9-28.6c0.5-5.4,0.7-10.8,0.5-16.2c0-7-4.9-15.3-11.9-16.5
		c-2-0.3-4-0.7-5.9-0.9l-1.1-0.1c-7.4-0.8-14.8-0.4-22,1.1C43.1,276,37.7,279.4,38.6,284.9z"/>
	<path class="st7" d="M38.6,284.9c0,0.2,0.1,0.4,0.1,0.6C40.6,293,42,299.4,43,305c1.1,5.8,1.8,11.7,2.1,17.6
		c0.2,4.2,0.1,8.3-0.3,12.4l39.8,1.3c1.6-12.9,2.4-20.7,2.9-28.6c0.5-5.4,0.7-10.8,0.5-16.2c0-7-4.9-15.3-11.9-16.5
		c-2-0.3-4-0.7-5.9-0.9l-1.1-0.1c-7.4-0.8-14.8-0.4-22,1.1C43.1,276,37.7,279.4,38.6,284.9z"/>
	<path class="st17" d="M45.1,322.6c-0.3-5.9-1-11.8-2.2-17.6c4.5-6.2,8.7-11.4,8.7-11.4S61.1,312.8,45.1,322.6z"/>
	<path class="st24" d="M49,292.8c-0.5,8.5-2.1,21.6-1.5,29.8l-0.3-1c-0.3-0.5-0.1,0,0.2,0.3c3.2,3.6,7.3,6.3,11.3,9.2
		c4.3,3.1,10.5,7.3,14.9,10.3c1.5,0.8,2.1,2.6,1.3,4.1c-0.8,1.5-2.6,2.1-4.1,1.3c-2.9-1.1-5.7-2.4-8.6-3.7
		c-6.7-3.3-23.7-10.9-25.5-18.4C35,313.3,36,302.7,37,291.6c0.3-3.3,3.3-5.7,6.6-5.4C47,286.5,49.4,289.5,49,292.8L49,292.8
		L49,292.8z"/>
	<path class="st25" d="M83.6,339.8l-2.5-1.5c-1-0.6-2.1-0.7-3.2-0.2l-4.8,2.1c-1.9,0.8-3.3,2.5-3.8,4.6l-0.3,1.3
		c4,2.9,10.5,2.9,10.5,2.9l1.8,0.2c1.6,0.2,3-0.8,3.3-2.4c0,0,0,0,0,0l0.5-3.6C85.4,341.7,84.7,340.5,83.6,339.8z"/>
	<path class="st5" d="M47.5,275.1c-8,1.9-11,8.3-12.8,22.3c3.6,4.1,15.6,5.7,15.6,5.7S54.9,282.1,47.5,275.1z"/>
	<path class="st25" d="M49.7,274.5c-0.9,0.1,2.3,9.9,16.1,11.5s11.6-10.7,10.3-13.7C76,272.3,59.6,273.1,49.7,274.5z"/>
	<path class="st4" d="M50.1,229.7c0,0,7-9.2,21.5-5.9c14.5,3.3,16,28.5,9.5,38.2c-11.3,0.5-22.4,2.5-33.2,5.9c0,0-8.3-17.7-5.8-28.7
		C44.6,228.1,50.1,229.7,50.1,229.7z"/>
	<path class="st25" d="M55,254.6c1.3,5.9,3,16.6-1,20.4c0,0,5.5-0.6,17,7c3.5-4.8,1.1-6.4,1.1-6.4c-6.5-1.8-6.6-6.6-5.6-11.1
		L55,254.6z"/>
	<path class="st17" d="M59.7,258.7l6.8,5.8c-0.2,1.1-0.4,2.1-0.4,3.2c-2.5-0.4-6-3.3-6.4-5.9C59.5,260.8,59.6,259.7,59.7,258.7z"/>
	<path class="st25" d="M50.4,242.8c1.5,9.5,1.9,13.5,7.1,18.2c7.8,7,19,3.8,20.4-5.7c1.2-8.6-1.3-22.6-10.9-26
		c-6.3-2.5-13.4,0.6-15.9,6.9C50.3,238.2,50,240.5,50.4,242.8z"/>
	<path class="st4" d="M62.4,244.7c0.1,0.8,0.6,1.4,1.1,1.3s0.9-0.7,0.8-1.5s-0.6-1.4-1.1-1.4C62.6,243.2,62.3,243.9,62.4,244.7z"/>
	<path class="st4" d="M72.4,244c0.1,0.8,0.6,1.4,1.1,1.3s0.9-0.7,0.8-1.5c-0.1-0.8-0.6-1.4-1.1-1.4C72.6,242.5,72.2,243.2,72.4,244z
		"/>
	<path class="st4" d="M72.9,242.6l1.8-0.6C74.7,242,73.9,243.5,72.9,242.6z"/>
	<path class="st26" d="M69.5,245.9c0.9,1.8,2,3.5,3.3,5c-0.8,0.6-1.7,0.8-2.7,0.6L69.5,245.9z"/>
	<path class="st4" d="M60.3,239.8c0.1,0,0.2,0,0.3-0.1c0.8-0.9,1.9-1.3,3.1-1.1c0.2,0.1,0.5-0.1,0.5-0.3c0,0,0,0,0,0
		c0-0.3-0.1-0.5-0.4-0.6c-1.4-0.2-2.9,0.3-3.9,1.3c-0.2,0.2-0.2,0.5,0,0.7C60.1,239.8,60.2,239.8,60.3,239.8z"/>
	<path class="st4" d="M75.8,238.6c0.2,0,0.5-0.2,0.5-0.4c0-0.1,0-0.2-0.1-0.3c-0.9-1.3-2.3-2.1-3.8-2.2c-0.2,0-0.4,0.2-0.4,0.4
		c0,0,0,0,0,0.1c0,0.3,0.2,0.5,0.5,0.5c1.2,0.1,2.3,0.7,3,1.7C75.6,238.5,75.7,238.6,75.8,238.6z"/>
	<path class="st4" d="M62.9,243.3l1.8-0.6C64.7,242.7,64,244.2,62.9,243.3z"/>
	<path class="st4" d="M52.9,248.3c0,0,6.9-6.4,4.5-15.2c0,0,12.7-6.3,19,6.5c0,0,0.2-11.4-12.4-12.6c-12.5-1.2-25.7,16.7-10.7,28.3
		L52.9,248.3z"/>
	<path class="st25" d="M48,250.7c1.1,1.7,2.9,2.9,4.8,3.3c2.6,0.5,3.5-2.1,2.4-4.6c-0.9-2.2-3.3-5.1-5.8-4.5
		C47.2,245.6,46.6,248.6,48,250.7z"/>
	<path class="st4" d="M78.2,245.1c-0.1,0-0.2-0.1-0.3-0.2c-6.1-16.2-21.3-11.5-21.5-11.5c-0.1,0-0.3,0-0.3-0.2
		c-0.1-0.1,0-0.3,0.2-0.3c0,0,0,0,0,0c0.2,0,15.9-4.9,22.2,11.8C78.5,244.8,78.4,245,78.2,245.1C78.3,245,78.3,245,78.2,245.1
		L78.2,245.1z"/>
	<path class="st4" d="M69.4,255.6L69.4,255.6c-0.2,0-4.5-0.1-6.1-2.9c-0.1-0.2,0-0.3,0.1-0.4c0.1-0.1,0.3,0,0.4,0.1c0,0,0,0,0,0
		c1.4,2.5,5.5,2.7,5.6,2.7c0.2,0,0.3,0.1,0.3,0.3c0,0,0,0,0,0C69.7,255.5,69.6,255.6,69.4,255.6z"/>
	<path class="st4" d="M72.2,298.9c-0.1,0-0.1,0-0.2-0.1c-7.7-6.9-13.8-15.4-18.2-24.7c-0.1-0.2,0-0.3,0.2-0.4c0.2-0.1,0.3,0,0.4,0.2
		c0,0,0,0,0,0C58.6,283,64.6,291.2,72,298c0.6-2.7,3.3-15.9-2.5-25.2c-0.1-0.1-0.1-0.3,0.1-0.4c0.1-0.1,0.3-0.1,0.4,0.1l0,0
		c6.7,10.6,2.5,26.1,2.5,26.2C72.5,298.8,72.4,298.9,72.2,298.9L72.2,298.9z"/>
	<path class="st11" d="M72.6,298.3l1.1,1.2c0.2,0.2,0.2,0.6,0,0.8l-0.9,1.4c-0.2,0.3-0.6,0.4-0.9,0.2c0,0-0.1-0.1-0.1-0.1l-1.1-1
		c-0.2-0.2-0.3-0.5-0.1-0.8l0.8-1.6c0.1-0.3,0.5-0.5,0.8-0.4C72.4,298.1,72.5,298.2,72.6,298.3z"/>
	<path class="st7" d="M47.5,275.1c-8,1.9-11,8.3-12.8,22.3c3.6,4.1,15.6,5.7,15.6,5.7S54.9,282.1,47.5,275.1z"/>
	<path class="st25" d="M89.6,272.4l-3.3-8.3l-6.7,7.2c0,0,3.3,7.2,7,5.4L89.6,272.4z"/>
	<polygon class="st25" points="79.3,258.8 75.6,266.9 79.6,271.3 86.3,264.1 	"/>
	<path class="st24" d="M99.6,300.5c1.5,0.8,3,1.5,4.6,2.1l1.3,0.5l0.8,0.2l0.4,0.1h0.1h0.3l0.6,0.1h0.3h0.4h0.8
		c0.5,0,0.9-0.1,1.3-0.3c0.6-0.2,1.2-0.5,1.7-0.9c0.6-0.5,1.1-1.1,1.5-1.7c0.2-0.3,0.3-0.7,0.4-1c0.1-0.3,0.1-0.5,0.2-0.8
		c0.1-0.3,0.1-0.5,0.1-0.8c0-0.2,0-0.3,0-0.5c0-0.3-0.1-0.6-0.1-0.9c-0.1-0.4-0.2-0.7-0.3-1l-0.3-0.7l-0.3-0.5l-0.2-0.4
		c-0.5-0.8-1-1.6-1.7-2.3c-0.5-0.6-1-1.2-1.6-1.8c-1-1.1-2.1-2.2-3.1-3.2c-2.1-2-4.2-4-6.3-5.9c-4.3-3.8-8.7-7.5-13.2-10.9
		c-1.3-1-3.2-0.7-4.2,0.6c-0.8,1.1-0.8,2.7,0.1,3.7l0,0c3.6,4.3,7.3,8.6,11,12.8c1.8,2.1,3.6,4.2,5.4,6.4c0.9,1.1,1.7,2.1,2.5,3.2
		c0.4,0.5,0.8,1,1.1,1.5c0.3,0.4,0.5,0.8,0.7,1.2l0,0l0,0c0-0.1-0.1-0.1-0.1-0.2c-0.1-0.2-0.1-0.3-0.1-0.5c0-0.2-0.1-0.4-0.1-0.7
		v-0.4c0-0.2,0-0.4,0.1-0.7c0-0.2,0.1-0.4,0.2-0.6c0.1-0.3,0.2-0.6,0.4-0.9c0.3-0.6,0.8-1.1,1.3-1.5c0.4-0.3,0.9-0.6,1.5-0.8
		c0.3-0.1,0.7-0.2,1.1-0.2c0.2,0,0.4,0,0.5,0h0.4h0.3h0.1l0,0h-0.1l-0.2-0.1l-0.7-0.3c-0.9-0.5-2-1.1-3-1.7
		C103.3,289.3,96.9,299,99.6,300.5z"/>
</g>
<path class="st5" d="M451.8,108.7H50.1c-8.4,0-15.3-6.8-15.3-15.3V26.3c0-8.4,6.8-15.3,15.3-15.3h401.8c8.4,0,15.3,6.8,15.3,15.3
	v67.2C467.1,101.9,460.3,108.7,451.8,108.7z"/>
</svg>
