<?xml version="1.0" encoding="utf-8"?>
<!-- Generator: Adobe Illustrator 25.0.0, SVG Export Plug-In . SVG Version: 6.00 Build 0)  -->
<svg version="1.1" id="Camada_1" xmlns="http://www.w3.org/2000/svg" xmlns:xlink="http://www.w3.org/1999/xlink" x="0px" y="0px"
	 viewBox="0 0 1920 900" style="enable-background:new 0 0 1920 900;" xml:space="preserve">
<style type="text/css">
	.st0{fill:#EBEBEB;}
	.st1{fill:#E0E0E0;}
	.st2{opacity:0.2;}
	.st3{fill:#F5F5F5;}
	.st4{fill:#2E4183;}
	.st5{opacity:0.4;fill:#FFFFFF;enable-background:new    ;}
	.st6{fill:none;stroke:#2E4183;stroke-width:7.681;stroke-linecap:round;stroke-linejoin:round;}
	.st7{opacity:0.3;fill:#FFFFFF;enable-background:new    ;}
	.st8{opacity:0.3;fill:#020203;enable-background:new    ;}
	.st9{opacity:0.6;fill:#FFFFFF;enable-background:new    ;}
	.st10{opacity:0.2;fill:#020203;enable-background:new    ;}
	.st11{opacity:0.2;fill:#FFFFFF;enable-background:new    ;}
	.st12{opacity:0.1;fill:#FFFFFF;enable-background:new    ;}
	.st13{fill:#E5897B;}
	.st14{fill:#2E353A;}
	.st15{opacity:0.4;fill:#020203;enable-background:new    ;}
	.st16{fill:none;stroke:#2E353A;stroke-width:1.9202;stroke-linecap:round;stroke-linejoin:round;}
	.st17{fill:#DE5953;}
	.st18{fill:none;stroke:#2E353A;stroke-width:2.7831;stroke-linecap:round;stroke-linejoin:round;}
	.st19{fill:#FFFFFF;}
	.st20{opacity:0.5;fill:#FFFFFF;enable-background:new    ;}
	.st21{opacity:0.1;fill:#020203;enable-background:new    ;}
	.st22{fill:#00E676;}
	.st23{fill:url(#SVGID_1_);}
	.st24{fill:url(#SVGID_2_);}
	.st25{fill-rule:evenodd;clip-rule:evenodd;fill:#FFFFFF;}
	.st26{fill:url(#SVGID_3_);}
</style>
<rect y="721.6" class="st0" width="1920.2" height="1"/>
<rect x="1600.6" y="783.4" class="st0" width="127.2" height="1"/>
<rect x="1238.7" y="793.8" class="st0" width="33.4" height="1"/>
<rect x="1523.1" y="747.7" class="st0" width="73.7" height="1"/>
<rect x="201.5" y="754.2" class="st0" width="165.9" height="1"/>
<rect x="401.6" y="754.2" class="st0" width="24.3" height="1"/>
<rect x="504.9" y="770.4" class="st0" width="359.8" height="1"/>
<rect x="214.1" y="250.8" class="st1" width="420.1" height="472.7"/>
<rect x="235" y="269.7" class="st0" width="378.4" height="76.1"/>
<rect x="235" y="365.5" class="st0" width="378.4" height="76.1"/>
<rect x="235" y="461.4" class="st0" width="378.4" height="227"/>
<path class="st1" d="M441.7,282.7h-35.2c-9.4,0-18-5-22.8-13h80.7C459.5,277.7,451,282.6,441.7,282.7z"/>
<path class="st1" d="M441.7,378.5h-35.2c-9.4,0-18-5-22.8-13h80.7C459.5,373.4,451,378.4,441.7,378.5z"/>
<path class="st1" d="M441.7,474.5h-35.2c-9.4,0-18-5-22.8-13h80.7C459.5,469.5,451,474.5,441.7,474.5z"/>
<g id="freepik--Shadow--inject-17" class="st2">
	<ellipse id="freepik--path--inject-17" class="st3" cx="960.1" cy="851.5" rx="744.6" ry="43.5"/>
</g>
<g>
	<path class="st4" d="M509.7,204.2h473.5l29.6,30.7V48.6c0-22.7-18.4-41.1-41.1-41.1l0,0h-462c-22.7,0-41.1,18.3-41.2,41v0.1v114.6
		C468.6,185.9,487,204.2,509.7,204.2L509.7,204.2z"/>
	<path class="st5" d="M509.7,204.2h473.5l29.6,30.7V48.6c0-22.7-18.4-41.1-41.1-41.1l0,0h-462c-22.7,0-41.1,18.3-41.2,41v0.1v114.6
		C468.6,185.9,487,204.2,509.7,204.2L509.7,204.2z"/>
	<line class="st6" x1="956.3" y1="55.6" x2="530" y2="55.6"/>
	<line class="st6" x1="956.3" y1="101.7" x2="530" y2="101.7"/>
	<line class="st6" x1="871.8" y1="147.8" x2="530" y2="147.8"/>
	<path class="st7" d="M509.7,204.2h473.5l29.6,30.7V48.6c0-22.7-18.4-41.1-41.1-41.1l0,0h-462c-22.7,0-41.1,18.3-41.2,41v0.1v114.6
		C468.6,185.9,487,204.2,509.7,204.2L509.7,204.2z"/>
</g>
<g id="freepik--Table--inject-17">
	<polygon class="st4" points="987,528 987,846.8 1010.1,846.8 1010.1,574.1 1374.9,574.1 1374.9,846.8 1401.8,846.8 1401.8,528 	"/>
	<polygon class="st8" points="987,528 987,846.8 1010.1,846.8 1010.1,574.1 1374.9,574.1 1374.9,846.8 1401.8,846.8 1401.8,528 	"/>
	<polygon class="st9" points="987,528 987,846.8 1010.1,846.8 1010.1,574.1 1374.9,574.1 1374.9,846.8 1401.8,846.8 1401.8,528 	"/>
	<polygon class="st4" points="1198.2,528 1198.2,846.8 1221.3,846.8 1221.3,574.1 1586.1,574.1 1586.1,846.8 1613,846.8 1613,528 	
		"/>
	<polygon class="st9" points="1198.2,528 1198.2,846.8 1221.3,846.8 1221.3,574.1 1586.1,574.1 1586.1,846.8 1613,846.8 1613,528 	
		"/>
	<path class="st4" d="M1344.6,360.6c-5.1-8.4-13.6-1.1-13.6-1.1c1.2-16.2-13.7-27.3-13.7-27.3s17.3,0,19.7-16.6s-6-8.8-14-8.9
		s-16.2,23-5.8,36.1c10.5,13.1,7.7,35.3-16.5,56.7c-5.8,5.4-10.1,12.2-12.6,19.7c1.8-19.7,2.9-47.4-2.9-65.9
		c-9.8-31.5,8.9-39.9,14.3-55.6s-14.3-29-14.3-29s18.5-8.4,9.5-18.1c-9.1-9.7-27.8-8.4-27.8,4.3s12.7,17.5,12.7,17.5
		s14.5,15.1,14.5,23s-14.5,24.8-14.5,24.8s6.6-14.5-6.6-15.1s-17.6,16.9-12.1,24.8s14.5,1.2,14.5,1.2c0.6,9.2,1.9,18.3,4.1,27.2
		c1.3,4.5,0.7,22.3-0.4,40.7c-2.5-6.7-6.6-12.6-11.8-17.5c-24.2-21.4-26.9-43.7-16.5-56.7c10.4-13.1,2.2-36.2-5.8-36.1
		c-7.9,0.1-16.4-7.7-14,8.9s19.7,16.6,19.7,16.6s-14.9,11.1-13.7,27.3c0,0-8.4-7.4-13.6,1.1c-9.2,15.1,12.1,24.5,15.7,17.1
		c0,0,45.1,31.9,34.2,77.8l2.5,3.8c-0.3,3.8-0.5,6-0.5,6l3.5-1.5l3.8,5.9c-0.1,6.7,0.2,13.3,1,20l10.8-15.9
		c-10.9-46.1,34.2-77.8,34.2-77.8C1332.7,385.1,1353.8,375.7,1344.6,360.6z"/>
	<path class="st10" d="M1344.6,360.6c-5.1-8.4-13.6-1.1-13.6-1.1c1.2-16.2-13.7-27.3-13.7-27.3s17.3,0,19.7-16.6s-6-8.8-14-8.9
		s-16.2,23-5.8,36.1c10.5,13.1,7.7,35.3-16.5,56.7c-5.8,5.4-10.1,12.2-12.6,19.7c1.8-19.7,2.9-47.4-2.9-65.9
		c-9.8-31.5,8.9-39.9,14.3-55.6s-14.3-29-14.3-29s18.5-8.4,9.5-18.1c-9.1-9.7-27.8-8.4-27.8,4.3s12.7,17.5,12.7,17.5
		s14.5,15.1,14.5,23s-14.5,24.8-14.5,24.8s6.6-14.5-6.6-15.1s-17.6,16.9-12.1,24.8s14.5,1.2,14.5,1.2c0.6,9.2,1.9,18.3,4.1,27.2
		c1.3,4.5,0.7,22.3-0.4,40.7c-2.5-6.7-6.6-12.6-11.8-17.5c-24.2-21.4-26.9-43.7-16.5-56.7c10.4-13.1,2.2-36.2-5.8-36.1
		c-7.9,0.1-16.4-7.7-14,8.9s19.7,16.6,19.7,16.6s-14.9,11.1-13.7,27.3c0,0-8.4-7.4-13.6,1.1c-9.2,15.1,12.1,24.5,15.7,17.1
		c0,0,45.1,31.9,34.2,77.8l2.5,3.8c-0.3,3.8-0.5,6-0.5,6l3.5-1.5l3.8,5.9c-0.1,6.7,0.2,13.3,1,20l10.8-15.9
		c-10.9-46.1,34.2-77.8,34.2-77.8C1332.7,385.1,1353.8,375.7,1344.6,360.6z"/>
	<polygon class="st4" points="1317.3,528 1302.8,444.7 1306.9,420.5 1261.1,420.5 1265.2,444.7 1250.7,528 	"/>
	<polygon class="st11" points="1317.3,528 1302.8,444.7 1306.9,420.5 1261.1,420.5 1265.2,444.7 1250.7,528 	"/>
	<rect x="1150.5" y="449.9" class="st4" width="70.5" height="78.1"/>
	<rect x="1150.5" y="449.9" class="st7" width="70.5" height="78.1"/>
	<rect x="1146.9" y="439.7" class="st4" width="77.8" height="22.2"/>
	<rect x="1146.9" y="439.7" class="st12" width="77.8" height="22.2"/>
</g>
<g id="freepik--character-2--inject-17">
	<polygon class="st13" points="455.6,815.5 456.8,841.5 493.1,844.1 526.5,846.4 530.1,815.4 490.7,815.4 	"/>
	<path class="st14" d="M458.7,846.8c2.8-0.2-1-35.2-1-35.2s-23-20.6-28.8-41.4c-5.8-20.8-18-8.4-16.9,15c1.1,23.5,1.8,41.4,2.6,58.1
		C415.3,859.9,429.1,849,458.7,846.8z"/>
	<path class="st4" d="M453.8,808.4h-0.7l0,0c0,0,0,0,0-0.3c-1.2-2.3-7.1-13.9-4.3-17.5c0.9-1.1,2.5-1.5,3.8-1c1,0.2,1.9,0.9,2.5,1.8
		c1.1,2.4,1.5,5.1,1.2,7.7c1.4-3,3.1-5.5,5-5.7c1.2,0,2.2,0.6,3,2.2c0.8,1.4,0.9,3,0.3,4.5c-1.8,4.8-9.8,8.1-10.2,8.3H453.8z
		 M461.2,796.8L461.2,796.8c-1.6,0-4.1,4.5-5.8,9.8c3.1-1.5,5.6-3.8,7.3-6.8c0.4-0.8,0.3-1.7-0.2-2.4
		C462.2,797,461.7,796.8,461.2,796.8z M451.1,791.2c-0.4,0-0.8,0.1-1,0.4c-1.3,1.7,1,8.1,3.4,13.1c0.7-3.8,1.3-10-0.2-12.5
		c-0.3-0.5-0.8-0.8-1.3-0.9L451.1,791.2z"/>
	<polygon class="st10" points="489.9,815.5 492.4,844.1 526.1,846.5 529.9,815.4 	"/>
	<polygon class="st13" points="413.3,807.8 421.5,832.4 457.2,825.1 489.9,818.2 484.9,787.4 447,798.2 	"/>
	<path class="st14" d="M424.8,837.2c2.7-1-10.6-33.6-10.6-33.6s-27.7-13.6-39-32s-19.6-3.2-12.2,19.2s13.1,39.3,18.4,55.2
		C386.7,861.8,396.9,847.2,424.8,837.2z"/>
	<path class="st4" d="M409.4,801.2L409.4,801.2c0,0,0,0-0.2,0c-0.1,0-0.2-0.1-0.3-0.2c-1.8-1.8-10.6-11.3-9-15.6
		c0.6-1.3,1.9-2.1,3.3-2c1-0.1,2.1,0.3,2.8,1c1.8,2,2.9,4.5,3.3,7.2c0.6-3.2,1.5-6.1,3.3-6.8c1.1-0.5,2.3,0,3.5,1.3
		c1.1,1.1,1.7,2.7,1.5,4.3c-0.4,5.1-7.2,10.6-7.7,10.8h1v-0.5h-0.5C410.4,800.7,409.6,801.2,409.4,801.2z M413.2,786.7L413.2,786.7
		c-1.5,0.6-2.5,6.2-2.7,11.8c2.6-2.1,4.4-4.9,5.3-8.1c0.1-1.1-0.3-2.1-1-2.9C414.3,787.2,413.7,786.7,413.2,786.7L413.2,786.7z
		 M403.3,785.3L403.3,785.3c-1.4,0-1.6,0.6-1.7,0.8c-0.8,2,3.1,7.5,6.8,11.7c-0.4-4-1.5-10-3.8-12
		C404.2,785.5,403.7,785.3,403.3,785.3z"/>
	<polygon class="st10" points="446.2,798.4 456.5,825.3 489.5,818.3 484.7,787.5 	"/>
	<path class="st14" d="M988.4,847.2c-89.8,0-189.9-54.3-234.3-70.3c-5.8-2.5-11.9-4-18.2-4.4c-19.5,0.9-163.5,34.2-231.5,50.2h-0.3
		L469,831l-11.5-41.4c0,0,259.4-134.8,295.2-127.6c27.2,5.5,103.7,25.8,139.2,35.3l18.3,4.9l23-39.7l126.7,9.7
		C1060,672.1,1094.5,847.2,988.4,847.2z"/>
	<path class="st14" d="M499.7,800.2l10.2,49.5l239-3.2c0,0,173.1,0.7,239.5,0.7s3.6-119.5,3.6-119.5L499.7,800.2z"/>
	<path class="st10" d="M933.2,662.4l-3,82.2l-175.9,32.3l-249.6,45.7l266-88.3l139,5.5c-0.9-15.8-7.1-30.9-17.7-42.7l18.3,4.9
		L933.2,662.4z"/>
	<polygon class="st4" points="1060,653.5 1060,672.1 933.2,662.4 933.2,640.4 	"/>
	<polygon class="st15" points="1060,653.5 1060,672.1 933.2,662.4 933.2,640.4 	"/>
	
		<rect x="1004.4" y="658.7" transform="matrix(5.094160e-02 -0.9987 0.9987 5.094160e-02 307.3938 1647.2512)" class="st14" width="32.1" height="6.3"/>
	
		<rect x="965.7" y="642.7" transform="matrix(8.924278e-02 -0.996 0.996 8.924278e-02 235.111 1570.4128)" class="st4" width="21.1" height="27.8"/>
	
		<rect x="927" y="650.2" transform="matrix(5.094160e-02 -0.9987 0.9987 5.094160e-02 242.4224 1561.8934)" class="st14" width="32.1" height="6.3"/>
	
		<rect x="965.7" y="642.7" transform="matrix(8.924278e-02 -0.996 0.996 8.924278e-02 235.111 1570.4128)" class="st9" width="21.1" height="27.8"/>
	<path class="st13" d="M864.6,461.8c0,0-16.1,1-16.5,3.8c-0.3,2.9,2.5,26.3,5,29.5c2.6,2.8,5.5,5.3,8.6,7.5l-9.1,36l20.7,8.5
		l5.8-38.9c0,0,9.1-10.4,5.3-22.4C880.4,473.7,864.6,461.8,864.6,461.8z"/>
	<path class="st10" d="M864.6,461.8c0,0-16.1,1-16.5,3.8c-0.3,2.9,2.5,26.3,5,29.5c2.6,2.8,5.5,5.3,8.6,7.5l-9.1,36l20.7,8.5
		l5.8-38.9c0,0,9.1-10.4,5.3-22.4C880.4,473.7,864.6,461.8,864.6,461.8z"/>
	<path class="st16" d="M1060,339.2c0,0,30.7,54.8-5.9,128.9"/>
	<path class="st4" d="M962,497.3l-10.7,54.5l-3.2,3.5c-10.4,11.1-43.9,45.5-71.7,58.4c-12.1,5.6-23,7.1-30.7,0.7
		c-27.9-24,7.7-106.3,7.7-106.3l31.8,12.2l-2.6,34.3l34.6-76.5L962,497.3z"/>
	<path class="st10" d="M948.1,555.3c-10.4,11.1-43.9,45.5-71.7,58.4c42.7-24.2,53.8-77.3,53.8-77.3L948.1,555.3z"/>
	<path class="st14" d="M1031.9,304c22.5,4.3,46.1,46.7,35.1,101.7c-7.5,35.5-19.3,69.9-35.1,102.4L962,497.3
		C962,497.3,948.6,288,1031.9,304z"/>
	<path class="st4" d="M933.4,642.6l126.7,10.9c3-47.1,6-77.5,33.9-161.5l4.2-12.6c2-5.8-1.1-12-6.9-14c-0.2-0.1-0.3-0.1-0.5-0.2
		c-13.6-3.9-27.5-7-41.5-9.3c-18.8-3.3-37.8-5.3-56.9-6c-24.7-0.2-53,2.6-53,2.6s-3.8,1-6.6,27.1
		C930.6,504.3,928.3,553.3,933.4,642.6z"/>
	<path class="st13" d="M1018,450c21.5,2.9,42.7,7.1,63.6,12.7c0,0-78.4,41.2-168.3,23.7c0,0,11.3-32.2,26.2-33.9
		C964.8,449.7,998.5,448,1018,450z"/>
	<path class="st14" d="M1031.6,314c0,0,5.3-24.1-33.5-27.3c-38.7-3.2-81,38.1-70.1,96s27.3,74,14.9,106.7s1.5,41.6,12.8,46.7
		c0,0-7.7-7.1-4.6-15.4c3.1-8.3,31.1-12.3,30.2-42.9c-0.9-30.7,34.6-32,34.6-32L1031.6,314z"/>
	<path class="st13" d="M1043.6,460.7c0,0-9.4,13.6-40.6,17.4c0,0-15.4-10.2-8.9-22.5c0,0,6.8-2.1,8.2-12.9
		c0.7-7.6-0.3-15.2-2.9-22.4c-0.3-1.2-0.8-2.4-1.2-3.6l39.5-24.7C1037.7,392,1023.8,442,1043.6,460.7z"/>
	<path class="st10" d="M1028.8,406.3c0,0-2.1,28.2-26.5,36.4c0.7-7.6-0.3-15.2-2.9-22.4C1013.9,412.8,1028.8,406.3,1028.8,406.3z"/>
	<path class="st13" d="M988.4,313.8c-32.3,5.5-39.7,24.5-36.4,58.2c4.1,42.1,18.4,70,57.2,54.2C1062,404.8,1042,304.6,988.4,313.8z"
		/>
	<path class="st17" d="M972.6,366.7c-1.8,5.3-4.1,10.3-7.1,15c2.4,2.4,5.9,3.2,9.1,2.2L972.6,366.7z"/>
	<path class="st14" d="M991.9,360.6c0.4,2.7,2.2,4.6,3.8,4.4c1.7-0.2,2.9-2.6,2.5-5.3c-0.4-2.6-2.2-4.6-3.8-4.3
		S991.5,357.9,991.9,360.6z"/>
	<path class="st14" d="M995.1,355.2l-6.1-1.4C989,353.8,992.6,358.4,995.1,355.2z"/>
	<path class="st14" d="M958.7,364.9c0.4,2.7,2.2,4.6,3.8,4.4c1.7-0.2,2.9-2.6,2.5-5.3c-0.4-2.6-2.2-4.6-3.8-4.3
		S958.3,362.2,958.7,364.9z"/>
	<path class="st14" d="M962,359.6l-6.1-1.4C955.9,358.2,959.5,362.9,962,359.6z"/>
	<path class="st18" d="M988.4,338.3c5.1-1.5,10.5-0.6,14.8,2.5"/>
	<path class="st18" d="M964.7,340.9c-4.7-0.4-9.2,1.4-12.4,4.8"/>
	<path class="st14" d="M981.5,395.7c2.1,3.4,3.9,6.9,5.5,10.6l2-0.5c9.2-2.6,12.7-6.8,13.7-10.7c0.5-1.9,0.5-3.9,0-5.8
		c-0.2-1.1-0.6-2.2-1.2-3.1c-5,4.1-10.8,7.1-17.1,8.8C982.7,395.4,981.5,395.7,981.5,395.7z"/>
	<path class="st19" d="M984.6,394.8l1.7,3.1c8.7-2.4,14.5-5.3,16.5-8.7c-0.2-1.1-0.6-2.2-1.2-3.1
		C996.7,390.1,990.9,393.1,984.6,394.8z"/>
	<path class="st17" d="M989.2,405.7c9.2-2.6,12.7-6.8,13.7-10.7c-3.5,1-6.8,2.7-9.7,4.9C991.3,401.4,989.9,403.4,989.2,405.7z"/>
	<path class="st14" d="M1033.1,362.1c0,0-19.6-23.9-20.8-44.8c0,0-68.4-15.4-60.5,50.2c0,0-16.1-56.6,39.2-67.3
		c55.3-10.8,68.9,70.4,44.4,99.5C1035.2,399.8,1045.2,377.1,1033.1,362.1z"/>
	<path class="st13" d="M1028.9,369.9c-0.7-7.9,5.1-14.8,13-15.6c10.2-0.6,18.5,19.2-5.6,28.3
		C1032.9,383.9,1030.3,380.8,1028.9,369.9z"/>
	<path class="st16" d="M974.6,293.7c0,0-71.1,30.7-48.2,117.8s6.9,84.5,6.9,84.5"/>
	<path class="st14" d="M898.3,486.1c0.2,1.7-1,3.3-2.7,3.5c-0.1,0-0.3,0-0.4,0H860c-2-0.1-3.6-1.6-3.8-3.5l-7.9-69.1
		c-0.2-1.9,1.3-3.6,3.2-3.8h35.1c2,0.3,3.6,1.9,3.8,3.8L898.3,486.1z"/>
	<path class="st20" d="M886.5,416.3l7.9,70c0.4,1.4-0.5,2.9-1.9,3.2c-0.3,0.1-0.6,0.1-0.9,0.1H862c-2,0-5.6-1.1-5.9-3.1l-7.9-70.2
		c-0.2-2,3.2-3.5,5.2-3.5h29.8C885,412.9,886.5,414.4,886.5,416.3z"/>
	<path class="st13" d="M930.4,516l-18.1-20c0,0-5.9-32.3-7.7-35.7c-1.8-3.3-28.3,0-31.2,0s0,32.5,3.2,35.7s14.1,5.1,14.1,5.1
		l21.7,30.3L930.4,516z"/>
	<path class="st4" d="M1098.2,472.6c19.4,56.4-64.1,152.8-104.4,153.6s-97.9-106.8-97.9-106.8l26.4-16.3c0,0,67,61.4,76,62.4
		c5.1,0.5,53.8-76.6,79.6-93.4C1092.2,462.7,1098.2,472.6,1098.2,472.6z"/>
	<path class="st21" d="M1098.2,472.6c19.4,56.4-64.1,152.8-104.4,153.6s-97.9-106.8-97.9-106.8l26.4-16.3c0,0,67,61.4,76,62.4
		c5.1,0.5,53.8-76.6,79.6-93.4C1092.2,462.7,1098.2,472.6,1098.2,472.6z"/>
</g>
<g id="freepik--Jar--inject-17">
	<rect x="1033.1" y="757.5" class="st4" width="82.1" height="97.3"/>
	<rect x="1033.1" y="757.5" class="st11" width="82.1" height="97.3"/>
	<rect x="1029.5" y="747.2" class="st4" width="89.3" height="22.2"/>
</g>
<g>
	<path class="st22" d="M1150.5,188.3c-34.7,0-62.9,28.2-62.9,62.9l0,0c0,34.7,28.2,62.9,62.9,62.9l0,0c34.7,0,62.9-28.2,62.9-62.9
		l0,0C1213.4,216.5,1185.2,188.3,1150.5,188.3L1150.5,188.3z"/>
	<g>
		<path class="st22" d="M1087.6,188.3"/>
		<path class="st19" d="M1179.1,221.7c-7.6-7.8-18-11.9-28.6-11.9c-22.8,0-41,18.4-40.8,41c0,7.2,2,14.1,5.4,20.2l-5.9,21l21.7-5.6
			c6.1,3.3,12.6,5,19.3,5c22.6,0,40.8-18.4,40.8-41C1191.1,239.7,1186.7,229.3,1179.1,221.7z M1150.5,284.6
			c-6.1,0-11.9-1.5-17.1-4.8l-1.3-0.7l-12.8,3.3l3.3-12.6l-0.9-1.3c-9.8-15.8-5.2-36.7,10.8-46.4c16.1-9.8,36.7-5.2,46.4,10.8
			s5.2,36.7-10.8,46.4C1163.1,282.9,1156.8,284.6,1150.5,284.6z M1170,259.9l-2.4-1.1c0,0-3.5-1.5-5.9-2.6c-0.2,0-0.4-0.2-0.7-0.2
			c-0.7,0-1.1,0.2-1.5,0.4c0,0-0.2,0.2-3.3,3.7c-0.2,0.4-0.7,0.7-1.1,0.7h-0.2c-0.2,0-0.7-0.2-0.9-0.4l-1.1-0.4
			c-2.4-1.1-4.8-2.4-6.5-4.1c-0.4-0.4-1.1-0.9-1.5-1.3c-1.5-1.5-3-3.3-4.1-5.4l-0.2-0.4c-0.2-0.2-0.2-0.4-0.4-0.9
			c0-0.4,0-0.9,0.2-1.1c0,0,0.9-1.1,1.5-1.7c0.4-0.4,0.7-1.1,1.1-1.5c0.4-0.7,0.7-1.5,0.4-2.2c-0.2-1.1-2.8-7.2-3.5-8.5
			c-0.4-0.7-0.9-0.9-1.5-1.1h-2.4c-0.4,0-0.9,0.2-1.3,0.2l-0.2,0.2c-0.4,0.2-0.9,0.7-1.3,0.9c-0.4,0.4-0.7,0.9-1.1,1.3
			c-1.5,2-2.4,4.6-2.4,6.9c0,1.7,0.4,3.5,1.1,5.2l0.2,0.7c2,4.1,4.8,8,8.2,11.3l0.9,0.9c0.7,0.7,1.3,1.1,1.7,1.7
			c4.8,3.9,10,6.9,16.1,8.5c0.7,0.2,1.5,0.2,2.2,0.4h2.2c1.1,0,2.4-0.4,3.3-0.9c0.7-0.4,1.1-0.4,1.5-0.9l0.4-0.4
			c0.4-0.4,0.9-0.7,1.3-1.1c0.4-0.4,0.9-0.9,1.1-1.3c0.4-0.9,0.7-2,0.9-3v-1.5C1170.7,260.3,1170.5,260.1,1170,259.9z"/>
	</g>
</g>
<g>
	
		<linearGradient id="SVGID_1_" gradientUnits="userSpaceOnUse" x1="1344.7656" y1="649.9852" x2="1466.3254" y2="649.9852" gradientTransform="matrix(1 0 0 -1 0 902)">
		<stop  offset="0" style="stop-color:#2AABEE"/>
		<stop  offset="1" style="stop-color:#229ED9"/>
	</linearGradient>
	<path class="st23" d="M1405.5,191.2c-33.5,0-60.8,27.2-60.8,60.8l0,0c0,33.5,27.2,60.8,60.8,60.8l0,0c33.5,0,60.8-27.2,60.8-60.8
		l0,0C1466.3,218.5,1439.1,191.2,1405.5,191.2L1405.5,191.2z"/>
	<path class="st19" d="M1406,217.2c-9.6,0-10.9,0-14.7,0.2c-3.8,0.2-6.3,0.8-8.6,1.7c-2.3,0.8-4.4,2.1-6.3,4c-1.9,1.9-3.1,4-4.2,6.3
		c-0.8,2.3-1.5,4.8-1.7,8.6s-0.2,5-0.2,14.7c0,9.6,0,10.9,0.2,14.7s0.8,6.3,1.7,8.6c0.8,2.3,2.1,4.4,4,6.3s4,3.1,6.3,4.2
		c2.3,0.8,4.8,1.5,8.6,1.7c3.8,0.2,5,0.2,14.7,0.2c9.6,0,10.9,0,14.7-0.2c3.8-0.2,6.3-0.8,8.6-1.7c2.3-0.8,4.4-2.1,6.3-4.2
		c1.9-1.9,3.1-4,4.2-6.3c0.8-2.3,1.5-4.8,1.7-8.6c0.2-3.8,0.2-5,0.2-14.7c0-9.6,0-10.9-0.2-14.7s-0.8-6.3-1.7-8.6s-2.1-4.4-4.2-6.3
		c-1.9-1.9-4-3.1-6.3-4c-2.3-0.8-4.8-1.5-8.6-1.7C1416.9,217.4,1415.6,217.2,1406,217.2L1406,217.2z M1402.8,223.7
		c0.8,0,2.1,0,3.1,0c9.4,0,10.5,0,14.3,0.2c3.4,0.2,5.2,0.8,6.5,1.3c1.7,0.6,2.9,1.5,4,2.7c1.3,1.3,2.1,2.5,2.7,4
		c0.4,1.3,1,3.1,1.3,6.5c0.2,3.8,0.2,4.8,0.2,14.3c0,9.4,0,10.5-0.2,14.3c-0.2,3.4-0.8,5.2-1.3,6.5c-0.6,1.7-1.5,2.9-2.7,4
		c-1.3,1.3-2.5,2.1-4,2.7c-1.3,0.4-3.1,1-6.5,1.3c-3.8,0.2-4.8,0.2-14.3,0.2c-9.4,0-10.5,0-14.3-0.2c-3.4-0.2-5.2-0.8-6.5-1.3
		c-1.7-0.6-2.9-1.5-4-2.7c-1.3-1.3-2.1-2.5-2.7-4c-0.4-1.3-1-3.1-1.3-6.5c-0.2-3.8-0.2-4.8-0.2-14.3c0-9.4,0-10.5,0.2-14.3
		c0.2-3.4,0.8-5.2,1.3-6.5c0.6-1.7,1.5-2.9,2.7-4c1.3-1.3,2.5-2.1,4-2.7c1.3-0.4,3.1-1,6.5-1.3
		C1394.9,223.7,1396.3,223.7,1402.8,223.7L1402.8,223.7z M1424.8,229.6c-2.3,0-4.2,1.9-4.2,4.2c0,2.3,1.9,4.2,4.2,4.2
		s4.2-1.9,4.2-4.2C1429.2,231.5,1427.3,229.6,1424.8,229.6L1424.8,229.6z M1406,234.6c-10.1,0-18.2,8.2-18.2,18.2
		c0,10.1,8.2,18.2,18.2,18.2c10.1,0,18.2-8.2,18.2-18.2C1424.2,242.8,1416,234.6,1406,234.6L1406,234.6z M1406,240.9
		c6.5,0,11.7,5.2,11.7,11.7c0,6.5-5.2,11.7-11.7,11.7s-11.7-5.2-11.7-11.7C1394.2,246.1,1399.5,240.9,1406,240.9z"/>
</g>
<g>
	
		<linearGradient id="SVGID_2_" gradientUnits="userSpaceOnUse" x1="1466.1716" y1="772.535" x2="1592.0283" y2="772.535" gradientTransform="matrix(1 0 0 -1 0 902)">
		<stop  offset="0" style="stop-color:#00B2FF"/>
		<stop  offset="1" style="stop-color:#006AFF"/>
	</linearGradient>
	<path class="st24" d="M1529.1,66.5c-34.7,0-62.9,28.2-62.9,62.9l0,0c0,34.7,28.2,62.9,62.9,62.9l0,0c34.7,0,62.9-28.2,62.9-62.9
		l0,0C1592,94.5,1563.8,66.5,1529.1,66.5L1529.1,66.5z"/>
	<path id="path91" class="st25" d="M1492.4,146.4l18-28.4c2.8-4.6,8.9-5.6,13.2-2.4l14.3,10.6c1.3,1.1,3,0.9,4.3,0l19.3-14.8
		c2.6-2,5.9,1.1,4.1,3.9l-18,28.4c-2.8,4.6-8.9,5.6-13.2,2.4l-14.3-10.6c-1.3-1.1-3-0.9-4.3,0l-19.3,14.8
		C1494.2,152,1490.7,149,1492.4,146.4z"/>
</g>
<g>
	
		<linearGradient id="SVGID_3_" gradientUnits="userSpaceOnUse" x1="-183.4753" y1="815.9537" x2="-183.4753" y2="816.9285" gradientTransform="matrix(128 0 0 128 24765 -104375)">
		<stop  offset="0" style="stop-color:#2AABEE"/>
		<stop  offset="1" style="stop-color:#229ED9"/>
	</linearGradient>
	<circle class="st26" cx="1280.2" cy="129.8" r="62.9"/>
	<path class="st19" d="M1245.9,129.2c18.3-8,30.5-13.3,36.6-15.8c17.5-7.2,21-8.4,23.4-8.6c0.4,0,1.7,0.2,2.5,0.6
		c0.6,0.4,0.8,1.3,0.8,1.7c0,0.4,0.2,1.7,0,2.5c-0.8,9.9-5.1,34.1-7.2,45.2c-0.8,4.6-2.5,6.3-4.2,6.5c-3.6,0.4-6.5-2.3-9.9-4.6
		c-5.5-3.6-8.6-5.9-14.1-9.5c-6.1-4-2.1-6.3,1.3-10.1c0.8-1.1,17-15.6,17.3-16.8c0-0.2,0-0.8-0.2-1.1c-0.4-0.4-0.8-0.2-1.3-0.2
		c-0.6,0.2-9.5,5.9-26.5,17.5c-2.5,1.7-4.8,2.5-6.7,2.5c-2.3,0-6.5-1.3-9.7-2.3c-4-1.3-7.2-1.9-6.7-4.2
		C1241.2,131.5,1242.7,130.5,1245.9,129.2z"/>
</g>
</svg>
