<svg width="436" height="337" viewBox="0 0 436 337" fill="none" xmlns="http://www.w3.org/2000/svg">
<path d="M245.397 44.3541V71.9255C245.997 75.7215 245.397 83.3137 237.006 83.3137C225.977 83.3137 189.855 83.3137 178.267 83.3137C172.872 82.7143 168.677 85.7112 168.677 91.705C168.677 99.8565 168.677 108.687 168.677 112.084" stroke="#C4C4C4" stroke-width="2"/>
<path d="M245.567 58.1397C244.967 61.9358 245.567 69.5279 253.958 69.5279C264.987 69.5279 278.763 69.5279 290.351 69.5279C295.745 68.9285 299.941 71.9254 299.941 77.9192C299.941 86.0708 299.941 94.9016 299.941 98.2981V178.015" stroke="#C4C4C4" stroke-width="2" stroke-linecap="round" stroke-dasharray="4 7"/>
<path d="M169.374 160C169.974 163.796 169.374 171.388 160.983 171.388C149.954 171.388 136.178 171.388 124.59 171.388C119.196 170.789 115 173.786 115 179.779C115 187.931 115 196.762 115 200.158V279.876" stroke="#C4C4C4" stroke-width="2" stroke-linecap="round" stroke-dasharray="4 7"/>
<rect x="126.721" width="237.354" height="55.1428" rx="6" fill="#D90182"/>
<rect x="50" y="98.8975" width="237.354" height="55.1428" rx="6" fill="#D90182"/>
<rect x="179.466" y="178.015" width="237.354" height="55.1428" rx="6" fill="#EDEDED" stroke="#C4C4C4" stroke-width="2" stroke-linecap="round" stroke-dasharray="4 8"/>
<rect x="1" y="279.876" width="237.354" height="55.1428" rx="6" fill="#EDEDED" stroke="#C4C4C4" stroke-width="2" stroke-linecap="round" stroke-dasharray="4 8"/>
<rect x="198.646" y="194.199" width="237.354" height="55.1428" rx="6" fill="#FEA729"/>
<path d="M231.639 223.76H225.639V229.82H222.309V223.76H216.339V220.61H222.309V214.52H225.639V220.61H231.639V223.76Z" fill="white"/>
<path d="M159.86 26.5902C159.883 25.9181 160.006 25.3076 160.23 24.7587C160.454 24.1986 160.779 23.7226 161.205 23.3305C161.63 22.9272 162.151 22.6192 162.767 22.4064C163.395 22.1823 164.123 22.0703 164.952 22.0703C165.926 22.0703 166.727 22.1991 167.354 22.4568C167.993 22.7032 168.497 23.0057 168.867 23.3641C169.247 23.7114 169.511 24.0754 169.656 24.4563C169.813 24.8259 169.903 25.1396 169.925 25.3972C169.936 25.5316 169.891 25.6436 169.791 25.7332C169.701 25.8116 169.595 25.8509 169.471 25.8509H168.11C167.987 25.8509 167.886 25.8228 167.808 25.7668C167.741 25.6996 167.69 25.6324 167.657 25.5652C167.634 25.5204 167.573 25.4252 167.472 25.2796C167.382 25.1227 167.231 24.9659 167.018 24.8091C166.817 24.6411 166.548 24.4955 166.212 24.3722C165.876 24.2378 165.456 24.1706 164.952 24.1706C164.111 24.1706 163.439 24.4002 162.935 24.8595C162.431 25.3076 162.162 25.9125 162.129 26.6742C162.106 27.0998 162.095 27.5591 162.095 28.052C162.095 28.5336 162.106 28.9873 162.129 29.413C162.162 30.3427 162.431 31.0204 162.935 31.446C163.439 31.8605 164.111 32.0677 164.952 32.0677C165.366 32.0677 165.747 32.0229 166.094 31.9333C166.441 31.8437 166.738 31.6981 166.985 31.4964C167.242 31.2948 167.438 31.0316 167.573 30.7067C167.718 30.3707 167.791 29.9618 167.791 29.4802V29.3457H165.741C165.618 29.3457 165.512 29.3009 165.422 29.2113C165.332 29.1217 165.288 29.0153 165.288 28.8921V27.6991C165.288 27.5759 165.332 27.4695 165.422 27.3799C165.512 27.2903 165.618 27.2454 165.741 27.2454H169.606C169.729 27.2454 169.835 27.2903 169.925 27.3799C170.015 27.4695 170.059 27.5759 170.059 27.6991V29.5474C170.059 30.2195 169.953 30.8412 169.74 31.4124C169.527 31.9725 169.208 32.4598 168.783 32.8742C168.357 33.2775 167.825 33.5967 167.186 33.832C166.548 34.056 165.803 34.168 164.952 34.168C164.1 34.168 163.361 34.056 162.734 33.832C162.106 33.6079 161.585 33.2943 161.171 32.891C160.757 32.4878 160.437 32.0061 160.213 31.446C160 30.8748 159.883 30.2531 159.86 29.581C159.849 29.3681 159.838 29.1329 159.827 28.8753C159.827 28.6176 159.827 28.3544 159.827 28.0856C159.827 27.8167 159.827 27.5535 159.827 27.2959C159.838 27.0382 159.849 26.803 159.86 26.5902ZM172.025 27.4135C172.07 27.1782 172.171 26.9262 172.328 26.6574C172.496 26.3885 172.726 26.1365 173.017 25.9013C173.319 25.666 173.683 25.4756 174.109 25.33C174.546 25.1732 175.05 25.0947 175.621 25.0947C176.192 25.0947 176.708 25.1732 177.167 25.33C177.626 25.4756 178.018 25.694 178.343 25.9853C178.679 26.2765 178.937 26.6462 179.116 27.0942C179.295 27.5311 179.385 28.0352 179.385 28.6064V33.5463C179.385 33.6696 179.34 33.776 179.251 33.8656C179.161 33.9552 179.054 34 178.931 34H177.654C177.531 34 177.425 33.9552 177.335 33.8656C177.245 33.776 177.201 33.6696 177.201 33.5463V32.9919C176.965 33.3167 176.624 33.5967 176.176 33.832C175.739 34.056 175.179 34.168 174.495 34.168C174.014 34.168 173.583 34.1064 173.202 33.9832C172.821 33.8488 172.502 33.664 172.244 33.4287C171.986 33.1935 171.785 32.919 171.639 32.6054C171.505 32.2806 171.437 31.9277 171.437 31.5469C171.437 30.7739 171.712 30.1691 172.261 29.7322C172.81 29.2953 173.543 28.9985 174.462 28.8417L177.201 28.3712C177.201 27.9119 177.049 27.5871 176.747 27.3967C176.445 27.2062 176.069 27.111 175.621 27.111C175.341 27.111 175.123 27.1502 174.966 27.2286C174.809 27.3071 174.658 27.4135 174.512 27.5479C174.411 27.6375 174.316 27.6991 174.227 27.7327C174.148 27.7663 174.059 27.7831 173.958 27.7831H172.395C172.283 27.7831 172.188 27.7495 172.11 27.6823C172.031 27.6151 172.003 27.5255 172.025 27.4135ZM174.831 32.1517C175.212 32.1517 175.548 32.1013 175.84 32.0005C176.142 31.8885 176.394 31.7429 176.596 31.5637C176.797 31.3844 176.949 31.1828 177.049 30.9588C177.15 30.7347 177.201 30.5051 177.201 30.2699V30.1019L174.916 30.5051C174.456 30.5835 174.126 30.7011 173.924 30.858C173.723 31.0036 173.622 31.2052 173.622 31.4628C173.622 31.6981 173.739 31.8717 173.975 31.9837C174.221 32.0957 174.507 32.1517 174.831 32.1517ZM184.499 30.8412C184.499 31.1884 184.589 31.4684 184.768 31.6813C184.959 31.8829 185.306 31.9837 185.81 31.9837H186.835C186.958 31.9837 187.064 32.0285 187.154 32.1181C187.244 32.2077 187.288 32.3142 187.288 32.4374V33.5463C187.288 33.6696 187.244 33.776 187.154 33.8656C187.064 33.9552 186.958 34 186.835 34H185.591C184.538 34 183.726 33.748 183.155 33.2439C182.595 32.7286 182.315 31.9445 182.315 30.8916V27.2791H181.206C181.083 27.2791 180.976 27.2342 180.887 27.1446C180.797 27.055 180.752 26.9486 180.752 26.8254V25.7164C180.752 25.5932 180.797 25.4868 180.887 25.3972C180.976 25.3076 181.083 25.2628 181.206 25.2628H182.315V22.524C182.315 22.4008 182.36 22.2944 182.449 22.2047C182.539 22.1151 182.645 22.0703 182.769 22.0703H184.046C184.169 22.0703 184.275 22.1151 184.365 22.2047C184.454 22.2944 184.499 22.4008 184.499 22.524V25.2628H186.667C186.79 25.2628 186.896 25.3076 186.986 25.3972C187.076 25.4868 187.12 25.5932 187.12 25.7164V26.8254C187.12 26.9486 187.076 27.055 186.986 27.1446C186.896 27.2342 186.79 27.2791 186.667 27.2791H184.499V30.8412ZM191.127 33.5463C191.127 33.6696 191.082 33.776 190.993 33.8656C190.903 33.9552 190.797 34 190.673 34H189.396C189.273 34 189.167 33.9552 189.077 33.8656C188.988 33.776 188.943 33.6696 188.943 33.5463V25.7164C188.943 25.5932 188.988 25.4868 189.077 25.3972C189.167 25.3076 189.273 25.2628 189.396 25.2628H190.673C190.797 25.2628 190.903 25.3076 190.993 25.3972C191.082 25.4868 191.127 25.5932 191.127 25.7164V33.5463ZM190.757 22.0703C190.881 22.0703 190.987 22.1151 191.077 22.2047C191.166 22.2944 191.211 22.4008 191.211 22.524V23.8346C191.211 23.9578 191.166 24.0642 191.077 24.1538C190.987 24.2434 190.881 24.2882 190.757 24.2882H189.312C189.189 24.2882 189.083 24.2434 188.993 24.1538C188.904 24.0642 188.859 23.9578 188.859 23.8346V22.524C188.859 22.4008 188.904 22.2944 188.993 22.2047C189.083 22.1151 189.189 22.0703 189.312 22.0703H190.757ZM195.623 33.5463C195.623 33.6696 195.578 33.776 195.489 33.8656C195.399 33.9552 195.293 34 195.169 34H193.892C193.769 34 193.663 33.9552 193.573 33.8656C193.483 33.776 193.439 33.6696 193.439 33.5463V22.524C193.439 22.4008 193.483 22.2944 193.573 22.2047C193.663 22.1151 193.769 22.0703 193.892 22.0703H195.169C195.293 22.0703 195.399 22.1151 195.489 22.2047C195.578 22.2944 195.623 22.4008 195.623 22.524V33.5463ZM206.134 33.5463C206.134 33.6696 206.089 33.776 206 33.8656C205.91 33.9552 205.804 34 205.68 34H204.404C204.28 34 204.174 33.9552 204.084 33.8656C203.995 33.776 203.95 33.6696 203.95 33.5463V29.2785C203.95 28.6064 203.793 28.0688 203.479 27.6655C203.166 27.2623 202.684 27.0606 202.034 27.0606C201.441 27.0606 200.97 27.2623 200.623 27.6655C200.287 28.0688 200.119 28.6064 200.119 29.2785V33.5463C200.119 33.6696 200.074 33.776 199.984 33.8656C199.895 33.9552 199.788 34 199.665 34H198.388C198.265 34 198.159 33.9552 198.069 33.8656C197.979 33.776 197.935 33.6696 197.935 33.5463V22.524C197.935 22.4008 197.979 22.2944 198.069 22.2047C198.159 22.1151 198.265 22.0703 198.388 22.0703H199.665C199.788 22.0703 199.895 22.1151 199.984 22.2047C200.074 22.2944 200.119 22.4008 200.119 22.524V26.1029C200.41 25.8116 200.752 25.5708 201.144 25.3804C201.536 25.19 202.001 25.0947 202.538 25.0947C203.222 25.0947 203.793 25.2012 204.252 25.414C204.712 25.6268 205.081 25.9125 205.361 26.2709C205.641 26.6294 205.837 27.0494 205.949 27.5311C206.073 28.0016 206.134 28.5 206.134 29.0265V33.5463ZM212.218 25.0947C212.834 25.0947 213.389 25.19 213.882 25.3804C214.386 25.5708 214.817 25.8341 215.175 26.1701C215.545 26.5061 215.836 26.8982 216.049 27.3463C216.273 27.7943 216.402 28.276 216.436 28.7913C216.447 28.8921 216.452 29.0209 216.452 29.1777C216.452 29.3345 216.452 29.4914 216.452 29.6482C216.452 29.805 216.452 29.9618 216.452 30.1187C216.452 30.2643 216.447 30.3875 216.436 30.4883C216.391 31.0036 216.262 31.4852 216.049 31.9333C215.836 32.3814 215.545 32.7734 215.175 33.1095C214.817 33.4343 214.386 33.692 213.882 33.8824C213.389 34.0728 212.834 34.168 212.218 34.168C211.602 34.168 211.042 34.0728 210.538 33.8824C210.045 33.692 209.614 33.4343 209.244 33.1095C208.886 32.7734 208.6 32.3814 208.387 31.9333C208.174 31.4852 208.046 31.0036 208.001 30.4883C207.99 30.3875 207.978 30.2643 207.967 30.1187C207.967 29.9618 207.967 29.805 207.967 29.6482C207.967 29.4914 207.967 29.3345 207.967 29.1777C207.978 29.0209 207.99 28.8921 208.001 28.7913C208.034 28.276 208.158 27.7943 208.37 27.3463C208.594 26.8982 208.886 26.5061 209.244 26.1701C209.614 25.8341 210.045 25.5708 210.538 25.3804C211.042 25.19 211.602 25.0947 212.218 25.0947ZM214.251 28.8753C214.218 28.528 214.134 28.2424 213.999 28.0184C213.876 27.7831 213.719 27.5983 213.529 27.4639C213.338 27.3295 213.131 27.2398 212.907 27.195C212.683 27.139 212.453 27.111 212.218 27.111C211.983 27.111 211.753 27.139 211.529 27.195C211.305 27.2398 211.098 27.3295 210.908 27.4639C210.717 27.5983 210.555 27.7831 210.42 28.0184C210.297 28.2424 210.219 28.528 210.185 28.8753C210.174 28.9649 210.163 29.0769 210.152 29.2113C210.152 29.3457 210.152 29.4858 210.152 29.6314C210.152 29.777 210.152 29.9226 210.152 30.0682C210.163 30.2027 210.174 30.3091 210.185 30.3875C210.219 30.7347 210.297 31.026 210.42 31.2612C210.555 31.4852 210.717 31.6645 210.908 31.7989C211.098 31.9333 211.305 32.0285 211.529 32.0845C211.753 32.1293 211.983 32.1517 212.218 32.1517C212.453 32.1517 212.683 32.1293 212.907 32.0845C213.131 32.0285 213.338 31.9333 213.529 31.7989C213.719 31.6645 213.876 31.4852 213.999 31.2612C214.134 31.026 214.218 30.7347 214.251 30.3875C214.262 30.3091 214.268 30.2027 214.268 30.0682C214.268 29.9226 214.268 29.777 214.268 29.6314C214.268 29.4858 214.268 29.3457 214.268 29.2113C214.268 29.0769 214.262 28.9649 214.251 28.8753ZM222.539 29.9674C222.416 29.9674 222.31 29.9226 222.22 29.833C222.13 29.7434 222.086 29.637 222.086 29.5138V28.4048C222.086 28.2816 222.13 28.1752 222.22 28.0856C222.31 27.996 222.416 27.9511 222.539 27.9511H227.664C227.787 27.9511 227.894 27.996 227.983 28.0856C228.073 28.1752 228.118 28.2816 228.118 28.4048V29.5138C228.118 29.637 228.073 29.7434 227.983 29.833C227.894 29.9226 227.787 29.9674 227.664 29.9674H222.539ZM234.77 34C234.646 34 234.54 33.9552 234.45 33.8656C234.361 33.776 234.316 33.6696 234.316 33.5463V22.692C234.316 22.5688 234.361 22.4624 234.45 22.3728C234.54 22.2832 234.646 22.2383 234.77 22.2383H239.726C240.443 22.2383 241.042 22.3504 241.524 22.5744C242.006 22.7872 242.392 23.0617 242.684 23.3977C242.975 23.7226 243.182 24.081 243.305 24.4731C243.44 24.8539 243.507 25.2124 243.507 25.5484C243.507 25.8845 243.462 26.1869 243.372 26.4557C243.283 26.7134 243.171 26.9374 243.036 27.1278C242.913 27.3071 242.784 27.4583 242.65 27.5815C242.527 27.7047 242.426 27.7887 242.347 27.8335C242.695 28.0688 243.014 28.4048 243.305 28.8417C243.596 29.2673 243.742 29.8106 243.742 30.4715C243.742 30.8972 243.664 31.3228 243.507 31.7485C243.35 32.1629 243.12 32.5382 242.818 32.8742C242.515 33.2103 242.135 33.4847 241.675 33.6976C241.227 33.8992 240.706 34 240.113 34H234.77ZM241.238 25.6324C241.238 25.2068 241.104 24.8875 240.835 24.6747C240.566 24.4507 240.141 24.3386 239.558 24.3386H236.584V26.9262H239.558C240.141 26.9262 240.566 26.8198 240.835 26.607C241.104 26.3829 241.238 26.0581 241.238 25.6324ZM236.584 31.8997H239.693C240.309 31.8997 240.757 31.7709 241.037 31.5133C241.328 31.2444 241.474 30.8972 241.474 30.4715C241.474 30.0458 241.323 29.6986 241.02 29.4298C240.729 29.1609 240.286 29.0265 239.693 29.0265H236.584V31.8997ZM249.531 25.0947C250.147 25.0947 250.702 25.19 251.195 25.3804C251.699 25.5708 252.13 25.8341 252.488 26.1701C252.858 26.5061 253.149 26.8982 253.362 27.3463C253.586 27.7943 253.715 28.276 253.749 28.7913C253.76 28.8921 253.765 29.0209 253.765 29.1777C253.765 29.3345 253.765 29.4914 253.765 29.6482C253.765 29.805 253.765 29.9618 253.765 30.1187C253.765 30.2643 253.76 30.3875 253.749 30.4883C253.704 31.0036 253.575 31.4852 253.362 31.9333C253.149 32.3814 252.858 32.7734 252.488 33.1095C252.13 33.4343 251.699 33.692 251.195 33.8824C250.702 34.0728 250.147 34.168 249.531 34.168C248.915 34.168 248.355 34.0728 247.851 33.8824C247.358 33.692 246.927 33.4343 246.557 33.1095C246.199 32.7734 245.913 32.3814 245.7 31.9333C245.487 31.4852 245.359 31.0036 245.314 30.4883C245.303 30.3875 245.291 30.2643 245.28 30.1187C245.28 29.9618 245.28 29.805 245.28 29.6482C245.28 29.4914 245.28 29.3345 245.28 29.1777C245.291 29.0209 245.303 28.8921 245.314 28.7913C245.347 28.276 245.471 27.7943 245.684 27.3463C245.908 26.8982 246.199 26.5061 246.557 26.1701C246.927 25.8341 247.358 25.5708 247.851 25.3804C248.355 25.19 248.915 25.0947 249.531 25.0947ZM251.564 28.8753C251.531 28.528 251.447 28.2424 251.312 28.0184C251.189 27.7831 251.032 27.5983 250.842 27.4639C250.651 27.3295 250.444 27.2398 250.22 27.195C249.996 27.139 249.766 27.111 249.531 27.111C249.296 27.111 249.066 27.139 248.842 27.195C248.618 27.2398 248.411 27.3295 248.221 27.4639C248.03 27.5983 247.868 27.7831 247.733 28.0184C247.61 28.2424 247.532 28.528 247.498 28.8753C247.487 28.9649 247.476 29.0769 247.465 29.2113C247.465 29.3457 247.465 29.4858 247.465 29.6314C247.465 29.777 247.465 29.9226 247.465 30.0682C247.476 30.2027 247.487 30.3091 247.498 30.3875C247.532 30.7347 247.61 31.026 247.733 31.2612C247.868 31.4852 248.03 31.6645 248.221 31.7989C248.411 31.9333 248.618 32.0285 248.842 32.0845C249.066 32.1293 249.296 32.1517 249.531 32.1517C249.766 32.1517 249.996 32.1293 250.22 32.0845C250.444 32.0285 250.651 31.9333 250.842 31.7989C251.032 31.6645 251.189 31.4852 251.312 31.2612C251.447 31.026 251.531 30.7347 251.564 30.3875C251.576 30.3091 251.581 30.2027 251.581 30.0682C251.581 29.9226 251.581 29.777 251.581 29.6314C251.581 29.4858 251.581 29.3457 251.581 29.2113C251.581 29.0769 251.576 28.9649 251.564 28.8753ZM255.676 27.4135C255.721 27.1782 255.822 26.9262 255.979 26.6574C256.147 26.3885 256.376 26.1365 256.668 25.9013C256.97 25.666 257.334 25.4756 257.76 25.33C258.197 25.1732 258.701 25.0947 259.272 25.0947C259.843 25.0947 260.359 25.1732 260.818 25.33C261.277 25.4756 261.669 25.694 261.994 25.9853C262.33 26.2765 262.588 26.6462 262.767 27.0942C262.946 27.5311 263.036 28.0352 263.036 28.6064V33.5463C263.036 33.6696 262.991 33.776 262.901 33.8656C262.812 33.9552 262.705 34 262.582 34H261.305C261.182 34 261.075 33.9552 260.986 33.8656C260.896 33.776 260.851 33.6696 260.851 33.5463V32.9919C260.616 33.3167 260.275 33.5967 259.827 33.832C259.39 34.056 258.83 34.168 258.146 34.168C257.665 34.168 257.233 34.1064 256.852 33.9832C256.472 33.8488 256.152 33.664 255.895 33.4287C255.637 33.1935 255.435 32.919 255.29 32.6054C255.155 32.2806 255.088 31.9277 255.088 31.5469C255.088 30.7739 255.363 30.1691 255.912 29.7322C256.46 29.2953 257.194 28.9985 258.113 28.8417L260.851 28.3712C260.851 27.9119 260.7 27.5871 260.398 27.3967C260.095 27.2062 259.72 27.111 259.272 27.111C258.992 27.111 258.774 27.1502 258.617 27.2286C258.46 27.3071 258.309 27.4135 258.163 27.5479C258.062 27.6375 257.967 27.6991 257.877 27.7327C257.799 27.7663 257.709 27.7831 257.609 27.7831H256.046C255.934 27.7831 255.839 27.7495 255.76 27.6823C255.682 27.6151 255.654 27.5255 255.676 27.4135ZM258.482 32.1517C258.863 32.1517 259.199 32.1013 259.49 32.0005C259.793 31.8885 260.045 31.7429 260.247 31.5637C260.448 31.3844 260.599 31.1828 260.7 30.9588C260.801 30.7347 260.851 30.5051 260.851 30.2699V30.1019L258.566 30.5051C258.107 30.5835 257.777 30.7011 257.575 30.858C257.373 31.0036 257.273 31.2052 257.273 31.4628C257.273 31.6981 257.39 31.8717 257.625 31.9837C257.872 32.0957 258.157 32.1517 258.482 32.1517ZM270.03 31.4964C270.03 31.3732 269.991 31.2724 269.913 31.194C269.834 31.1156 269.694 31.0428 269.493 30.9756C269.302 30.9084 269.045 30.8412 268.72 30.7739C268.395 30.7067 267.981 30.6171 267.476 30.5051C266.984 30.3931 266.575 30.2531 266.25 30.085C265.925 29.917 265.662 29.721 265.46 29.497C265.27 29.2729 265.135 29.0209 265.057 28.7409C264.978 28.4496 264.939 28.136 264.939 27.7999C264.939 27.4639 265.018 27.1334 265.175 26.8086C265.331 26.4837 265.555 26.1981 265.847 25.9517C266.149 25.694 266.513 25.4868 266.939 25.33C267.364 25.1732 267.852 25.0947 268.401 25.0947C268.949 25.0947 269.437 25.1564 269.862 25.2796C270.299 25.4028 270.669 25.5652 270.971 25.7668C271.274 25.9685 271.509 26.2037 271.677 26.4725C271.845 26.7302 271.94 26.9934 271.963 27.2623C271.974 27.3855 271.929 27.4919 271.828 27.5815C271.739 27.6711 271.632 27.7159 271.509 27.7159H270.215C270.047 27.7159 269.918 27.6879 269.829 27.6319C269.75 27.5647 269.661 27.4919 269.56 27.4135C269.459 27.3351 269.325 27.2679 269.157 27.2118C268.989 27.1446 268.737 27.111 268.401 27.111C268.065 27.111 267.768 27.1614 267.51 27.2623C267.252 27.3631 267.124 27.5423 267.124 27.7999C267.124 27.9231 267.152 28.0296 267.208 28.1192C267.275 28.1976 267.392 28.2704 267.56 28.3376C267.74 28.4048 267.981 28.4776 268.283 28.556C268.597 28.6232 269 28.7073 269.493 28.8081C270.49 29.0209 271.19 29.3569 271.593 29.8162C272.007 30.2643 272.215 30.8244 272.215 31.4964C272.215 31.8325 272.131 32.1629 271.963 32.4878C271.795 32.8014 271.548 33.0871 271.223 33.3447C270.91 33.5911 270.518 33.7928 270.047 33.9496C269.588 34.0952 269.067 34.168 268.485 34.168C267.891 34.168 267.364 34.1008 266.905 33.9664C266.457 33.8208 266.076 33.6359 265.763 33.4119C265.449 33.1879 265.208 32.9359 265.04 32.6558C264.872 32.3758 264.782 32.1013 264.771 31.8325C264.76 31.7093 264.799 31.6029 264.889 31.5133C264.99 31.4236 265.102 31.3788 265.225 31.3788H266.519C266.687 31.3788 266.81 31.418 266.888 31.4964C266.978 31.5749 267.073 31.6645 267.174 31.7653C267.286 31.8661 267.437 31.9557 267.628 32.0341C267.818 32.1125 268.104 32.1517 268.485 32.1517C268.653 32.1517 268.826 32.1405 269.005 32.1181C269.185 32.0957 269.347 32.0621 269.493 32.0173C269.65 31.9613 269.778 31.8941 269.879 31.8157C269.98 31.7261 270.03 31.6197 270.03 31.4964ZM281.787 30.6731L284.61 22.6584C284.644 22.5688 284.7 22.4792 284.778 22.3896C284.868 22.2888 284.997 22.2383 285.165 22.2383H286.442C286.565 22.2383 286.671 22.2832 286.761 22.3728C286.851 22.4624 286.895 22.5688 286.895 22.692C286.895 22.7144 286.895 22.7368 286.895 22.7592C286.895 22.7704 286.884 22.804 286.862 22.86L283.098 33.4287C283.031 33.6191 282.952 33.7648 282.863 33.8656C282.773 33.9552 282.639 34 282.46 34H281.115C280.936 34 280.802 33.9552 280.712 33.8656C280.622 33.7648 280.544 33.6191 280.477 33.4287L276.713 22.86C276.691 22.804 276.68 22.7704 276.68 22.7592C276.68 22.7368 276.68 22.7144 276.68 22.692C276.68 22.5688 276.724 22.4624 276.814 22.3728C276.904 22.2832 277.01 22.2383 277.133 22.2383H278.41C278.578 22.2383 278.701 22.2888 278.78 22.3896C278.869 22.4792 278.931 22.5688 278.965 22.6584L281.787 30.6731ZM290.711 33.5463C290.711 33.6696 290.666 33.776 290.576 33.8656C290.487 33.9552 290.38 34 290.257 34H288.98C288.857 34 288.75 33.9552 288.661 33.8656C288.571 33.776 288.526 33.6696 288.526 33.5463V25.7164C288.526 25.5932 288.571 25.4868 288.661 25.3972C288.75 25.3076 288.857 25.2628 288.98 25.2628H290.257C290.38 25.2628 290.487 25.3076 290.576 25.3972C290.666 25.4868 290.711 25.5932 290.711 25.7164V33.5463ZM290.341 22.0703C290.464 22.0703 290.571 22.1151 290.66 22.2047C290.75 22.2944 290.795 22.4008 290.795 22.524V23.8346C290.795 23.9578 290.75 24.0642 290.66 24.1538C290.571 24.2434 290.464 24.2882 290.341 24.2882H288.896C288.773 24.2882 288.666 24.2434 288.577 24.1538C288.487 24.0642 288.442 23.9578 288.442 23.8346V22.524C288.442 22.4008 288.487 22.2944 288.577 22.2047C288.666 22.1151 288.773 22.0703 288.896 22.0703H290.341ZM301.222 33.5463C301.222 33.6696 301.177 33.776 301.087 33.8656C300.998 33.9552 300.891 34 300.768 34H299.491C299.368 34 299.261 33.9552 299.172 33.8656C299.082 33.776 299.037 33.6696 299.037 33.5463V29.2785C299.037 28.6064 298.881 28.0688 298.567 27.6655C298.253 27.2623 297.772 27.0606 297.122 27.0606C296.528 27.0606 296.058 27.2623 295.711 27.6655C295.375 28.0688 295.207 28.6064 295.207 29.2785V33.5463C295.207 33.6696 295.162 33.776 295.072 33.8656C294.982 33.9552 294.876 34 294.753 34H293.476C293.353 34 293.246 33.9552 293.157 33.8656C293.067 33.776 293.022 33.6696 293.022 33.5463V25.7164C293.022 25.5932 293.067 25.4868 293.157 25.3972C293.246 25.3076 293.353 25.2628 293.476 25.2628H294.753C294.876 25.2628 294.982 25.3076 295.072 25.3972C295.162 25.4868 295.207 25.5932 295.207 25.7164V26.1029C295.498 25.8116 295.839 25.5708 296.231 25.3804C296.624 25.19 297.088 25.0947 297.626 25.0947C298.309 25.0947 298.881 25.2012 299.34 25.414C299.799 25.6268 300.169 25.9125 300.449 26.2709C300.729 26.6294 300.925 27.0494 301.037 27.5311C301.16 28.0016 301.222 28.5 301.222 29.0265V33.5463ZM306.819 25.0947C307.166 25.0947 307.474 25.1284 307.743 25.1956C308.023 25.2628 308.264 25.3468 308.465 25.4476C308.678 25.5484 308.857 25.6604 309.003 25.7836C309.148 25.8957 309.266 26.0021 309.356 26.1029V22.524C309.356 22.4008 309.4 22.2944 309.49 22.2047C309.58 22.1151 309.686 22.0703 309.809 22.0703H311.086C311.21 22.0703 311.316 22.1151 311.406 22.2047C311.495 22.2944 311.54 22.4008 311.54 22.524V33.5463C311.54 33.6696 311.495 33.776 311.406 33.8656C311.316 33.9552 311.21 34 311.086 34H309.809C309.686 34 309.58 33.9552 309.49 33.8656C309.4 33.776 309.356 33.6696 309.356 33.5463V33.1599C309.266 33.2607 309.148 33.3727 309.003 33.4959C308.857 33.6079 308.678 33.7144 308.465 33.8152C308.264 33.916 308.023 34 307.743 34.0672C307.474 34.1344 307.166 34.168 306.819 34.168C306.258 34.168 305.749 34.0616 305.29 33.8488C304.841 33.6247 304.455 33.3335 304.13 32.9751C303.817 32.6054 303.564 32.1853 303.374 31.7149C303.195 31.2332 303.094 30.7347 303.072 30.2195C303.06 30.0514 303.055 29.8554 303.055 29.6314C303.055 29.4074 303.06 29.2113 303.072 29.0433C303.094 28.528 303.195 28.0352 303.374 27.5647C303.564 27.083 303.817 26.663 304.13 26.3045C304.455 25.9349 304.841 25.6436 305.29 25.4308C305.749 25.2068 306.258 25.0947 306.819 25.0947ZM305.256 29.1609C305.222 29.4746 305.222 29.7882 305.256 30.1019C305.323 30.83 305.547 31.3564 305.928 31.6813C306.309 31.9949 306.774 32.1517 307.323 32.1517C307.871 32.1517 308.331 31.9893 308.7 31.6645C309.081 31.3396 309.3 30.8748 309.356 30.2699C309.378 30.1019 309.389 29.889 309.389 29.6314C309.389 29.3737 309.378 29.1609 309.356 28.9929C309.3 28.4104 309.081 27.9511 308.7 27.6151C308.331 27.2791 307.871 27.111 307.323 27.111C306.774 27.111 306.309 27.2735 305.928 27.5983C305.547 27.9119 305.323 28.4328 305.256 29.1609ZM313.861 27.4135C313.906 27.1782 314.007 26.9262 314.164 26.6574C314.332 26.3885 314.561 26.1365 314.852 25.9013C315.155 25.666 315.519 25.4756 315.945 25.33C316.381 25.1732 316.885 25.0947 317.457 25.0947C318.028 25.0947 318.543 25.1732 319.003 25.33C319.462 25.4756 319.854 25.694 320.179 25.9853C320.515 26.2765 320.772 26.6462 320.952 27.0942C321.131 27.5311 321.221 28.0352 321.221 28.6064V33.5463C321.221 33.6696 321.176 33.776 321.086 33.8656C320.996 33.9552 320.89 34 320.767 34H319.49C319.367 34 319.26 33.9552 319.171 33.8656C319.081 33.776 319.036 33.6696 319.036 33.5463V32.9919C318.801 33.3167 318.459 33.5967 318.011 33.832C317.574 34.056 317.014 34.168 316.331 34.168C315.849 34.168 315.418 34.1064 315.037 33.9832C314.656 33.8488 314.337 33.664 314.079 33.4287C313.822 33.1935 313.62 32.919 313.475 32.6054C313.34 32.2806 313.273 31.9277 313.273 31.5469C313.273 30.7739 313.547 30.1691 314.096 29.7322C314.645 29.2953 315.379 28.9985 316.297 28.8417L319.036 28.3712C319.036 27.9119 318.885 27.5871 318.583 27.3967C318.28 27.2062 317.905 27.111 317.457 27.111C317.177 27.111 316.958 27.1502 316.801 27.2286C316.645 27.3071 316.493 27.4135 316.348 27.5479C316.247 27.6375 316.152 27.6991 316.062 27.7327C315.984 27.7663 315.894 27.7831 315.793 27.7831H314.231C314.119 27.7831 314.023 27.7495 313.945 27.6823C313.867 27.6151 313.839 27.5255 313.861 27.4135ZM316.667 32.1517C317.048 32.1517 317.384 32.1013 317.675 32.0005C317.978 31.8885 318.23 31.7429 318.431 31.5637C318.633 31.3844 318.784 31.1828 318.885 30.9588C318.986 30.7347 319.036 30.5051 319.036 30.2699V30.1019L316.751 30.5051C316.292 30.5835 315.961 30.7011 315.76 30.858C315.558 31.0036 315.457 31.2052 315.457 31.4628C315.457 31.6981 315.575 31.8717 315.81 31.9837C316.057 32.0957 316.342 32.1517 316.667 32.1517ZM328.215 31.4964C328.215 31.3732 328.176 31.2724 328.098 31.194C328.019 31.1156 327.879 31.0428 327.677 30.9756C327.487 30.9084 327.229 30.8412 326.905 30.7739C326.58 30.7067 326.165 30.6171 325.661 30.5051C325.168 30.3931 324.759 30.2531 324.435 30.085C324.11 29.917 323.847 29.721 323.645 29.497C323.454 29.2729 323.32 29.0209 323.242 28.7409C323.163 28.4496 323.124 28.136 323.124 27.7999C323.124 27.4639 323.202 27.1334 323.359 26.8086C323.516 26.4837 323.74 26.1981 324.031 25.9517C324.334 25.694 324.698 25.4868 325.124 25.33C325.549 25.1732 326.036 25.0947 326.585 25.0947C327.134 25.0947 327.621 25.1564 328.047 25.2796C328.484 25.4028 328.854 25.5652 329.156 25.7668C329.459 25.9685 329.694 26.2037 329.862 26.4725C330.03 26.7302 330.125 26.9934 330.147 27.2623C330.159 27.3855 330.114 27.4919 330.013 27.5815C329.923 27.6711 329.817 27.7159 329.694 27.7159H328.4C328.232 27.7159 328.103 27.6879 328.014 27.6319C327.935 27.5647 327.846 27.4919 327.745 27.4135C327.644 27.3351 327.509 27.2679 327.341 27.2118C327.173 27.1446 326.921 27.111 326.585 27.111C326.249 27.111 325.952 27.1614 325.695 27.2623C325.437 27.3631 325.308 27.5423 325.308 27.7999C325.308 27.9231 325.336 28.0296 325.392 28.1192C325.46 28.1976 325.577 28.2704 325.745 28.3376C325.924 28.4048 326.165 28.4776 326.468 28.556C326.781 28.6232 327.185 28.7073 327.677 28.8081C328.674 29.0209 329.375 29.3569 329.778 29.8162C330.192 30.2643 330.399 30.8244 330.399 31.4964C330.399 31.8325 330.315 32.1629 330.147 32.4878C329.979 32.8014 329.733 33.0871 329.408 33.3447C329.094 33.5911 328.702 33.7928 328.232 33.9496C327.773 34.0952 327.252 34.168 326.669 34.168C326.076 34.168 325.549 34.1008 325.09 33.9664C324.642 33.8208 324.261 33.6359 323.947 33.4119C323.634 33.1879 323.393 32.9359 323.225 32.6558C323.057 32.3758 322.967 32.1013 322.956 31.8325C322.945 31.7093 322.984 31.6029 323.074 31.5133C323.174 31.4236 323.286 31.3788 323.41 31.3788H324.703C324.871 31.3788 324.995 31.418 325.073 31.4964C325.163 31.5749 325.258 31.6645 325.359 31.7653C325.471 31.8661 325.622 31.9557 325.812 32.0341C326.003 32.1125 326.288 32.1517 326.669 32.1517C326.837 32.1517 327.011 32.1405 327.19 32.1181C327.369 32.0957 327.532 32.0621 327.677 32.0173C327.834 31.9613 327.963 31.8941 328.064 31.8157C328.165 31.7261 328.215 31.6197 328.215 31.4964Z" fill="white"/>
<path d="M276.318 216.238C276.498 216.238 276.632 216.289 276.722 216.39C276.811 216.479 276.89 216.619 276.957 216.81L281.073 227.429C281.085 227.462 281.09 227.502 281.09 227.546C281.09 227.67 281.045 227.776 280.956 227.866C280.866 227.955 280.76 228 280.637 228H279.427C279.203 228 279.046 227.955 278.956 227.866C278.867 227.765 278.805 227.67 278.772 227.58L278.049 225.715H272.739L272.017 227.58C271.983 227.67 271.922 227.765 271.832 227.866C271.743 227.955 271.586 228 271.362 228H270.152C270.029 228 269.922 227.955 269.833 227.866C269.743 227.776 269.698 227.67 269.698 227.546C269.698 227.502 269.704 227.462 269.715 227.429L273.832 216.81C273.899 216.619 273.977 216.479 274.067 216.39C274.156 216.289 274.291 216.238 274.47 216.238H276.318ZM277.242 223.615L275.394 218.826L273.546 223.615H277.242ZM286.185 229.68C286.421 229.68 286.661 229.641 286.908 229.563C287.154 229.495 287.378 229.383 287.58 229.227C287.782 229.07 287.944 228.868 288.067 228.622C288.202 228.386 288.269 228.106 288.269 227.782V227.16C288.179 227.261 288.062 227.373 287.916 227.496C287.77 227.608 287.591 227.714 287.378 227.815C287.177 227.916 286.936 228 286.656 228.067C286.387 228.134 286.079 228.168 285.732 228.168C285.172 228.168 284.662 228.062 284.203 227.849C283.755 227.625 283.368 227.334 283.043 226.975C282.73 226.605 282.478 226.185 282.287 225.715C282.108 225.233 282.007 224.735 281.985 224.219C281.974 224.051 281.968 223.855 281.968 223.631C281.968 223.407 281.974 223.211 281.985 223.043C282.007 222.528 282.108 222.035 282.287 221.565C282.478 221.083 282.73 220.663 283.043 220.305C283.368 219.935 283.755 219.644 284.203 219.431C284.662 219.207 285.172 219.095 285.732 219.095C286.079 219.095 286.387 219.128 286.656 219.196C286.936 219.263 287.177 219.347 287.378 219.448C287.591 219.548 287.77 219.66 287.916 219.784C288.062 219.896 288.179 220.002 288.269 220.103V219.716C288.269 219.593 288.314 219.487 288.403 219.397C288.493 219.308 288.599 219.263 288.723 219.263H290C290.123 219.263 290.229 219.308 290.319 219.397C290.408 219.487 290.453 219.593 290.453 219.716V227.597C290.453 228.952 290.072 229.971 289.311 230.655C288.56 231.349 287.518 231.697 286.185 231.697C285.614 231.697 285.082 231.618 284.589 231.461C284.108 231.316 283.687 231.114 283.329 230.856C282.971 230.61 282.685 230.324 282.472 229.999C282.259 229.686 282.142 229.361 282.119 229.025C282.108 228.902 282.147 228.795 282.237 228.706C282.338 228.616 282.45 228.571 282.573 228.571H283.715C283.872 228.571 284.007 228.622 284.119 228.723C284.231 228.835 284.326 228.935 284.404 229.025C284.55 229.215 284.746 229.372 284.992 229.495C285.25 229.619 285.648 229.68 286.185 229.68ZM284.169 223.161C284.136 223.475 284.136 223.788 284.169 224.102C284.236 224.83 284.46 225.356 284.841 225.681C285.222 225.995 285.687 226.152 286.236 226.152C286.785 226.152 287.244 225.989 287.614 225.664C287.994 225.34 288.213 224.875 288.269 224.27C288.291 224.102 288.303 223.889 288.303 223.631C288.303 223.374 288.291 223.161 288.269 222.993C288.213 222.41 287.994 221.951 287.614 221.615C287.244 221.279 286.785 221.111 286.236 221.111C285.687 221.111 285.222 221.273 284.841 221.598C284.46 221.912 284.236 222.433 284.169 223.161ZM292.337 223.631C292.337 223.004 292.433 222.416 292.623 221.867C292.814 221.307 293.088 220.825 293.446 220.422C293.805 220.008 294.236 219.683 294.74 219.448C295.255 219.212 295.827 219.095 296.454 219.095C297.081 219.095 297.647 219.212 298.151 219.448C298.666 219.672 299.103 219.98 299.462 220.372C299.82 220.753 300.095 221.206 300.285 221.733C300.487 222.248 300.587 222.791 300.587 223.363V224.119C300.587 224.242 300.543 224.348 300.453 224.438C300.363 224.528 300.257 224.572 300.134 224.572H294.522C294.522 224.83 294.572 225.06 294.673 225.261C294.785 225.452 294.931 225.614 295.11 225.748C295.289 225.883 295.496 225.984 295.732 226.051C295.967 226.118 296.208 226.152 296.454 226.152C296.812 226.152 297.104 226.118 297.328 226.051C297.552 225.973 297.737 225.877 297.882 225.765C298.005 225.676 298.106 225.614 298.185 225.58C298.263 225.547 298.369 225.53 298.504 225.53H299.848C299.971 225.53 300.078 225.575 300.167 225.664C300.268 225.754 300.313 225.86 300.302 225.984C300.291 226.141 300.201 226.342 300.033 226.589C299.876 226.835 299.635 227.076 299.31 227.311C298.986 227.546 298.582 227.748 298.101 227.916C297.63 228.084 297.081 228.168 296.454 228.168C295.827 228.168 295.255 228.062 294.74 227.849C294.236 227.625 293.805 227.311 293.446 226.908C293.088 226.505 292.814 226.029 292.623 225.48C292.433 224.92 292.337 224.303 292.337 223.631ZM296.454 221.111C296.129 221.111 295.849 221.161 295.614 221.262C295.39 221.352 295.199 221.475 295.043 221.632C294.886 221.778 294.763 221.946 294.673 222.136C294.595 222.315 294.544 222.489 294.522 222.657H298.319C298.297 222.489 298.252 222.315 298.185 222.136C298.129 221.946 298.028 221.778 297.882 221.632C297.748 221.475 297.563 221.352 297.328 221.262C297.104 221.161 296.812 221.111 296.454 221.111ZM310.622 227.546C310.622 227.67 310.577 227.776 310.488 227.866C310.398 227.955 310.292 228 310.168 228H308.891C308.768 228 308.662 227.955 308.572 227.866C308.483 227.776 308.438 227.67 308.438 227.546V223.279C308.438 222.606 308.281 222.069 307.967 221.666C307.654 221.262 307.172 221.061 306.522 221.061C305.929 221.061 305.458 221.262 305.111 221.666C304.775 222.069 304.607 222.606 304.607 223.279V227.546C304.607 227.67 304.562 227.776 304.472 227.866C304.383 227.955 304.276 228 304.153 228H302.876C302.753 228 302.647 227.955 302.557 227.866C302.467 227.776 302.423 227.67 302.423 227.546V219.716C302.423 219.593 302.467 219.487 302.557 219.397C302.647 219.308 302.753 219.263 302.876 219.263H304.153C304.276 219.263 304.383 219.308 304.472 219.397C304.562 219.487 304.607 219.593 304.607 219.716V220.103C304.898 219.812 305.24 219.571 305.632 219.38C306.024 219.19 306.489 219.095 307.026 219.095C307.71 219.095 308.281 219.201 308.74 219.414C309.199 219.627 309.569 219.912 309.849 220.271C310.129 220.629 310.325 221.049 310.437 221.531C310.56 222.002 310.622 222.5 310.622 223.027V227.546ZM316.219 219.095C316.566 219.095 316.874 219.128 317.143 219.196C317.423 219.263 317.664 219.347 317.865 219.448C318.078 219.548 318.258 219.66 318.403 219.784C318.549 219.896 318.666 220.002 318.756 220.103V216.524C318.756 216.401 318.801 216.294 318.89 216.205C318.98 216.115 319.086 216.07 319.21 216.07H320.487C320.61 216.07 320.716 216.115 320.806 216.205C320.896 216.294 320.94 216.401 320.94 216.524V227.546C320.94 227.67 320.896 227.776 320.806 227.866C320.716 227.955 320.61 228 320.487 228H319.21C319.086 228 318.98 227.955 318.89 227.866C318.801 227.776 318.756 227.67 318.756 227.546V227.16C318.666 227.261 318.549 227.373 318.403 227.496C318.258 227.608 318.078 227.714 317.865 227.815C317.664 227.916 317.423 228 317.143 228.067C316.874 228.134 316.566 228.168 316.219 228.168C315.659 228.168 315.149 228.062 314.69 227.849C314.242 227.625 313.855 227.334 313.53 226.975C313.217 226.605 312.965 226.185 312.774 225.715C312.595 225.233 312.494 224.735 312.472 224.219C312.461 224.051 312.455 223.855 312.455 223.631C312.455 223.407 312.461 223.211 312.472 223.043C312.494 222.528 312.595 222.035 312.774 221.565C312.965 221.083 313.217 220.663 313.53 220.305C313.855 219.935 314.242 219.644 314.69 219.431C315.149 219.207 315.659 219.095 316.219 219.095ZM314.656 223.161C314.623 223.475 314.623 223.788 314.656 224.102C314.723 224.83 314.947 225.356 315.328 225.681C315.709 225.995 316.174 226.152 316.723 226.152C317.272 226.152 317.731 225.989 318.101 225.664C318.482 225.34 318.7 224.875 318.756 224.27C318.778 224.102 318.79 223.889 318.79 223.631C318.79 223.374 318.778 223.161 318.756 222.993C318.7 222.41 318.482 221.951 318.101 221.615C317.731 221.279 317.272 221.111 316.723 221.111C316.174 221.111 315.709 221.273 315.328 221.598C314.947 221.912 314.723 222.433 314.656 223.161ZM323.261 221.413C323.306 221.178 323.407 220.926 323.564 220.657C323.732 220.389 323.962 220.136 324.253 219.901C324.555 219.666 324.919 219.476 325.345 219.33C325.782 219.173 326.286 219.095 326.857 219.095C327.428 219.095 327.944 219.173 328.403 219.33C328.862 219.476 329.254 219.694 329.579 219.985C329.915 220.277 330.173 220.646 330.352 221.094C330.531 221.531 330.621 222.035 330.621 222.606V227.546C330.621 227.67 330.576 227.776 330.486 227.866C330.397 227.955 330.29 228 330.167 228H328.89C328.767 228 328.661 227.955 328.571 227.866C328.481 227.776 328.437 227.67 328.437 227.546V226.992C328.201 227.317 327.86 227.597 327.412 227.832C326.975 228.056 326.415 228.168 325.731 228.168C325.25 228.168 324.818 228.106 324.438 227.983C324.057 227.849 323.737 227.664 323.48 227.429C323.222 227.193 323.021 226.919 322.875 226.605C322.741 226.281 322.673 225.928 322.673 225.547C322.673 224.774 322.948 224.169 323.497 223.732C324.046 223.295 324.779 222.998 325.698 222.842L328.437 222.371C328.437 221.912 328.285 221.587 327.983 221.397C327.68 221.206 327.305 221.111 326.857 221.111C326.577 221.111 326.359 221.15 326.202 221.229C326.045 221.307 325.894 221.413 325.748 221.548C325.647 221.638 325.552 221.699 325.463 221.733C325.384 221.766 325.295 221.783 325.194 221.783H323.631C323.519 221.783 323.424 221.75 323.345 221.682C323.267 221.615 323.239 221.525 323.261 221.413ZM326.067 226.152C326.448 226.152 326.784 226.101 327.076 226.001C327.378 225.889 327.63 225.743 327.832 225.564C328.033 225.384 328.185 225.183 328.285 224.959C328.386 224.735 328.437 224.505 328.437 224.27V224.102L326.151 224.505C325.692 224.584 325.362 224.701 325.16 224.858C324.958 225.004 324.858 225.205 324.858 225.463C324.858 225.698 324.975 225.872 325.21 225.984C325.457 226.096 325.743 226.152 326.067 226.152ZM335.045 220.103C335.314 219.778 335.638 219.532 336.019 219.364C336.4 219.184 336.798 219.095 337.212 219.095C337.918 219.095 338.495 219.229 338.943 219.498C339.391 219.756 339.744 220.097 340.001 220.523C340.147 220.299 340.326 220.097 340.539 219.918C340.752 219.739 340.976 219.588 341.211 219.464C341.458 219.341 341.71 219.252 341.967 219.196C342.225 219.128 342.477 219.095 342.723 219.095C343.362 219.095 343.894 219.201 344.32 219.414C344.745 219.627 345.087 219.912 345.345 220.271C345.613 220.629 345.798 221.049 345.899 221.531C346.011 222.002 346.067 222.5 346.067 223.027V227.546C346.067 227.67 346.022 227.776 345.933 227.866C345.843 227.955 345.737 228 345.613 228H344.336C344.213 228 344.107 227.955 344.017 227.866C343.928 227.776 343.883 227.67 343.883 227.546V223.111C343.883 222.349 343.737 221.817 343.446 221.514C343.155 221.212 342.746 221.061 342.219 221.061C341.771 221.061 341.385 221.206 341.06 221.497C340.746 221.789 340.578 222.298 340.556 223.027V227.546C340.556 227.67 340.511 227.776 340.421 227.866C340.332 227.955 340.225 228 340.102 228H338.825C338.702 228 338.596 227.955 338.506 227.866C338.416 227.776 338.372 227.67 338.372 227.546V223.111C338.372 222.349 338.226 221.817 337.935 221.514C337.643 221.212 337.235 221.061 336.708 221.061C336.249 221.061 335.857 221.217 335.532 221.531C335.207 221.834 335.045 222.36 335.045 223.111V227.546C335.045 227.67 335 227.776 334.91 227.866C334.821 227.955 334.714 228 334.591 228H333.314C333.191 228 333.084 227.955 332.995 227.866C332.905 227.776 332.86 227.67 332.86 227.546V219.716C332.86 219.593 332.905 219.487 332.995 219.397C333.084 219.308 333.191 219.263 333.314 219.263H334.591C334.714 219.263 334.821 219.308 334.91 219.397C335 219.487 335.045 219.593 335.045 219.716V220.103ZM347.864 223.631C347.864 223.004 347.959 222.416 348.15 221.867C348.34 221.307 348.615 220.825 348.973 220.422C349.331 220.008 349.763 219.683 350.267 219.448C350.782 219.212 351.353 219.095 351.981 219.095C352.608 219.095 353.174 219.212 353.678 219.448C354.193 219.672 354.63 219.98 354.988 220.372C355.347 220.753 355.621 221.206 355.812 221.733C356.013 222.248 356.114 222.791 356.114 223.363V224.119C356.114 224.242 356.069 224.348 355.98 224.438C355.89 224.528 355.784 224.572 355.66 224.572H350.048C350.048 224.83 350.099 225.06 350.2 225.261C350.312 225.452 350.457 225.614 350.636 225.748C350.816 225.883 351.023 225.984 351.258 226.051C351.493 226.118 351.734 226.152 351.981 226.152C352.339 226.152 352.63 226.118 352.854 226.051C353.078 225.973 353.263 225.877 353.409 225.765C353.532 225.676 353.633 225.614 353.711 225.58C353.79 225.547 353.896 225.53 354.03 225.53H355.375C355.498 225.53 355.604 225.575 355.694 225.664C355.795 225.754 355.84 225.86 355.828 225.984C355.817 226.141 355.728 226.342 355.559 226.589C355.403 226.835 355.162 227.076 354.837 227.311C354.512 227.546 354.109 227.748 353.627 227.916C353.157 228.084 352.608 228.168 351.981 228.168C351.353 228.168 350.782 228.062 350.267 227.849C349.763 227.625 349.331 227.311 348.973 226.908C348.615 226.505 348.34 226.029 348.15 225.48C347.959 224.92 347.864 224.303 347.864 223.631ZM351.981 221.111C351.656 221.111 351.376 221.161 351.14 221.262C350.916 221.352 350.726 221.475 350.569 221.632C350.412 221.778 350.289 221.946 350.2 222.136C350.121 222.315 350.071 222.489 350.048 222.657H353.846C353.823 222.489 353.778 222.315 353.711 222.136C353.655 221.946 353.554 221.778 353.409 221.632C353.274 221.475 353.09 221.352 352.854 221.262C352.63 221.161 352.339 221.111 351.981 221.111ZM366.149 227.546C366.149 227.67 366.104 227.776 366.014 227.866C365.925 227.955 365.818 228 365.695 228H364.418C364.295 228 364.188 227.955 364.099 227.866C364.009 227.776 363.964 227.67 363.964 227.546V223.279C363.964 222.606 363.808 222.069 363.494 221.666C363.18 221.262 362.699 221.061 362.049 221.061C361.455 221.061 360.985 221.262 360.637 221.666C360.301 222.069 360.133 222.606 360.133 223.279V227.546C360.133 227.67 360.089 227.776 359.999 227.866C359.909 227.955 359.803 228 359.68 228H358.403C358.28 228 358.173 227.955 358.084 227.866C357.994 227.776 357.949 227.67 357.949 227.546V219.716C357.949 219.593 357.994 219.487 358.084 219.397C358.173 219.308 358.28 219.263 358.403 219.263H359.68C359.803 219.263 359.909 219.308 359.999 219.397C360.089 219.487 360.133 219.593 360.133 219.716V220.103C360.425 219.812 360.766 219.571 361.158 219.38C361.55 219.19 362.015 219.095 362.553 219.095C363.236 219.095 363.808 219.201 364.267 219.414C364.726 219.627 365.096 219.912 365.376 220.271C365.656 220.629 365.852 221.049 365.964 221.531C366.087 222.002 366.149 222.5 366.149 223.027V227.546ZM371.243 224.841C371.243 225.188 371.333 225.468 371.512 225.681C371.703 225.883 372.05 225.984 372.554 225.984H373.579C373.702 225.984 373.808 226.029 373.898 226.118C373.988 226.208 374.033 226.314 374.033 226.437V227.546C374.033 227.67 373.988 227.776 373.898 227.866C373.808 227.955 373.702 228 373.579 228H372.335C371.283 228 370.47 227.748 369.899 227.244C369.339 226.729 369.059 225.945 369.059 224.892V221.279H367.95C367.827 221.279 367.72 221.234 367.631 221.145C367.541 221.055 367.496 220.949 367.496 220.825V219.716C367.496 219.593 367.541 219.487 367.631 219.397C367.72 219.308 367.827 219.263 367.95 219.263H369.059V216.524C369.059 216.401 369.104 216.294 369.193 216.205C369.283 216.115 369.389 216.07 369.513 216.07H370.79C370.913 216.07 371.019 216.115 371.109 216.205C371.199 216.294 371.243 216.401 371.243 216.524V219.263H373.411C373.534 219.263 373.64 219.308 373.73 219.397C373.82 219.487 373.864 219.593 373.864 219.716V220.825C373.864 220.949 373.82 221.055 373.73 221.145C373.64 221.234 373.534 221.279 373.411 221.279H371.243V224.841ZM379.534 219.095C380.151 219.095 380.705 219.19 381.198 219.38C381.702 219.571 382.133 219.834 382.492 220.17C382.861 220.506 383.153 220.898 383.365 221.346C383.589 221.794 383.718 222.276 383.752 222.791C383.763 222.892 383.769 223.021 383.769 223.178C383.769 223.335 383.769 223.491 383.769 223.648C383.769 223.805 383.769 223.962 383.769 224.119C383.769 224.264 383.763 224.387 383.752 224.488C383.707 225.004 383.578 225.485 383.365 225.933C383.153 226.381 382.861 226.773 382.492 227.109C382.133 227.434 381.702 227.692 381.198 227.882C380.705 228.073 380.151 228.168 379.534 228.168C378.918 228.168 378.358 228.073 377.854 227.882C377.361 227.692 376.93 227.434 376.56 227.109C376.202 226.773 375.916 226.381 375.704 225.933C375.491 225.485 375.362 225.004 375.317 224.488C375.306 224.387 375.295 224.264 375.283 224.119C375.283 223.962 375.283 223.805 375.283 223.648C375.283 223.491 375.283 223.335 375.283 223.178C375.295 223.021 375.306 222.892 375.317 222.791C375.351 222.276 375.474 221.794 375.687 221.346C375.911 220.898 376.202 220.506 376.56 220.17C376.93 219.834 377.361 219.571 377.854 219.38C378.358 219.19 378.918 219.095 379.534 219.095ZM381.568 222.875C381.534 222.528 381.45 222.242 381.316 222.018C381.192 221.783 381.036 221.598 380.845 221.464C380.655 221.329 380.447 221.24 380.223 221.195C379.999 221.139 379.77 221.111 379.534 221.111C379.299 221.111 379.07 221.139 378.846 221.195C378.622 221.24 378.414 221.329 378.224 221.464C378.033 221.598 377.871 221.783 377.737 222.018C377.613 222.242 377.535 222.528 377.501 222.875C377.49 222.965 377.479 223.077 377.468 223.211C377.468 223.346 377.468 223.486 377.468 223.631C377.468 223.777 377.468 223.923 377.468 224.068C377.479 224.203 377.49 224.309 377.501 224.387C377.535 224.735 377.613 225.026 377.737 225.261C377.871 225.485 378.033 225.664 378.224 225.799C378.414 225.933 378.622 226.029 378.846 226.085C379.07 226.129 379.299 226.152 379.534 226.152C379.77 226.152 379.999 226.129 380.223 226.085C380.447 226.029 380.655 225.933 380.845 225.799C381.036 225.664 381.192 225.485 381.316 225.261C381.45 225.026 381.534 224.735 381.568 224.387C381.579 224.309 381.584 224.203 381.584 224.068C381.584 223.923 381.584 223.777 381.584 223.631C381.584 223.486 381.584 223.346 381.584 223.211C381.584 223.077 381.579 222.965 381.568 222.875Z" fill="white"/>
<path d="M131.736 133C131.613 133 131.507 132.955 131.417 132.866C131.328 132.776 131.283 132.67 131.283 132.546V121.692C131.283 121.569 131.328 121.462 131.417 121.373C131.507 121.283 131.613 121.238 131.736 121.238H133.097C133.221 121.238 133.327 121.283 133.417 121.373C133.506 121.462 133.551 121.569 133.551 121.692V132.546C133.551 132.67 133.506 132.776 133.417 132.866C133.327 132.955 133.221 133 133.097 133H131.736ZM144.221 132.546C144.221 132.67 144.176 132.776 144.086 132.866C143.997 132.955 143.89 133 143.767 133H142.49C142.367 133 142.261 132.955 142.171 132.866C142.081 132.776 142.037 132.67 142.037 132.546V128.279C142.037 127.606 141.88 127.069 141.566 126.666C141.252 126.262 140.771 126.061 140.121 126.061C139.527 126.061 139.057 126.262 138.71 126.666C138.374 127.069 138.206 127.606 138.206 128.279V132.546C138.206 132.67 138.161 132.776 138.071 132.866C137.982 132.955 137.875 133 137.752 133H136.475C136.352 133 136.245 132.955 136.156 132.866C136.066 132.776 136.021 132.67 136.021 132.546V124.716C136.021 124.593 136.066 124.487 136.156 124.397C136.245 124.308 136.352 124.263 136.475 124.263H137.752C137.875 124.263 137.982 124.308 138.071 124.397C138.161 124.487 138.206 124.593 138.206 124.716V125.103C138.497 124.812 138.839 124.571 139.231 124.38C139.623 124.19 140.088 124.095 140.625 124.095C141.308 124.095 141.88 124.201 142.339 124.414C142.798 124.627 143.168 124.912 143.448 125.271C143.728 125.629 143.924 126.049 144.036 126.531C144.159 127.002 144.221 127.5 144.221 128.027V132.546ZM149.316 129.841C149.316 130.188 149.405 130.468 149.584 130.681C149.775 130.883 150.122 130.984 150.626 130.984H151.651C151.774 130.984 151.881 131.029 151.97 131.118C152.06 131.208 152.105 131.314 152.105 131.437V132.546C152.105 132.67 152.06 132.776 151.97 132.866C151.881 132.955 151.774 133 151.651 133H150.408C149.355 133 148.543 132.748 147.971 132.244C147.411 131.729 147.131 130.945 147.131 129.892V126.279H146.022C145.899 126.279 145.793 126.234 145.703 126.145C145.613 126.055 145.569 125.949 145.569 125.825V124.716C145.569 124.593 145.613 124.487 145.703 124.397C145.793 124.308 145.899 124.263 146.022 124.263H147.131V121.524C147.131 121.401 147.176 121.294 147.266 121.205C147.355 121.115 147.462 121.07 147.585 121.07H148.862C148.985 121.07 149.092 121.115 149.181 121.205C149.271 121.294 149.316 121.401 149.316 121.524V124.263H151.483C151.606 124.263 151.713 124.308 151.802 124.397C151.892 124.487 151.937 124.593 151.937 124.716V125.825C151.937 125.949 151.892 126.055 151.802 126.145C151.713 126.234 151.606 126.279 151.483 126.279H149.316V129.841ZM153.322 128.631C153.322 128.004 153.417 127.416 153.608 126.867C153.798 126.307 154.073 125.825 154.431 125.422C154.79 125.008 155.221 124.683 155.725 124.448C156.24 124.212 156.811 124.095 157.439 124.095C158.066 124.095 158.632 124.212 159.136 124.448C159.651 124.672 160.088 124.98 160.446 125.372C160.805 125.753 161.079 126.206 161.27 126.733C161.471 127.248 161.572 127.791 161.572 128.363V129.119C161.572 129.242 161.527 129.348 161.438 129.438C161.348 129.528 161.242 129.572 161.118 129.572H155.506C155.506 129.83 155.557 130.06 155.658 130.261C155.77 130.452 155.915 130.614 156.095 130.748C156.274 130.883 156.481 130.984 156.716 131.051C156.951 131.118 157.192 131.152 157.439 131.152C157.797 131.152 158.088 131.118 158.312 131.051C158.536 130.973 158.721 130.877 158.867 130.765C158.99 130.676 159.091 130.614 159.169 130.58C159.248 130.547 159.354 130.53 159.489 130.53H160.833C160.956 130.53 161.062 130.575 161.152 130.664C161.253 130.754 161.298 130.86 161.286 130.984C161.275 131.141 161.186 131.342 161.018 131.589C160.861 131.835 160.62 132.076 160.295 132.311C159.97 132.546 159.567 132.748 159.085 132.916C158.615 133.084 158.066 133.168 157.439 133.168C156.811 133.168 156.24 133.062 155.725 132.849C155.221 132.625 154.79 132.311 154.431 131.908C154.073 131.505 153.798 131.029 153.608 130.48C153.417 129.92 153.322 129.303 153.322 128.631ZM157.439 126.111C157.114 126.111 156.834 126.161 156.599 126.262C156.375 126.352 156.184 126.475 156.027 126.632C155.871 126.778 155.747 126.946 155.658 127.136C155.579 127.315 155.529 127.489 155.506 127.657H159.304C159.281 127.489 159.237 127.315 159.169 127.136C159.113 126.946 159.013 126.778 158.867 126.632C158.733 126.475 158.548 126.352 158.312 126.262C158.088 126.161 157.797 126.111 157.439 126.111ZM167.49 126.279C166.818 126.279 166.331 126.43 166.028 126.733C165.737 127.024 165.592 127.506 165.592 128.178V132.546C165.592 132.67 165.547 132.776 165.457 132.866C165.368 132.955 165.261 133 165.138 133H163.861C163.738 133 163.631 132.955 163.542 132.866C163.452 132.776 163.407 132.67 163.407 132.546V124.716C163.407 124.593 163.452 124.487 163.542 124.397C163.631 124.308 163.738 124.263 163.861 124.263H165.138C165.261 124.263 165.368 124.308 165.457 124.397C165.547 124.487 165.592 124.593 165.592 124.716V125.103C165.883 124.834 166.191 124.627 166.516 124.481C166.852 124.336 167.289 124.263 167.826 124.263H168.582C168.706 124.263 168.812 124.308 168.902 124.397C168.991 124.487 169.036 124.593 169.036 124.716V125.825C169.036 125.949 168.991 126.055 168.902 126.145C168.812 126.234 168.706 126.279 168.582 126.279H167.49ZM170.299 126.413C170.344 126.178 170.444 125.926 170.601 125.657C170.769 125.389 170.999 125.136 171.29 124.901C171.593 124.666 171.957 124.476 172.382 124.33C172.819 124.173 173.323 124.095 173.895 124.095C174.466 124.095 174.981 124.173 175.44 124.33C175.9 124.476 176.292 124.694 176.617 124.985C176.953 125.277 177.21 125.646 177.389 126.094C177.569 126.531 177.658 127.035 177.658 127.606V132.546C177.658 132.67 177.613 132.776 177.524 132.866C177.434 132.955 177.328 133 177.205 133H175.928C175.804 133 175.698 132.955 175.608 132.866C175.519 132.776 175.474 132.67 175.474 132.546V131.992C175.239 132.317 174.897 132.597 174.449 132.832C174.012 133.056 173.452 133.168 172.769 133.168C172.287 133.168 171.856 133.106 171.475 132.983C171.094 132.849 170.775 132.664 170.517 132.429C170.26 132.193 170.058 131.919 169.912 131.605C169.778 131.281 169.711 130.928 169.711 130.547C169.711 129.774 169.985 129.169 170.534 128.732C171.083 128.295 171.817 127.998 172.735 127.842L175.474 127.371C175.474 126.912 175.323 126.587 175.02 126.397C174.718 126.206 174.343 126.111 173.895 126.111C173.615 126.111 173.396 126.15 173.239 126.229C173.082 126.307 172.931 126.413 172.786 126.548C172.685 126.638 172.59 126.699 172.5 126.733C172.422 126.766 172.332 126.783 172.231 126.783H170.668C170.556 126.783 170.461 126.75 170.383 126.682C170.304 126.615 170.276 126.525 170.299 126.413ZM173.105 131.152C173.486 131.152 173.822 131.101 174.113 131.001C174.415 130.889 174.667 130.743 174.869 130.564C175.071 130.384 175.222 130.183 175.323 129.959C175.424 129.735 175.474 129.505 175.474 129.27V129.102L173.189 129.505C172.73 129.584 172.399 129.701 172.198 129.858C171.996 130.004 171.895 130.205 171.895 130.463C171.895 130.698 172.013 130.872 172.248 130.984C172.494 131.096 172.78 131.152 173.105 131.152ZM181.662 128.043C181.64 128.211 181.628 128.407 181.628 128.631C181.628 128.855 181.64 129.051 181.662 129.219C181.696 129.567 181.774 129.864 181.897 130.11C182.021 130.356 182.172 130.558 182.351 130.715C182.541 130.86 182.749 130.973 182.973 131.051C183.197 131.118 183.426 131.152 183.662 131.152C183.942 131.152 184.177 131.129 184.367 131.085C184.558 131.04 184.72 130.978 184.855 130.9C184.989 130.81 185.101 130.715 185.191 130.614C185.291 130.502 185.387 130.379 185.476 130.244C185.543 130.144 185.622 130.043 185.711 129.942C185.801 129.841 185.907 129.791 186.031 129.791H187.308C187.431 129.791 187.537 129.836 187.627 129.925C187.728 130.015 187.773 130.121 187.761 130.244C187.75 130.48 187.666 130.765 187.509 131.101C187.352 131.426 187.112 131.74 186.787 132.042C186.473 132.345 186.07 132.608 185.577 132.832C185.084 133.045 184.485 133.157 183.779 133.168L183.426 133.941C183.494 133.896 183.578 133.857 183.678 133.823C183.779 133.79 183.891 133.773 184.014 133.773C184.474 133.773 184.799 133.913 184.989 134.193C185.191 134.473 185.291 134.815 185.291 135.218C185.291 135.621 185.151 135.968 184.871 136.26C184.591 136.551 184.177 136.697 183.628 136.697C183.426 136.697 183.225 136.669 183.023 136.613C182.833 136.557 182.67 136.484 182.536 136.394C182.401 136.316 182.312 136.226 182.267 136.125C182.222 136.024 182.245 135.929 182.334 135.84L182.569 135.621C182.659 135.543 182.732 135.504 182.788 135.504C182.844 135.504 182.905 135.52 182.973 135.554C183.04 135.599 183.124 135.644 183.225 135.688C183.326 135.733 183.46 135.756 183.628 135.756C184.054 135.756 184.266 135.576 184.266 135.218C184.266 134.882 184.054 134.714 183.628 134.714C183.538 134.714 183.449 134.731 183.359 134.764C183.281 134.798 183.202 134.826 183.124 134.848C183.057 134.871 182.989 134.882 182.922 134.882C182.855 134.882 182.788 134.848 182.721 134.781L182.452 134.479C182.385 134.389 182.34 134.311 182.317 134.243C182.306 134.187 182.34 134.081 182.418 133.924L182.805 133.084C182.312 132.994 181.869 132.832 181.477 132.597C181.085 132.362 180.744 132.076 180.452 131.74C180.172 131.404 179.948 131.029 179.78 130.614C179.612 130.2 179.511 129.768 179.478 129.32C179.455 129.119 179.444 128.895 179.444 128.648C179.444 128.402 179.455 128.172 179.478 127.959C179.511 127.444 179.635 126.951 179.847 126.481C180.06 126.01 180.346 125.601 180.704 125.254C181.063 124.896 181.488 124.616 181.981 124.414C182.485 124.201 183.045 124.095 183.662 124.095C184.378 124.095 184.995 124.201 185.51 124.414C186.025 124.627 186.445 124.89 186.77 125.204C187.106 125.506 187.352 125.825 187.509 126.161C187.666 126.497 187.75 126.783 187.761 127.018C187.773 127.142 187.728 127.248 187.627 127.338C187.537 127.427 187.431 127.472 187.308 127.472H186.031C185.907 127.472 185.801 127.422 185.711 127.321C185.622 127.22 185.543 127.119 185.476 127.018C185.387 126.884 185.291 126.766 185.191 126.666C185.101 126.553 184.989 126.458 184.855 126.38C184.72 126.29 184.558 126.223 184.367 126.178C184.177 126.133 183.942 126.111 183.662 126.111C183.426 126.111 183.197 126.15 182.973 126.229C182.749 126.296 182.541 126.408 182.351 126.565C182.172 126.71 182.021 126.906 181.897 127.153C181.774 127.399 181.696 127.696 181.662 128.043ZM189.595 126.413C189.64 126.178 189.741 125.926 189.898 125.657C190.066 125.389 190.295 125.136 190.587 124.901C190.889 124.666 191.253 124.476 191.679 124.33C192.116 124.173 192.62 124.095 193.191 124.095C193.762 124.095 194.278 124.173 194.737 124.33C195.196 124.476 195.588 124.694 195.913 124.985C196.249 125.277 196.507 125.646 196.686 126.094C196.865 126.531 196.955 127.035 196.955 127.606V132.546C196.955 132.67 196.91 132.776 196.82 132.866C196.731 132.955 196.624 133 196.501 133H195.224C195.101 133 194.994 132.955 194.905 132.866C194.815 132.776 194.77 132.67 194.77 132.546V131.992C194.535 132.317 194.194 132.597 193.745 132.832C193.309 133.056 192.749 133.168 192.065 133.168C191.584 133.168 191.152 133.106 190.771 132.983C190.391 132.849 190.071 132.664 189.814 132.429C189.556 132.193 189.354 131.919 189.209 131.605C189.074 131.281 189.007 130.928 189.007 130.547C189.007 129.774 189.282 129.169 189.831 128.732C190.379 128.295 191.113 127.998 192.032 127.842L194.77 127.371C194.77 126.912 194.619 126.587 194.317 126.397C194.014 126.206 193.639 126.111 193.191 126.111C192.911 126.111 192.693 126.15 192.536 126.229C192.379 126.307 192.228 126.413 192.082 126.548C191.981 126.638 191.886 126.699 191.796 126.733C191.718 126.766 191.628 126.783 191.528 126.783H189.965C189.853 126.783 189.758 126.75 189.679 126.682C189.601 126.615 189.573 126.525 189.595 126.413ZM192.401 131.152C192.782 131.152 193.118 131.101 193.409 131.001C193.712 130.889 193.964 130.743 194.166 130.564C194.367 130.384 194.518 130.183 194.619 129.959C194.72 129.735 194.77 129.505 194.77 129.27V129.102L192.485 129.505C192.026 129.584 191.696 129.701 191.494 129.858C191.292 130.004 191.192 130.205 191.192 130.463C191.192 130.698 191.309 130.872 191.544 130.984C191.791 131.096 192.076 131.152 192.401 131.152ZM194.216 123.087C193.925 123.087 193.695 123.059 193.527 123.003C193.359 122.935 193.208 122.868 193.073 122.801C192.95 122.734 192.833 122.672 192.721 122.616C192.62 122.549 192.491 122.515 192.334 122.515C192.2 122.515 192.104 122.543 192.048 122.599C191.992 122.644 191.942 122.7 191.897 122.767C191.852 122.823 191.808 122.879 191.763 122.935C191.729 122.98 191.662 123.003 191.561 123.003H190.62C190.519 123.003 190.441 122.975 190.385 122.919C190.329 122.851 190.301 122.773 190.301 122.683C190.301 122.471 190.34 122.252 190.419 122.028C190.497 121.793 190.609 121.58 190.755 121.39C190.911 121.199 191.096 121.042 191.309 120.919C191.533 120.796 191.785 120.734 192.065 120.734C192.345 120.734 192.569 120.768 192.737 120.835C192.917 120.891 193.068 120.953 193.191 121.02C193.325 121.087 193.443 121.154 193.544 121.222C193.656 121.278 193.79 121.306 193.947 121.306C194.082 121.306 194.177 121.283 194.233 121.238C194.289 121.182 194.339 121.126 194.384 121.07C194.429 121.003 194.468 120.947 194.502 120.902C194.546 120.846 194.619 120.818 194.72 120.818H195.661C195.762 120.818 195.84 120.852 195.896 120.919C195.952 120.975 195.98 121.048 195.98 121.138C195.98 121.35 195.941 121.574 195.863 121.81C195.784 122.034 195.667 122.241 195.51 122.431C195.364 122.622 195.179 122.779 194.955 122.902C194.742 123.025 194.496 123.087 194.216 123.087ZM203.042 124.095C203.658 124.095 204.213 124.19 204.705 124.38C205.21 124.571 205.641 124.834 205.999 125.17C206.369 125.506 206.66 125.898 206.873 126.346C207.097 126.794 207.226 127.276 207.259 127.791C207.271 127.892 207.276 128.021 207.276 128.178C207.276 128.335 207.276 128.491 207.276 128.648C207.276 128.805 207.276 128.962 207.276 129.119C207.276 129.264 207.271 129.387 207.259 129.488C207.215 130.004 207.086 130.485 206.873 130.933C206.66 131.381 206.369 131.773 205.999 132.109C205.641 132.434 205.21 132.692 204.705 132.882C204.213 133.073 203.658 133.168 203.042 133.168C202.426 133.168 201.866 133.073 201.362 132.882C200.869 132.692 200.438 132.434 200.068 132.109C199.71 131.773 199.424 131.381 199.211 130.933C198.998 130.485 198.869 130.004 198.825 129.488C198.813 129.387 198.802 129.264 198.791 129.119C198.791 128.962 198.791 128.805 198.791 128.648C198.791 128.491 198.791 128.335 198.791 128.178C198.802 128.021 198.813 127.892 198.825 127.791C198.858 127.276 198.981 126.794 199.194 126.346C199.418 125.898 199.71 125.506 200.068 125.17C200.438 124.834 200.869 124.571 201.362 124.38C201.866 124.19 202.426 124.095 203.042 124.095ZM205.075 127.875C205.042 127.528 204.958 127.242 204.823 127.018C204.7 126.783 204.543 126.598 204.353 126.464C204.162 126.329 203.955 126.24 203.731 126.195C203.507 126.139 203.277 126.111 203.042 126.111C202.807 126.111 202.577 126.139 202.353 126.195C202.129 126.24 201.922 126.329 201.731 126.464C201.541 126.598 201.379 126.783 201.244 127.018C201.121 127.242 201.043 127.528 201.009 127.875C200.998 127.965 200.987 128.077 200.975 128.211C200.975 128.346 200.975 128.486 200.975 128.631C200.975 128.777 200.975 128.923 200.975 129.068C200.987 129.203 200.998 129.309 201.009 129.387C201.043 129.735 201.121 130.026 201.244 130.261C201.379 130.485 201.541 130.664 201.731 130.799C201.922 130.933 202.129 131.029 202.353 131.085C202.577 131.129 202.807 131.152 203.042 131.152C203.277 131.152 203.507 131.129 203.731 131.085C203.955 131.029 204.162 130.933 204.353 130.799C204.543 130.664 204.7 130.485 204.823 130.261C204.958 130.026 205.042 129.735 205.075 129.387C205.086 129.309 205.092 129.203 205.092 129.068C205.092 128.923 205.092 128.777 205.092 128.631C205.092 128.486 205.092 128.346 205.092 128.211C205.092 128.077 205.086 127.965 205.075 127.875Z" fill="white"/>
</svg>
