<?xml version="1.0" encoding="utf-8"?>
<!-- Generator: Adobe Illustrator 24.0.1, SVG Export Plug-In . SVG Version: 6.00 Build 0)  -->
<svg version="1.1" id="Camada_1" xmlns="http://www.w3.org/2000/svg" xmlns:xlink="http://www.w3.org/1999/xlink" x="0px" y="0px"
	 viewBox="0 0 250 330" style="enable-background:new 0 0 250 330;" xml:space="preserve">
<style type="text/css">
	.st0{fill:#1A75BB;}
	.st1{fill:#F8B476;}
	.st2{fill:#263339;}
	.st3{fill:#FFFFFF;}
	.st4{fill:#E0E0E0;}
	.st5{opacity:0.2;fill:#020203;enable-background:new    ;}
	.st6{fill:#ED893E;}
</style>
<g id="freepik--Character--inject-5">
	<path class="st0" d="M173.2,63c-0.6,1.8-1.2,3.3-1.9,4.9c-0.7,1.7-1.3,3.2-2,4.8c-1.4,3.1-2.9,6.2-4.6,9.3
		c-3.3,6.4-7.4,12.4-12.3,17.8c-1.4,1.5-2.9,2.8-4.5,4.1c-1.7,1.3-3.7,2.4-5.7,3.3c-3.7,1.5-7.7,2.3-11.8,2.4
		c-3.7,0.1-7.4-0.3-11.1-1.1c-1.8-0.4-3.5-0.8-5.2-1.4c-1.7-0.6-3.4-1.2-5.1-2c-1.9-0.9-2.7-3.1-1.9-5c0.7-1.5,2.2-2.4,3.8-2.2h0.4
		l2.2,0.2c0.8,0.1,1.5,0.1,2.3,0.2c1.5,0.1,3.1,0.2,4.6,0.2c1.5,0,3-0.1,4.5-0.2c1.5-0.1,2.9-0.3,4.3-0.6c2.6-0.4,5-1.3,7.3-2.6
		c1-0.6,1.9-1.2,2.7-2c0.9-0.9,1.8-1.8,2.6-2.8c1.8-2.3,3.5-4.7,4.9-7.2c1.5-2.6,3-5.3,4.4-8.1c1.3-2.8,2.7-5.7,4-8.6l1.9-4.4
		c0.6-1.4,1.2-3,1.7-4.3v-0.1c1.5-4,5.9-6,9.9-4.5C172.7,54.6,174.7,59,173.2,63z"/>
	<path class="st0" d="M221.6,103.5v-0.6c0-0.4,0-0.9,0-1.3c0-0.8-0.1-1.6-0.1-2.4c-0.1-1.6-0.3-3.2-0.5-4.7c-0.8-6-2-12-3.6-17.9
		c-0.7-2.9-1.5-5.8-2.3-8.7c-0.8-2.9-1.7-5.7-2.6-8.7c0-0.1-0.1-0.2-0.1-0.3c-1.5-3.9-5.9-5.9-9.9-4.4c-3.9,1.5-5.9,5.9-4.4,9.9l0,0
		c1,2.5,1.9,5.2,2.8,7.9c0.9,2.6,1.7,5.4,2.5,8.1c1.6,5.3,2.9,10.7,3.8,16.1c0.2,1.3,0.4,2.6,0.5,3.9c0.1,0.6,0.1,1.3,0.2,1.9
		c0,0.1,0,0.2,0,0.3c-0.6,0.3-1.1,0.6-1.7,0.8c-4.9,1.7-10,2.8-15.2,3.3h-0.1c-3.5,0.3-6.1,3.4-5.8,6.9c0.3,3.5,3.4,6.1,6.9,5.8
		c1.7-0.1,3.1-0.3,4.7-0.5c1.6-0.2,3.1-0.4,4.6-0.7c3.2-0.5,6.4-1.3,9.6-2.4c1.9-0.7,3.7-1.6,5.4-2.7c1.2-0.8,2.2-1.8,3.1-2.9
		c0.6-0.8,1.1-1.6,1.4-2.5c0.4-1,0.7-2.1,0.8-3.2V104L221.6,103.5L221.6,103.5z M208.6,102L208.6,102
		C208.8,101.9,208.8,101.9,208.6,102L208.6,102z"/>
	<path class="st1" d="M112.7,98.8l-8.8-0.4l2.3,9.3c0.3,0,0.5,0,0.8,0c3.6-0.1,6.4-3,6.3-6.6C113.2,100.4,113,99.6,112.7,98.8
		L112.7,98.8z"/>
	<polygon class="st1" points="95.9,103.2 101.7,109.2 106.2,107.7 103.9,98.4 	"/>
	<polygon class="st2" points="111.5,109.8 30.1,63.1 30.5,62.5 112.1,108.9 	"/>
	<path class="st3" d="M200,53.8c-1.2-0.2-2.4-0.4-3.6-0.6c-6.4-1-12.8-1.6-19.3-1.8c-0.8,0-1.6,0-2.4,0c-1.6,0-3.3,0.2-4.6,0.3
		c-3.9,0.3-7.1,3.1-8,6.9c-2.5,10.1-6.6,32.9-5.7,68.2l45.6,2.4c0.4-21.6,2.9-43,7.5-64.1c1.1-4.9-2-9.7-6.9-10.8
		C201.7,54.1,200.8,53.9,200,53.8z"/>
	<path class="st1" d="M196.5,31.2c-1.8,6.1-4.1,17.4-0.1,21.9c-3.5,3-6,5.4-12.9,4.7c-5.3-0.6-7.8-4.5-6.4-6.5
		c7.1-1,7.4-6.2,6.6-11.1L196.5,31.2z"/>
	<path class="st2" d="M182.8,60.8l2,0.2c0.3,0,0.6-0.1,0.8-0.3l2-1.8l-3.1-2.9l-3.8,1.7l1.2,2.4C182.1,60.5,182.4,60.8,182.8,60.8z"
		/>
	<path class="st4" d="M184.5,56.1c0,0,3.5,2.7,3.6,6.2c3.9-1.8,7.4-4.4,10.4-7.6l-2.8-3.5C192.5,53.8,188.6,55.4,184.5,56.1z"/>
	<path class="st4" d="M184.5,56.1c0,0-5,2.1-5.1,5.6c-3.7-1.4-4.4-7.1-4.7-10.2l4.4-1.2C178.9,52.9,180.7,55.2,184.5,56.1z"/>
	<path class="st5" d="M191.2,34.9l-7.6,5.3c0.2,1.2,0.3,2.3,0.3,3.5c2.7-0.1,6.6-2.7,7.1-5.4C191.3,37.2,191.4,36,191.2,34.9z"/>
	<path class="st2" d="M179.8,19.4c0,3.9-1.5,7.1-3.3,7.1c-1.8,0-3.3-3.2-3.3-7.1s1.5-7,3.3-7C178.4,12.4,179.8,15.5,179.8,19.4z"/>
	<path class="st1" d="M178.6,24.7c0.8,2,0.7,4.2-0.2,6.1c-1.2,2.6-3.9,2-5.4-0.2c-1.3-2-2.3-5.8-0.3-7.6
		C174.8,21.1,177.6,22.2,178.6,24.7z"/>
	<path class="st5" d="M178.6,24.7c0.8,2,0.7,4.2-0.2,6.1c-1.2,2.6-3.9,2-5.4-0.2c-1.3-2-2.3-5.8-0.3-7.6
		C174.8,21.1,177.6,22.2,178.6,24.7z"/>
	<path class="st1" d="M198.1,21.9c-1.3,8.4-1.6,13.3-6.3,17.3c-7,5.9-17,1.1-18.2-7.5c-1.1-7.7,1.2-20.1,9.8-22.7
		c6.1-1.9,12.5,1.5,14.4,7.6C198.3,18.4,198.4,20.2,198.1,21.9z"/>
	<path class="st2" d="M195.8,12.7c-3.7,1.7-6,5.9-3.6,9.4s-0.6,6.5-0.6,6.5l3.9,2.3c0,0,9-5.4,9.9-9.6
		C206.2,17.1,203.2,9.3,195.8,12.7z"/>
	<path class="st2" d="M199.8,12.1l1,0.9c2-0.9,4.4-0.6,6.1,0.9C205.2,10.9,201.4,11.2,199.8,12.1z"/>
	<path class="st2" d="M200,13.4c-3.4,2.4-19.4,4.8-24.9-0.2c-4.9-4.4-0.2-10.3,4.7-9s4.9-2.2,3.7-2.4c2.5-0.6,2.3,2.5,1.9,3.6
		c-0.3,0.7-1.4,2.6,1,1.6c3.5-1.5,8.9-2.2,12-1.2C202.2,7,202.9,11.4,200,13.4z"/>
	<path class="st1" d="M201,31.6c-1.3,1.7-3.2,2.8-5.3,3.1c-2.8,0.3-3.8-2.3-2.7-4.7c1-2.2,3.7-5,6.3-4.2c1.9,0.6,3,2.6,2.4,4.5
		C201.6,30.8,201.3,31.2,201,31.6z"/>
	<path class="st2" d="M185.1,23.1c-0.1,0.7-0.5,1.2-0.9,1.2c-0.4,0-0.8-0.6-0.7-1.3s0.5-1.2,0.9-1.2
		C184.8,21.8,185.2,22.4,185.1,23.1z"/>
	<path class="st2" d="M177.3,22.4c-0.1,0.7-0.5,1.2-0.9,1.2c-0.5,0-0.8-0.6-0.7-1.3c0.1-0.7,0.5-1.2,0.9-1.2S177.4,21.7,177.3,22.4z
		"/>
	<path class="st6" d="M179.8,23c-1,2-2.3,3.9-3.8,5.6c0.9,0.8,2.1,1.1,3.2,0.9L179.8,23z"/>
	<path class="st2" d="M181.9,31.5c-0.3,0-0.6,0-0.9,0c-0.1,0-0.2-0.1-0.2-0.2c0-0.1,0.1-0.2,0.2-0.2c1.7,0.2,3.4-0.4,4.6-1.7
		c0.1-0.1,0.2-0.1,0.3,0c0,0.1,0.1,0.1,0,0.2C184.9,30.8,183.4,31.5,181.9,31.5z"/>
	<path class="st2" d="M187.7,20.8c-0.1,0-0.3-0.1-0.4-0.2c-0.5-0.9-1.4-1.5-2.5-1.6c-0.2,0-0.4-0.2-0.4-0.4c0,0,0,0,0,0
		c0-0.2,0.2-0.4,0.4-0.4c1.3,0.1,2.5,0.8,3.1,2c0.1,0.2,0.1,0.4-0.1,0.5c0,0,0,0,0,0C187.8,20.8,187.8,20.8,187.7,20.8z"/>
	<path class="st2" d="M174.3,19.4c-0.1,0-0.2,0-0.2-0.1c-0.2-0.1-0.2-0.4-0.1-0.6c0,0,0,0,0,0c0.6-1.1,1.8-1.9,3.1-2
		c0.2,0,0.4,0.2,0.4,0.4c0,0,0,0,0,0c0,0.2-0.2,0.4-0.4,0.4c-1,0.1-1.9,0.7-2.4,1.6C174.5,19.3,174.4,19.4,174.3,19.4z"/>
	<polygon class="st1" points="147.6,322.5 139.6,321.9 143.2,301 151.1,301.6 	"/>
	<path class="st2" d="M138.7,317.6l10.2,1.9c0.3,0,0.5,0.3,0.5,0.6c0,0,0,0,0,0.1l-1.6,7.4c-0.2,0.8-1,1.3-1.9,1.2
		c-3.3-0.7-5.6-1.3-9.7-2.1c-2.6-0.5-8.6-1.3-12.1-2c-3.5-0.7-2.5-4.1-0.9-4.1c7.1-0.2,11-1.4,13.9-2.8
		C137.6,317.6,138.2,317.5,138.7,317.6z"/>
	<polygon class="st5" points="151.1,301.6 143.2,301 141.3,311.8 149.3,312.4 	"/>
	<path class="st2" d="M156.4,126.8c0,0-6.8,69.9-9.7,94.7c-3.1,27.2-7,84.3-7,84.3l13.3,0.5c0,0,9.1-52.8,13.6-79.1
		c5.1-30,19.3-98.8,19.3-98.8L156.4,126.8z"/>
	<path class="st5" d="M175.7,156.9c-6.5,8.3-7.3,35.8-5.8,51.8c2.6-13.8,5.8-29.9,8.6-44.1L175.7,156.9z"/>
	<polygon class="st0" points="137.5,308.4 152.9,309.9 154.6,304.6 138.2,302.6 	"/>
	<path class="st0" d="M136.5,318.7c-0.6-0.1-1.1-0.3-1.5-0.7c-0.2-0.3-0.3-0.7-0.2-1.1c0-0.2,0.2-0.4,0.4-0.5c1-0.3,3.4,1.9,3.7,2.1
		c0.1,0.1,0.1,0.2,0,0.3c0,0-0.1,0.1-0.1,0.1C138,318.9,137.3,318.8,136.5,318.7z M135.6,316.7c-0.1,0-0.2,0-0.3,0
		c-0.1,0-0.2,0.1-0.2,0.2c-0.1,0.3,0,0.6,0.1,0.8c0.9,0.6,1.9,0.9,3,0.7C137.5,317.7,136.6,317.1,135.6,316.7L135.6,316.7z"/>
	<path class="st0" d="M138.8,318.8L138.8,318.8c-0.9-0.6-2.2-2.8-1.9-3.7c0.1-0.3,0.4-0.5,0.7-0.4c0.3,0,0.6,0.2,0.8,0.4
		c0.8,1,0.6,3.4,0.6,3.5c0,0.1-0.1,0.1-0.1,0.2L138.8,318.8z M137.7,315.1L137.7,315.1c-0.4,0-0.4,0.1-0.4,0.1
		c-0.2,0.5,0.6,2.1,1.3,2.9c0.1-1-0.1-1.9-0.5-2.8C138,315.2,137.8,315.1,137.7,315.1L137.7,315.1z"/>
	<polygon class="st1" points="203.5,321.6 194.9,321.6 193.3,301.9 201.8,301.9 	"/>
	<path class="st2" d="M193.9,319.5h10.4c0.3,0,0.6,0.2,0.7,0.6l1.7,7.6c0.1,0.7-0.3,1.3-1,1.5c-0.1,0-0.2,0-0.3,0
		c-3.3-0.1-5.8-0.3-10-0.3c-2.6,0-9,0.3-12.6,0.3c-3.6,0-4-3.5-2.6-3.9c6.5-1.4,10.2-3.4,12.3-5.3
		C192.8,319.7,193.3,319.5,193.9,319.5z"/>
	<polygon class="st5" points="201.9,301.9 193.3,301.9 194.1,312.1 202.7,312.1 	"/>
	<path class="st2" d="M172.5,127.6c0,0,5.7,72.9,8.7,97.7c3.3,27.2,10.2,80.5,10.2,80.5l13.3,0.5c0,0-1-53.5-2.8-80.1
		c-2.1-30.3,0-97,0-97L172.5,127.6z"/>
	<polygon class="st0" points="190.7,309.2 205.6,309.2 205.6,303.7 189,303.4 	"/>
	<path class="st0" d="M191,320.9c-0.6,0-1.2-0.1-1.6-0.4c-0.3-0.3-0.5-0.7-0.4-1.1c0-0.2,0.1-0.5,0.3-0.6c0.9-0.5,3.7,1.2,4,1.4
		c0.1,0,0.1,0.1,0.1,0.2c0,0.1-0.1,0.1-0.2,0.2C192.5,320.8,191.8,320.9,191,320.9z M189.8,319.2c-0.1,0-0.2,0-0.3,0
		c-0.1,0-0.1,0.1-0.1,0.2c0,0.3,0.1,0.5,0.3,0.7c1,0.4,2,0.5,3,0.2C191.8,319.7,190.8,319.4,189.8,319.2z"/>
	<path class="st0" d="M193.2,320.6L193.2,320.6c-1-0.5-2.7-2.4-2.5-3.3c0.1-0.3,0.3-0.5,0.6-0.5c0.3,0,0.6,0,0.9,0.3
		c1,0.8,1.2,3.3,1.2,3.4c0,0.1,0,0.1-0.1,0.2C193.3,320.7,193.3,320.7,193.2,320.6z M191.5,317.2L191.5,317.2
		c-0.4,0-0.4,0.2-0.4,0.2c-0.1,0.6,1,2,1.9,2.6c-0.1-1-0.4-1.9-1-2.7C191.8,317.2,191.7,317.2,191.5,317.2L191.5,317.2z"/>
	<path class="st0" d="M195.9,50.7c0,0-7.2,20.4-9.8,50s-5.4,91.3-3.1,109.1c16.3-2.4,25.7-8,25.7-8s-5.7-74.6-3.3-94.6
		c2.1-17.7,5.6-36.8,7.2-45.6c0.6-3.2-1.3-6.4-4.4-7.3L195.9,50.7z"/>
	<polygon class="st3" points="203,76.2 193.2,74.2 193.3,72.8 203.1,74.7 	"/>
	<path class="st0" d="M179.3,50.1c-4.6,19.5-8.2,39.1-10.6,59c-3.4,29.6-6.4,81.4-9.7,99.3c-11.1-0.7-16.2-7-16.2-7s6.5-77.9,9-97.9
		c2.3-18.4,6.1-37.8,7.9-46.7c0.6-2.9,3-5.1,6-5.4L179.3,50.1z"/>
	<path class="st2" d="M184,58.4l-1.3,1.6l-8.8,40c0.7,4.9,1.7,9.7,3,14.5c3.5-8.6,5.9-13.5,5.9-13.5l1.9-41.4L184,58.4z"/>
</g>
</svg>
