<?xml version="1.0" encoding="utf-8"?>
<!-- Generator: Adobe Illustrator 24.0.1, SVG Export Plug-In . SVG Version: 6.00 Build 0)  -->
<svg version="1.1" id="Camada_1" xmlns="http://www.w3.org/2000/svg" xmlns:xlink="http://www.w3.org/1999/xlink" x="0px" y="0px"
	 viewBox="0 0 436 337" style="enable-background:new 0 0 436 337;" xml:space="preserve">
<style type="text/css">
	.st0{fill:#263238;}
	.st1{opacity:0.4;fill:#FFFFFF;enable-background:new    ;}
	.st2{opacity:0.2;enable-background:new    ;}
	.st3{opacity:0.5;fill:#FFFFFF;enable-background:new    ;}
	.st4{fill:#407BFF;}
	.st5{opacity:0.6;fill:#FFFFFF;enable-background:new    ;}
	.st6{fill:#EBB376;}
	.st7{opacity:0.2;fill:#FFFFFF;enable-background:new    ;}
	.st8{opacity:0.8;fill:#FFFFFF;enable-background:new    ;}
	.st9{fill:#D58745;}
	.st10{fill:none;stroke:#263238;stroke-width:0.5942;stroke-linecap:round;stroke-linejoin:round;}
	.st11{opacity:0.3;enable-background:new    ;}
	.st12{opacity:0.7;fill:#FFFFFF;enable-background:new    ;}
	.st13{fill:#1774BA;}
	.st14{opacity:0.9;fill:#FFFFFF;enable-background:new    ;}
	.st15{opacity:0.2;}
	.st16{opacity:0.1;fill:#FFFFFF;enable-background:new    ;}
	.st17{opacity:0.3;fill:#FFFFFF;enable-background:new    ;}
</style>
<g>
	<g id="freepik--Character--inject-3">
		<polygon class="st0" points="77.2,236.9 76.8,254.5 74.9,334 68.8,334 67,254.5 66.6,236.9 		"/>
		<polygon class="st1" points="77.2,236.9 76.8,254.5 74.9,334 68.8,334 67,254.5 66.6,236.9 		"/>
		<polygon class="st2" points="77.2,236.9 76.8,254.9 67,254.9 66.6,236.9 		"/>
		<polygon class="st0" points="110.4,333.7 104.7,238.1 95.5,238.1 103.4,333.7 		"/>
		<polygon class="st3" points="103.4,333.7 110.4,333.7 105.2,246.7 104.7,238 95.5,238 96.2,246.7 		"/>
		<polygon class="st2" points="95.5,238 96.2,247 105.2,247 104.7,238 		"/>
		<polygon class="st0" points="40.4,333.7 48.3,238.1 39.1,238.1 33.4,333.7 		"/>
		<polygon class="st3" points="40.4,333.7 47.6,246.7 48.3,238 39.1,238 38.5,246.7 33.4,333.7 		"/>
		<polygon class="st2" points="48.3,238 47.6,247 38.5,247 39.1,238 		"/>
		<path class="st4" d="M39.8,228.2H104c3.1,0,5.6,2.5,5.6,5.6v7.6l0,0H34.1l0,0v-7.6C34.1,230.7,36.6,228.2,39.8,228.2L39.8,228.2z"
			/>
		<path class="st0" d="M32.8,234.8H111c1.3,0,2.3,1,2.3,2.3v2.1c0,1.3-1,2.3-2.3,2.3H32.8c-1.3,0-2.3-1-2.3-2.3v-2.1
			C30.5,235.8,31.5,234.8,32.8,234.8z"/>
		<path class="st5" d="M32.8,234.8H111c1.3,0,2.3,1,2.3,2.3v2.1c0,1.3-1,2.3-2.3,2.3H32.8c-1.3,0-2.3-1-2.3-2.3v-2.1
			C30.5,235.8,31.5,234.8,32.8,234.8z"/>
		<g id="freepik--group--inject-3">
			<path class="st6" d="M118.7,138.8c0,0,13.3,9,16,8.5c2.7-0.6,27.2-4.2,27.2-4.2l1.4,6.9c0,0-22.7,2.9-29.9,4.2
				c-7.2,1.3-19.7-6.5-19.7-6.5L118.7,138.8z"/>
			<path class="st4" d="M108.8,127.3c4.5,2.9,20.7,16.9,20.7,16.9l-7.8,11.1l-21.9-11.1L108.8,127.3z"/>
			<polygon class="st6" points="103.9,325.8 112.9,324.6 114.1,303.2 105.2,304.4 			"/>
			<polygon class="st2" points="105.2,304.4 114.1,303.2 113.4,315.4 104.4,316.2 			"/>
			<path class="st0" d="M104.3,200.1l-2.2-19.4l-50.4-3c0,0-5.4,34.3-1.2,41.9c7.3,13.5,47,6.8,58.6,8.1
				c-6.9,28.3-6.3,83.8-6.3,83.8l16.6,1.3c0,0,12.7-59.7,15.3-88.1C136.4,205.5,120.5,206,104.3,200.1z"/>
			<polygon class="st4" points="100.8,312.2 120.7,313.5 122.4,305 100.5,304 			"/>
			<polygon class="st6" points="124.6,317.8 133.7,318.5 139.4,297.9 130.3,297.2 			"/>
			<path class="st4" d="M135,318.9C135,318.9,135,318.9,135,318.9L135,318.9c0.8,0.5,1.6,0.8,2.3,1c0.6,0.2,1.2,0.2,1.8,0
				c0.4-0.2,0.6-0.6,0.6-1.1c0-0.3-0.1-0.5-0.3-0.7c-0.8-0.3-1.7-0.3-2.5-0.1c0.6-0.4,1.1-1.1,1.3-1.9c0-0.4-0.2-0.7-0.6-0.8
				c-0.3-0.1-0.6-0.1-0.9,0c-1.1,0.6-1.5,3.1-1.6,3.3l0,0h-0.2C134.9,318.8,134.9,318.9,135,318.9z M135.6,318.4l-0.2,0.1
				c0.2-0.8,0.7-2.3,1.3-2.6c0.2-0.1,0.3-0.1,0.5,0h0.1c0.3,0.1,0.3,0.3,0.3,0.4C137.6,316.9,136.5,317.9,135.6,318.4L135.6,318.4z
				 M135.6,318.9c1.2-0.4,2.9-0.7,3.4-0.3c0.1,0.1,0.2,0.2,0.1,0.4c0,0.3-0.1,0.5-0.4,0.7C138.3,319.9,137.1,319.6,135.6,318.9
				L135.6,318.9z"/>
			<polygon class="st2" points="130.3,297.2 139.4,297.9 136.1,309.7 127.2,308.6 			"/>
			<path class="st0" d="M142.4,308.2l-15.9-4.7c0,0,9.5-53.7,19.2-72.3c-0.7-0.2-1.7-0.5-2.9-0.9c-2.1-0.6-5-1.4-8.3-2.4
				c-23.2-6.4-70.1-18.5-70.1-18.5l21.5-18.9c0,0,85.4,11.9,87.2,34.4C173.9,235.8,142.4,308.2,142.4,308.2z"/>
			<polygon class="st4" points="124.4,303.9 143.6,309.3 147.1,301.3 125.9,295.8 			"/>
			<path class="st2" d="M142.8,230.3c-2.1-0.6-5-1.4-8.3-2.4c0.7-5.5,0.7-11.7-2-14.9c-5.2-6.4-18.7-10.1-26.3-11.5
				c-6.4-1.1-27.9-3.4-27.9-3.4s27.9-2.7,56.5,5.6C148.9,207.9,146.1,221.7,142.8,230.3z"/>
			<polygon class="st7" points="100.8,312.2 120.7,313.5 122.4,305 100.5,304 			"/>
			<polygon class="st7" points="124.4,303.9 143.6,309.3 147.1,301.3 125.9,295.8 			"/>
			<path class="st0" d="M134.6,317.6l-9.8-2.7c-0.3-0.1-0.7,0.1-0.8,0.4l0,0l-2.7,7.6c-0.2,0.9,0.3,1.7,1.1,2
				c3.4,0.9,5.1,1.1,9.4,2.3c2.7,0.7,7.8,2.4,11.6,2.9s4.1-3.3,2.5-3.8c-3.7-1.2-8.1-5.1-10.1-7.7
				C135.6,318.1,135.1,317.7,134.6,317.6z"/>
			<path class="st4" d="M113.8,324.6h0.2c0,0,0.2,0.1,0.2,0.1c0,0,0,0,0,0.1c0,0,0.1,0,0.1,0c0.8,0.2,1.6,0.4,2.4,0.5
				c0.6,0.1,1.2,0,1.7-0.3c0.3-0.3,0.4-0.7,0.3-1.1c0-0.3-0.2-0.5-0.5-0.6c-0.9-0.1-1.8,0-2.5,0.5c0.5-0.6,0.9-1.3,0.9-2.1
				c-0.1-0.4-0.4-0.7-0.8-0.7c-0.4-0.1-0.7,0-1,0.2C113.9,321.9,113.7,324.5,113.8,324.6L113.8,324.6L113.8,324.6z M114.8,324.1
				l-0.2,0.1c0-0.9,0.2-2.3,0.8-2.8c0.1-0.1,0.3-0.2,0.5-0.2h0.1c0.3,0.1,0.4,0.2,0.4,0.3C116.1,322.6,115.6,323.5,114.8,324.1
				L114.8,324.1z M114.9,324.5c1.1-0.6,2.6-1.3,3.2-1c0.1,0.1,0.2,0.2,0.2,0.3c0.1,0.3,0,0.6-0.2,0.7
				C117.7,325,116.5,324.9,114.9,324.5L114.9,324.5z"/>
			<path class="st0" d="M113.6,323.5l-10.2-0.6c-0.3,0-0.7,0.2-0.7,0.5c0,0,0,0,0,0l0,0l-1,8c-0.1,0.9,0.6,1.7,1.5,1.7c0,0,0,0,0,0
				c3.5,0.2,5.2,0.1,9.7,0.3c2.7,0.2,8.2,0.7,11.9,0.4c3.8-0.4,3.3-4.1,1.7-4.3c-3.9-0.5-9-3.3-11.4-5.5
				C114.7,323.7,114.1,323.5,113.6,323.5z"/>
			<path class="st4" d="M108.8,127.3c0,0-7.3-6.5-20.7-9.2s-25.3,3.3-25.3,3.3s-8.9,21.5-12.8,58.7l53.6,4
				C103.6,184.1,101.3,158.9,108.8,127.3z"/>
			<path class="st8" d="M103.6,184c0,0-1.8-19.6,3-46c0.6-3.5,1.4-7,2.3-10.7c0,0-7.3-6.5-20.7-9.2s-25.3,3.3-25.3,3.3
				c-2.2,5.8-4.1,11.7-5.6,17.7c-3.4,13.4-5.8,27.1-7.2,40.9L103.6,184z"/>
			<path class="st4" d="M57.2,139.1c3.4,7.5,11.7,7.6,14.7,0.9c2.4-5.1,5.6-9.7,9.5-13.8c0,0,9.8,7.8,14.1,7.1
				c2.5-0.4,4.4-2.2,4.9-4.7c5.6,5.1,6.2,9,6.2,9.4c0.6-3.5,1.4-7,2.3-10.7c0,0-7.3-6.5-20.7-9.2s-25.3,3.3-25.3,3.3
				C60.5,127.1,58.7,133.1,57.2,139.1z"/>
			<path class="st6" d="M73.3,136.4c6.1,16.5,4.9,16.4,37.4,6.8c1-0.9,2.2-1.7,3.4-2.4c1.3-0.5,12.5,2.6,13.2,3.5
				c0.7,0.9-2.3,6-3.4,6.5c-1.1,0.5-11.5,0-12.1,0c-0.6,0-1.6,0-1.6,0s-20.8,9.7-28.9,9.8S64.4,140,64.4,140L73.3,136.4z"/>
			<path class="st4" d="M62.8,121.4c-5.5,2.8-6.6,17,9.1,36.4l10.3-9.3c0,0-7.1-9.1-7.5-17.7C74.2,122.2,62.8,121.4,62.8,121.4z"/>
			<path class="st6" d="M91.2,98.9c-1.3,6.3-4.5,17.5-10.3,19.7c2,5.1,6,9.1,11,11.2c7.4,3.3,7.2-3.7,7.2-3.7
				c-5.9-4.3-3.7-9-0.7-13.1L91.2,98.9z"/>
			<path class="st2" d="M94.2,104.7l4.3,8.4c-0.7,0.9-1.4,1.9-1.9,3c-2.3-1.4-4.6-5.5-3.8-8.3C93,106.7,93.5,105.6,94.2,104.7z"/>
			<path class="st0" d="M104.7,87.5c-3.7,2-2.5,6.2,4.8,13.3c3.6-3.9,4.9-11.9,2.6-14.2C109.7,84.3,108,85.7,104.7,87.5z"/>
			<path class="st6" d="M89.1,92.5c-0.5,8.6-1.1,13.5,2.7,18.5c5.7,7.3,16.7,4.6,19.7-3.7c2.7-7.4,3-20.2-5-24.6
				c-5.7-3.1-12.8-1.1-16,4.6C89.6,89,89.1,90.7,89.1,92.5z"/>
			<path class="st0" d="M101.5,96.3c-0.1,0.7,0.2,1.3,0.7,1.4s0.9-0.5,1-1.1c0.1-0.7-0.2-1.3-0.7-1.4S101.7,95.6,101.5,96.3z"/>
			<path class="st0" d="M109.4,97.2c-0.1,0.7,0.2,1.3,0.7,1.4c0.5,0,0.9-0.5,1-1.1s-0.2-1.3-0.7-1.4C109.9,96,109.5,96.5,109.4,97.2
				z"/>
			<path class="st9" d="M106.8,97.3c0.6,2.2,1.5,4.3,2.6,6.3c-1,0.6-2.3,0.7-3.4,0.2L106.8,97.3z"/>
			<path class="st0" d="M99.7,93.6c-0.1,0-0.2,0-0.2-0.1c-0.2-0.2-0.2-0.4,0-0.6c0.9-1,2.2-1.5,3.5-1.3c0.2,0,0.4,0.2,0.3,0.4
				c0,0,0,0,0,0l0,0c-0.1,0.2-0.3,0.4-0.5,0.3l0,0c-1-0.1-2.1,0.3-2.8,1.1C99.9,93.5,99.8,93.6,99.7,93.6z"/>
			<path class="st0" d="M113.4,94.9c-0.2,0-0.3-0.1-0.3-0.3c-0.3-1-1.1-1.8-2.1-2.1c-0.2-0.1-0.3-0.3-0.3-0.5c0,0,0,0,0,0
				c0.1-0.2,0.3-0.3,0.5-0.3c1.3,0.4,2.3,1.4,2.7,2.6c0.1,0.2,0,0.4-0.2,0.5l0,0C113.5,94.9,113.4,95,113.4,94.9z"/>
			<path class="st0" d="M93.3,85.4c3.8,1.8,2.8,6.1-4.1,13.5c-3.8-3.7-5.6-11.6-3.4-14S90,83.8,93.3,85.4z"/>
			<path class="st6" d="M84.2,98.9c0.4,2.1,1.5,4,3.3,5.3c2.3,1.6,4.5-0.2,4.6-2.9c0.1-2.4-0.9-6.2-3.7-6.8S83.8,96.3,84.2,98.9z"/>
			<path class="st10" d="M99.5,104.6c1,2,3.1,3.2,5.4,3.2"/>
			<path class="st0" d="M94.4,87.8c0,0,10.2-5.5,17.3,0c0,0,4-4.7,1.6-9.8c-2.4-5.2-18.8-2.7-23.3-0.8c-7.9,3.3-1.9,12.1-1.9,12.1
				L94.4,87.8z"/>
			<path class="st0" d="M180.4,148.8v3c0,0.9-1.5,1.5-2.4,1.5h-69.8c-0.9,0-2.3-0.6-2.3-1.5v-3H180.4z"/>
			<path class="st11" d="M180.4,148.8v3c0,0.9-1.5,1.5-2.4,1.5h-46c-0.9,0-2.4-0.6-2.4-1.5v-3H180.4z"/>
			<path class="st0" d="M191.6,112.1l-8.3,37.8c-0.3,1.3-1.4,2.2-2.7,2.3h-45.4c-1.1-0.1-1.9-1.1-1.8-2.1c0-0.1,0-0.3,0.1-0.4
				l8.3-37.4c0.3-1.2,1.5-2,2.7-1.9h45.4C191.1,110.4,191.9,110.9,191.6,112.1z"/>
			<path class="st7" d="M191.6,112.1l-8.3,37.8c-0.3,1.3-1.4,2.2-2.7,2.3h-43.8c-1.1-0.1-1.9-1.1-1.8-2.1c0-0.1,0-0.3,0.1-0.4
				l8.3-37.4c0.3-1.2,1.5-2,2.7-1.9h43.8C191.1,110.4,191.9,110.9,191.6,112.1z"/>
			<path class="st3" d="M164.9,136.4c2.1,0,4.3-2.3,4.8-5.1c0.6-2.8-0.7-5.1-2.8-5.1c-0.4,0-0.8,0.1-1.1,0.2c-0.4,2-1.7,3.7-3.6,4.6
				c0,0.1,0,0.2,0,0.2C161.5,134.1,162.8,136.4,164.9,136.4z"/>
		</g>
		<polygon points="158.8,334 151.9,334 150.8,160.9 159.9,160.9 		"/>
		<polygon class="st5" points="160,161.2 159.8,189.1 158.8,334 151.9,334 151,189.1 150.8,161.2 		"/>
		<polygon class="st2" points="160,161.2 159.8,189.5 151,189.5 150.8,161.2 		"/>
		<polygon points="232.3,334 225.3,334 212.9,160.9 222.1,160.9 		"/>
		<polygon class="st12" points="232.3,334 225.3,334 213.5,169.5 212.9,161.2 222.1,161.2 222.6,169.5 		"/>
		<polygon class="st2" points="222.6,169.1 213.5,169.1 212.9,161.2 222.1,161.2 		"/>
		<polygon points="85.4,334 78.5,334 88.6,160.9 97.8,160.9 		"/>
		<polygon class="st12" points="97.8,161.2 97.2,169.5 85.4,334 78.5,334 88.1,169.5 88.6,161.2 		"/>
		<polygon class="st2" points="88.6,161.2 97.8,161.2 97.2,169.1 88.1,169.1 		"/>
		<path d="M81.4,156.6h148l0,0v6.2c0,1.3-1.1,2.4-2.4,2.4l0,0H83.8c-1.3,0-2.4-1.1-2.4-2.4l0,0C81.4,162.8,81.4,156.6,81.4,156.6z"
			/>
		<path class="st8" d="M81.4,156.6h148l0,0v6.2c0,1.3-1.1,2.4-2.4,2.4l0,0H83.8c-1.3,0-2.4-1.1-2.4-2.4l0,0
			C81.4,162.8,81.4,156.6,81.4,156.6z"/>
		<rect x="81.4" y="156.6" class="st2" width="148" height="4.3"/>
		<path d="M233.7,157.8H77.1c-1.3,0-2.4-1.1-2.4-2.5l0,0c0-1.3,1.1-2.4,2.4-2.4h0h156.6c1.3,0,2.4,1.1,2.4,2.4l0,0l0,0
			C236.1,156.7,235,157.7,233.7,157.8z"/>
		<path class="st8" d="M233.7,157.8H77.1c-1.3,0-2.4-1.1-2.4-2.5l0,0c0-1.3,1.1-2.4,2.4-2.4h0h156.6c1.3,0,2.4,1.1,2.4,2.4l0,0l0,0
			C236.1,156.7,235,157.7,233.7,157.8z"/>
	</g>
	<path class="st13" d="M113.8,31.4H92.7c-3.6,0-6.5,2.7-6.5,6.1c0,0,0,0,0,0v20.2c0,3.4,2.9,6.2,6.5,6.2h8.4l2.2,5.5l2.2-5.5h8.4
		c3.6,0,6.5-2.8,6.5-6.2V37.6C120.3,34.2,117.4,31.4,113.8,31.4z"/>
	<path class="st1" d="M113.8,31.4H92.7c-3.6,0-6.5,2.7-6.5,6.1c0,0,0,0,0,0v20.2c0,3.4,2.9,6.2,6.5,6.2h8.4l2.2,5.5l2.2-5.5h8.4
		c3.6,0,6.5-2.8,6.5-6.2V37.6C120.3,34.2,117.4,31.4,113.8,31.4z"/>
	<ellipse transform="matrix(1 -6.556394e-03 6.556394e-03 1 -0.3801 0.6788)" class="st0" cx="103.3" cy="58.3" rx="3.5" ry="2"/>
	<ellipse transform="matrix(1 -6.556394e-03 6.556394e-03 1 -0.3801 0.6788)" class="st1" cx="103.3" cy="58.3" rx="3.5" ry="2"/>
	<path class="st0" d="M108.4,54.7c0.2-0.2,0.3-0.4,0.3-0.7c0-1.1-2.4-1.9-5.4-1.9c-3,0-5.3,0.9-5.3,2c0,0.2,0.1,0.5,0.3,0.6
		c-0.1,0.1-0.1,0.2-0.1,0.3c0,0.2,0.1,0.5,0.3,0.6c-0.1,0.1-0.1,0.2-0.1,0.3c0,0.2,0.1,0.5,0.3,0.6c-0.1,0.1-0.1,0.2-0.1,0.4
		c0,0.2,0.1,0.5,0.3,0.6c-0.1,0.1-0.1,0.2-0.1,0.4c0,0.9,2,1.6,4.5,1.6s4.4-0.8,4.4-1.6c0-0.1,0-0.2-0.1-0.4
		c0.2-0.2,0.3-0.4,0.3-0.6c0-0.1,0-0.2-0.1-0.4c0.3-0.2,0.4-0.6,0.2-1c0.2-0.2,0.3-0.4,0.3-0.6C108.5,54.9,108.4,54.8,108.4,54.7z"
		/>
	<path class="st4" d="M112.7,45.2c0-4.9-4.3-8.9-9.5-8.9c-5.2,0-9.5,4-9.4,9c0,2.7,1.3,5.3,3.6,7c0.4,0.3,0.6,0.8,0.6,1.3
		c0,0,0,0,0,0.1c0,1.1,2.4,1.9,5.5,1.9s5.4-0.9,5.4-2v-0.1c0-0.5,0.2-1,0.6-1.3C111.5,50.4,112.8,47.8,112.7,45.2z"/>
	<path class="st14" d="M112.7,45.2c0-4.9-4.3-8.9-9.5-8.9c-5.2,0-9.5,4-9.4,9c0,2.7,1.3,5.3,3.6,7c0.4,0.3,0.6,0.8,0.6,1.3
		c0,0,0,0,0,0.1c0,1.1,2.4,1.9,5.5,1.9s5.4-0.9,5.4-2v-0.1c0-0.5,0.2-1,0.6-1.3C111.5,50.4,112.8,47.8,112.7,45.2z"/>
	<g class="st15">
		<path d="M101.4,54.2c-0.2,0-0.3-0.1-0.3-0.3l0,0c0-3.1-2.7-5.4-2.7-5.5c-0.1-0.1-0.1-0.3,0-0.5c0.1-0.1,0.1-0.1,0.2-0.1h1.6
			l0.5-1.1c0-0.1,0.2-0.2,0.3-0.2c0.1,0,0.3,0.1,0.3,0.2l0.9,1.5l0.8-1.5c0.1-0.1,0.2-0.2,0.3-0.2c0.1,0,0.2,0.1,0.3,0.2l0.9,1.7
			l0.8-1.7c0.1-0.1,0.2-0.2,0.3-0.2c0.1,0,0.3,0.1,0.3,0.2l0.5,1.1h1.6l0,0c0.2,0,0.3,0.1,0.3,0.2c0,0.1,0,0.3-0.1,0.4
			c-2.2,1.2-2.8,5.5-2.9,5.5c0,0.2-0.2,0.3-0.4,0.2c-0.2,0-0.3-0.2-0.3-0.3c0-0.2,0.5-3.6,2.4-5.4h-0.8c-0.1,0-0.3-0.1-0.3-0.2
			l-0.3-0.6l-0.8,1.7c-0.1,0.1-0.2,0.2-0.3,0.2c-0.1,0-0.2-0.1-0.3-0.2l-0.9-1.7l-0.8,1.5c-0.1,0.1-0.2,0.2-0.3,0.2
			c-0.1,0-0.2-0.1-0.3-0.2l-0.8-1.5l-0.3,0.7c-0.1,0.1-0.2,0.2-0.3,0.2h-1c1.4,1.5,2.3,3.4,2.4,5.4
			C101.7,54.1,101.5,54.3,101.4,54.2L101.4,54.2z"/>
	</g>
	<path class="st4" d="M195.5,90.6l13.4-30.5l-17.5-6.8c1.8-0.7,3.1-2.2,3.5-4c0.5-2.1-0.4-4.3-2.2-5.5c-1.2-0.8-2.8-1.1-4.2-0.7
		c-2.4-0.1-4.6,1.3-5.5,3.4c-0.5,1.1-0.6,2.3-0.3,3.4l-15.7-6.1l-1.5,0.1L152,74.3l17.5,6.8c-1.8,0.7-3.1,2.2-3.5,4
		c-0.5,2.1,0.4,4.3,2.2,5.5c1.2,0.8,2.8,1.1,4.2,0.7c2.4,0.1,4.6-1.3,5.5-3.4c0.5-1.1,0.6-2.3,0.3-3.4l15.7,6.1L195.5,90.6z"/>
	<path class="st11" d="M195.5,90.6l13.4-30.5l-17.5-6.8c1.8-0.7,3.1-2.2,3.5-4c0.5-2.1-0.4-4.3-2.2-5.5c-1.2-0.8-2.8-1.1-4.2-0.7
		c-2.4-0.1-4.6,1.3-5.5,3.4c-0.5,1.1-0.6,2.3-0.3,3.4l-15.7-6.1l-1.5,0.1L152,74.3l17.5,6.8c-1.8,0.7-3.1,2.2-3.5,4
		c-0.5,2.1,0.4,4.3,2.2,5.5c1.2,0.8,2.8,1.1,4.2,0.7c2.4,0.1,4.6-1.3,5.5-3.4c0.5-1.1,0.6-2.3,0.3-3.4l15.7,6.1L195.5,90.6z"/>
	<path class="st4" d="M208.8,60.2l-17.5-6.8c1.8-0.7,3.1-2.2,3.5-4c0.8-2.8-1-5.6-3.9-6.3c-2.8-0.7-5.7,0.8-6.6,3.3
		c-0.6,1.4-0.6,2.9,0,4.2l-17.5-6.8l-13.4,30.5l17.5,6.9c-1.8,0.7-3.1,2.2-3.5,4c-0.7,2.8,1.1,5.6,4,6.2c2.7,0.6,5.5-0.8,6.4-3.3
		c0.6-1.4,0.6-2.9,0-4.2l17.5,6.8L208.8,60.2z"/>
</g>
<g>
	<g id="freepik--Bars--inject-31">
		<path class="st4" d="M397,133.9h-47.1c-2.2,0-4,1.7-4,3.8l0,0v196.2H401V137.7C401,135.6,399.2,133.9,397,133.9
			C397,133.9,397,133.9,397,133.9z"/>
		<path class="st16" d="M397,133.9h-47.1c-2.2,0-4,1.7-4,3.8l0,0v196.2H401V137.7C401,135.6,399.2,133.9,397,133.9
			C397,133.9,397,133.9,397,133.9z"/>
		<path class="st17" d="M349.9,133.9h44.5c2.2,0,4,1.7,4,3.8l0,0v196.2l0,0h-52.5l0,0V137.7C345.9,135.6,347.7,133.9,349.9,133.9z"
			/>
		<path class="st4" d="M317.5,199.1h-47.1c-2.2,0-4,1.7-4,3.8v34.6h24.4c-1.3-1.2-2-2.8-1.9-4.5c0-2.9,2.1-5.4,5.1-6.1
			c3,0.6,5.1,3.2,5,6.1c0,1.7-0.7,3.3-1.9,4.5h24.4v-34.6C321.5,200.8,319.7,199.1,317.5,199.1C317.5,199.1,317.5,199.1,317.5,199.1
			z"/>
		<path class="st4" d="M299.6,274.9h-2.6c1.2,1.2,1.9,2.8,1.9,4.5c0,2.9-2.1,5.4-5,6.1c-3-0.6-5.1-3.2-5.1-6.1
			c0-1.7,0.7-3.3,1.9-4.5h-24.4v59h55.1v-59H299.6z"/>
		<path class="st16" d="M317.5,199.1h-47.1c-2.2,0-4,1.7-4,3.8v34.6h24.4c-1.3-1.2-2-2.8-1.9-4.5c0-2.9,2.1-5.4,5.1-6.1
			c3,0.6,5.1,3.2,5,6.1c0,1.7-0.7,3.3-1.9,4.5h24.4v-34.6C321.5,200.8,319.7,199.1,317.5,199.1C317.5,199.1,317.5,199.1,317.5,199.1
			z"/>
		<path class="st16" d="M299.6,274.9h-2.6c1.2,1.2,1.9,2.8,1.9,4.5c0,2.9-2.1,5.4-5,6.1c-3-0.6-5.1-3.2-5.1-6.1
			c0-1.7,0.7-3.3,1.9-4.5h-24.4v59h55.1v-59H299.6z"/>
		<path class="st17" d="M297.1,274.9c1.2,1.2,1.9,2.8,1.9,4.5c0.1,3.3-2.6,6.1-6.1,6.2c-3.5,0.1-6.4-2.5-6.6-5.8c0-0.1,0-0.3,0-0.4
			c0-1.7,0.7-3.3,1.9-4.5h-21.8v59h52.5v-59H297.1z"/>
		<path class="st17" d="M266.4,202.8v34.6h21.9c-1.3-1.2-2-2.8-1.9-4.5c-0.1-3.3,2.6-6.1,6.1-6.2c3.5-0.1,6.4,2.5,6.6,5.8
			c0,0.1,0,0.3,0,0.4c0,1.7-0.7,3.3-1.9,4.5h21.8v-34.6c0-2.1-1.8-3.8-4-3.8c0,0,0,0,0,0h-44.6C268.2,199.1,266.4,200.8,266.4,202.8
			z"/>
	</g>
	<path class="st4" d="M158.5,317.1h-47.1c-2.2,0-4,1.7-4,3.8c0,0,0,0,0,0v13h55.1v-13C162.5,318.8,160.8,317.1,158.5,317.1
		C158.5,317.1,158.5,317.1,158.5,317.1z"/>
	<path class="st16" d="M158.5,317.1h-47.1c-2.2,0-4,1.7-4,3.8c0,0,0,0,0,0v13h55.1v-13C162.5,318.8,160.8,317.1,158.5,317.1
		C158.5,317.1,158.5,317.1,158.5,317.1z"/>
	<path class="st17" d="M111.4,317.1H156c2.2,0,4,1.7,4,3.8l0,0v13l0,0h-52.5l0,0v-13C107.5,318.8,109.2,317.1,111.4,317.1z"/>
	<path class="st4" d="M238,276.9h-47.1c-2.2,0-4,1.7-4,3.8c0,0,0,0,0,0v53.3H242v-53.3C242,278.6,240.2,276.9,238,276.9z"/>
	<path class="st16" d="M238,276.9h-47.1c-2.2,0-4,1.7-4,3.8c0,0,0,0,0,0v53.3H242v-53.3C242,278.6,240.2,276.9,238,276.9z"/>
	<path class="st17" d="M190.9,276.9h44.5c2.2,0,4,1.7,4,3.8l0,0v53.3l0,0H187l0,0v-53.3C187,278.6,188.7,276.9,190.9,276.9z"/>
</g>
</svg>
