<?xml version="1.0" encoding="utf-8"?>
<!-- Generator: Adobe Illustrator 24.0.1, SVG Export Plug-In . SVG Version: 6.00 Build 0)  -->
<svg version="1.1"
	 id="Camada_1" xmlns:anim="urn:oasis:names:tc:opendocument:xmlns:animation:1.0" xmlns:ooo="http://xml.openoffice.org/svg/export" xmlns:presentation="http://sun.com/xmlns/staroffice/presentation" xmlns:smil="http://www.w3.org/2001/SMIL20/"
	 xmlns="http://www.w3.org/2000/svg" xmlns:xlink="http://www.w3.org/1999/xlink" x="0px" y="0px" viewBox="0 0 51.8 51.8"
	 style="enable-background:new 0 0 51.8 51.8;" xml:space="preserve">
<style type="text/css">
	.st0{fill-rule:evenodd;clip-rule:evenodd;fill:#FFFFFF;}
	.st1{fill:none;}
	.st2{fill:none;stroke:#CCDCEA;stroke-width:2.2394;stroke-linecap:round;stroke-linejoin:round;stroke-miterlimit:10;}
	.st3{fill:#79879B;}
	.st4{display:none;fill:#79879B;}
</style>
<circle class="st0" cx="26" cy="25.9" r="24.1"/>
<g>
	<g id="id2">
		<g id="bg-id2">
		</g>
		<g id="bo-id2">
		</g>
	</g>
</g>
<rect class="st1" width="51.8" height="51.8"/>
<rect class="st1" width="51.8" height="51.8"/>
<path class="st2" d="M49.9,25.9c0,4.4-1,8.2-3.2,12c-2.2,3.8-4.9,6.6-8.8,8.8c-3.8,2.2-7.6,3.2-12,3.2c-4.4,0-8.2-1-12-3.2
	c-3.8-2.2-6.6-4.9-8.8-8.8c-2.2-3.8-3.2-7.6-3.2-12c0-4.4,1-8.2,3.2-12C7.3,10,10,7.3,13.9,5.1c3.8-2.2,7.6-3.2,12-3.2
	c4.4,0,8.2,1,12,3.2c3.8,2.2,6.6,4.9,8.8,8.8C48.8,17.7,49.9,21.5,49.9,25.9L49.9,25.9z"/>
<path class="st3" d="M22.1,18.8c-1,0-1.9,0.8-1.9,1.9s0.8,1.9,1.9,1.9s1.9-0.8,1.9-1.9S23.1,18.8,22.1,18.8z M38.9,24.6L28.5,14.2
	c-0.2-0.2-0.5-0.4-0.9-0.4H16.5c-0.7,0-1.2,0.6-1.2,1.2v11.1c0,0.3,0.1,0.6,0.4,0.9l10.4,10.4c1.4,1.4,3.8,1.4,5.2,0l7.6-7.6
	C40.4,28.5,40.4,26.1,38.9,24.6L38.9,24.6z M37.2,28.1L37.2,28.1l-7.6,7.6c-0.5,0.5-1.3,0.5-1.7,0l-10-10v-9.4h9.4l10,10
	c0.2,0.2,0.4,0.5,0.4,0.9C37.5,27.6,37.4,27.9,37.2,28.1z"/>
<path class="st4" d="M26.2,13.9c-3.2,0-6.2,1.2-8.5,3.4v-2.2c0-0.7-0.6-1.2-1.2-1.2c-0.7,0-1.2,0.6-1.2,1.2v5.6
	c0,0.7,0.6,1.2,1.2,1.2H22c0.7,0,1.2-0.6,1.2-1.2c0-0.7-0.6-1.2-1.2-1.2h-3c3.8-3.9,10-4.1,14-0.3s4.1,10,0.3,14s-10,4.1-14,0.3
	c-2-1.9-3.1-4.5-3.1-7.2c0-0.7-0.6-1.2-1.2-1.2s-1.2,0.6-1.2,1.2c0,6.8,5.5,12.4,12.4,12.4S38.5,33,38.5,26.2S33,13.9,26.2,13.9z
	 M26.2,21.3c-0.7,0-1.2,0.6-1.2,1.2v3.7c0,0.7,0.6,1.2,1.2,1.2h2.5c0.7,0,1.2-0.6,1.2-1.2S29.3,25,28.6,25h-1.2v-2.5
	C27.4,21.8,26.9,21.3,26.2,21.3z"/>
</svg>
