<?xml version="1.0" encoding="utf-8"?>
<!-- Generator: Adobe Illustrator 24.0.1, SVG Export Plug-In . SVG Version: 6.00 Build 0)  -->
<svg version="1.1" id="Camada_1"
	xmlns="http://www.w3.org/2000/svg"
	xmlns:xlink="http://www.w3.org/1999/xlink" x="0px" y="0px" viewBox="0 0 500 500" style="enable-background:new 0 0 500 500;" xml:space="preserve">
	<style type="text/css">
	.st0{fill-rule:evenodd;clip-rule:evenodd;fill:#153A4C;}
	.st1{fill-rule:evenodd;clip-rule:evenodd;fill:#205F98;}
	.st2{fill-rule:evenodd;clip-rule:evenodd;fill:#5197D2;}
	.st3{fill-rule:evenodd;clip-rule:evenodd;fill:#14384A;}
	.st4{fill-rule:evenodd;clip-rule:evenodd;fill:#1C649A;}
	</style>
	<path class="st0" d="M284,113.1h1l23.4,92.4c-16.3,4.6-32.7,9-49.1,13L284,113.1z"/>
	<path class="st1" d="M400.6,182.3l-0.4,0.2l0,0L400.6,182.3L400.6,182.3z M427.7,167.3l29.9-54.6H312.7l12.4,48.8l53.1,0.1
	l-14.9,27.5C384.7,182.2,406.2,174.9,427.7,167.3z"/>
	<path class="st0" d="M400.6,182.3l-0.4,0.2l0,0L400.6,182.3L400.6,182.3z M404.2,112.7c-30.5,0-61,0-91.6,0l12.4,48.8l53.1,0.1
	C386.9,145.3,395.6,129,404.2,112.7z"/>
	<path class="st0" d="M167.2,113.1h0.9l28.9,119.3c-17,3.4-34,6.4-50.9,9L141,220L167.2,113.1z"/>
	<path class="st1" d="M114.1,113.1h53.1L135.3,243c-18.2,2.6-36.5,4.8-54.7,6.6L114.1,113.1z"/>
	<path class="st2" d="M124.1,288.8l-9.8,39.8H61.2l6.4-25.9C87.2,298,106.1,293.4,124.1,288.8L124.1,288.8z M251.5,251.9l-17.9,76.6
	h-13.2h-39.9h-13.2l-11.7-48.1C190.7,270.9,222.5,261.4,251.5,251.9L251.5,251.9z M440.9,328.4L428,278.9h-61.6l51.5-93.8
	c-21.1,10.5-44.1,20.9-69.6,31.4L323,263.1l-8.4-33.3c-15.3,5.8-31.5,11.6-48.7,17.4l20.6,81.3h53.1l0-0.1H440.9z"/>
	<path class="st1" d="M230.9,113.1H284l-24.7,105.4c-18.7,4.6-37.4,8.8-56.1,12.6L230.9,113.1z"/>
	<path class="st1" d="M7.6,282.1c165.3-12.5,328.4-68.5,492.4-142c-161.7,63.5-323.3,109-486.3,113.5L7.6,282.1z"/>
	<path class="st2" d="M0,317.8c278.8-59.7,401.1-118.7,500-177.7c-164,73.4-327.1,129.4-492.4,142L0,317.8z"/>
	<path class="st3" d="M73.1,345.5c0,21.3,0,42.6,0,64c4.3,0,8.7,0,13,0c0-8.2,0-16.3,0-24.5c5.8,7.8,11.6,15.6,17.4,23.4
	c6-8,11.9-15.9,17.9-23.9c0,8.1,0,16.3,0,24.4c4.4,0,8.8,0,13.2,0c0-21,0-42.1,0-63.1c-10.3,13.2-20.6,26.5-30.9,39.7
	C93.5,372.2,83.3,358.9,73.1,345.5z"/>
	<path class="st3" d="M143.7,408.6c0-17.2,0-34.3,0-51.5c9.9,0,19.8,0,29.7,0c0,3.6,0,7.2,0,10.8c-6.5,0-13,0-19.5,0
	c0,3.3,0,6.5,0,9.8c5,0,10,0,15,0c0,3.3,0,6.6,0,9.9c-4.9,0-9.8,0-14.7,0c0,3.5,0,7,0,10.5c6.4,0,12.9,0,19.3,0c0,3.5,0,7,0,10.5
	C163.6,408.7,153.6,408.7,143.7,408.6z"/>
	<path class="st3" d="M218.1,372.3c2.5-2.5,4.9-4.9,7.4-7.4c-1.2-1.5-3.3-3.6-6.4-5.3c-5.4-2.9-10.5-2.7-12.6-2.6
	c-5.9,0.3-10,2.7-11.2,3.4c-0.7,0.4-3.4,2.1-6.1,5.2c-0.3,0.4-1.8,2.1-3.3,4.8c-0.8,1.4-2.2,4.1-3.1,7.8c-0.4,1.8-1.4,6.5,0.2,11.9
	c0.9,3.1,2.2,5.4,2.9,6.5c0.4,0.7,1.5,2.3,3.1,4.2c0.5,0.6,2,2.3,4.1,3.9c4.7,3.6,9.7,4.6,10.8,4.7c5.4,0.9,9.6-0.2,10.5-0.5
	c3.2-1,5.4-2.4,6.9-3.4c1.7-1.1,4.3-3,6.7-6.3c2.6-3.7,3.4-7.2,3.9-9.5c1-4.7,0.7-8.7,0.2-11.6c-8.3,0-16.5,0-24.8-0.1
	c0.1,3.2,0.2,6.5,0.3,9.7c4.9,0,9.8,0,14.7,0.1c-0.5,1.5-2,4.8-5.5,7.4c-0.9,0.7-6.4,4.6-12.9,2.7c-4.6-1.4-7-4.9-8-6.3
	c-1-1.4-3.4-5.1-3-10.1c0.4-5,3.3-8.2,4.3-9.3c1.2-1.3,5.3-5.6,11.4-5.1C214.2,367.4,217.5,371.6,218.1,372.3z"/>
	<path class="st3" d="M260.9,357c-7.7,17.4-15.3,34.9-23,52.3c3.9,0,7.7,0,11.6,0c1.2-2.7,2.4-5.4,3.6-8c5.4,0,10.8,0,16.2,0
	c1,2.4,2,4.8,3,7.3c3.9,0,7.8,0,11.7,0C276.3,391.3,268.6,374.1,260.9,357z M255.3,391.9c2-4.7,4.1-9.4,6.1-14.1
	c2.1,4.7,4.2,9.4,6.2,14.1C263.5,391.9,259.4,391.9,255.3,391.9z"/>
	<path class="st4" d="M364.7,357c-7.7,17.4-15.3,34.9-23,52.3c3.9,0,7.7,0,11.6,0c1.2-2.7,2.4-5.4,3.6-8c5.4,0,10.8,0,16.2,0
	c1,2.4,2,4.8,3,7.3c3.9,0,7.8,0,11.7,0C380.1,391.3,372.4,374.1,364.7,357z M359.2,391.9c2-4.7,4.1-9.4,6.1-14.1
	c2.1,4.7,4.2,9.4,6.2,14.1C367.4,391.9,363.3,391.9,359.2,391.9z"/>
	<path class="st4" d="M289.5,345.6c0,4,0,7.9,0,11.9c7.9,0,15.8,0,23.8,0c-7.9,17.1-15.8,34.3-23.8,51.4c14.3,0,28.6,0,42.8,0
	c0-4.5,0-9,0-13.4c-7.7,0-15.4,0-23.2,0c8-16.8,16-33.6,23.9-50.4C318.6,345.2,304.1,345.4,289.5,345.6z"/>
	<path class="st4" d="M428.5,373.3c-0.2-1.4-1.1-9.2-7.8-13.5c-2.5-1.6-4.9-2.1-6.5-2.3c-6.7,0-13.5,0-20.2,0c0,16.9,0,33.7,0,50.6
	c3.1,0.1,6.2,0.2,9.3,0.3c0-5,0-10,0-15.1c3,0.2,7.9,0.3,13.5-1.6c2.9-1,5.3-1.7,7.5-3.9C429.6,382.7,428.6,374.7,428.5,373.3z
	 M416.8,381.8c-2,1.6-4,2-6.6,2.5c-3,0.5-5.5,0.4-7.1,0.3c0.1-6.6,0.2-13.2,0.2-19.7c1.5-0.1,3.7-0.1,6.2,0.3c3.4,0.4,5,0.7,6.7,1.8
	c0.3,0.2,4.4,3.1,4.3,7.9C420.4,378.8,417.4,381.2,416.8,381.8z"/>
</svg>
